{
  "header": {
    "PPQ": 96,
    "timeSignature": [
      4,
      4
    ],
    "bpm": 150,
    "name": "A easy "
  },
  "tempo": [
    {
      "absoluteTime": 0,
      "seconds": 0,
      "bpm": 150
    }
  ],
  "timeSignature": [
    {
      "absoluteTime": 0,
      "seconds": 0,
      "numerator": 4,
      "denominator": 2,
      "click": 24,
      "notesQ": 8
    }
  ],
  "startTime": 0,
  "duration": 145.59999999999988,
  "tracks": [
    {
      "startTime": 0,
      "duration": 0,
      "length": 0,
      "notes": [],
      "controlChanges": {},
      "id": 0
    },
    {
      "startTime": 0,
      "duration": 0,
      "length": 0,
      "notes": [],
      "controlChanges": {},
      "id": 1
    },
    {
      "startTime": 0,
      "duration": 0,
      "length": 0,
      "notes": [],
      "controlChanges": {
        "6": [
          {
            "number": 6,
            "time": 0,
            "value": 0.09448818897637795
          },
          {
            "number": 6,
            "time": 0,
            "value": 0.09448818897637795
          },
          {
            "number": 6,
            "time": 0,
            "value": 0.09448818897637795
          },
          {
            "number": 6,
            "time": 148,
            "value": 0.09448818897637795
          },
          {
            "number": 6,
            "time": 148,
            "value": 0.09448818897637795
          }
        ],
        "7": [
          {
            "number": 7,
            "time": 0,
            "value": 0.7874015748031497
          },
          {
            "number": 7,
            "time": 0,
            "value": 0.7874015748031497
          },
          {
            "number": 7,
            "time": 0,
            "value": 0.7874015748031497
          },
          {
            "number": 7,
            "time": 0,
            "value": 0.7874015748031497
          },
          {
            "number": 7,
            "time": 148,
            "value": 0.7874015748031497
          },
          {
            "number": 7,
            "time": 148,
            "value": 0.7874015748031497
          }
        ],
        "10": [
          {
            "number": 10,
            "time": 0,
            "value": 0.5039370078740157
          },
          {
            "number": 10,
            "time": 0,
            "value": 0.5039370078740157
          },
          {
            "number": 10,
            "time": 0,
            "value": 0.5039370078740157
          },
          {
            "number": 10,
            "time": 0,
            "value": 0.5039370078740157
          },
          {
            "number": 10,
            "time": 148,
            "value": 0.5039370078740157
          },
          {
            "number": 10,
            "time": 148,
            "value": 0.5039370078740157
          }
        ],
        "100": [
          {
            "number": 100,
            "time": 0,
            "value": 0
          },
          {
            "number": 100,
            "time": 0,
            "value": 0
          },
          {
            "number": 100,
            "time": 0,
            "value": 0
          },
          {
            "number": 100,
            "time": 148,
            "value": 0
          },
          {
            "number": 100,
            "time": 148,
            "value": 0
          }
        ],
        "101": [
          {
            "number": 101,
            "time": 0,
            "value": 0
          },
          {
            "number": 101,
            "time": 0,
            "value": 0
          },
          {
            "number": 101,
            "time": 0,
            "value": 0
          },
          {
            "number": 101,
            "time": 148,
            "value": 0
          },
          {
            "number": 101,
            "time": 148,
            "value": 0
          }
        ]
      },
      "id": 2,
      "name": "A easy "
    },
    {
      "startTime": 0,
      "duration": 0,
      "length": 0,
      "notes": [],
      "controlChanges": {
        "6": [
          {
            "number": 6,
            "time": 0,
            "value": 0.09448818897637795
          },
          {
            "number": 6,
            "time": 0,
            "value": 0.09448818897637795
          },
          {
            "number": 6,
            "time": 0,
            "value": 0.09448818897637795
          },
          {
            "number": 6,
            "time": 148,
            "value": 0.09448818897637795
          },
          {
            "number": 6,
            "time": 148,
            "value": 0.09448818897637795
          }
        ],
        "7": [
          {
            "number": 7,
            "time": 0,
            "value": 0.7874015748031497
          },
          {
            "number": 7,
            "time": 0,
            "value": 0.7874015748031497
          },
          {
            "number": 7,
            "time": 0,
            "value": 0.7874015748031497
          },
          {
            "number": 7,
            "time": 0,
            "value": 0.7874015748031497
          },
          {
            "number": 7,
            "time": 148,
            "value": 0.7874015748031497
          },
          {
            "number": 7,
            "time": 148,
            "value": 0.7874015748031497
          }
        ],
        "10": [
          {
            "number": 10,
            "time": 0,
            "value": 0.5039370078740157
          },
          {
            "number": 10,
            "time": 0,
            "value": 0.5039370078740157
          },
          {
            "number": 10,
            "time": 0,
            "value": 0.5039370078740157
          },
          {
            "number": 10,
            "time": 0,
            "value": 0.5039370078740157
          },
          {
            "number": 10,
            "time": 148,
            "value": 0.5039370078740157
          },
          {
            "number": 10,
            "time": 148,
            "value": 0.5039370078740157
          }
        ],
        "100": [
          {
            "number": 100,
            "time": 0,
            "value": 0
          },
          {
            "number": 100,
            "time": 0,
            "value": 0
          },
          {
            "number": 100,
            "time": 0,
            "value": 0
          },
          {
            "number": 100,
            "time": 148,
            "value": 0
          },
          {
            "number": 100,
            "time": 148,
            "value": 0
          }
        ],
        "101": [
          {
            "number": 101,
            "time": 0,
            "value": 0
          },
          {
            "number": 101,
            "time": 0,
            "value": 0
          },
          {
            "number": 101,
            "time": 0,
            "value": 0
          },
          {
            "number": 101,
            "time": 148,
            "value": 0
          },
          {
            "number": 101,
            "time": 148,
            "value": 0
          }
        ]
      },
      "id": 3,
      "name": "S easy "
    },
    {
      "startTime": 0,
      "duration": 0,
      "length": 0,
      "notes": [],
      "controlChanges": {
        "6": [
          {
            "number": 6,
            "time": 0,
            "value": 0.09448818897637795
          },
          {
            "number": 6,
            "time": 0,
            "value": 0.09448818897637795
          },
          {
            "number": 6,
            "time": 0,
            "value": 0.09448818897637795
          },
          {
            "number": 6,
            "time": 148,
            "value": 0.09448818897637795
          },
          {
            "number": 6,
            "time": 148,
            "value": 0.09448818897637795
          }
        ],
        "7": [
          {
            "number": 7,
            "time": 0,
            "value": 0.7874015748031497
          },
          {
            "number": 7,
            "time": 0,
            "value": 0.7874015748031497
          },
          {
            "number": 7,
            "time": 0,
            "value": 0.7874015748031497
          },
          {
            "number": 7,
            "time": 0,
            "value": 0.7874015748031497
          },
          {
            "number": 7,
            "time": 148,
            "value": 0.7874015748031497
          },
          {
            "number": 7,
            "time": 148,
            "value": 0.7874015748031497
          }
        ],
        "10": [
          {
            "number": 10,
            "time": 0,
            "value": 0.5039370078740157
          },
          {
            "number": 10,
            "time": 0,
            "value": 0.5039370078740157
          },
          {
            "number": 10,
            "time": 0,
            "value": 0.5039370078740157
          },
          {
            "number": 10,
            "time": 0,
            "value": 0.5039370078740157
          },
          {
            "number": 10,
            "time": 148,
            "value": 0.5039370078740157
          },
          {
            "number": 10,
            "time": 148,
            "value": 0.5039370078740157
          }
        ],
        "100": [
          {
            "number": 100,
            "time": 0,
            "value": 0
          },
          {
            "number": 100,
            "time": 0,
            "value": 0
          },
          {
            "number": 100,
            "time": 0,
            "value": 0
          },
          {
            "number": 100,
            "time": 148,
            "value": 0
          },
          {
            "number": 100,
            "time": 148,
            "value": 0
          }
        ],
        "101": [
          {
            "number": 101,
            "time": 0,
            "value": 0
          },
          {
            "number": 101,
            "time": 0,
            "value": 0
          },
          {
            "number": 101,
            "time": 0,
            "value": 0
          },
          {
            "number": 101,
            "time": 148,
            "value": 0
          },
          {
            "number": 101,
            "time": 148,
            "value": 0
          }
        ]
      },
      "id": 4,
      "name": "D easy"
    },
    {
      "startTime": 1.6,
      "duration": 145.59999999999988,
      "length": 127,
      "notes": [
        {
          "name": "D4",
          "midi": 62,
          "time": 1.6,
          "velocity": 0.5511811023622047,
          "duration": 1
        },
        {
          "name": "C4",
          "midi": 60,
          "time": 3,
          "velocity": 0.7480314960629921,
          "duration": 0.20000000000000018
        },
        {
          "name": "D4",
          "midi": 62,
          "time": 3.2,
          "velocity": 0.7086614173228346,
          "duration": 1
        },
        {
          "name": "D4",
          "midi": 62,
          "time": 4.800000000000001,
          "velocity": 0.7322834645669292,
          "duration": 1
        },
        {
          "name": "C4",
          "midi": 60,
          "time": 6.000000000000001,
          "velocity": 0.7165354330708661,
          "duration": 0.20000000000000018
        },
        {
          "name": "D4",
          "midi": 62,
          "time": 6.400000000000001,
          "velocity": 0.6850393700787402,
          "duration": 0.7999999999999998
        },
        {
          "name": "C4",
          "midi": 60,
          "time": 7.800000000000001,
          "velocity": 0.6850393700787402,
          "duration": 0.1999999999999993
        },
        {
          "name": "E4",
          "midi": 64,
          "time": 8,
          "velocity": 0.7007874015748031,
          "duration": 0.09999999999999964
        },
        {
          "name": "E4",
          "midi": 64,
          "time": 9.6,
          "velocity": 0.7007874015748031,
          "duration": 0.09999999999999964
        },
        {
          "name": "F4",
          "midi": 65,
          "time": 10,
          "velocity": 0.7559055118110236,
          "duration": 0.40000000000000036
        },
        {
          "name": "C4",
          "midi": 60,
          "time": 10.8,
          "velocity": 0.7165354330708661,
          "duration": 0.09999999999999964
        },
        {
          "name": "E4",
          "midi": 64,
          "time": 11.200000000000001,
          "velocity": 0.7007874015748031,
          "duration": 0.09999999999999964
        },
        {
          "name": "C4",
          "midi": 60,
          "time": 13,
          "velocity": 0.7480314960629921,
          "duration": 0.09999999999999964
        },
        {
          "name": "C4",
          "midi": 60,
          "time": 14.2,
          "velocity": 0.6771653543307087,
          "duration": 0.09999999999999964
        },
        {
          "name": "E4",
          "midi": 64,
          "time": 15.399999999999999,
          "velocity": 0.6771653543307087,
          "duration": 0.09999999999999964
        },
        {
          "name": "E4",
          "midi": 64,
          "time": 15.999999999999998,
          "velocity": 0.6929133858267716,
          "duration": 0.09999999999999964
        },
        {
          "name": "D4",
          "midi": 62,
          "time": 17.599999999999998,
          "velocity": 0.6062992125984252,
          "duration": 3.1999999999999957
        },
        {
          "name": "F4",
          "midi": 65,
          "time": 17.599999999999998,
          "velocity": 0.7559055118110236,
          "duration": 0.3999999999999986
        },
        {
          "name": "F4",
          "midi": 65,
          "time": 19.199999999999996,
          "velocity": 0.7559055118110236,
          "duration": 0.3999999999999986
        },
        {
          "name": "E4",
          "midi": 64,
          "time": 21.199999999999992,
          "velocity": 0.6062992125984252,
          "duration": 0.10000000000000142
        },
        {
          "name": "E4",
          "midi": 64,
          "time": 23.199999999999992,
          "velocity": 0.7637795275590551,
          "duration": 0.10000000000000142
        },
        {
          "name": "C4",
          "midi": 60,
          "time": 23.599999999999994,
          "velocity": 0.7637795275590551,
          "duration": 0.10000000000000142
        },
        {
          "name": "E4",
          "midi": 64,
          "time": 23.999999999999996,
          "velocity": 0.7637795275590551,
          "duration": 0.10000000000000142
        },
        {
          "name": "C4",
          "midi": 60,
          "time": 24.299999999999997,
          "velocity": 0.7637795275590551,
          "duration": 0.10000000000000142
        },
        {
          "name": "D4",
          "midi": 62,
          "time": 26,
          "velocity": 0.7559055118110236,
          "duration": 0.3999999999999986
        },
        {
          "name": "E4",
          "midi": 64,
          "time": 26.799999999999997,
          "velocity": 0.7637795275590551,
          "duration": 0.10000000000000142
        },
        {
          "name": "E4",
          "midi": 64,
          "time": 27,
          "velocity": 0.7637795275590551,
          "duration": 0.10000000000000142
        },
        {
          "name": "E4",
          "midi": 64,
          "time": 27.200000000000003,
          "velocity": 0.7637795275590551,
          "duration": 0.10000000000000142
        },
        {
          "name": "D4",
          "midi": 62,
          "time": 27.600000000000005,
          "velocity": 0.7637795275590551,
          "duration": 1.1999999999999993
        },
        {
          "name": "C4",
          "midi": 60,
          "time": 29.400000000000006,
          "velocity": 0.7637795275590551,
          "duration": 0.10000000000000142
        },
        {
          "name": "E4",
          "midi": 64,
          "time": 30.400000000000006,
          "velocity": 0.7637795275590551,
          "duration": 0.10000000000000142
        },
        {
          "name": "E4",
          "midi": 64,
          "time": 30.800000000000008,
          "velocity": 0.7637795275590551,
          "duration": 0.10000000000000142
        },
        {
          "name": "D4",
          "midi": 62,
          "time": 31.20000000000001,
          "velocity": 0.7637795275590551,
          "duration": 0.3999999999999986
        },
        {
          "name": "C4",
          "midi": 60,
          "time": 32.00000000000001,
          "velocity": 0.7637795275590551,
          "duration": 0.10000000000000142
        },
        {
          "name": "C4",
          "midi": 60,
          "time": 32.60000000000001,
          "velocity": 0.7637795275590551,
          "duration": 0.10000000000000142
        },
        {
          "name": "C4",
          "midi": 60,
          "time": 33.20000000000001,
          "velocity": 0.7637795275590551,
          "duration": 0.10000000000000142
        },
        {
          "name": "C4",
          "midi": 60,
          "time": 33.60000000000001,
          "velocity": 0.7637795275590551,
          "duration": 0.10000000000000142
        },
        {
          "name": "C4",
          "midi": 60,
          "time": 34.20000000000001,
          "velocity": 0.7637795275590551,
          "duration": 0.10000000000000142
        },
        {
          "name": "C4",
          "midi": 60,
          "time": 35.80000000000001,
          "velocity": 0.7637795275590551,
          "duration": 0.10000000000000142
        },
        {
          "name": "C4",
          "midi": 60,
          "time": 37.20000000000001,
          "velocity": 0.7637795275590551,
          "duration": 0.10000000000000142
        },
        {
          "name": "C4",
          "midi": 60,
          "time": 37.60000000000001,
          "velocity": 0.7637795275590551,
          "duration": 0.10000000000000142
        },
        {
          "name": "D4",
          "midi": 62,
          "time": 38.00000000000001,
          "velocity": 0.7637795275590551,
          "duration": 0.3999999999999986
        },
        {
          "name": "F4",
          "midi": 65,
          "time": 38.60000000000001,
          "velocity": 0.7559055118110236,
          "duration": 0.20000000000000284
        },
        {
          "name": "F4",
          "midi": 65,
          "time": 39.000000000000014,
          "velocity": 0.7559055118110236,
          "duration": 0.20000000000000284
        },
        {
          "name": "F4",
          "midi": 65,
          "time": 39.40000000000002,
          "velocity": 0.7559055118110236,
          "duration": 0.20000000000000284
        },
        {
          "name": "F4",
          "midi": 65,
          "time": 39.800000000000026,
          "velocity": 0.7559055118110236,
          "duration": 0.20000000000000284
        },
        {
          "name": "C4",
          "midi": 60,
          "time": 40.00000000000003,
          "velocity": 0.7637795275590551,
          "duration": 0.10000000000000142
        },
        {
          "name": "C4",
          "midi": 60,
          "time": 40.60000000000003,
          "velocity": 0.7637795275590551,
          "duration": 0.10000000000000142
        },
        {
          "name": "C4",
          "midi": 60,
          "time": 41.20000000000003,
          "velocity": 0.7637795275590551,
          "duration": 0.10000000000000142
        },
        {
          "name": "E4",
          "midi": 64,
          "time": 42.80000000000003,
          "velocity": 0.7637795275590551,
          "duration": 0.10000000000000142
        },
        {
          "name": "C4",
          "midi": 60,
          "time": 43.000000000000036,
          "velocity": 0.7637795275590551,
          "duration": 0.10000000000000142
        },
        {
          "name": "D4",
          "midi": 62,
          "time": 43.20000000000004,
          "velocity": 0.7637795275590551,
          "duration": 0.7999999999999972
        },
        {
          "name": "D4",
          "midi": 62,
          "time": 44.80000000000003,
          "velocity": 0.7637795275590551,
          "duration": 0.7999999999999972
        },
        {
          "name": "C4",
          "midi": 60,
          "time": 46.00000000000003,
          "velocity": 0.7637795275590551,
          "duration": 0.10000000000000142
        },
        {
          "name": "C4",
          "midi": 60,
          "time": 46.40000000000003,
          "velocity": 0.7637795275590551,
          "duration": 0.10000000000000142
        },
        {
          "name": "F4",
          "midi": 65,
          "time": 50.00000000000003,
          "velocity": 0.7559055118110236,
          "duration": 0.10000000000000142
        },
        {
          "name": "F4",
          "midi": 65,
          "time": 51.60000000000003,
          "velocity": 0.7559055118110236,
          "duration": 0.10000000000000142
        },
        {
          "name": "E4",
          "midi": 64,
          "time": 52.80000000000003,
          "velocity": 0.7637795275590551,
          "duration": 0.10000000000000142
        },
        {
          "name": "C4",
          "midi": 60,
          "time": 56.000000000000036,
          "velocity": 0.7637795275590551,
          "duration": 0.10000000000000142
        },
        {
          "name": "F4",
          "midi": 65,
          "time": 56.000000000000036,
          "velocity": 0.7559055118110236,
          "duration": 0.10000000000000142
        },
        {
          "name": "C4",
          "midi": 60,
          "time": 57.60000000000004,
          "velocity": 0.7637795275590551,
          "duration": 0.10000000000000142
        },
        {
          "name": "F4",
          "midi": 65,
          "time": 58.40000000000004,
          "velocity": 0.7559055118110236,
          "duration": 0.10000000000000142
        },
        {
          "name": "E4",
          "midi": 64,
          "time": 59.200000000000045,
          "velocity": 0.7637795275590551,
          "duration": 0.10000000000000142
        },
        {
          "name": "F4",
          "midi": 65,
          "time": 62.40000000000005,
          "velocity": 0.7559055118110236,
          "duration": 0.10000000000000142
        },
        {
          "name": "D4",
          "midi": 62,
          "time": 64.00000000000006,
          "velocity": 0.7637795275590551,
          "duration": 1.5999999999999943
        },
        {
          "name": "F4",
          "midi": 65,
          "time": 65.60000000000005,
          "velocity": 0.7559055118110236,
          "duration": 0.09999999999999432
        },
        {
          "name": "C4",
          "midi": 60,
          "time": 70.40000000000005,
          "velocity": 0.7874015748031497,
          "duration": 0.20000000000000284
        },
        {
          "name": "E4",
          "midi": 64,
          "time": 71.60000000000005,
          "velocity": 0.7874015748031497,
          "duration": 0.20000000000000284
        },
        {
          "name": "C4",
          "midi": 60,
          "time": 71.80000000000005,
          "velocity": 0.7874015748031497,
          "duration": 0.20000000000000284
        },
        {
          "name": "C4",
          "midi": 60,
          "time": 72.00000000000006,
          "velocity": 0.7874015748031497,
          "duration": 0.20000000000000284
        },
        {
          "name": "C4",
          "midi": 60,
          "time": 72.40000000000006,
          "velocity": 0.7874015748031497,
          "duration": 0.20000000000000284
        },
        {
          "name": "E4",
          "midi": 64,
          "time": 72.80000000000007,
          "velocity": 0.7874015748031497,
          "duration": 0.20000000000000284
        },
        {
          "name": "C4",
          "midi": 60,
          "time": 73.40000000000008,
          "velocity": 0.7874015748031497,
          "duration": 0.20000000000000284
        },
        {
          "name": "C4",
          "midi": 60,
          "time": 73.60000000000008,
          "velocity": 0.7874015748031497,
          "duration": 0.20000000000000284
        },
        {
          "name": "C4",
          "midi": 60,
          "time": 74.40000000000008,
          "velocity": 0.7874015748031497,
          "duration": 0.20000000000000284
        },
        {
          "name": "E4",
          "midi": 64,
          "time": 75.20000000000007,
          "velocity": 0.7637795275590551,
          "duration": 0.20000000000000284
        },
        {
          "name": "E4",
          "midi": 64,
          "time": 76.00000000000007,
          "velocity": 0.7637795275590551,
          "duration": 0.20000000000000284
        },
        {
          "name": "C4",
          "midi": 60,
          "time": 76.40000000000008,
          "velocity": 0.7637795275590551,
          "duration": 0.20000000000000284
        },
        {
          "name": "D4",
          "midi": 62,
          "time": 76.80000000000008,
          "velocity": 0.7637795275590551,
          "duration": 1.5999999999999943
        },
        {
          "name": "E4",
          "midi": 64,
          "time": 79.20000000000007,
          "velocity": 0.7874015748031497,
          "duration": 0.20000000000000284
        },
        {
          "name": "C4",
          "midi": 60,
          "time": 79.80000000000008,
          "velocity": 0.7874015748031497,
          "duration": 0.20000000000000284
        },
        {
          "name": "C4",
          "midi": 60,
          "time": 80.00000000000009,
          "velocity": 0.7874015748031497,
          "duration": 0.20000000000000284
        },
        {
          "name": "C4",
          "midi": 60,
          "time": 80.6000000000001,
          "velocity": 0.7874015748031497,
          "duration": 0.20000000000000284
        },
        {
          "name": "C4",
          "midi": 60,
          "time": 80.8000000000001,
          "velocity": 0.7874015748031497,
          "duration": 0.20000000000000284
        },
        {
          "name": "D4",
          "midi": 62,
          "time": 81.6000000000001,
          "velocity": 0.6535433070866141,
          "duration": 2.4000000000000057
        },
        {
          "name": "F4",
          "midi": 65,
          "time": 84.3500000000001,
          "velocity": 0.7165354330708661,
          "duration": 0.09999999999999432
        },
        {
          "name": "F4",
          "midi": 65,
          "time": 84.70000000000009,
          "velocity": 0.7165354330708661,
          "duration": 0.09999999999999432
        },
        {
          "name": "D4",
          "midi": 62,
          "time": 84.80000000000008,
          "velocity": 0.6535433070866141,
          "duration": 3.200000000000003
        },
        {
          "name": "E4",
          "midi": 64,
          "time": 89.60000000000008,
          "velocity": 0.7637795275590551,
          "duration": 0.20000000000000284
        },
        {
          "name": "E4",
          "midi": 64,
          "time": 90.40000000000008,
          "velocity": 0.7637795275590551,
          "duration": 0.20000000000000284
        },
        {
          "name": "C4",
          "midi": 60,
          "time": 90.80000000000008,
          "velocity": 0.7637795275590551,
          "duration": 0.20000000000000284
        },
        {
          "name": "D4",
          "midi": 62,
          "time": 91.80000000000008,
          "velocity": 0.6535433070866141,
          "duration": 4.200000000000003
        },
        {
          "name": "E4",
          "midi": 64,
          "time": 97.60000000000008,
          "velocity": 0.7559055118110236,
          "duration": 0.09999999999999432
        },
        {
          "name": "E4",
          "midi": 64,
          "time": 98.40000000000008,
          "velocity": 0.7559055118110236,
          "duration": 0.09999999999999432
        },
        {
          "name": "D4",
          "midi": 62,
          "time": 99.20000000000007,
          "velocity": 0.7637795275590551,
          "duration": 0.7999999999999972
        },
        {
          "name": "C4",
          "midi": 60,
          "time": 101.60000000000007,
          "velocity": 0.7559055118110236,
          "duration": 0.09999999999999432
        },
        {
          "name": "C4",
          "midi": 60,
          "time": 103.20000000000006,
          "velocity": 0.7559055118110236,
          "duration": 0.09999999999999432
        },
        {
          "name": "C4",
          "midi": 60,
          "time": 103.80000000000005,
          "velocity": 0.7559055118110236,
          "duration": 0.09999999999999432
        },
        {
          "name": "E4",
          "midi": 64,
          "time": 104.00000000000004,
          "velocity": 0.7559055118110236,
          "duration": 0.09999999999999432
        },
        {
          "name": "C4",
          "midi": 60,
          "time": 104.40000000000003,
          "velocity": 0.7559055118110236,
          "duration": 0.09999999999999432
        },
        {
          "name": "C4",
          "midi": 60,
          "time": 105.40000000000003,
          "velocity": 0.7559055118110236,
          "duration": 0.09999999999999432
        },
        {
          "name": "D4",
          "midi": 62,
          "time": 106.40000000000003,
          "velocity": 0.7874015748031497,
          "duration": 1.5999999999999943
        },
        {
          "name": "C4",
          "midi": 60,
          "time": 108.80000000000003,
          "velocity": 0.7559055118110236,
          "duration": 0.4000000000000057
        },
        {
          "name": "C4",
          "midi": 60,
          "time": 109.60000000000004,
          "velocity": 0.7559055118110236,
          "duration": 0.09999999999999432
        },
        {
          "name": "C4",
          "midi": 60,
          "time": 110.20000000000003,
          "velocity": 0.7559055118110236,
          "duration": 0.09999999999999432
        },
        {
          "name": "C4",
          "midi": 60,
          "time": 111.20000000000003,
          "velocity": 0.7559055118110236,
          "duration": 0.09999999999999432
        },
        {
          "name": "E4",
          "midi": 64,
          "time": 112.00000000000003,
          "velocity": 0.7559055118110236,
          "duration": 0.09999999999999432
        },
        {
          "name": "C4",
          "midi": 60,
          "time": 112.40000000000002,
          "velocity": 0.7559055118110236,
          "duration": 0.09999999999999432
        },
        {
          "name": "C4",
          "midi": 60,
          "time": 112.80000000000001,
          "velocity": 0.7559055118110236,
          "duration": 0.09999999999999432
        },
        {
          "name": "D4",
          "midi": 62,
          "time": 113.2,
          "velocity": 0.7559055118110236,
          "duration": 0.3999999999999915
        },
        {
          "name": "F4",
          "midi": 65,
          "time": 113.2,
          "velocity": 0.7165354330708661,
          "duration": 0.09999999999999432
        },
        {
          "name": "C4",
          "midi": 60,
          "time": 114.39999999999999,
          "velocity": 0.7559055118110236,
          "duration": 0.09999999999999432
        },
        {
          "name": "D4",
          "midi": 62,
          "time": 114.59999999999998,
          "velocity": 0.7559055118110236,
          "duration": 0.5999999999999943
        },
        {
          "name": "D4",
          "midi": 62,
          "time": 115.99999999999997,
          "velocity": 0.7559055118110236,
          "duration": 1.5999999999999943
        },
        {
          "name": "C4",
          "midi": 60,
          "time": 119.19999999999996,
          "velocity": 0.7559055118110236,
          "duration": 0.09999999999999432
        },
        {
          "name": "E4",
          "midi": 64,
          "time": 119.99999999999996,
          "velocity": 0.7559055118110236,
          "duration": 0.09999999999999432
        },
        {
          "name": "C4",
          "midi": 60,
          "time": 120.79999999999995,
          "velocity": 0.7559055118110236,
          "duration": 0.09999999999999432
        },
        {
          "name": "C4",
          "midi": 60,
          "time": 121.59999999999995,
          "velocity": 0.7559055118110236,
          "duration": 0.09999999999999432
        },
        {
          "name": "C4",
          "midi": 60,
          "time": 122.39999999999995,
          "velocity": 0.7559055118110236,
          "duration": 0.09999999999999432
        },
        {
          "name": "F4",
          "midi": 65,
          "time": 123.19999999999995,
          "velocity": 0.7165354330708661,
          "duration": 0.20000000000000284
        },
        {
          "name": "D4",
          "midi": 62,
          "time": 125.59999999999995,
          "velocity": 0.7559055118110236,
          "duration": 1.5999999999999943
        },
        {
          "name": "C4",
          "midi": 60,
          "time": 128.79999999999995,
          "velocity": 0.7559055118110236,
          "duration": 0.09999999999999432
        },
        {
          "name": "F4",
          "midi": 65,
          "time": 129.59999999999994,
          "velocity": 0.7165354330708661,
          "duration": 0.19999999999998863
        },
        {
          "name": "C4",
          "midi": 60,
          "time": 131.99999999999991,
          "velocity": 0.7559055118110236,
          "duration": 0.09999999999999432
        },
        {
          "name": "C4",
          "midi": 60,
          "time": 133.5999999999999,
          "velocity": 0.7559055118110236,
          "duration": 0.09999999999999432
        },
        {
          "name": "D4",
          "midi": 62,
          "time": 134.3999999999999,
          "velocity": 0.7559055118110236,
          "duration": 1.5999999999999943
        },
        {
          "name": "D4",
          "midi": 62,
          "time": 139.9999999999999,
          "velocity": 0.7559055118110236,
          "duration": 5.599999999999994
        }
      ],
      "controlChanges": {
        "6": [
          {
            "number": 6,
            "time": 0,
            "value": 0.09448818897637795
          },
          {
            "number": 6,
            "time": 0,
            "value": 0.09448818897637795
          },
          {
            "number": 6,
            "time": 0,
            "value": 0.09448818897637795
          },
          {
            "number": 6,
            "time": 147.9999999999999,
            "value": 0.09448818897637795
          },
          {
            "number": 6,
            "time": 147.9999999999999,
            "value": 0.09448818897637795
          }
        ],
        "7": [
          {
            "number": 7,
            "time": 0,
            "value": 0.7874015748031497
          },
          {
            "number": 7,
            "time": 0,
            "value": 0.7874015748031497
          },
          {
            "number": 7,
            "time": 0,
            "value": 0.7874015748031497
          },
          {
            "number": 7,
            "time": 0,
            "value": 0.7874015748031497
          },
          {
            "number": 7,
            "time": 147.9999999999999,
            "value": 0.7874015748031497
          },
          {
            "number": 7,
            "time": 147.9999999999999,
            "value": 0.7874015748031497
          }
        ],
        "10": [
          {
            "number": 10,
            "time": 0,
            "value": 0.5039370078740157
          },
          {
            "number": 10,
            "time": 0,
            "value": 0.5039370078740157
          },
          {
            "number": 10,
            "time": 0,
            "value": 0.5039370078740157
          },
          {
            "number": 10,
            "time": 0,
            "value": 0.5039370078740157
          },
          {
            "number": 10,
            "time": 147.9999999999999,
            "value": 0.5039370078740157
          },
          {
            "number": 10,
            "time": 147.9999999999999,
            "value": 0.5039370078740157
          }
        ],
        "100": [
          {
            "number": 100,
            "time": 0,
            "value": 0
          },
          {
            "number": 100,
            "time": 0,
            "value": 0
          },
          {
            "number": 100,
            "time": 0,
            "value": 0
          },
          {
            "number": 100,
            "time": 147.9999999999999,
            "value": 0
          },
          {
            "number": 100,
            "time": 147.9999999999999,
            "value": 0
          }
        ],
        "101": [
          {
            "number": 101,
            "time": 0,
            "value": 0
          },
          {
            "number": 101,
            "time": 0,
            "value": 0
          },
          {
            "number": 101,
            "time": 0,
            "value": 0
          },
          {
            "number": 101,
            "time": 147.9999999999999,
            "value": 0
          },
          {
            "number": 101,
            "time": 147.9999999999999,
            "value": 0
          }
        ]
      },
      "id": 5,
      "name": "A hard",
      "channelNumber": 0,
      "isPercussion": false
    },
    {
      "startTime": 2.8000000000000003,
      "duration": 140.1999999999999,
      "length": 118,
      "notes": [
        {
          "name": "C4",
          "midi": 60,
          "time": 2.8000000000000003,
          "velocity": 0.7244094488188977,
          "duration": 0.20000000000000018
        },
        {
          "name": "C4",
          "midi": 60,
          "time": 4.200000000000001,
          "velocity": 0.7086614173228346,
          "duration": 0.20000000000000018
        },
        {
          "name": "C4",
          "midi": 60,
          "time": 4.600000000000001,
          "velocity": 0.7086614173228346,
          "duration": 0.20000000000000018
        },
        {
          "name": "C4",
          "midi": 60,
          "time": 5.800000000000002,
          "velocity": 0.7086614173228346,
          "duration": 0.09999999999999964
        },
        {
          "name": "C4",
          "midi": 60,
          "time": 7.200000000000001,
          "velocity": 0.7165354330708661,
          "duration": 0.20000000000000018
        },
        {
          "name": "C4",
          "midi": 60,
          "time": 7.600000000000001,
          "velocity": 0.6929133858267716,
          "duration": 0.20000000000000018
        },
        {
          "name": "F4",
          "midi": 65,
          "time": 8.8,
          "velocity": 0.7559055118110236,
          "duration": 0.40000000000000036
        },
        {
          "name": "C4",
          "midi": 60,
          "time": 10.600000000000001,
          "velocity": 0.7007874015748031,
          "duration": 0.09999999999999964
        },
        {
          "name": "F4",
          "midi": 65,
          "time": 11.200000000000001,
          "velocity": 0.7559055118110236,
          "duration": 0.40000000000000036
        },
        {
          "name": "C4",
          "midi": 60,
          "time": 12.8,
          "velocity": 0.7716535433070866,
          "duration": 0.09999999999999964
        },
        {
          "name": "C4",
          "midi": 60,
          "time": 13.200000000000001,
          "velocity": 0.7007874015748031,
          "duration": 0.09999999999999964
        },
        {
          "name": "C4",
          "midi": 60,
          "time": 13.600000000000001,
          "velocity": 0.7007874015748031,
          "duration": 0.09999999999999964
        },
        {
          "name": "C4",
          "midi": 60,
          "time": 14.000000000000002,
          "velocity": 0.7007874015748031,
          "duration": 0.09999999999999964
        },
        {
          "name": "C4",
          "midi": 60,
          "time": 14.400000000000002,
          "velocity": 0.7086614173228346,
          "duration": 0.09999999999999964
        },
        {
          "name": "C4",
          "midi": 60,
          "time": 14.800000000000002,
          "velocity": 0.6850393700787402,
          "duration": 0.09999999999999964
        },
        {
          "name": "E4",
          "midi": 64,
          "time": 15.200000000000003,
          "velocity": 0.6692913385826772,
          "duration": 0.09999999999999964
        },
        {
          "name": "E4",
          "midi": 64,
          "time": 15.400000000000002,
          "velocity": 0.6771653543307087,
          "duration": 0.09999999999999964
        },
        {
          "name": "E4",
          "midi": 64,
          "time": 15.600000000000001,
          "velocity": 0.6771653543307087,
          "duration": 0.09999999999999964
        },
        {
          "name": "F4",
          "midi": 65,
          "time": 18,
          "velocity": 0.7559055118110236,
          "duration": 0.3999999999999986
        },
        {
          "name": "F4",
          "midi": 65,
          "time": 18.799999999999997,
          "velocity": 0.7559055118110236,
          "duration": 0.3999999999999986
        },
        {
          "name": "F4",
          "midi": 65,
          "time": 19.599999999999994,
          "velocity": 0.7559055118110236,
          "duration": 0.3999999999999986
        },
        {
          "name": "F4",
          "midi": 65,
          "time": 20.39999999999999,
          "velocity": 0.7559055118110236,
          "duration": 0.3999999999999986
        },
        {
          "name": "E4",
          "midi": 64,
          "time": 20.79999999999999,
          "velocity": 0.6062992125984252,
          "duration": 0.10000000000000142
        },
        {
          "name": "E4",
          "midi": 64,
          "time": 21.199999999999992,
          "velocity": 0.6062992125984252,
          "duration": 0.10000000000000142
        },
        {
          "name": "C4",
          "midi": 60,
          "time": 23.399999999999995,
          "velocity": 0.7559055118110236,
          "duration": 0.10000000000000142
        },
        {
          "name": "E4",
          "midi": 64,
          "time": 23.999999999999996,
          "velocity": 0.6299212598425197,
          "duration": 0.10000000000000142
        },
        {
          "name": "C4",
          "midi": 60,
          "time": 24.599999999999998,
          "velocity": 0.7322834645669292,
          "duration": 0.10000000000000142
        },
        {
          "name": "E4",
          "midi": 64,
          "time": 29.6,
          "velocity": 0.7637795275590551,
          "duration": 0.10000000000000142
        },
        {
          "name": "E4",
          "midi": 64,
          "time": 30.400000000000002,
          "velocity": 0.7637795275590551,
          "duration": 0.10000000000000142
        },
        {
          "name": "E4",
          "midi": 64,
          "time": 30.800000000000004,
          "velocity": 0.7637795275590551,
          "duration": 0.10000000000000142
        },
        {
          "name": "E4",
          "midi": 64,
          "time": 31.200000000000006,
          "velocity": 0.7637795275590551,
          "duration": 0.10000000000000142
        },
        {
          "name": "E4",
          "midi": 64,
          "time": 31.40000000000001,
          "velocity": 0.7637795275590551,
          "duration": 0.10000000000000142
        },
        {
          "name": "D4",
          "midi": 62,
          "time": 32.40000000000001,
          "velocity": 0.7637795275590551,
          "duration": 0.7999999999999972
        },
        {
          "name": "E4",
          "midi": 64,
          "time": 34.40000000000001,
          "velocity": 0.7637795275590551,
          "duration": 0.10000000000000142
        },
        {
          "name": "E4",
          "midi": 64,
          "time": 36.000000000000014,
          "velocity": 0.7637795275590551,
          "duration": 0.10000000000000142
        },
        {
          "name": "C4",
          "midi": 60,
          "time": 36.80000000000002,
          "velocity": 0.7637795275590551,
          "duration": 0.10000000000000142
        },
        {
          "name": "D4",
          "midi": 62,
          "time": 37.20000000000002,
          "velocity": 0.7637795275590551,
          "duration": 0.3999999999999986
        },
        {
          "name": "C4",
          "midi": 60,
          "time": 38.000000000000014,
          "velocity": 0.7637795275590551,
          "duration": 0.10000000000000142
        },
        {
          "name": "F4",
          "midi": 65,
          "time": 39.20000000000002,
          "velocity": 0.7559055118110236,
          "duration": 0.20000000000000284
        },
        {
          "name": "F4",
          "midi": 65,
          "time": 39.60000000000002,
          "velocity": 0.7559055118110236,
          "duration": 0.20000000000000284
        },
        {
          "name": "E4",
          "midi": 64,
          "time": 40.800000000000026,
          "velocity": 0.7637795275590551,
          "duration": 0.10000000000000142
        },
        {
          "name": "E4",
          "midi": 64,
          "time": 42.40000000000003,
          "velocity": 0.7637795275590551,
          "duration": 0.10000000000000142
        },
        {
          "name": "C4",
          "midi": 60,
          "time": 42.60000000000003,
          "velocity": 0.7637795275590551,
          "duration": 0.10000000000000142
        },
        {
          "name": "E4",
          "midi": 64,
          "time": 42.80000000000003,
          "velocity": 0.7637795275590551,
          "duration": 0.10000000000000142
        },
        {
          "name": "C4",
          "midi": 60,
          "time": 44.80000000000003,
          "velocity": 0.7637795275590551,
          "duration": 0.10000000000000142
        },
        {
          "name": "C4",
          "midi": 60,
          "time": 45.400000000000034,
          "velocity": 0.7637795275590551,
          "duration": 0.10000000000000142
        },
        {
          "name": "D4",
          "midi": 62,
          "time": 46.400000000000034,
          "velocity": 0.7637795275590551,
          "duration": 3.200000000000003
        },
        {
          "name": "F4",
          "midi": 65,
          "time": 51.60000000000004,
          "velocity": 0.7559055118110236,
          "duration": 0.10000000000000142
        },
        {
          "name": "F4",
          "midi": 65,
          "time": 53.20000000000004,
          "velocity": 0.7559055118110236,
          "duration": 0.10000000000000142
        },
        {
          "name": "D4",
          "midi": 62,
          "time": 56.00000000000004,
          "velocity": 0.7637795275590551,
          "duration": 3.200000000000003
        },
        {
          "name": "F4",
          "midi": 65,
          "time": 56.00000000000004,
          "velocity": 0.7559055118110236,
          "duration": 0.10000000000000142
        },
        {
          "name": "F4",
          "midi": 65,
          "time": 60.00000000000004,
          "velocity": 0.7559055118110236,
          "duration": 0.10000000000000142
        },
        {
          "name": "D4",
          "midi": 62,
          "time": 62.40000000000004,
          "velocity": 0.7637795275590551,
          "duration": 1.6000000000000014
        },
        {
          "name": "F4",
          "midi": 65,
          "time": 64.00000000000004,
          "velocity": 0.7559055118110236,
          "duration": 0.09999999999999432
        },
        {
          "name": "C4",
          "midi": 60,
          "time": 65.60000000000004,
          "velocity": 0.7637795275590551,
          "duration": 0.09999999999999432
        },
        {
          "name": "F4",
          "midi": 65,
          "time": 65.60000000000004,
          "velocity": 0.7559055118110236,
          "duration": 0.09999999999999432
        },
        {
          "name": "E4",
          "midi": 64,
          "time": 71.40000000000003,
          "velocity": 0.7874015748031497,
          "duration": 0.20000000000000284
        },
        {
          "name": "E4",
          "midi": 64,
          "time": 71.60000000000004,
          "velocity": 0.7874015748031497,
          "duration": 0.20000000000000284
        },
        {
          "name": "C4",
          "midi": 60,
          "time": 72.20000000000005,
          "velocity": 0.7874015748031497,
          "duration": 0.20000000000000284
        },
        {
          "name": "C4",
          "midi": 60,
          "time": 72.60000000000005,
          "velocity": 0.7874015748031497,
          "duration": 0.20000000000000284
        },
        {
          "name": "C4",
          "midi": 60,
          "time": 73.20000000000006,
          "velocity": 0.7874015748031497,
          "duration": 0.20000000000000284
        },
        {
          "name": "C4",
          "midi": 60,
          "time": 73.80000000000007,
          "velocity": 0.7874015748031497,
          "duration": 0.20000000000000284
        },
        {
          "name": "C4",
          "midi": 60,
          "time": 74.20000000000007,
          "velocity": 0.7874015748031497,
          "duration": 0.20000000000000284
        },
        {
          "name": "E4",
          "midi": 64,
          "time": 75.20000000000007,
          "velocity": 0.7637795275590551,
          "duration": 0.20000000000000284
        },
        {
          "name": "D4",
          "midi": 62,
          "time": 75.60000000000008,
          "velocity": 0.7637795275590551,
          "duration": 0.20000000000000284
        },
        {
          "name": "E4",
          "midi": 64,
          "time": 76.00000000000009,
          "velocity": 0.7637795275590551,
          "duration": 0.20000000000000284
        },
        {
          "name": "C4",
          "midi": 60,
          "time": 77.40000000000009,
          "velocity": 0.7874015748031497,
          "duration": 0.20000000000000284
        },
        {
          "name": "E4",
          "midi": 64,
          "time": 77.8000000000001,
          "velocity": 0.7086614173228346,
          "duration": 0.20000000000000284
        },
        {
          "name": "C4",
          "midi": 60,
          "time": 78.2000000000001,
          "velocity": 0.6771653543307087,
          "duration": 0.20000000000000284
        },
        {
          "name": "C4",
          "midi": 60,
          "time": 79.60000000000011,
          "velocity": 0.7874015748031497,
          "duration": 0.20000000000000284
        },
        {
          "name": "C4",
          "midi": 60,
          "time": 80.4000000000001,
          "velocity": 0.7874015748031497,
          "duration": 0.20000000000000284
        },
        {
          "name": "D4",
          "midi": 62,
          "time": 80.80000000000011,
          "velocity": 0.6535433070866141,
          "duration": 0.7999999999999972
        },
        {
          "name": "E4",
          "midi": 64,
          "time": 82.00000000000011,
          "velocity": 0.7637795275590551,
          "duration": 0.09999999999999432
        },
        {
          "name": "C4",
          "midi": 60,
          "time": 82.4000000000001,
          "velocity": 0.6614173228346457,
          "duration": 0.09999999999999432
        },
        {
          "name": "E4",
          "midi": 64,
          "time": 82.8000000000001,
          "velocity": 0.6614173228346457,
          "duration": 0.09999999999999432
        },
        {
          "name": "C4",
          "midi": 60,
          "time": 83.20000000000009,
          "velocity": 0.7716535433070866,
          "duration": 0.09999999999999432
        },
        {
          "name": "C4",
          "midi": 60,
          "time": 83.60000000000008,
          "velocity": 0.7401574803149606,
          "duration": 0.09999999999999432
        },
        {
          "name": "F4",
          "midi": 65,
          "time": 83.95000000000007,
          "velocity": 0.7165354330708661,
          "duration": 0.04999999999999716
        },
        {
          "name": "F4",
          "midi": 65,
          "time": 84.05000000000007,
          "velocity": 0.7165354330708661,
          "duration": 0.04999999999999716
        },
        {
          "name": "F4",
          "midi": 65,
          "time": 84.40000000000006,
          "velocity": 0.7165354330708661,
          "duration": 0.09999999999999432
        },
        {
          "name": "D4",
          "midi": 62,
          "time": 85.40000000000006,
          "velocity": 0.6535433070866141,
          "duration": 2.5999999999999943
        },
        {
          "name": "E4",
          "midi": 64,
          "time": 89.60000000000005,
          "velocity": 0.7637795275590551,
          "duration": 0.20000000000000284
        },
        {
          "name": "D4",
          "midi": 62,
          "time": 90.00000000000006,
          "velocity": 0.7637795275590551,
          "duration": 0.20000000000000284
        },
        {
          "name": "E4",
          "midi": 64,
          "time": 90.40000000000006,
          "velocity": 0.7637795275590551,
          "duration": 0.20000000000000284
        },
        {
          "name": "D4",
          "midi": 62,
          "time": 91.20000000000006,
          "velocity": 0.6535433070866141,
          "duration": 0.5999999999999943
        },
        {
          "name": "C4",
          "midi": 60,
          "time": 94.40000000000005,
          "velocity": 0.6771653543307087,
          "duration": 0.09999999999999432
        },
        {
          "name": "C4",
          "midi": 60,
          "time": 94.80000000000004,
          "velocity": 0.7007874015748031,
          "duration": 0.11666666666666003
        },
        {
          "name": "C4",
          "midi": 60,
          "time": 95.40000000000003,
          "velocity": 0.7086614173228346,
          "duration": 0.09999999999999432
        },
        {
          "name": "C4",
          "midi": 60,
          "time": 95.80000000000003,
          "velocity": 0.6456692913385826,
          "duration": 0.01666666666666572
        },
        {
          "name": "E4",
          "midi": 64,
          "time": 96.00000000000003,
          "velocity": 0.7559055118110236,
          "duration": 0.09999999999999432
        },
        {
          "name": "D4",
          "midi": 62,
          "time": 99.00000000000003,
          "velocity": 0.7637795275590551,
          "duration": 0.20000000000000284
        },
        {
          "name": "E4",
          "midi": 64,
          "time": 100.80000000000003,
          "velocity": 0.7559055118110236,
          "duration": 0.09999999999999432
        },
        {
          "name": "F4",
          "midi": 65,
          "time": 101.80000000000003,
          "velocity": 0.7559055118110236,
          "duration": 0.09999999999999432
        },
        {
          "name": "E4",
          "midi": 64,
          "time": 102.40000000000002,
          "velocity": 0.7559055118110236,
          "duration": 0.09999999999999432
        },
        {
          "name": "E4",
          "midi": 64,
          "time": 104.00000000000001,
          "velocity": 0.7559055118110236,
          "duration": 0.09999999999999432
        },
        {
          "name": "D4",
          "midi": 62,
          "time": 104.80000000000001,
          "velocity": 0.7874015748031497,
          "duration": 1.5999999999999943
        },
        {
          "name": "E4",
          "midi": 64,
          "time": 107.2,
          "velocity": 0.7559055118110236,
          "duration": 0.09999999999999432
        },
        {
          "name": "F4",
          "midi": 65,
          "time": 108.8,
          "velocity": 0.7165354330708661,
          "duration": 0.09999999999999432
        },
        {
          "name": "D4",
          "midi": 62,
          "time": 108.8,
          "velocity": 0.7559055118110236,
          "duration": 0.7999999999999972
        },
        {
          "name": "F4",
          "midi": 65,
          "time": 109.6,
          "velocity": 0.7165354330708661,
          "duration": 0.09999999999999432
        },
        {
          "name": "E4",
          "midi": 64,
          "time": 110.39999999999999,
          "velocity": 0.7559055118110236,
          "duration": 0.09999999999999432
        },
        {
          "name": "E4",
          "midi": 64,
          "time": 111.39999999999999,
          "velocity": 0.7559055118110236,
          "duration": 0.09999999999999432
        },
        {
          "name": "C4",
          "midi": 60,
          "time": 111.79999999999998,
          "velocity": 0.7559055118110236,
          "duration": 0.09999999999999432
        },
        {
          "name": "F4",
          "midi": 65,
          "time": 113.29999999999998,
          "velocity": 0.7165354330708661,
          "duration": 0.09999999999999432
        },
        {
          "name": "E4",
          "midi": 64,
          "time": 113.59999999999998,
          "velocity": 0.7559055118110236,
          "duration": 0.09999999999999432
        },
        {
          "name": "E4",
          "midi": 64,
          "time": 115.19999999999997,
          "velocity": 0.7559055118110236,
          "duration": 0.09999999999999432
        },
        {
          "name": "C4",
          "midi": 60,
          "time": 115.99999999999997,
          "velocity": 0.7559055118110236,
          "duration": 0.09999999999999432
        },
        {
          "name": "E4",
          "midi": 64,
          "time": 116.79999999999997,
          "velocity": 0.7559055118110236,
          "duration": 0.09999999999999432
        },
        {
          "name": "D4",
          "midi": 62,
          "time": 117.59999999999997,
          "velocity": 0.7559055118110236,
          "duration": 1.5999999999999943
        },
        {
          "name": "E4",
          "midi": 64,
          "time": 119.99999999999996,
          "velocity": 0.7559055118110236,
          "duration": 0.09999999999999432
        },
        {
          "name": "D4",
          "midi": 62,
          "time": 120.79999999999995,
          "velocity": 0.7559055118110236,
          "duration": 0.7999999999999972
        },
        {
          "name": "D4",
          "midi": 62,
          "time": 122.39999999999995,
          "velocity": 0.7559055118110236,
          "duration": 3.200000000000003
        },
        {
          "name": "C4",
          "midi": 60,
          "time": 127.19999999999995,
          "velocity": 0.7559055118110236,
          "duration": 0.09999999999999432
        },
        {
          "name": "F4",
          "midi": 65,
          "time": 127.99999999999994,
          "velocity": 0.7165354330708661,
          "duration": 0.19999999999998863
        },
        {
          "name": "D4",
          "midi": 62,
          "time": 128.79999999999993,
          "velocity": 0.7559055118110236,
          "duration": 3.1999999999999886
        },
        {
          "name": "D4",
          "midi": 62,
          "time": 133.5999999999999,
          "velocity": 0.7559055118110236,
          "duration": 0.8000000000000114
        },
        {
          "name": "D4",
          "midi": 62,
          "time": 135.99999999999991,
          "velocity": 0.7559055118110236,
          "duration": 4
        },
        {
          "name": "C4",
          "midi": 60,
          "time": 140.0999999999999,
          "velocity": 0.7559055118110236,
          "duration": 0.09999999999999432
        }
      ],
      "controlChanges": {
        "6": [
          {
            "number": 6,
            "time": 0,
            "value": 0.09448818897637795
          },
          {
            "number": 6,
            "time": 0,
            "value": 0.09448818897637795
          },
          {
            "number": 6,
            "time": 0,
            "value": 0.09448818897637795
          },
          {
            "number": 6,
            "time": 147.99999999999991,
            "value": 0.09448818897637795
          },
          {
            "number": 6,
            "time": 147.99999999999991,
            "value": 0.09448818897637795
          }
        ],
        "7": [
          {
            "number": 7,
            "time": 0,
            "value": 0.7874015748031497
          },
          {
            "number": 7,
            "time": 0,
            "value": 0.7874015748031497
          },
          {
            "number": 7,
            "time": 0,
            "value": 0.7874015748031497
          },
          {
            "number": 7,
            "time": 0,
            "value": 0.7874015748031497
          },
          {
            "number": 7,
            "time": 147.99999999999991,
            "value": 0.7874015748031497
          },
          {
            "number": 7,
            "time": 147.99999999999991,
            "value": 0.7874015748031497
          }
        ],
        "10": [
          {
            "number": 10,
            "time": 0,
            "value": 0.5039370078740157
          },
          {
            "number": 10,
            "time": 0,
            "value": 0.5039370078740157
          },
          {
            "number": 10,
            "time": 0,
            "value": 0.5039370078740157
          },
          {
            "number": 10,
            "time": 0,
            "value": 0.5039370078740157
          },
          {
            "number": 10,
            "time": 147.99999999999991,
            "value": 0.5039370078740157
          },
          {
            "number": 10,
            "time": 147.99999999999991,
            "value": 0.5039370078740157
          }
        ],
        "100": [
          {
            "number": 100,
            "time": 0,
            "value": 0
          },
          {
            "number": 100,
            "time": 0,
            "value": 0
          },
          {
            "number": 100,
            "time": 0,
            "value": 0
          },
          {
            "number": 100,
            "time": 147.99999999999991,
            "value": 0
          },
          {
            "number": 100,
            "time": 147.99999999999991,
            "value": 0
          }
        ],
        "101": [
          {
            "number": 101,
            "time": 0,
            "value": 0
          },
          {
            "number": 101,
            "time": 0,
            "value": 0
          },
          {
            "number": 101,
            "time": 0,
            "value": 0
          },
          {
            "number": 101,
            "time": 147.99999999999991,
            "value": 0
          },
          {
            "number": 101,
            "time": 147.99999999999991,
            "value": 0
          }
        ]
      },
      "id": 6,
      "name": "S hard",
      "channelNumber": 0,
      "isPercussion": false
    },
    {
      "startTime": 2.6,
      "duration": 140.09999999999977,
      "length": 129,
      "notes": [
        {
          "name": "C4",
          "midi": 60,
          "time": 2.6,
          "velocity": 0.7244094488188977,
          "duration": 0.20000000000000018
        },
        {
          "name": "C4",
          "midi": 60,
          "time": 4.4,
          "velocity": 0.7086614173228346,
          "duration": 0.20000000000000018
        },
        {
          "name": "C4",
          "midi": 60,
          "time": 6.200000000000001,
          "velocity": 0.7559055118110236,
          "duration": 0.20000000000000018
        },
        {
          "name": "C4",
          "midi": 60,
          "time": 7.400000000000001,
          "velocity": 0.6929133858267716,
          "duration": 0.20000000000000018
        },
        {
          "name": "E4",
          "midi": 64,
          "time": 8.000000000000002,
          "velocity": 0.7007874015748031,
          "duration": 0.09999999999999964
        },
        {
          "name": "E4",
          "midi": 64,
          "time": 9.600000000000001,
          "velocity": 0.7007874015748031,
          "duration": 0.09999999999999964
        },
        {
          "name": "F4",
          "midi": 65,
          "time": 10.000000000000002,
          "velocity": 0.7559055118110236,
          "duration": 0.40000000000000036
        },
        {
          "name": "C4",
          "midi": 60,
          "time": 11.000000000000002,
          "velocity": 0.7244094488188977,
          "duration": 0.09999999999999964
        },
        {
          "name": "E4",
          "midi": 64,
          "time": 11.200000000000001,
          "velocity": 0.7007874015748031,
          "duration": 0.09999999999999964
        },
        {
          "name": "C4",
          "midi": 60,
          "time": 13.4,
          "velocity": 0.7086614173228346,
          "duration": 0.09999999999999964
        },
        {
          "name": "C4",
          "midi": 60,
          "time": 13.8,
          "velocity": 0.7007874015748031,
          "duration": 0.016666666666667496
        },
        {
          "name": "C4",
          "midi": 60,
          "time": 14.600000000000001,
          "velocity": 0.6771653543307087,
          "duration": 0.09999999999999964
        },
        {
          "name": "C4",
          "midi": 60,
          "time": 15.000000000000002,
          "velocity": 0.6692913385826772,
          "duration": 0.09999999999999964
        },
        {
          "name": "E4",
          "midi": 64,
          "time": 15.200000000000001,
          "velocity": 0.7165354330708661,
          "duration": 0.09999999999999964
        },
        {
          "name": "E4",
          "midi": 64,
          "time": 15.600000000000001,
          "velocity": 0.7086614173228346,
          "duration": 0.09999999999999964
        },
        {
          "name": "C4",
          "midi": 60,
          "time": 15.8,
          "velocity": 0.6062992125984252,
          "duration": 0.09999999999999964
        },
        {
          "name": "E4",
          "midi": 64,
          "time": 16,
          "velocity": 0.6062992125984252,
          "duration": 0.10000000000000142
        },
        {
          "name": "F4",
          "midi": 65,
          "time": 18.400000000000002,
          "velocity": 0.7559055118110236,
          "duration": 0.3999999999999986
        },
        {
          "name": "F4",
          "midi": 65,
          "time": 20,
          "velocity": 0.7559055118110236,
          "duration": 0.3999999999999986
        },
        {
          "name": "E4",
          "midi": 64,
          "time": 20.799999999999997,
          "velocity": 0.6062992125984252,
          "duration": 0.10000000000000142
        },
        {
          "name": "C4",
          "midi": 60,
          "time": 21.599999999999998,
          "velocity": 0.6062992125984252,
          "duration": 0.10000000000000142
        },
        {
          "name": "D4",
          "midi": 62,
          "time": 22,
          "velocity": 0.6062992125984252,
          "duration": 0.8000000000000007
        },
        {
          "name": "E4",
          "midi": 64,
          "time": 23.2,
          "velocity": 0.7874015748031497,
          "duration": 0.10000000000000142
        },
        {
          "name": "C4",
          "midi": 60,
          "time": 23.8,
          "velocity": 0.7637795275590551,
          "duration": 0.10000000000000142
        },
        {
          "name": "C4",
          "midi": 60,
          "time": 24.8,
          "velocity": 0.7637795275590551,
          "duration": 0.10000000000000142
        },
        {
          "name": "D4",
          "midi": 62,
          "time": 25.6,
          "velocity": 0.7559055118110236,
          "duration": 0.3999999999999986
        },
        {
          "name": "C4",
          "midi": 60,
          "time": 26.4,
          "velocity": 0.7637795275590551,
          "duration": 0.10000000000000142
        },
        {
          "name": "E4",
          "midi": 64,
          "time": 26.8,
          "velocity": 0.7637795275590551,
          "duration": 0.10000000000000142
        },
        {
          "name": "E4",
          "midi": 64,
          "time": 27.000000000000004,
          "velocity": 0.7637795275590551,
          "duration": 0.10000000000000142
        },
        {
          "name": "E4",
          "midi": 64,
          "time": 27.200000000000006,
          "velocity": 0.7637795275590551,
          "duration": 0.10000000000000142
        },
        {
          "name": "C4",
          "midi": 60,
          "time": 28.000000000000007,
          "velocity": 0.7637795275590551,
          "duration": 0.10000000000000142
        },
        {
          "name": "E4",
          "midi": 64,
          "time": 29.60000000000001,
          "velocity": 0.7637795275590551,
          "duration": 0.10000000000000142
        },
        {
          "name": "D4",
          "midi": 62,
          "time": 30.40000000000001,
          "velocity": 0.7637795275590551,
          "duration": 0.3999999999999986
        },
        {
          "name": "E4",
          "midi": 64,
          "time": 31.200000000000006,
          "velocity": 0.7637795275590551,
          "duration": 0.10000000000000142
        },
        {
          "name": "E4",
          "midi": 64,
          "time": 31.40000000000001,
          "velocity": 0.7637795275590551,
          "duration": 0.10000000000000142
        },
        {
          "name": "C4",
          "midi": 60,
          "time": 32.80000000000001,
          "velocity": 0.7637795275590551,
          "duration": 0.10000000000000142
        },
        {
          "name": "E4",
          "midi": 64,
          "time": 34.40000000000001,
          "velocity": 0.7637795275590551,
          "duration": 0.10000000000000142
        },
        {
          "name": "E4",
          "midi": 64,
          "time": 36.000000000000014,
          "velocity": 0.7637795275590551,
          "duration": 0.10000000000000142
        },
        {
          "name": "D4",
          "midi": 62,
          "time": 36.80000000000002,
          "velocity": 0.7637795275590551,
          "duration": 0.3999999999999986
        },
        {
          "name": "D4",
          "midi": 62,
          "time": 37.600000000000016,
          "velocity": 0.7637795275590551,
          "duration": 0.3999999999999986
        },
        {
          "name": "F4",
          "midi": 65,
          "time": 38.40000000000001,
          "velocity": 0.7559055118110236,
          "duration": 0.20000000000000284
        },
        {
          "name": "F4",
          "midi": 65,
          "time": 38.80000000000002,
          "velocity": 0.7559055118110236,
          "duration": 0.20000000000000284
        },
        {
          "name": "F4",
          "midi": 65,
          "time": 39.90000000000002,
          "velocity": 0.7559055118110236,
          "duration": 0.10000000000000142
        },
        {
          "name": "C4",
          "midi": 60,
          "time": 40.40000000000002,
          "velocity": 0.7637795275590551,
          "duration": 0.10000000000000142
        },
        {
          "name": "E4",
          "midi": 64,
          "time": 40.80000000000002,
          "velocity": 0.7637795275590551,
          "duration": 0.10000000000000142
        },
        {
          "name": "C4",
          "midi": 60,
          "time": 42.00000000000002,
          "velocity": 0.7637795275590551,
          "duration": 0.10000000000000142
        },
        {
          "name": "E4",
          "midi": 64,
          "time": 42.40000000000002,
          "velocity": 0.7637795275590551,
          "duration": 0.10000000000000142
        },
        {
          "name": "D4",
          "midi": 62,
          "time": 43.200000000000024,
          "velocity": 0.7637795275590551,
          "duration": 0.7999999999999972
        },
        {
          "name": "D4",
          "midi": 62,
          "time": 45.60000000000002,
          "velocity": 0.7637795275590551,
          "duration": 0.7999999999999972
        },
        {
          "name": "C4",
          "midi": 60,
          "time": 49.60000000000002,
          "velocity": 0.7637795275590551,
          "duration": 0.10000000000000142
        },
        {
          "name": "F4",
          "midi": 65,
          "time": 50.00000000000002,
          "velocity": 0.7559055118110236,
          "duration": 0.10000000000000142
        },
        {
          "name": "C4",
          "midi": 60,
          "time": 51.200000000000024,
          "velocity": 0.7637795275590551,
          "duration": 0.10000000000000142
        },
        {
          "name": "E4",
          "midi": 64,
          "time": 52.800000000000026,
          "velocity": 0.7637795275590551,
          "duration": 0.10000000000000142
        },
        {
          "name": "F4",
          "midi": 65,
          "time": 53.200000000000024,
          "velocity": 0.7559055118110236,
          "duration": 0.10000000000000142
        },
        {
          "name": "F4",
          "midi": 65,
          "time": 58.40000000000003,
          "velocity": 0.7559055118110236,
          "duration": 0.10000000000000142
        },
        {
          "name": "E4",
          "midi": 64,
          "time": 59.20000000000003,
          "velocity": 0.7637795275590551,
          "duration": 0.10000000000000142
        },
        {
          "name": "F4",
          "midi": 65,
          "time": 60.000000000000036,
          "velocity": 0.7559055118110236,
          "duration": 0.10000000000000142
        },
        {
          "name": "F4",
          "midi": 65,
          "time": 62.400000000000034,
          "velocity": 0.7559055118110236,
          "duration": 0.10000000000000142
        },
        {
          "name": "C4",
          "midi": 60,
          "time": 62.400000000000034,
          "velocity": 0.7637795275590551,
          "duration": 0.10000000000000142
        },
        {
          "name": "C4",
          "midi": 60,
          "time": 64.00000000000003,
          "velocity": 0.7637795275590551,
          "duration": 0.09999999999999432
        },
        {
          "name": "F4",
          "midi": 65,
          "time": 64.00000000000003,
          "velocity": 0.7559055118110236,
          "duration": 0.09999999999999432
        },
        {
          "name": "D4",
          "midi": 62,
          "time": 65.60000000000002,
          "velocity": 0.7637795275590551,
          "duration": 4.799999999999997
        },
        {
          "name": "C4",
          "midi": 60,
          "time": 71.20000000000002,
          "velocity": 0.7874015748031497,
          "duration": 0.20000000000000284
        },
        {
          "name": "E4",
          "midi": 64,
          "time": 71.40000000000002,
          "velocity": 0.7874015748031497,
          "duration": 0.20000000000000284
        },
        {
          "name": "E4",
          "midi": 64,
          "time": 72.80000000000003,
          "velocity": 0.7874015748031497,
          "duration": 0.20000000000000284
        },
        {
          "name": "C4",
          "midi": 60,
          "time": 73.00000000000003,
          "velocity": 0.7874015748031497,
          "duration": 0.20000000000000284
        },
        {
          "name": "C4",
          "midi": 60,
          "time": 74.00000000000003,
          "velocity": 0.7874015748031497,
          "duration": 0.20000000000000284
        },
        {
          "name": "D4",
          "midi": 62,
          "time": 74.40000000000003,
          "velocity": 0.7637795275590551,
          "duration": 2.4000000000000057
        },
        {
          "name": "C4",
          "midi": 60,
          "time": 77.60000000000004,
          "velocity": 0.7165354330708661,
          "duration": 0.20000000000000284
        },
        {
          "name": "E4",
          "midi": 64,
          "time": 77.80000000000004,
          "velocity": 0.7165354330708661,
          "duration": 0.20000000000000284
        },
        {
          "name": "C4",
          "midi": 60,
          "time": 78.00000000000004,
          "velocity": 0.6614173228346457,
          "duration": 0.09999999999999432
        },
        {
          "name": "C4",
          "midi": 60,
          "time": 78.40000000000003,
          "velocity": 0.7874015748031497,
          "duration": 0.20000000000000284
        },
        {
          "name": "E4",
          "midi": 64,
          "time": 79.20000000000003,
          "velocity": 0.7874015748031497,
          "duration": 0.20000000000000284
        },
        {
          "name": "C4",
          "midi": 60,
          "time": 79.40000000000003,
          "velocity": 0.7874015748031497,
          "duration": 0.20000000000000284
        },
        {
          "name": "C4",
          "midi": 60,
          "time": 80.20000000000003,
          "velocity": 0.7874015748031497,
          "duration": 0.20000000000000284
        },
        {
          "name": "C4",
          "midi": 60,
          "time": 81.60000000000004,
          "velocity": 0.7637795275590551,
          "duration": 0.09999999999999432
        },
        {
          "name": "E4",
          "midi": 64,
          "time": 82.00000000000003,
          "velocity": 0.7637795275590551,
          "duration": 0.09999999999999432
        },
        {
          "name": "E4",
          "midi": 64,
          "time": 82.80000000000003,
          "velocity": 0.6614173228346457,
          "duration": 0.09999999999999432
        },
        {
          "name": "C4",
          "midi": 60,
          "time": 83.40000000000002,
          "velocity": 0.7165354330708661,
          "duration": 0.09999999999999432
        },
        {
          "name": "C4",
          "midi": 60,
          "time": 83.80000000000001,
          "velocity": 0.7086614173228346,
          "duration": 0.09999999999999432
        },
        {
          "name": "F4",
          "midi": 65,
          "time": 84,
          "velocity": 0.7165354330708661,
          "duration": 0.09999999999999432
        },
        {
          "name": "D4",
          "midi": 62,
          "time": 84,
          "velocity": 0.7401574803149606,
          "duration": 0.799999999999983
        },
        {
          "name": "F4",
          "midi": 65,
          "time": 84.69999999999999,
          "velocity": 0.7165354330708661,
          "duration": 0.09999999999999432
        },
        {
          "name": "D4",
          "midi": 62,
          "time": 87.99999999999999,
          "velocity": 0.6535433070866141,
          "duration": 3.200000000000003
        },
        {
          "name": "C4",
          "midi": 60,
          "time": 94.6,
          "velocity": 0.6771653543307087,
          "duration": 0.09999999999999432
        },
        {
          "name": "C4",
          "midi": 60,
          "time": 94.99999999999999,
          "velocity": 0.6771653543307087,
          "duration": 0.09999999999999432
        },
        {
          "name": "C4",
          "midi": 60,
          "time": 95.19999999999997,
          "velocity": 0.7637795275590551,
          "duration": 0.11666666666666003
        },
        {
          "name": "C4",
          "midi": 60,
          "time": 95.59999999999997,
          "velocity": 0.6614173228346457,
          "duration": 0.09999999999999432
        },
        {
          "name": "E4",
          "midi": 64,
          "time": 95.99999999999996,
          "velocity": 0.7401574803149606,
          "duration": 0.09999999999999432
        },
        {
          "name": "E4",
          "midi": 64,
          "time": 97.59999999999995,
          "velocity": 0.7559055118110236,
          "duration": 0.09999999999999432
        },
        {
          "name": "E4",
          "midi": 64,
          "time": 98.39999999999995,
          "velocity": 0.7559055118110236,
          "duration": 0.09999999999999432
        },
        {
          "name": "D4",
          "midi": 62,
          "time": 98.79999999999994,
          "velocity": 0.8031496062992126,
          "duration": 0.20000000000000284
        },
        {
          "name": "E4",
          "midi": 64,
          "time": 100.79999999999994,
          "velocity": 0.7559055118110236,
          "duration": 0.09999999999999432
        },
        {
          "name": "F4",
          "midi": 65,
          "time": 101.79999999999994,
          "velocity": 0.7559055118110236,
          "duration": 0.09999999999999432
        },
        {
          "name": "E4",
          "midi": 64,
          "time": 102.39999999999993,
          "velocity": 0.7559055118110236,
          "duration": 0.09999999999999432
        },
        {
          "name": "D4",
          "midi": 62,
          "time": 103.19999999999993,
          "velocity": 0.7874015748031497,
          "duration": 1.5999999999999943
        },
        {
          "name": "C4",
          "midi": 60,
          "time": 105.19999999999993,
          "velocity": 0.7559055118110236,
          "duration": 0.09999999999999432
        },
        {
          "name": "C4",
          "midi": 60,
          "time": 105.59999999999992,
          "velocity": 0.7559055118110236,
          "duration": 0.09999999999999432
        },
        {
          "name": "C4",
          "midi": 60,
          "time": 106.19999999999992,
          "velocity": 0.7559055118110236,
          "duration": 0.09999999999999432
        },
        {
          "name": "C4",
          "midi": 60,
          "time": 106.3999999999999,
          "velocity": 0.7559055118110236,
          "duration": 0.09999999999999432
        },
        {
          "name": "E4",
          "midi": 64,
          "time": 107.1999999999999,
          "velocity": 0.7559055118110236,
          "duration": 0.09999999999999432
        },
        {
          "name": "C4",
          "midi": 60,
          "time": 107.9999999999999,
          "velocity": 0.7559055118110236,
          "duration": 0.09999999999999432
        },
        {
          "name": "F4",
          "midi": 65,
          "time": 108.7999999999999,
          "velocity": 0.7165354330708661,
          "duration": 0.09999999999999432
        },
        {
          "name": "D4",
          "midi": 62,
          "time": 108.7999999999999,
          "velocity": 0.7559055118110236,
          "duration": 0.7999999999999972
        },
        {
          "name": "F4",
          "midi": 65,
          "time": 109.5999999999999,
          "velocity": 0.7165354330708661,
          "duration": 0.09999999999999432
        },
        {
          "name": "E4",
          "midi": 64,
          "time": 110.39999999999989,
          "velocity": 0.7559055118110236,
          "duration": 0.09999999999999432
        },
        {
          "name": "C4",
          "midi": 60,
          "time": 110.79999999999988,
          "velocity": 0.7559055118110236,
          "duration": 0.09999999999999432
        },
        {
          "name": "E4",
          "midi": 64,
          "time": 111.39999999999988,
          "velocity": 0.7559055118110236,
          "duration": 0.09999999999999432
        },
        {
          "name": "C4",
          "midi": 60,
          "time": 111.59999999999987,
          "velocity": 0.7559055118110236,
          "duration": 0.09999999999999432
        },
        {
          "name": "E4",
          "midi": 64,
          "time": 111.99999999999986,
          "velocity": 0.7559055118110236,
          "duration": 0.09999999999999432
        },
        {
          "name": "C4",
          "midi": 60,
          "time": 112.59999999999985,
          "velocity": 0.7559055118110236,
          "duration": 0.09999999999999432
        },
        {
          "name": "E4",
          "midi": 64,
          "time": 113.59999999999985,
          "velocity": 0.7559055118110236,
          "duration": 0.09999999999999432
        },
        {
          "name": "F4",
          "midi": 65,
          "time": 113.79999999999984,
          "velocity": 0.7165354330708661,
          "duration": 0.09999999999999432
        },
        {
          "name": "D4",
          "midi": 62,
          "time": 113.79999999999984,
          "velocity": 0.7559055118110236,
          "duration": 0.5999999999999943
        },
        {
          "name": "E4",
          "midi": 64,
          "time": 115.19999999999983,
          "velocity": 0.7559055118110236,
          "duration": 0.09999999999999432
        },
        {
          "name": "D4",
          "midi": 62,
          "time": 115.39999999999982,
          "velocity": 0.7559055118110236,
          "duration": 0.5999999999999943
        },
        {
          "name": "E4",
          "midi": 64,
          "time": 116.79999999999981,
          "velocity": 0.7559055118110236,
          "duration": 0.09999999999999432
        },
        {
          "name": "C4",
          "midi": 60,
          "time": 117.59999999999981,
          "velocity": 0.7559055118110236,
          "duration": 0.09999999999999432
        },
        {
          "name": "C4",
          "midi": 60,
          "time": 118.3999999999998,
          "velocity": 0.7559055118110236,
          "duration": 0.09999999999999432
        },
        {
          "name": "D4",
          "midi": 62,
          "time": 119.1999999999998,
          "velocity": 0.7559055118110236,
          "duration": 1.5999999999999943
        },
        {
          "name": "D4",
          "midi": 62,
          "time": 121.5999999999998,
          "velocity": 0.7559055118110236,
          "duration": 0.7999999999999972
        },
        {
          "name": "F4",
          "midi": 65,
          "time": 123.19999999999979,
          "velocity": 0.7165354330708661,
          "duration": 0.20000000000000284
        },
        {
          "name": "C4",
          "midi": 60,
          "time": 125.5999999999998,
          "velocity": 0.7559055118110236,
          "duration": 0.09999999999999432
        },
        {
          "name": "D4",
          "midi": 62,
          "time": 127.19999999999979,
          "velocity": 0.7559055118110236,
          "duration": 1.5999999999999943
        },
        {
          "name": "F4",
          "midi": 65,
          "time": 129.5999999999998,
          "velocity": 0.7165354330708661,
          "duration": 0.19999999999998863
        },
        {
          "name": "D4",
          "midi": 62,
          "time": 131.99999999999977,
          "velocity": 0.7559055118110236,
          "duration": 1.5999999999999943
        },
        {
          "name": "C4",
          "midi": 60,
          "time": 134.39999999999978,
          "velocity": 0.7559055118110236,
          "duration": 0.09999999999999432
        },
        {
          "name": "C4",
          "midi": 60,
          "time": 135.99999999999977,
          "velocity": 0.7559055118110236,
          "duration": 0.09999999999999432
        },
        {
          "name": "C4",
          "midi": 60,
          "time": 139.99999999999977,
          "velocity": 0.7559055118110236,
          "duration": 0.09999999999999432
        }
      ],
      "controlChanges": {
        "6": [
          {
            "number": 6,
            "time": 0,
            "value": 0.09448818897637795
          },
          {
            "number": 6,
            "time": 0,
            "value": 0.09448818897637795
          },
          {
            "number": 6,
            "time": 0,
            "value": 0.09448818897637795
          },
          {
            "number": 6,
            "time": 147.99999999999977,
            "value": 0.09448818897637795
          },
          {
            "number": 6,
            "time": 147.99999999999977,
            "value": 0.09448818897637795
          }
        ],
        "7": [
          {
            "number": 7,
            "time": 0,
            "value": 0.7874015748031497
          },
          {
            "number": 7,
            "time": 0,
            "value": 0.7874015748031497
          },
          {
            "number": 7,
            "time": 0,
            "value": 0.7874015748031497
          },
          {
            "number": 7,
            "time": 0,
            "value": 0.7874015748031497
          },
          {
            "number": 7,
            "time": 147.99999999999977,
            "value": 0.7874015748031497
          },
          {
            "number": 7,
            "time": 147.99999999999977,
            "value": 0.7874015748031497
          }
        ],
        "10": [
          {
            "number": 10,
            "time": 0,
            "value": 0.5039370078740157
          },
          {
            "number": 10,
            "time": 0,
            "value": 0.5039370078740157
          },
          {
            "number": 10,
            "time": 0,
            "value": 0.5039370078740157
          },
          {
            "number": 10,
            "time": 0,
            "value": 0.5039370078740157
          },
          {
            "number": 10,
            "time": 147.99999999999977,
            "value": 0.5039370078740157
          },
          {
            "number": 10,
            "time": 147.99999999999977,
            "value": 0.5039370078740157
          }
        ],
        "100": [
          {
            "number": 100,
            "time": 0,
            "value": 0
          },
          {
            "number": 100,
            "time": 0,
            "value": 0
          },
          {
            "number": 100,
            "time": 0,
            "value": 0
          },
          {
            "number": 100,
            "time": 147.99999999999977,
            "value": 0
          },
          {
            "number": 100,
            "time": 147.99999999999977,
            "value": 0
          }
        ],
        "101": [
          {
            "number": 101,
            "time": 0,
            "value": 0
          },
          {
            "number": 101,
            "time": 0,
            "value": 0
          },
          {
            "number": 101,
            "time": 0,
            "value": 0
          },
          {
            "number": 101,
            "time": 147.99999999999977,
            "value": 0
          },
          {
            "number": 101,
            "time": 147.99999999999977,
            "value": 0
          }
        ]
      },
      "id": 7,
      "name": "D hard",
      "channelNumber": 0,
      "isPercussion": false
    },
    {
      "startTime": 0,
      "duration": 0,
      "length": 0,
      "notes": [],
      "controlChanges": {},
      "id": 8,
      "name": "LABS"
    }
  ]
}