{
  "header": {
    "PPQ": 96,
    "timeSignature": [
      4,
      4
    ],
    "bpm": 150,
    "name": "A hard"
  },
  "tempo": [
    {
      "absoluteTime": 0,
      "seconds": 0,
      "bpm": 150
    }
  ],
  "timeSignature": [
    {
      "absoluteTime": 0,
      "seconds": 0,
      "numerator": 4,
      "denominator": 2,
      "click": 24,
      "notesQ": 8
    }
  ],
  "startTime": 0,
  "duration": 131.8999999999998,
  "tracks": [
    {
      "startTime": 0,
      "duration": 0,
      "length": 0,
      "notes": [],
      "controlChanges": {},
      "id": 0
    },
    {
      "startTime": 0,
      "duration": 0,
      "length": 0,
      "notes": [],
      "controlChanges": {},
      "id": 1
    },
    {
      "startTime": 1,
      "duration": 131.69999999999953,
      "length": 170,
      "notes": [
        {
          "name": "C4",
          "midi": 60,
          "time": 1,
          "velocity": 0.6850393700787402,
          "duration": 0.10000000000000009
        },
        {
          "name": "C4",
          "midi": 60,
          "time": 1.6,
          "velocity": 0.6614173228346457,
          "duration": 0.10000000000000009
        },
        {
          "name": "C4",
          "midi": 60,
          "time": 2.2,
          "velocity": 0.6614173228346457,
          "duration": 0.10000000000000009
        },
        {
          "name": "C4",
          "midi": 60,
          "time": 2.6000000000000005,
          "velocity": 0.6614173228346457,
          "duration": 0.10000000000000009
        },
        {
          "name": "C4",
          "midi": 60,
          "time": 3.2000000000000006,
          "velocity": 0.7322834645669292,
          "duration": 0.10000000000000009
        },
        {
          "name": "C4",
          "midi": 60,
          "time": 3.8000000000000007,
          "velocity": 0.6692913385826772,
          "duration": 0.10000000000000009
        },
        {
          "name": "C4",
          "midi": 60,
          "time": 4.200000000000001,
          "velocity": 0.6850393700787402,
          "duration": 0.09999999999999964
        },
        {
          "name": "C4",
          "midi": 60,
          "time": 4.800000000000001,
          "velocity": 0.6614173228346457,
          "duration": 0.09999999999999964
        },
        {
          "name": "C4",
          "midi": 60,
          "time": 5.4,
          "velocity": 0.6614173228346457,
          "duration": 0.09999999999999964
        },
        {
          "name": "C4",
          "midi": 60,
          "time": 5.8,
          "velocity": 0.6850393700787402,
          "duration": 0.09999999999999964
        },
        {
          "name": "C4",
          "midi": 60,
          "time": 6.3999999999999995,
          "velocity": 0.6614173228346457,
          "duration": 0.09999999999999964
        },
        {
          "name": "E4",
          "midi": 64,
          "time": 6.799999999999999,
          "velocity": 0.6614173228346457,
          "duration": 0.09999999999999964
        },
        {
          "name": "C4",
          "midi": 60,
          "time": 6.999999999999998,
          "velocity": 0.6614173228346457,
          "duration": 0.09999999999999964
        },
        {
          "name": "F4",
          "midi": 65,
          "time": 7.1999999999999975,
          "velocity": 0.7874015748031497,
          "duration": 0.20000000000000018
        },
        {
          "name": "E4",
          "midi": 64,
          "time": 9.599999999999998,
          "velocity": 0.6614173228346457,
          "duration": 0.09999999999999964
        },
        {
          "name": "F4",
          "midi": 65,
          "time": 10.399999999999997,
          "velocity": 0.7874015748031497,
          "duration": 0.1999999999999993
        },
        {
          "name": "D4",
          "midi": 62,
          "time": 10.399999999999997,
          "velocity": 0.6614173228346457,
          "duration": 2.4000000000000004
        },
        {
          "name": "C4",
          "midi": 60,
          "time": 12.999999999999996,
          "velocity": 0.6614173228346457,
          "duration": 0.09999999999999964
        },
        {
          "name": "C4",
          "midi": 60,
          "time": 13.399999999999997,
          "velocity": 0.6614173228346457,
          "duration": 0.09999999999999964
        },
        {
          "name": "E4",
          "midi": 64,
          "time": 13.599999999999996,
          "velocity": 0.6614173228346457,
          "duration": 0.09999999999999964
        },
        {
          "name": "F4",
          "midi": 65,
          "time": 13.899999999999995,
          "velocity": 0.7874015748031497,
          "duration": 0.1999999999999993
        },
        {
          "name": "E4",
          "midi": 64,
          "time": 14.199999999999994,
          "velocity": 0.6614173228346457,
          "duration": 0.09999999999999964
        },
        {
          "name": "F4",
          "midi": 65,
          "time": 14.799999999999994,
          "velocity": 0.7874015748031497,
          "duration": 0.1999999999999993
        },
        {
          "name": "F4",
          "midi": 65,
          "time": 14.999999999999993,
          "velocity": 0.7874015748031497,
          "duration": 0.1999999999999993
        },
        {
          "name": "F4",
          "midi": 65,
          "time": 15.199999999999992,
          "velocity": 0.7874015748031497,
          "duration": 0.1999999999999993
        },
        {
          "name": "E4",
          "midi": 64,
          "time": 16.79999999999999,
          "velocity": 0.6614173228346457,
          "duration": 0.10000000000000142
        },
        {
          "name": "E4",
          "midi": 64,
          "time": 17.39999999999999,
          "velocity": 0.6614173228346457,
          "duration": 0.10000000000000142
        },
        {
          "name": "E4",
          "midi": 64,
          "time": 19.199999999999992,
          "velocity": 0.6614173228346457,
          "duration": 0.10000000000000142
        },
        {
          "name": "E4",
          "midi": 64,
          "time": 19.999999999999993,
          "velocity": 0.6614173228346457,
          "duration": 0.10000000000000142
        },
        {
          "name": "E4",
          "midi": 64,
          "time": 20.599999999999994,
          "velocity": 0.6614173228346457,
          "duration": 0.10000000000000142
        },
        {
          "name": "E4",
          "midi": 64,
          "time": 21.199999999999996,
          "velocity": 0.6614173228346457,
          "duration": 0.10000000000000142
        },
        {
          "name": "E4",
          "midi": 64,
          "time": 21.4,
          "velocity": 0.6614173228346457,
          "duration": 0.10000000000000142
        },
        {
          "name": "E4",
          "midi": 64,
          "time": 21.6,
          "velocity": 0.6614173228346457,
          "duration": 0.10000000000000142
        },
        {
          "name": "E4",
          "midi": 64,
          "time": 23.200000000000003,
          "velocity": 0.6614173228346457,
          "duration": 0.10000000000000142
        },
        {
          "name": "E4",
          "midi": 64,
          "time": 23.800000000000004,
          "velocity": 0.6614173228346457,
          "duration": 0.10000000000000142
        },
        {
          "name": "F4",
          "midi": 65,
          "time": 24.000000000000007,
          "velocity": 0.7874015748031497,
          "duration": 0.1999999999999993
        },
        {
          "name": "D4",
          "midi": 62,
          "time": 26.400000000000006,
          "velocity": 0.6614173228346457,
          "duration": 1.6000000000000014
        },
        {
          "name": "E4",
          "midi": 64,
          "time": 29.400000000000006,
          "velocity": 0.6614173228346457,
          "duration": 0.10000000000000142
        },
        {
          "name": "E4",
          "midi": 64,
          "time": 29.60000000000001,
          "velocity": 0.6614173228346457,
          "duration": 0.10000000000000142
        },
        {
          "name": "E4",
          "midi": 64,
          "time": 31.20000000000001,
          "velocity": 0.6614173228346457,
          "duration": 0.10000000000000142
        },
        {
          "name": "F4",
          "midi": 65,
          "time": 31.600000000000012,
          "velocity": 0.7874015748031497,
          "duration": 0.1999999999999993
        },
        {
          "name": "E4",
          "midi": 64,
          "time": 32.80000000000001,
          "velocity": 0.6614173228346457,
          "duration": 0.10000000000000142
        },
        {
          "name": "E4",
          "midi": 64,
          "time": 34.20000000000001,
          "velocity": 0.6614173228346457,
          "duration": 0.10000000000000142
        },
        {
          "name": "E4",
          "midi": 64,
          "time": 34.40000000000001,
          "velocity": 0.6614173228346457,
          "duration": 0.10000000000000142
        },
        {
          "name": "F4",
          "midi": 65,
          "time": 34.80000000000001,
          "velocity": 0.7874015748031497,
          "duration": 0.20000000000000284
        },
        {
          "name": "C4",
          "midi": 60,
          "time": 38.70000000000002,
          "velocity": 0.6614173228346457,
          "duration": 0.10000000000000142
        },
        {
          "name": "C4",
          "midi": 60,
          "time": 41.00000000000002,
          "velocity": 0.6614173228346457,
          "duration": 0.10000000000000142
        },
        {
          "name": "C4",
          "midi": 60,
          "time": 41.40000000000002,
          "velocity": 0.6614173228346457,
          "duration": 0.10000000000000142
        },
        {
          "name": "C4",
          "midi": 60,
          "time": 42.10000000000002,
          "velocity": 0.6614173228346457,
          "duration": 0.10000000000000142
        },
        {
          "name": "E4",
          "midi": 64,
          "time": 43.800000000000026,
          "velocity": 0.6614173228346457,
          "duration": 0.10000000000000142
        },
        {
          "name": "E4",
          "midi": 64,
          "time": 44.300000000000026,
          "velocity": 0.6614173228346457,
          "duration": 0.10000000000000142
        },
        {
          "name": "E4",
          "midi": 64,
          "time": 45.00000000000003,
          "velocity": 0.6614173228346457,
          "duration": 0.10000000000000142
        },
        {
          "name": "C4",
          "midi": 60,
          "time": 45.40000000000003,
          "velocity": 0.6614173228346457,
          "duration": 0.10000000000000142
        },
        {
          "name": "F4",
          "midi": 65,
          "time": 45.60000000000003,
          "velocity": 0.7874015748031497,
          "duration": 0.20000000000000284
        },
        {
          "name": "C4",
          "midi": 60,
          "time": 47.400000000000034,
          "velocity": 0.6614173228346457,
          "duration": 0.10000000000000142
        },
        {
          "name": "C4",
          "midi": 60,
          "time": 47.80000000000003,
          "velocity": 0.6614173228346457,
          "duration": 0.10000000000000142
        },
        {
          "name": "C4",
          "midi": 60,
          "time": 48.500000000000036,
          "velocity": 0.6614173228346457,
          "duration": 0.10000000000000142
        },
        {
          "name": "F4",
          "midi": 65,
          "time": 50.20000000000004,
          "velocity": 0.7874015748031497,
          "duration": 0.20000000000000284
        },
        {
          "name": "F4",
          "midi": 65,
          "time": 50.40000000000004,
          "velocity": 0.7874015748031497,
          "duration": 0.20000000000000284
        },
        {
          "name": "F4",
          "midi": 65,
          "time": 50.600000000000044,
          "velocity": 0.7874015748031497,
          "duration": 0.20000000000000284
        },
        {
          "name": "E4",
          "midi": 64,
          "time": 51.200000000000045,
          "velocity": 0.6614173228346457,
          "duration": 0.10000000000000142
        },
        {
          "name": "C4",
          "midi": 60,
          "time": 51.80000000000005,
          "velocity": 0.6614173228346457,
          "duration": 0.10000000000000142
        },
        {
          "name": "C4",
          "midi": 60,
          "time": 52.40000000000005,
          "velocity": 0.6614173228346457,
          "duration": 0.10000000000000142
        },
        {
          "name": "C4",
          "midi": 60,
          "time": 53.60000000000005,
          "velocity": 0.6614173228346457,
          "duration": 0.10000000000000142
        },
        {
          "name": "C4",
          "midi": 60,
          "time": 55.20000000000005,
          "velocity": 0.6614173228346457,
          "duration": 0.10000000000000142
        },
        {
          "name": "C4",
          "midi": 60,
          "time": 56.400000000000055,
          "velocity": 0.6614173228346457,
          "duration": 0.10000000000000142
        },
        {
          "name": "E4",
          "midi": 64,
          "time": 57.20000000000006,
          "velocity": 0.6614173228346457,
          "duration": 0.10000000000000142
        },
        {
          "name": "F4",
          "midi": 65,
          "time": 57.40000000000006,
          "velocity": 0.7874015748031497,
          "duration": 0.20000000000000284
        },
        {
          "name": "E4",
          "midi": 64,
          "time": 58.80000000000007,
          "velocity": 0.6614173228346457,
          "duration": 0.10000000000000142
        },
        {
          "name": "E4",
          "midi": 64,
          "time": 59.20000000000007,
          "velocity": 0.6614173228346457,
          "duration": 0.10000000000000142
        },
        {
          "name": "E4",
          "midi": 64,
          "time": 59.600000000000065,
          "velocity": 0.6614173228346457,
          "duration": 0.10000000000000142
        },
        {
          "name": "E4",
          "midi": 64,
          "time": 60.000000000000064,
          "velocity": 0.6614173228346457,
          "duration": 0.10000000000000142
        },
        {
          "name": "E4",
          "midi": 64,
          "time": 60.40000000000006,
          "velocity": 0.6614173228346457,
          "duration": 0.10000000000000142
        },
        {
          "name": "F4",
          "midi": 65,
          "time": 60.600000000000065,
          "velocity": 0.7874015748031497,
          "duration": 0.20000000000000284
        },
        {
          "name": "E4",
          "midi": 64,
          "time": 60.80000000000007,
          "velocity": 0.6614173228346457,
          "duration": 0.10000000000000142
        },
        {
          "name": "E4",
          "midi": 64,
          "time": 61.20000000000007,
          "velocity": 0.6614173228346457,
          "duration": 0.10000000000000142
        },
        {
          "name": "E4",
          "midi": 64,
          "time": 61.600000000000065,
          "velocity": 0.6614173228346457,
          "duration": 0.10000000000000142
        },
        {
          "name": "E4",
          "midi": 64,
          "time": 62.000000000000064,
          "velocity": 0.6614173228346457,
          "duration": 0.10000000000000142
        },
        {
          "name": "E4",
          "midi": 64,
          "time": 62.40000000000006,
          "velocity": 0.6614173228346457,
          "duration": 0.10000000000000142
        },
        {
          "name": "E4",
          "midi": 64,
          "time": 62.80000000000006,
          "velocity": 0.6614173228346457,
          "duration": 0.10000000000000142
        },
        {
          "name": "F4",
          "midi": 65,
          "time": 63.20000000000006,
          "velocity": 0.7874015748031497,
          "duration": 0.20000000000000284
        },
        {
          "name": "D4",
          "midi": 62,
          "time": 64.40000000000006,
          "velocity": 0.6614173228346457,
          "duration": 0.4000000000000057
        },
        {
          "name": "E4",
          "midi": 64,
          "time": 66.00000000000007,
          "velocity": 0.6614173228346457,
          "duration": 0.09999999999999432
        },
        {
          "name": "F4",
          "midi": 65,
          "time": 67.50000000000007,
          "velocity": 0.7874015748031497,
          "duration": 0.09999999999999432
        },
        {
          "name": "F4",
          "midi": 65,
          "time": 67.60000000000007,
          "velocity": 0.7874015748031497,
          "duration": 0.09999999999999432
        },
        {
          "name": "F4",
          "midi": 65,
          "time": 67.70000000000006,
          "velocity": 0.7874015748031497,
          "duration": 0.09999999999999432
        },
        {
          "name": "C4",
          "midi": 60,
          "time": 68.60000000000005,
          "velocity": 0.6614173228346457,
          "duration": 0.09999999999999432
        },
        {
          "name": "C4",
          "midi": 60,
          "time": 71.80000000000004,
          "velocity": 0.6614173228346457,
          "duration": 0.09999999999999432
        },
        {
          "name": "C4",
          "midi": 60,
          "time": 73.60000000000004,
          "velocity": 0.6614173228346457,
          "duration": 0.09999999999999432
        },
        {
          "name": "F4",
          "midi": 65,
          "time": 74.00000000000003,
          "velocity": 0.7874015748031497,
          "duration": 0.09999999999999432
        },
        {
          "name": "C4",
          "midi": 60,
          "time": 74.20000000000002,
          "velocity": 0.6614173228346457,
          "duration": 0.09999999999999432
        },
        {
          "name": "C4",
          "midi": 60,
          "time": 74.93333333333335,
          "velocity": 0.6614173228346457,
          "duration": 0.09999999999999432
        },
        {
          "name": "E4",
          "midi": 64,
          "time": 75.20000000000002,
          "velocity": 0.6614173228346457,
          "duration": 0.09999999999999432
        },
        {
          "name": "F4",
          "midi": 65,
          "time": 76.4,
          "velocity": 0.7874015748031497,
          "duration": 0.20000000000000284
        },
        {
          "name": "D4",
          "midi": 62,
          "time": 77.60000000000001,
          "velocity": 0.6614173228346457,
          "duration": 1.5999999999999943
        },
        {
          "name": "D4",
          "midi": 62,
          "time": 80.8,
          "velocity": 0.6614173228346457,
          "duration": 0.5999999999999943
        },
        {
          "name": "D4",
          "midi": 62,
          "time": 83.99999999999999,
          "velocity": 0.6614173228346457,
          "duration": 0.5999999999999943
        },
        {
          "name": "D4",
          "midi": 62,
          "time": 85.99999999999999,
          "velocity": 0.6614173228346457,
          "duration": 0.4000000000000057
        },
        {
          "name": "C4",
          "midi": 60,
          "time": 87.19999999999999,
          "velocity": 0.6614173228346457,
          "duration": 0.09999999999999432
        },
        {
          "name": "D4",
          "midi": 62,
          "time": 89.19999999999999,
          "velocity": 0.6614173228346457,
          "duration": 1.2000000000000028
        },
        {
          "name": "F4",
          "midi": 65,
          "time": 90.8,
          "velocity": 0.7874015748031497,
          "duration": 0.09999999999999432
        },
        {
          "name": "C4",
          "midi": 60,
          "time": 92.19999999999999,
          "velocity": 0.6614173228346457,
          "duration": 0.09999999999999432
        },
        {
          "name": "D4",
          "midi": 62,
          "time": 93.59999999999998,
          "velocity": 0.6614173228346457,
          "duration": 0.7999999999999972
        },
        {
          "name": "F4",
          "midi": 65,
          "time": 94.39999999999998,
          "velocity": 0.7874015748031497,
          "duration": 0.09999999999999432
        },
        {
          "name": "F4",
          "midi": 65,
          "time": 94.59999999999997,
          "velocity": 0.7874015748031497,
          "duration": 0.09999999999999432
        },
        {
          "name": "F4",
          "midi": 65,
          "time": 94.79999999999995,
          "velocity": 0.7874015748031497,
          "duration": 0.09999999999999432
        },
        {
          "name": "F4",
          "midi": 65,
          "time": 96.39999999999995,
          "velocity": 0.7874015748031497,
          "duration": 0.09999999999999432
        },
        {
          "name": "F4",
          "midi": 65,
          "time": 96.59999999999994,
          "velocity": 0.7874015748031497,
          "duration": 0.09999999999999432
        },
        {
          "name": "D4",
          "midi": 62,
          "time": 97.99999999999993,
          "velocity": 0.6614173228346457,
          "duration": 0.4000000000000057
        },
        {
          "name": "C4",
          "midi": 60,
          "time": 99.59999999999994,
          "velocity": 0.6614173228346457,
          "duration": 0.09999999999999432
        },
        {
          "name": "C4",
          "midi": 60,
          "time": 99.79999999999993,
          "velocity": 0.6614173228346457,
          "duration": 0.09999999999999432
        },
        {
          "name": "C4",
          "midi": 60,
          "time": 99.99999999999991,
          "velocity": 0.6614173228346457,
          "duration": 0.09999999999999432
        },
        {
          "name": "F4",
          "midi": 65,
          "time": 101.59999999999991,
          "velocity": 0.7874015748031497,
          "duration": 0.09999999999999432
        },
        {
          "name": "E4",
          "midi": 64,
          "time": 102.7999999999999,
          "velocity": 0.6614173228346457,
          "duration": 0.09999999999999432
        },
        {
          "name": "E4",
          "midi": 64,
          "time": 103.19999999999989,
          "velocity": 0.6614173228346457,
          "duration": 0.09999999999999432
        },
        {
          "name": "F4",
          "midi": 65,
          "time": 105.99999999999989,
          "velocity": 0.7874015748031497,
          "duration": 0.09999999999999432
        },
        {
          "name": "C4",
          "midi": 60,
          "time": 106.39999999999988,
          "velocity": 0.6614173228346457,
          "duration": 0.09999999999999432
        },
        {
          "name": "C4",
          "midi": 60,
          "time": 106.79999999999987,
          "velocity": 0.6614173228346457,
          "duration": 0.09999999999999432
        },
        {
          "name": "C4",
          "midi": 60,
          "time": 107.19999999999986,
          "velocity": 0.6614173228346457,
          "duration": 0.09999999999999432
        },
        {
          "name": "C4",
          "midi": 60,
          "time": 107.59999999999985,
          "velocity": 0.6614173228346457,
          "duration": 0.09999999999999432
        },
        {
          "name": "C4",
          "midi": 60,
          "time": 107.99999999999984,
          "velocity": 0.6614173228346457,
          "duration": 0.09999999999999432
        },
        {
          "name": "C4",
          "midi": 60,
          "time": 108.39999999999984,
          "velocity": 0.6614173228346457,
          "duration": 0.09999999999999432
        },
        {
          "name": "C4",
          "midi": 60,
          "time": 108.79999999999983,
          "velocity": 0.6614173228346457,
          "duration": 0.09999999999999432
        },
        {
          "name": "C4",
          "midi": 60,
          "time": 109.19999999999982,
          "velocity": 0.6614173228346457,
          "duration": 0.09999999999999432
        },
        {
          "name": "C4",
          "midi": 60,
          "time": 109.59999999999981,
          "velocity": 0.6614173228346457,
          "duration": 0.09999999999999432
        },
        {
          "name": "C4",
          "midi": 60,
          "time": 109.9999999999998,
          "velocity": 0.6614173228346457,
          "duration": 0.09999999999999432
        },
        {
          "name": "C4",
          "midi": 60,
          "time": 110.39999999999979,
          "velocity": 0.6614173228346457,
          "duration": 0.09999999999999432
        },
        {
          "name": "C4",
          "midi": 60,
          "time": 110.79999999999978,
          "velocity": 0.6614173228346457,
          "duration": 0.09999999999999432
        },
        {
          "name": "C4",
          "midi": 60,
          "time": 111.19999999999978,
          "velocity": 0.6614173228346457,
          "duration": 0.09999999999999432
        },
        {
          "name": "C4",
          "midi": 60,
          "time": 111.59999999999977,
          "velocity": 0.6614173228346457,
          "duration": 0.09999999999999432
        },
        {
          "name": "C4",
          "midi": 60,
          "time": 111.99999999999976,
          "velocity": 0.6614173228346457,
          "duration": 0.09999999999999432
        },
        {
          "name": "C4",
          "midi": 60,
          "time": 112.39999999999975,
          "velocity": 0.6614173228346457,
          "duration": 0.09999999999999432
        },
        {
          "name": "F4",
          "midi": 65,
          "time": 112.59999999999974,
          "velocity": 0.7874015748031497,
          "duration": 0.09999999999999432
        },
        {
          "name": "D4",
          "midi": 62,
          "time": 112.79999999999973,
          "velocity": 0.6614173228346457,
          "duration": 2.799999999999997
        },
        {
          "name": "F4",
          "midi": 65,
          "time": 114.59999999999972,
          "velocity": 0.7874015748031497,
          "duration": 0.20000000000000284
        },
        {
          "name": "D4",
          "midi": 62,
          "time": 115.99999999999973,
          "velocity": 0.6614173228346457,
          "duration": 1.2000000000000028
        },
        {
          "name": "F4",
          "midi": 65,
          "time": 116.39999999999974,
          "velocity": 0.7874015748031497,
          "duration": 0.09999999999999432
        },
        {
          "name": "E4",
          "midi": 64,
          "time": 117.59999999999974,
          "velocity": 0.6614173228346457,
          "duration": 0.09999999999999432
        },
        {
          "name": "E4",
          "midi": 64,
          "time": 118.19999999999973,
          "velocity": 0.6614173228346457,
          "duration": 0.09999999999999432
        },
        {
          "name": "C4",
          "midi": 60,
          "time": 118.79999999999973,
          "velocity": 0.6614173228346457,
          "duration": 0.09999999999999432
        },
        {
          "name": "E4",
          "midi": 64,
          "time": 119.19999999999972,
          "velocity": 0.6614173228346457,
          "duration": 0.09999999999999432
        },
        {
          "name": "E4",
          "midi": 64,
          "time": 119.59999999999971,
          "velocity": 0.6614173228346457,
          "duration": 0.09999999999999432
        },
        {
          "name": "E4",
          "midi": 64,
          "time": 119.9999999999997,
          "velocity": 0.6614173228346457,
          "duration": 0.09999999999999432
        },
        {
          "name": "E4",
          "midi": 64,
          "time": 120.3999999999997,
          "velocity": 0.6614173228346457,
          "duration": 0.09999999999999432
        },
        {
          "name": "E4",
          "midi": 64,
          "time": 120.79999999999968,
          "velocity": 0.6614173228346457,
          "duration": 0.09999999999999432
        },
        {
          "name": "E4",
          "midi": 64,
          "time": 121.19999999999968,
          "velocity": 0.6614173228346457,
          "duration": 0.09999999999999432
        },
        {
          "name": "E4",
          "midi": 64,
          "time": 121.59999999999967,
          "velocity": 0.6614173228346457,
          "duration": 0.09999999999999432
        },
        {
          "name": "E4",
          "midi": 64,
          "time": 121.99999999999966,
          "velocity": 0.6614173228346457,
          "duration": 0.09999999999999432
        },
        {
          "name": "E4",
          "midi": 64,
          "time": 122.39999999999965,
          "velocity": 0.6614173228346457,
          "duration": 0.09999999999999432
        },
        {
          "name": "E4",
          "midi": 64,
          "time": 122.79999999999964,
          "velocity": 0.6614173228346457,
          "duration": 0.09999999999999432
        },
        {
          "name": "E4",
          "midi": 64,
          "time": 123.19999999999963,
          "velocity": 0.6614173228346457,
          "duration": 0.09999999999999432
        },
        {
          "name": "E4",
          "midi": 64,
          "time": 123.59999999999962,
          "velocity": 0.6614173228346457,
          "duration": 0.09999999999999432
        },
        {
          "name": "E4",
          "midi": 64,
          "time": 123.99999999999962,
          "velocity": 0.6614173228346457,
          "duration": 0.09999999999999432
        },
        {
          "name": "E4",
          "midi": 64,
          "time": 124.39999999999961,
          "velocity": 0.6614173228346457,
          "duration": 0.09999999999999432
        },
        {
          "name": "E4",
          "midi": 64,
          "time": 124.7999999999996,
          "velocity": 0.6614173228346457,
          "duration": 0.09999999999999432
        },
        {
          "name": "E4",
          "midi": 64,
          "time": 125.19999999999959,
          "velocity": 0.6614173228346457,
          "duration": 0.09999999999999432
        },
        {
          "name": "F4",
          "midi": 65,
          "time": 125.59999999999958,
          "velocity": 0.7874015748031497,
          "duration": 0.20000000000000284
        },
        {
          "name": "C4",
          "midi": 60,
          "time": 125.79999999999959,
          "velocity": 0.6850393700787402,
          "duration": 0.09999999999999432
        },
        {
          "name": "C4",
          "midi": 60,
          "time": 126.39999999999958,
          "velocity": 0.6614173228346457,
          "duration": 0.09999999999999432
        },
        {
          "name": "C4",
          "midi": 60,
          "time": 126.99999999999957,
          "velocity": 0.6614173228346457,
          "duration": 0.09999999999999432
        },
        {
          "name": "C4",
          "midi": 60,
          "time": 127.39999999999957,
          "velocity": 0.6614173228346457,
          "duration": 0.09999999999999432
        },
        {
          "name": "C4",
          "midi": 60,
          "time": 127.99999999999956,
          "velocity": 0.7322834645669292,
          "duration": 0.10000000000000853
        },
        {
          "name": "C4",
          "midi": 60,
          "time": 128.59999999999957,
          "velocity": 0.6692913385826772,
          "duration": 0.09999999999999432
        },
        {
          "name": "C4",
          "midi": 60,
          "time": 128.99999999999957,
          "velocity": 0.6850393700787402,
          "duration": 0.09999999999999432
        },
        {
          "name": "C4",
          "midi": 60,
          "time": 129.59999999999957,
          "velocity": 0.6614173228346457,
          "duration": 0.09999999999999432
        },
        {
          "name": "C4",
          "midi": 60,
          "time": 129.99999999999957,
          "velocity": 0.7480314960629921,
          "duration": 0.09999999999999432
        },
        {
          "name": "C4",
          "midi": 60,
          "time": 130.19999999999956,
          "velocity": 0.6614173228346457,
          "duration": 0.09999999999999432
        },
        {
          "name": "C4",
          "midi": 60,
          "time": 130.59999999999957,
          "velocity": 0.6850393700787402,
          "duration": 0.09999999999999432
        },
        {
          "name": "C4",
          "midi": 60,
          "time": 131.39999999999955,
          "velocity": 0.6614173228346457,
          "duration": 0.09999999999999432
        },
        {
          "name": "E4",
          "midi": 64,
          "time": 131.59999999999954,
          "velocity": 0.6614173228346457,
          "duration": 0.09999999999999432
        }
      ],
      "controlChanges": {
        "6": [
          {
            "number": 6,
            "time": 0,
            "value": 0.09448818897637795
          },
          {
            "number": 6,
            "time": 0,
            "value": 0.09448818897637795
          },
          {
            "number": 6,
            "time": 0,
            "value": 0.09448818897637795
          },
          {
            "number": 6,
            "time": 146.99999999999955,
            "value": 0.09448818897637795
          },
          {
            "number": 6,
            "time": 146.99999999999955,
            "value": 0.09448818897637795
          }
        ],
        "7": [
          {
            "number": 7,
            "time": 0,
            "value": 0.7874015748031497
          },
          {
            "number": 7,
            "time": 0,
            "value": 0.7874015748031497
          },
          {
            "number": 7,
            "time": 0,
            "value": 0.7874015748031497
          },
          {
            "number": 7,
            "time": 0,
            "value": 0.7874015748031497
          },
          {
            "number": 7,
            "time": 146.99999999999955,
            "value": 0.7874015748031497
          },
          {
            "number": 7,
            "time": 146.99999999999955,
            "value": 0.7874015748031497
          }
        ],
        "10": [
          {
            "number": 10,
            "time": 0,
            "value": 0.5039370078740157
          },
          {
            "number": 10,
            "time": 0,
            "value": 0.5039370078740157
          },
          {
            "number": 10,
            "time": 0,
            "value": 0.5039370078740157
          },
          {
            "number": 10,
            "time": 0,
            "value": 0.5039370078740157
          },
          {
            "number": 10,
            "time": 146.99999999999955,
            "value": 0.5039370078740157
          },
          {
            "number": 10,
            "time": 146.99999999999955,
            "value": 0.5039370078740157
          }
        ],
        "100": [
          {
            "number": 100,
            "time": 0,
            "value": 0
          },
          {
            "number": 100,
            "time": 0,
            "value": 0
          },
          {
            "number": 100,
            "time": 0,
            "value": 0
          },
          {
            "number": 100,
            "time": 146.99999999999955,
            "value": 0
          },
          {
            "number": 100,
            "time": 146.99999999999955,
            "value": 0
          }
        ],
        "101": [
          {
            "number": 101,
            "time": 0,
            "value": 0
          },
          {
            "number": 101,
            "time": 0,
            "value": 0
          },
          {
            "number": 101,
            "time": 0,
            "value": 0
          },
          {
            "number": 101,
            "time": 146.99999999999955,
            "value": 0
          },
          {
            "number": 101,
            "time": 146.99999999999955,
            "value": 0
          }
        ]
      },
      "id": 2,
      "name": "A easy ",
      "channelNumber": 0,
      "isPercussion": false
    },
    {
      "startTime": 0.8,
      "duration": 131.8999999999998,
      "length": 157,
      "notes": [
        {
          "name": "C4",
          "midi": 60,
          "time": 0.8,
          "velocity": 0.6850393700787402,
          "duration": 0.09999999999999998
        },
        {
          "name": "C4",
          "midi": 60,
          "time": 1.2000000000000002,
          "velocity": 0.6929133858267716,
          "duration": 0.10000000000000009
        },
        {
          "name": "C4",
          "midi": 60,
          "time": 1.8000000000000003,
          "velocity": 0.6614173228346457,
          "duration": 0.10000000000000009
        },
        {
          "name": "C4",
          "midi": 60,
          "time": 2.4000000000000004,
          "velocity": 0.7401574803149606,
          "duration": 0.10000000000000009
        },
        {
          "name": "C4",
          "midi": 60,
          "time": 2.8000000000000007,
          "velocity": 0.7401574803149606,
          "duration": 0.10000000000000009
        },
        {
          "name": "C4",
          "midi": 60,
          "time": 3.400000000000001,
          "velocity": 0.7244094488188977,
          "duration": 0.10000000000000009
        },
        {
          "name": "C4",
          "midi": 60,
          "time": 4.000000000000001,
          "velocity": 0.6850393700787402,
          "duration": 0.09999999999999964
        },
        {
          "name": "C4",
          "midi": 60,
          "time": 4.4,
          "velocity": 0.6929133858267716,
          "duration": 0.09999999999999964
        },
        {
          "name": "C4",
          "midi": 60,
          "time": 5,
          "velocity": 0.6614173228346457,
          "duration": 0.09999999999999964
        },
        {
          "name": "C4",
          "midi": 60,
          "time": 5.6,
          "velocity": 0.6850393700787402,
          "duration": 0.09999999999999964
        },
        {
          "name": "C4",
          "midi": 60,
          "time": 5.999999999999999,
          "velocity": 0.6929133858267716,
          "duration": 0.09999999999999964
        },
        {
          "name": "C4",
          "midi": 60,
          "time": 6.599999999999999,
          "velocity": 0.6614173228346457,
          "duration": 0.09999999999999964
        },
        {
          "name": "D4",
          "midi": 62,
          "time": 7.199999999999998,
          "velocity": 0.6614173228346457,
          "duration": 2.3999999999999995
        },
        {
          "name": "F4",
          "midi": 65,
          "time": 9.799999999999997,
          "velocity": 0.7874015748031497,
          "duration": 0.1999999999999993
        },
        {
          "name": "F4",
          "midi": 65,
          "time": 10.399999999999997,
          "velocity": 0.7874015748031497,
          "duration": 0.1999999999999993
        },
        {
          "name": "C4",
          "midi": 60,
          "time": 12.799999999999997,
          "velocity": 0.6614173228346457,
          "duration": 0.09999999999999964
        },
        {
          "name": "E4",
          "midi": 64,
          "time": 13.599999999999996,
          "velocity": 0.6614173228346457,
          "duration": 0.09999999999999964
        },
        {
          "name": "E4",
          "midi": 64,
          "time": 14.199999999999996,
          "velocity": 0.6614173228346457,
          "duration": 0.09999999999999964
        },
        {
          "name": "C4",
          "midi": 60,
          "time": 14.799999999999995,
          "velocity": 0.6614173228346457,
          "duration": 0.09999999999999964
        },
        {
          "name": "C4",
          "midi": 60,
          "time": 14.999999999999995,
          "velocity": 0.6614173228346457,
          "duration": 0.09999999999999964
        },
        {
          "name": "C4",
          "midi": 60,
          "time": 15.199999999999994,
          "velocity": 0.6614173228346457,
          "duration": 0.09999999999999964
        },
        {
          "name": "E4",
          "midi": 64,
          "time": 15.799999999999994,
          "velocity": 0.6614173228346457,
          "duration": 0.09999999999999964
        },
        {
          "name": "E4",
          "midi": 64,
          "time": 16.799999999999994,
          "velocity": 0.6614173228346457,
          "duration": 0.10000000000000142
        },
        {
          "name": "F4",
          "midi": 65,
          "time": 17.099999999999994,
          "velocity": 0.7874015748031497,
          "duration": 0.1999999999999993
        },
        {
          "name": "E4",
          "midi": 64,
          "time": 17.399999999999995,
          "velocity": 0.6614173228346457,
          "duration": 0.10000000000000142
        },
        {
          "name": "C4",
          "midi": 60,
          "time": 17.999999999999996,
          "velocity": 0.6614173228346457,
          "duration": 0.10000000000000142
        },
        {
          "name": "C4",
          "midi": 60,
          "time": 18.2,
          "velocity": 0.6614173228346457,
          "duration": 0.10000000000000142
        },
        {
          "name": "C4",
          "midi": 60,
          "time": 18.400000000000002,
          "velocity": 0.6614173228346457,
          "duration": 0.10000000000000142
        },
        {
          "name": "E4",
          "midi": 64,
          "time": 20.000000000000004,
          "velocity": 0.6614173228346457,
          "duration": 0.10000000000000142
        },
        {
          "name": "E4",
          "midi": 64,
          "time": 20.600000000000005,
          "velocity": 0.6614173228346457,
          "duration": 0.10000000000000142
        },
        {
          "name": "F4",
          "midi": 65,
          "time": 21.300000000000008,
          "velocity": 0.7874015748031497,
          "duration": 0.1999999999999993
        },
        {
          "name": "F4",
          "midi": 65,
          "time": 21.500000000000007,
          "velocity": 0.7874015748031497,
          "duration": 0.1999999999999993
        },
        {
          "name": "F4",
          "midi": 65,
          "time": 21.700000000000006,
          "velocity": 0.7874015748031497,
          "duration": 0.1999999999999993
        },
        {
          "name": "C4",
          "midi": 60,
          "time": 22.200000000000006,
          "velocity": 0.6614173228346457,
          "duration": 0.10000000000000142
        },
        {
          "name": "C4",
          "midi": 60,
          "time": 22.800000000000008,
          "velocity": 0.6614173228346457,
          "duration": 0.10000000000000142
        },
        {
          "name": "E4",
          "midi": 64,
          "time": 23.20000000000001,
          "velocity": 0.6614173228346457,
          "duration": 0.10000000000000142
        },
        {
          "name": "E4",
          "midi": 64,
          "time": 23.80000000000001,
          "velocity": 0.6614173228346457,
          "duration": 0.10000000000000142
        },
        {
          "name": "E4",
          "midi": 64,
          "time": 24.400000000000013,
          "velocity": 0.6614173228346457,
          "duration": 0.10000000000000142
        },
        {
          "name": "E4",
          "midi": 64,
          "time": 24.600000000000016,
          "velocity": 0.6614173228346457,
          "duration": 0.10000000000000142
        },
        {
          "name": "E4",
          "midi": 64,
          "time": 24.80000000000002,
          "velocity": 0.6614173228346457,
          "duration": 0.10000000000000142
        },
        {
          "name": "C4",
          "midi": 60,
          "time": 25.40000000000002,
          "velocity": 0.6614173228346457,
          "duration": 0.10000000000000142
        },
        {
          "name": "C4",
          "midi": 60,
          "time": 26.00000000000002,
          "velocity": 0.6614173228346457,
          "duration": 0.10000000000000142
        },
        {
          "name": "C4",
          "midi": 60,
          "time": 28.00000000000002,
          "velocity": 0.6614173228346457,
          "duration": 0.10000000000000142
        },
        {
          "name": "F4",
          "midi": 65,
          "time": 28.800000000000022,
          "velocity": 0.7874015748031497,
          "duration": 0.1999999999999993
        },
        {
          "name": "D4",
          "midi": 62,
          "time": 29.90000000000002,
          "velocity": 0.6614173228346457,
          "duration": 1.3000000000000007
        },
        {
          "name": "C4",
          "midi": 60,
          "time": 32.00000000000002,
          "velocity": 0.6614173228346457,
          "duration": 0.10000000000000142
        },
        {
          "name": "C4",
          "midi": 60,
          "time": 32.50000000000002,
          "velocity": 0.6614173228346457,
          "duration": 0.10000000000000142
        },
        {
          "name": "C4",
          "midi": 60,
          "time": 33.10000000000002,
          "velocity": 0.6614173228346457,
          "duration": 0.10000000000000142
        },
        {
          "name": "C4",
          "midi": 60,
          "time": 33.40000000000003,
          "velocity": 0.6614173228346457,
          "duration": 0.10000000000000142
        },
        {
          "name": "C4",
          "midi": 60,
          "time": 33.800000000000026,
          "velocity": 0.6614173228346457,
          "duration": 0.10000000000000142
        },
        {
          "name": "C4",
          "midi": 60,
          "time": 35.60000000000003,
          "velocity": 0.6614173228346457,
          "duration": 0.10000000000000142
        },
        {
          "name": "C4",
          "midi": 60,
          "time": 38.20000000000003,
          "velocity": 0.6614173228346457,
          "duration": 0.10000000000000142
        },
        {
          "name": "C4",
          "midi": 60,
          "time": 38.60000000000003,
          "velocity": 0.6614173228346457,
          "duration": 0.10000000000000142
        },
        {
          "name": "F4",
          "midi": 65,
          "time": 38.80000000000003,
          "velocity": 0.7874015748031497,
          "duration": 0.20000000000000284
        },
        {
          "name": "C4",
          "midi": 60,
          "time": 39.400000000000034,
          "velocity": 0.6614173228346457,
          "duration": 0.10000000000000142
        },
        {
          "name": "C4",
          "midi": 60,
          "time": 39.80000000000003,
          "velocity": 0.6614173228346457,
          "duration": 0.10000000000000142
        },
        {
          "name": "C4",
          "midi": 60,
          "time": 40.20000000000003,
          "velocity": 0.6614173228346457,
          "duration": 0.10000000000000142
        },
        {
          "name": "C4",
          "midi": 60,
          "time": 40.70000000000003,
          "velocity": 0.6614173228346457,
          "duration": 0.10000000000000142
        },
        {
          "name": "C4",
          "midi": 60,
          "time": 42.000000000000036,
          "velocity": 0.6614173228346457,
          "duration": 0.10000000000000142
        },
        {
          "name": "C4",
          "midi": 60,
          "time": 42.20000000000004,
          "velocity": 0.6614173228346457,
          "duration": 0.10000000000000142
        },
        {
          "name": "C4",
          "midi": 60,
          "time": 42.60000000000004,
          "velocity": 0.6614173228346457,
          "duration": 0.10000000000000142
        },
        {
          "name": "C4",
          "midi": 60,
          "time": 43.000000000000036,
          "velocity": 0.6614173228346457,
          "duration": 0.10000000000000142
        },
        {
          "name": "C4",
          "midi": 60,
          "time": 43.400000000000034,
          "velocity": 0.6614173228346457,
          "duration": 0.10000000000000142
        },
        {
          "name": "C4",
          "midi": 60,
          "time": 44.60000000000004,
          "velocity": 0.6614173228346457,
          "duration": 0.10000000000000142
        },
        {
          "name": "E4",
          "midi": 64,
          "time": 45.000000000000036,
          "velocity": 0.6614173228346457,
          "duration": 0.10000000000000142
        },
        {
          "name": "C4",
          "midi": 60,
          "time": 45.30000000000004,
          "velocity": 0.6614173228346457,
          "duration": 0.10000000000000142
        },
        {
          "name": "C4",
          "midi": 60,
          "time": 45.80000000000004,
          "velocity": 0.6614173228346457,
          "duration": 0.10000000000000142
        },
        {
          "name": "C4",
          "midi": 60,
          "time": 46.20000000000004,
          "velocity": 0.6614173228346457,
          "duration": 0.10000000000000142
        },
        {
          "name": "C4",
          "midi": 60,
          "time": 46.60000000000004,
          "velocity": 0.6614173228346457,
          "duration": 0.10000000000000142
        },
        {
          "name": "C4",
          "midi": 60,
          "time": 47.10000000000004,
          "velocity": 0.6614173228346457,
          "duration": 0.10000000000000142
        },
        {
          "name": "C4",
          "midi": 60,
          "time": 48.40000000000004,
          "velocity": 0.6614173228346457,
          "duration": 0.10000000000000142
        },
        {
          "name": "C4",
          "midi": 60,
          "time": 48.600000000000044,
          "velocity": 0.6614173228346457,
          "duration": 0.10000000000000142
        },
        {
          "name": "C4",
          "midi": 60,
          "time": 49.00000000000004,
          "velocity": 0.6614173228346457,
          "duration": 0.10000000000000142
        },
        {
          "name": "C4",
          "midi": 60,
          "time": 49.40000000000004,
          "velocity": 0.6614173228346457,
          "duration": 0.10000000000000142
        },
        {
          "name": "C4",
          "midi": 60,
          "time": 49.80000000000004,
          "velocity": 0.6614173228346457,
          "duration": 0.10000000000000142
        },
        {
          "name": "E4",
          "midi": 64,
          "time": 50.20000000000004,
          "velocity": 0.6614173228346457,
          "duration": 0.10000000000000142
        },
        {
          "name": "E4",
          "midi": 64,
          "time": 50.60000000000004,
          "velocity": 0.6614173228346457,
          "duration": 0.10000000000000142
        },
        {
          "name": "C4",
          "midi": 60,
          "time": 51.60000000000004,
          "velocity": 0.6614173228346457,
          "duration": 0.10000000000000142
        },
        {
          "name": "F4",
          "midi": 65,
          "time": 52.000000000000036,
          "velocity": 0.7874015748031497,
          "duration": 0.20000000000000284
        },
        {
          "name": "E4",
          "midi": 64,
          "time": 52.20000000000004,
          "velocity": 0.6614173228346457,
          "duration": 0.10000000000000142
        },
        {
          "name": "C4",
          "midi": 60,
          "time": 53.20000000000004,
          "velocity": 0.6614173228346457,
          "duration": 0.10000000000000142
        },
        {
          "name": "C4",
          "midi": 60,
          "time": 54.00000000000004,
          "velocity": 0.6614173228346457,
          "duration": 0.10000000000000142
        },
        {
          "name": "E4",
          "midi": 64,
          "time": 54.600000000000044,
          "velocity": 0.6614173228346457,
          "duration": 0.10000000000000142
        },
        {
          "name": "E4",
          "midi": 64,
          "time": 55.00000000000004,
          "velocity": 0.6614173228346457,
          "duration": 0.10000000000000142
        },
        {
          "name": "C4",
          "midi": 60,
          "time": 56.00000000000004,
          "velocity": 0.7874015748031497,
          "duration": 0.10000000000000142
        },
        {
          "name": "C4",
          "midi": 60,
          "time": 56.80000000000005,
          "velocity": 0.7874015748031497,
          "duration": 0.10000000000000142
        },
        {
          "name": "E4",
          "midi": 64,
          "time": 57.80000000000005,
          "velocity": 0.6614173228346457,
          "duration": 0.10000000000000142
        },
        {
          "name": "E4",
          "midi": 64,
          "time": 58.200000000000045,
          "velocity": 0.6614173228346457,
          "duration": 0.10000000000000142
        },
        {
          "name": "C4",
          "midi": 60,
          "time": 58.600000000000044,
          "velocity": 0.6614173228346457,
          "duration": 0.10000000000000142
        },
        {
          "name": "F4",
          "midi": 65,
          "time": 59.200000000000045,
          "velocity": 0.7874015748031497,
          "duration": 0.20000000000000284
        },
        {
          "name": "F4",
          "midi": 65,
          "time": 59.80000000000005,
          "velocity": 0.7874015748031497,
          "duration": 0.20000000000000284
        },
        {
          "name": "F4",
          "midi": 65,
          "time": 62.20000000000005,
          "velocity": 0.7874015748031497,
          "duration": 0.20000000000000284
        },
        {
          "name": "D4",
          "midi": 62,
          "time": 63.20000000000005,
          "velocity": 0.6614173228346457,
          "duration": 1.1999999999999957
        },
        {
          "name": "E4",
          "midi": 64,
          "time": 64.80000000000005,
          "velocity": 0.6614173228346457,
          "duration": 0.09999999999999432
        },
        {
          "name": "E4",
          "midi": 64,
          "time": 66.00000000000004,
          "velocity": 0.6614173228346457,
          "duration": 0.09999999999999432
        },
        {
          "name": "E4",
          "midi": 64,
          "time": 66.40000000000003,
          "velocity": 0.6614173228346457,
          "duration": 0.09999999999999432
        },
        {
          "name": "F4",
          "midi": 65,
          "time": 68.80000000000003,
          "velocity": 0.7874015748031497,
          "duration": 0.09999999999999432
        },
        {
          "name": "C4",
          "midi": 60,
          "time": 69.20000000000002,
          "velocity": 0.6614173228346457,
          "duration": 0.09999999999999432
        },
        {
          "name": "C4",
          "midi": 60,
          "time": 70.80000000000001,
          "velocity": 0.6614173228346457,
          "duration": 0.09999999999999432
        },
        {
          "name": "D4",
          "midi": 62,
          "time": 72.4,
          "velocity": 0.6614173228346457,
          "duration": 0.7999999999999972
        },
        {
          "name": "C4",
          "midi": 60,
          "time": 73.4,
          "velocity": 0.6614173228346457,
          "duration": 0.09999999999999432
        },
        {
          "name": "C4",
          "midi": 60,
          "time": 74.4,
          "velocity": 0.6614173228346457,
          "duration": 0.09999999999999432
        },
        {
          "name": "F4",
          "midi": 65,
          "time": 76.4,
          "velocity": 0.7874015748031497,
          "duration": 0.20000000000000284
        },
        {
          "name": "D4",
          "midi": 62,
          "time": 80.00000000000001,
          "velocity": 0.6614173228346457,
          "duration": 0.7999999999999972
        },
        {
          "name": "D4",
          "midi": 62,
          "time": 82.00000000000001,
          "velocity": 0.6614173228346457,
          "duration": 1.5999999999999943
        },
        {
          "name": "D4",
          "midi": 62,
          "time": 84.60000000000001,
          "velocity": 0.6614173228346457,
          "duration": 0.5999999999999943
        },
        {
          "name": "F4",
          "midi": 65,
          "time": 85.4,
          "velocity": 0.7874015748031497,
          "duration": 0.20000000000000284
        },
        {
          "name": "D4",
          "midi": 62,
          "time": 86.4,
          "velocity": 0.6614173228346457,
          "duration": 0.7999999999999972
        },
        {
          "name": "D4",
          "midi": 62,
          "time": 87.60000000000001,
          "velocity": 0.6614173228346457,
          "duration": 0.7999999999999972
        },
        {
          "name": "D4",
          "midi": 62,
          "time": 88.80000000000001,
          "velocity": 0.6614173228346457,
          "duration": 0.4000000000000057
        },
        {
          "name": "C4",
          "midi": 60,
          "time": 89.60000000000002,
          "velocity": 0.6614173228346457,
          "duration": 0.09999999999999432
        },
        {
          "name": "E4",
          "midi": 64,
          "time": 90.40000000000002,
          "velocity": 0.6614173228346457,
          "duration": 0.09999999999999432
        },
        {
          "name": "F4",
          "midi": 65,
          "time": 90.80000000000001,
          "velocity": 0.7874015748031497,
          "duration": 0.09999999999999432
        },
        {
          "name": "C4",
          "midi": 60,
          "time": 91.80000000000001,
          "velocity": 0.6614173228346457,
          "duration": 0.09999999999999432
        },
        {
          "name": "E4",
          "midi": 64,
          "time": 92.60000000000001,
          "velocity": 0.6614173228346457,
          "duration": 0.09999999999999432
        },
        {
          "name": "C4",
          "midi": 60,
          "time": 93,
          "velocity": 0.6614173228346457,
          "duration": 0.09999999999999432
        },
        {
          "name": "F4",
          "midi": 65,
          "time": 94.39999999999999,
          "velocity": 0.7874015748031497,
          "duration": 0.09999999999999432
        },
        {
          "name": "D4",
          "midi": 62,
          "time": 95.19999999999999,
          "velocity": 0.6614173228346457,
          "duration": 0.7999999999999972
        },
        {
          "name": "F4",
          "midi": 65,
          "time": 95.99999999999999,
          "velocity": 0.7874015748031497,
          "duration": 0.09999999999999432
        },
        {
          "name": "D4",
          "midi": 62,
          "time": 96.79999999999998,
          "velocity": 0.6614173228346457,
          "duration": 1.2000000000000028
        },
        {
          "name": "D4",
          "midi": 62,
          "time": 98.39999999999999,
          "velocity": 0.6614173228346457,
          "duration": 0.7999999999999972
        },
        {
          "name": "D4",
          "midi": 62,
          "time": 99.99999999999999,
          "velocity": 0.6614173228346457,
          "duration": 2.3999999999999915
        },
        {
          "name": "F4",
          "midi": 65,
          "time": 100.79999999999998,
          "velocity": 0.7874015748031497,
          "duration": 0.09999999999999432
        },
        {
          "name": "F4",
          "midi": 65,
          "time": 101.59999999999998,
          "velocity": 0.7874015748031497,
          "duration": 0.09999999999999432
        },
        {
          "name": "E4",
          "midi": 64,
          "time": 102.79999999999998,
          "velocity": 0.6614173228346457,
          "duration": 0.09999999999999432
        },
        {
          "name": "E4",
          "midi": 64,
          "time": 103.19999999999997,
          "velocity": 0.6614173228346457,
          "duration": 0.09999999999999432
        },
        {
          "name": "D4",
          "midi": 62,
          "time": 106.39999999999996,
          "velocity": 0.6614173228346457,
          "duration": 2.799999999999997
        },
        {
          "name": "D4",
          "midi": 62,
          "time": 109.59999999999997,
          "velocity": 0.6614173228346457,
          "duration": 1.5999999999999943
        },
        {
          "name": "C4",
          "midi": 60,
          "time": 112.79999999999995,
          "velocity": 0.6614173228346457,
          "duration": 0.09999999999999432
        },
        {
          "name": "C4",
          "midi": 60,
          "time": 113.19999999999995,
          "velocity": 0.6614173228346457,
          "duration": 0.09999999999999432
        },
        {
          "name": "C4",
          "midi": 60,
          "time": 113.59999999999994,
          "velocity": 0.6614173228346457,
          "duration": 0.09999999999999432
        },
        {
          "name": "F4",
          "midi": 65,
          "time": 113.99999999999993,
          "velocity": 0.7874015748031497,
          "duration": 0.19999999999998863
        },
        {
          "name": "C4",
          "midi": 60,
          "time": 113.99999999999993,
          "velocity": 0.6614173228346457,
          "duration": 0.09999999999999432
        },
        {
          "name": "C4",
          "midi": 60,
          "time": 114.39999999999992,
          "velocity": 0.6614173228346457,
          "duration": 0.09999999999999432
        },
        {
          "name": "C4",
          "midi": 60,
          "time": 114.79999999999991,
          "velocity": 0.6614173228346457,
          "duration": 0.09999999999999432
        },
        {
          "name": "C4",
          "midi": 60,
          "time": 115.1999999999999,
          "velocity": 0.6614173228346457,
          "duration": 0.09999999999999432
        },
        {
          "name": "C4",
          "midi": 60,
          "time": 115.5999999999999,
          "velocity": 0.6614173228346457,
          "duration": 0.09999999999999432
        },
        {
          "name": "C4",
          "midi": 60,
          "time": 115.99999999999989,
          "velocity": 0.6614173228346457,
          "duration": 0.09999999999999432
        },
        {
          "name": "C4",
          "midi": 60,
          "time": 116.39999999999988,
          "velocity": 0.6614173228346457,
          "duration": 0.09999999999999432
        },
        {
          "name": "C4",
          "midi": 60,
          "time": 116.79999999999987,
          "velocity": 0.6614173228346457,
          "duration": 0.09999999999999432
        },
        {
          "name": "E4",
          "midi": 64,
          "time": 117.19999999999986,
          "velocity": 0.6614173228346457,
          "duration": 0.09999999999999432
        },
        {
          "name": "E4",
          "midi": 64,
          "time": 118.19999999999986,
          "velocity": 0.6614173228346457,
          "duration": 0.09999999999999432
        },
        {
          "name": "F4",
          "midi": 65,
          "time": 121.79999999999986,
          "velocity": 0.7874015748031497,
          "duration": 0.20000000000000284
        },
        {
          "name": "F4",
          "midi": 65,
          "time": 124.59999999999985,
          "velocity": 0.7874015748031497,
          "duration": 0.20000000000000284
        },
        {
          "name": "C4",
          "midi": 60,
          "time": 125.59999999999985,
          "velocity": 0.6850393700787402,
          "duration": 0.09999999999999432
        },
        {
          "name": "C4",
          "midi": 60,
          "time": 125.99999999999984,
          "velocity": 0.6929133858267716,
          "duration": 0.09999999999999432
        },
        {
          "name": "C4",
          "midi": 60,
          "time": 126.59999999999984,
          "velocity": 0.6614173228346457,
          "duration": 0.09999999999999432
        },
        {
          "name": "C4",
          "midi": 60,
          "time": 127.19999999999983,
          "velocity": 0.7401574803149606,
          "duration": 0.09999999999999432
        },
        {
          "name": "C4",
          "midi": 60,
          "time": 127.59999999999982,
          "velocity": 0.7401574803149606,
          "duration": 0.09999999999999432
        },
        {
          "name": "C4",
          "midi": 60,
          "time": 128.19999999999982,
          "velocity": 0.7244094488188977,
          "duration": 0.09999999999999432
        },
        {
          "name": "C4",
          "midi": 60,
          "time": 128.7999999999998,
          "velocity": 0.6850393700787402,
          "duration": 0.09999999999999432
        },
        {
          "name": "C4",
          "midi": 60,
          "time": 129.19999999999982,
          "velocity": 0.6929133858267716,
          "duration": 0.09999999999999432
        },
        {
          "name": "C4",
          "midi": 60,
          "time": 129.7999999999998,
          "velocity": 0.6614173228346457,
          "duration": 0.09999999999999432
        },
        {
          "name": "C4",
          "midi": 60,
          "time": 130.3999999999998,
          "velocity": 0.6850393700787402,
          "duration": 0.09999999999999432
        },
        {
          "name": "C4",
          "midi": 60,
          "time": 130.7999999999998,
          "velocity": 0.6929133858267716,
          "duration": 0.09999999999999432
        },
        {
          "name": "C4",
          "midi": 60,
          "time": 131.19999999999982,
          "velocity": 0.6614173228346457,
          "duration": 0.09999999999999432
        },
        {
          "name": "C4",
          "midi": 60,
          "time": 131.7999999999998,
          "velocity": 0.6614173228346457,
          "duration": 0.09999999999999432
        }
      ],
      "controlChanges": {
        "6": [
          {
            "number": 6,
            "time": 0,
            "value": 0.09448818897637795
          },
          {
            "number": 6,
            "time": 0,
            "value": 0.09448818897637795
          },
          {
            "number": 6,
            "time": 0,
            "value": 0.09448818897637795
          },
          {
            "number": 6,
            "time": 146.9999999999998,
            "value": 0.09448818897637795
          },
          {
            "number": 6,
            "time": 146.9999999999998,
            "value": 0.09448818897637795
          }
        ],
        "7": [
          {
            "number": 7,
            "time": 0,
            "value": 0.7874015748031497
          },
          {
            "number": 7,
            "time": 0,
            "value": 0.7874015748031497
          },
          {
            "number": 7,
            "time": 0,
            "value": 0.7874015748031497
          },
          {
            "number": 7,
            "time": 0,
            "value": 0.7874015748031497
          },
          {
            "number": 7,
            "time": 146.9999999999998,
            "value": 0.7874015748031497
          },
          {
            "number": 7,
            "time": 146.9999999999998,
            "value": 0.7874015748031497
          }
        ],
        "10": [
          {
            "number": 10,
            "time": 0,
            "value": 0.5039370078740157
          },
          {
            "number": 10,
            "time": 0,
            "value": 0.5039370078740157
          },
          {
            "number": 10,
            "time": 0,
            "value": 0.5039370078740157
          },
          {
            "number": 10,
            "time": 0,
            "value": 0.5039370078740157
          },
          {
            "number": 10,
            "time": 146.9999999999998,
            "value": 0.5039370078740157
          },
          {
            "number": 10,
            "time": 146.9999999999998,
            "value": 0.5039370078740157
          }
        ],
        "100": [
          {
            "number": 100,
            "time": 0,
            "value": 0
          },
          {
            "number": 100,
            "time": 0,
            "value": 0
          },
          {
            "number": 100,
            "time": 0,
            "value": 0
          },
          {
            "number": 100,
            "time": 146.9999999999998,
            "value": 0
          },
          {
            "number": 100,
            "time": 146.9999999999998,
            "value": 0
          }
        ],
        "101": [
          {
            "number": 101,
            "time": 0,
            "value": 0
          },
          {
            "number": 101,
            "time": 0,
            "value": 0
          },
          {
            "number": 101,
            "time": 0,
            "value": 0
          },
          {
            "number": 101,
            "time": 146.9999999999998,
            "value": 0
          },
          {
            "number": 101,
            "time": 146.9999999999998,
            "value": 0
          }
        ]
      },
      "id": 3,
      "name": "S easy ",
      "channelNumber": 0,
      "isPercussion": false
    },
    {
      "startTime": 1.4000000000000001,
      "duration": 131.69999999999973,
      "length": 141,
      "notes": [
        {
          "name": "C4",
          "midi": 60,
          "time": 1.4000000000000001,
          "velocity": 0.7637795275590551,
          "duration": 0.10000000000000009
        },
        {
          "name": "C4",
          "midi": 60,
          "time": 2,
          "velocity": 0.7480314960629921,
          "duration": 0.10000000000000009
        },
        {
          "name": "C4",
          "midi": 60,
          "time": 3,
          "velocity": 0.6850393700787402,
          "duration": 0.10000000000000009
        },
        {
          "name": "C4",
          "midi": 60,
          "time": 3.6,
          "velocity": 0.7244094488188977,
          "duration": 0.10000000000000009
        },
        {
          "name": "C4",
          "midi": 60,
          "time": 4.6000000000000005,
          "velocity": 0.7637795275590551,
          "duration": 0.09999999999999964
        },
        {
          "name": "C4",
          "midi": 60,
          "time": 5.2,
          "velocity": 0.7480314960629921,
          "duration": 0.09999999999999964
        },
        {
          "name": "C4",
          "midi": 60,
          "time": 6.2,
          "velocity": 0.7637795275590551,
          "duration": 0.09999999999999964
        },
        {
          "name": "E4",
          "midi": 64,
          "time": 6.8,
          "velocity": 0.7480314960629921,
          "duration": 0.09999999999999964
        },
        {
          "name": "F4",
          "midi": 65,
          "time": 7.199999999999999,
          "velocity": 0.7874015748031497,
          "duration": 0.20000000000000018
        },
        {
          "name": "E4",
          "midi": 64,
          "time": 9.6,
          "velocity": 0.6614173228346457,
          "duration": 0.09999999999999964
        },
        {
          "name": "D4",
          "midi": 62,
          "time": 10.399999999999999,
          "velocity": 0.6614173228346457,
          "duration": 2.4000000000000004
        },
        {
          "name": "C4",
          "midi": 60,
          "time": 13.2,
          "velocity": 0.6614173228346457,
          "duration": 0.09999999999999964
        },
        {
          "name": "F4",
          "midi": 65,
          "time": 13.899999999999999,
          "velocity": 0.7874015748031497,
          "duration": 0.1999999999999993
        },
        {
          "name": "E4",
          "midi": 64,
          "time": 15.799999999999997,
          "velocity": 0.6614173228346457,
          "duration": 0.09999999999999964
        },
        {
          "name": "E4",
          "midi": 64,
          "time": 19.199999999999996,
          "velocity": 0.6614173228346457,
          "duration": 0.10000000000000142
        },
        {
          "name": "F4",
          "midi": 65,
          "time": 19.799999999999997,
          "velocity": 0.7874015748031497,
          "duration": 0.1999999999999993
        },
        {
          "name": "F4",
          "midi": 65,
          "time": 19.999999999999996,
          "velocity": 0.7874015748031497,
          "duration": 0.1999999999999993
        },
        {
          "name": "F4",
          "midi": 65,
          "time": 20.199999999999996,
          "velocity": 0.7874015748031497,
          "duration": 0.1999999999999993
        },
        {
          "name": "E4",
          "midi": 64,
          "time": 21.199999999999996,
          "velocity": 0.6614173228346457,
          "duration": 0.10000000000000142
        },
        {
          "name": "E4",
          "midi": 64,
          "time": 21.4,
          "velocity": 0.6614173228346457,
          "duration": 0.10000000000000142
        },
        {
          "name": "E4",
          "midi": 64,
          "time": 21.6,
          "velocity": 0.6614173228346457,
          "duration": 0.10000000000000142
        },
        {
          "name": "F4",
          "midi": 65,
          "time": 24.000000000000004,
          "velocity": 0.7874015748031497,
          "duration": 0.1999999999999993
        },
        {
          "name": "E4",
          "midi": 64,
          "time": 24.400000000000002,
          "velocity": 0.6614173228346457,
          "duration": 0.10000000000000142
        },
        {
          "name": "E4",
          "midi": 64,
          "time": 24.600000000000005,
          "velocity": 0.6614173228346457,
          "duration": 0.10000000000000142
        },
        {
          "name": "E4",
          "midi": 64,
          "time": 24.800000000000008,
          "velocity": 0.6614173228346457,
          "duration": 0.10000000000000142
        },
        {
          "name": "F4",
          "midi": 65,
          "time": 28.80000000000001,
          "velocity": 0.7874015748031497,
          "duration": 0.1999999999999993
        },
        {
          "name": "E4",
          "midi": 64,
          "time": 29.40000000000001,
          "velocity": 0.6614173228346457,
          "duration": 0.10000000000000142
        },
        {
          "name": "E4",
          "midi": 64,
          "time": 29.600000000000012,
          "velocity": 0.6614173228346457,
          "duration": 0.10000000000000142
        },
        {
          "name": "E4",
          "midi": 64,
          "time": 31.200000000000014,
          "velocity": 0.6614173228346457,
          "duration": 0.10000000000000142
        },
        {
          "name": "C4",
          "midi": 60,
          "time": 32.600000000000016,
          "velocity": 0.6614173228346457,
          "duration": 0.10000000000000142
        },
        {
          "name": "E4",
          "midi": 64,
          "time": 32.80000000000002,
          "velocity": 0.6614173228346457,
          "duration": 0.10000000000000142
        },
        {
          "name": "E4",
          "midi": 64,
          "time": 34.20000000000002,
          "velocity": 0.6614173228346457,
          "duration": 0.10000000000000142
        },
        {
          "name": "E4",
          "midi": 64,
          "time": 34.40000000000002,
          "velocity": 0.6614173228346457,
          "duration": 0.10000000000000142
        },
        {
          "name": "F4",
          "midi": 65,
          "time": 34.80000000000002,
          "velocity": 0.7874015748031497,
          "duration": 0.20000000000000284
        },
        {
          "name": "C4",
          "midi": 60,
          "time": 36.30000000000002,
          "velocity": 0.6614173228346457,
          "duration": 0.10000000000000142
        },
        {
          "name": "C4",
          "midi": 60,
          "time": 36.60000000000002,
          "velocity": 0.6614173228346457,
          "duration": 0.10000000000000142
        },
        {
          "name": "C4",
          "midi": 60,
          "time": 37.00000000000002,
          "velocity": 0.6614173228346457,
          "duration": 0.10000000000000142
        },
        {
          "name": "C4",
          "midi": 60,
          "time": 37.800000000000026,
          "velocity": 0.6614173228346457,
          "duration": 0.10000000000000142
        },
        {
          "name": "C4",
          "midi": 60,
          "time": 40.60000000000003,
          "velocity": 0.6614173228346457,
          "duration": 0.10000000000000142
        },
        {
          "name": "C4",
          "midi": 60,
          "time": 40.80000000000003,
          "velocity": 0.6614173228346457,
          "duration": 0.10000000000000142
        },
        {
          "name": "C4",
          "midi": 60,
          "time": 41.80000000000003,
          "velocity": 0.6614173228346457,
          "duration": 0.10000000000000142
        },
        {
          "name": "E4",
          "midi": 64,
          "time": 43.80000000000003,
          "velocity": 0.6614173228346457,
          "duration": 0.10000000000000142
        },
        {
          "name": "E4",
          "midi": 64,
          "time": 44.30000000000003,
          "velocity": 0.6614173228346457,
          "duration": 0.10000000000000142
        },
        {
          "name": "C4",
          "midi": 60,
          "time": 45.20000000000003,
          "velocity": 0.6614173228346457,
          "duration": 0.10000000000000142
        },
        {
          "name": "F4",
          "midi": 65,
          "time": 45.60000000000003,
          "velocity": 0.7874015748031497,
          "duration": 0.20000000000000284
        },
        {
          "name": "C4",
          "midi": 60,
          "time": 47.000000000000036,
          "velocity": 0.6614173228346457,
          "duration": 0.10000000000000142
        },
        {
          "name": "C4",
          "midi": 60,
          "time": 47.20000000000004,
          "velocity": 0.6614173228346457,
          "duration": 0.10000000000000142
        },
        {
          "name": "C4",
          "midi": 60,
          "time": 48.20000000000004,
          "velocity": 0.6614173228346457,
          "duration": 0.10000000000000142
        },
        {
          "name": "E4",
          "midi": 64,
          "time": 50.20000000000004,
          "velocity": 0.6614173228346457,
          "duration": 0.10000000000000142
        },
        {
          "name": "E4",
          "midi": 64,
          "time": 50.60000000000004,
          "velocity": 0.6614173228346457,
          "duration": 0.10000000000000142
        },
        {
          "name": "C4",
          "midi": 60,
          "time": 51.000000000000036,
          "velocity": 0.6614173228346457,
          "duration": 0.10000000000000142
        },
        {
          "name": "E4",
          "midi": 64,
          "time": 51.20000000000004,
          "velocity": 0.6614173228346457,
          "duration": 0.10000000000000142
        },
        {
          "name": "C4",
          "midi": 60,
          "time": 51.40000000000004,
          "velocity": 0.6614173228346457,
          "duration": 0.10000000000000142
        },
        {
          "name": "F4",
          "midi": 65,
          "time": 52.00000000000004,
          "velocity": 0.7874015748031497,
          "duration": 0.20000000000000284
        },
        {
          "name": "E4",
          "midi": 64,
          "time": 52.200000000000045,
          "velocity": 0.6614173228346457,
          "duration": 0.10000000000000142
        },
        {
          "name": "C4",
          "midi": 60,
          "time": 52.80000000000005,
          "velocity": 0.6614173228346457,
          "duration": 0.10000000000000142
        },
        {
          "name": "E4",
          "midi": 64,
          "time": 54.60000000000005,
          "velocity": 0.6614173228346457,
          "duration": 0.10000000000000142
        },
        {
          "name": "E4",
          "midi": 64,
          "time": 55.00000000000005,
          "velocity": 0.6614173228346457,
          "duration": 0.10000000000000142
        },
        {
          "name": "C4",
          "midi": 60,
          "time": 55.60000000000005,
          "velocity": 0.7874015748031497,
          "duration": 0.10000000000000142
        },
        {
          "name": "E4",
          "midi": 64,
          "time": 57.20000000000005,
          "velocity": 0.6614173228346457,
          "duration": 0.10000000000000142
        },
        {
          "name": "F4",
          "midi": 65,
          "time": 57.400000000000055,
          "velocity": 0.7874015748031497,
          "duration": 0.20000000000000284
        },
        {
          "name": "E4",
          "midi": 64,
          "time": 57.80000000000006,
          "velocity": 0.6614173228346457,
          "duration": 0.10000000000000142
        },
        {
          "name": "E4",
          "midi": 64,
          "time": 58.20000000000006,
          "velocity": 0.6614173228346457,
          "duration": 0.10000000000000142
        },
        {
          "name": "E4",
          "midi": 64,
          "time": 58.80000000000006,
          "velocity": 0.6614173228346457,
          "duration": 0.10000000000000142
        },
        {
          "name": "E4",
          "midi": 64,
          "time": 59.20000000000006,
          "velocity": 0.6614173228346457,
          "duration": 0.10000000000000142
        },
        {
          "name": "E4",
          "midi": 64,
          "time": 59.60000000000006,
          "velocity": 0.6614173228346457,
          "duration": 0.10000000000000142
        },
        {
          "name": "E4",
          "midi": 64,
          "time": 60.00000000000006,
          "velocity": 0.6614173228346457,
          "duration": 0.10000000000000142
        },
        {
          "name": "E4",
          "midi": 64,
          "time": 60.400000000000055,
          "velocity": 0.6614173228346457,
          "duration": 0.10000000000000142
        },
        {
          "name": "E4",
          "midi": 64,
          "time": 60.800000000000054,
          "velocity": 0.6614173228346457,
          "duration": 0.10000000000000142
        },
        {
          "name": "E4",
          "midi": 64,
          "time": 61.20000000000005,
          "velocity": 0.6614173228346457,
          "duration": 0.10000000000000142
        },
        {
          "name": "F4",
          "midi": 65,
          "time": 61.60000000000005,
          "velocity": 0.7874015748031497,
          "duration": 0.20000000000000284
        },
        {
          "name": "E4",
          "midi": 64,
          "time": 61.60000000000005,
          "velocity": 0.6614173228346457,
          "duration": 0.10000000000000142
        },
        {
          "name": "E4",
          "midi": 64,
          "time": 62.00000000000006,
          "velocity": 0.6614173228346457,
          "duration": 0.10000000000000142
        },
        {
          "name": "E4",
          "midi": 64,
          "time": 62.400000000000055,
          "velocity": 0.6614173228346457,
          "duration": 0.10000000000000142
        },
        {
          "name": "E4",
          "midi": 64,
          "time": 62.800000000000054,
          "velocity": 0.6614173228346457,
          "duration": 0.10000000000000142
        },
        {
          "name": "F4",
          "midi": 65,
          "time": 63.20000000000005,
          "velocity": 0.7874015748031497,
          "duration": 0.20000000000000284
        },
        {
          "name": "E4",
          "midi": 64,
          "time": 64.80000000000005,
          "velocity": 0.6614173228346457,
          "duration": 0.09999999999999432
        },
        {
          "name": "E4",
          "midi": 64,
          "time": 66.40000000000005,
          "velocity": 0.6614173228346457,
          "duration": 0.09999999999999432
        },
        {
          "name": "F4",
          "midi": 65,
          "time": 67.50000000000004,
          "velocity": 0.7874015748031497,
          "duration": 0.09999999999999432
        },
        {
          "name": "F4",
          "midi": 65,
          "time": 67.60000000000004,
          "velocity": 0.7874015748031497,
          "duration": 0.09999999999999432
        },
        {
          "name": "F4",
          "midi": 65,
          "time": 67.70000000000003,
          "velocity": 0.7874015748031497,
          "duration": 0.09999999999999432
        },
        {
          "name": "C4",
          "midi": 60,
          "time": 68.00000000000003,
          "velocity": 0.6614173228346457,
          "duration": 0.09999999999999432
        },
        {
          "name": "C4",
          "midi": 60,
          "time": 71.20000000000002,
          "velocity": 0.6614173228346457,
          "duration": 0.09999999999999432
        },
        {
          "name": "C4",
          "midi": 60,
          "time": 73.20000000000002,
          "velocity": 0.6614173228346457,
          "duration": 0.09999999999999432
        },
        {
          "name": "C4",
          "midi": 60,
          "time": 74.66666666666667,
          "velocity": 0.6614173228346457,
          "duration": 0.09999999999999432
        },
        {
          "name": "E4",
          "midi": 64,
          "time": 75.2,
          "velocity": 0.6614173228346457,
          "duration": 0.09999999999999432
        },
        {
          "name": "D4",
          "midi": 62,
          "time": 76.8,
          "velocity": 0.6614173228346457,
          "duration": 0.7999999999999972
        },
        {
          "name": "D4",
          "midi": 62,
          "time": 79.19999999999999,
          "velocity": 0.6614173228346457,
          "duration": 0.7999999999999972
        },
        {
          "name": "D4",
          "midi": 62,
          "time": 81.39999999999999,
          "velocity": 0.6614173228346457,
          "duration": 0.5999999999999943
        },
        {
          "name": "D4",
          "midi": 62,
          "time": 83.59999999999998,
          "velocity": 0.6614173228346457,
          "duration": 0.4000000000000057
        },
        {
          "name": "D4",
          "midi": 62,
          "time": 85.19999999999999,
          "velocity": 0.6614173228346457,
          "duration": 0.8000000000000114
        },
        {
          "name": "F4",
          "midi": 65,
          "time": 85.39999999999999,
          "velocity": 0.7874015748031497,
          "duration": 0.20000000000000284
        },
        {
          "name": "C4",
          "midi": 60,
          "time": 87.4,
          "velocity": 0.6614173228346457,
          "duration": 0.09999999999999432
        },
        {
          "name": "D4",
          "midi": 62,
          "time": 88.4,
          "velocity": 0.6614173228346457,
          "duration": 0.4000000000000057
        },
        {
          "name": "C4",
          "midi": 60,
          "time": 90.00000000000001,
          "velocity": 0.6614173228346457,
          "duration": 0.09999999999999432
        },
        {
          "name": "E4",
          "midi": 64,
          "time": 90.4,
          "velocity": 0.6614173228346457,
          "duration": 0.09999999999999432
        },
        {
          "name": "E4",
          "midi": 64,
          "time": 92.6,
          "velocity": 0.6614173228346457,
          "duration": 0.09999999999999432
        },
        {
          "name": "D4",
          "midi": 62,
          "time": 93.6,
          "velocity": 0.6614173228346457,
          "duration": 0.7999999999999972
        },
        {
          "name": "F4",
          "midi": 65,
          "time": 94.8,
          "velocity": 0.7874015748031497,
          "duration": 0.09999999999999432
        },
        {
          "name": "F4",
          "midi": 65,
          "time": 94.99999999999999,
          "velocity": 0.7874015748031497,
          "duration": 0.09999999999999432
        },
        {
          "name": "D4",
          "midi": 62,
          "time": 95.19999999999997,
          "velocity": 0.6614173228346457,
          "duration": 0.7999999999999972
        },
        {
          "name": "F4",
          "midi": 65,
          "time": 95.99999999999997,
          "velocity": 0.7874015748031497,
          "duration": 0.09999999999999432
        },
        {
          "name": "F4",
          "midi": 65,
          "time": 96.19999999999996,
          "velocity": 0.7874015748031497,
          "duration": 0.09999999999999432
        },
        {
          "name": "F4",
          "midi": 65,
          "time": 96.39999999999995,
          "velocity": 0.7874015748031497,
          "duration": 0.09999999999999432
        },
        {
          "name": "D4",
          "midi": 62,
          "time": 99.19999999999995,
          "velocity": 0.6614173228346457,
          "duration": 0.7999999999999972
        },
        {
          "name": "F4",
          "midi": 65,
          "time": 100.79999999999994,
          "velocity": 0.7874015748031497,
          "duration": 0.09999999999999432
        },
        {
          "name": "F4",
          "midi": 65,
          "time": 103.99999999999993,
          "velocity": 0.7874015748031497,
          "duration": 0.09999999999999432
        },
        {
          "name": "F4",
          "midi": 65,
          "time": 105.99999999999993,
          "velocity": 0.7874015748031497,
          "duration": 0.09999999999999432
        },
        {
          "name": "F4",
          "midi": 65,
          "time": 108.79999999999993,
          "velocity": 0.7874015748031497,
          "duration": 0.09999999999999432
        },
        {
          "name": "F4",
          "midi": 65,
          "time": 109.19999999999992,
          "velocity": 0.7874015748031497,
          "duration": 0.09999999999999432
        },
        {
          "name": "F4",
          "midi": 65,
          "time": 109.59999999999991,
          "velocity": 0.7874015748031497,
          "duration": 0.09999999999999432
        },
        {
          "name": "D4",
          "midi": 62,
          "time": 111.1999999999999,
          "velocity": 0.6614173228346457,
          "duration": 1.5999999999999943
        },
        {
          "name": "F4",
          "midi": 65,
          "time": 113.1999999999999,
          "velocity": 0.7874015748031497,
          "duration": 0.20000000000000284
        },
        {
          "name": "F4",
          "midi": 65,
          "time": 116.3999999999999,
          "velocity": 0.7874015748031497,
          "duration": 0.20000000000000284
        },
        {
          "name": "E4",
          "midi": 64,
          "time": 117.1999999999999,
          "velocity": 0.6614173228346457,
          "duration": 0.09999999999999432
        },
        {
          "name": "E4",
          "midi": 64,
          "time": 117.5999999999999,
          "velocity": 0.6614173228346457,
          "duration": 0.09999999999999432
        },
        {
          "name": "E4",
          "midi": 64,
          "time": 119.19999999999989,
          "velocity": 0.6614173228346457,
          "duration": 0.09999999999999432
        },
        {
          "name": "E4",
          "midi": 64,
          "time": 119.59999999999988,
          "velocity": 0.6614173228346457,
          "duration": 0.09999999999999432
        },
        {
          "name": "E4",
          "midi": 64,
          "time": 119.99999999999987,
          "velocity": 0.6614173228346457,
          "duration": 0.09999999999999432
        },
        {
          "name": "E4",
          "midi": 64,
          "time": 120.39999999999986,
          "velocity": 0.6614173228346457,
          "duration": 0.09999999999999432
        },
        {
          "name": "E4",
          "midi": 64,
          "time": 120.79999999999986,
          "velocity": 0.6614173228346457,
          "duration": 0.09999999999999432
        },
        {
          "name": "E4",
          "midi": 64,
          "time": 121.19999999999985,
          "velocity": 0.6614173228346457,
          "duration": 0.09999999999999432
        },
        {
          "name": "E4",
          "midi": 64,
          "time": 121.59999999999984,
          "velocity": 0.6614173228346457,
          "duration": 0.09999999999999432
        },
        {
          "name": "E4",
          "midi": 64,
          "time": 121.99999999999983,
          "velocity": 0.6614173228346457,
          "duration": 0.09999999999999432
        },
        {
          "name": "E4",
          "midi": 64,
          "time": 122.39999999999982,
          "velocity": 0.6614173228346457,
          "duration": 0.09999999999999432
        },
        {
          "name": "E4",
          "midi": 64,
          "time": 122.79999999999981,
          "velocity": 0.6614173228346457,
          "duration": 0.09999999999999432
        },
        {
          "name": "E4",
          "midi": 64,
          "time": 123.1999999999998,
          "velocity": 0.6614173228346457,
          "duration": 0.09999999999999432
        },
        {
          "name": "E4",
          "midi": 64,
          "time": 123.5999999999998,
          "velocity": 0.6614173228346457,
          "duration": 0.09999999999999432
        },
        {
          "name": "E4",
          "midi": 64,
          "time": 123.99999999999979,
          "velocity": 0.6614173228346457,
          "duration": 0.09999999999999432
        },
        {
          "name": "E4",
          "midi": 64,
          "time": 124.39999999999978,
          "velocity": 0.6614173228346457,
          "duration": 0.09999999999999432
        },
        {
          "name": "F4",
          "midi": 65,
          "time": 124.59999999999977,
          "velocity": 0.7874015748031497,
          "duration": 0.20000000000000284
        },
        {
          "name": "E4",
          "midi": 64,
          "time": 124.79999999999977,
          "velocity": 0.6614173228346457,
          "duration": 0.09999999999999432
        },
        {
          "name": "E4",
          "midi": 64,
          "time": 125.19999999999976,
          "velocity": 0.6614173228346457,
          "duration": 0.09999999999999432
        },
        {
          "name": "F4",
          "midi": 65,
          "time": 125.59999999999975,
          "velocity": 0.7874015748031497,
          "duration": 0.20000000000000284
        },
        {
          "name": "C4",
          "midi": 60,
          "time": 126.19999999999976,
          "velocity": 0.7637795275590551,
          "duration": 0.09999999999999432
        },
        {
          "name": "C4",
          "midi": 60,
          "time": 126.79999999999976,
          "velocity": 0.7480314960629921,
          "duration": 0.09999999999999432
        },
        {
          "name": "C4",
          "midi": 60,
          "time": 127.79999999999976,
          "velocity": 0.6850393700787402,
          "duration": 0.09999999999999432
        },
        {
          "name": "C4",
          "midi": 60,
          "time": 128.39999999999975,
          "velocity": 0.7244094488188977,
          "duration": 0.09999999999999432
        },
        {
          "name": "C4",
          "midi": 60,
          "time": 129.39999999999975,
          "velocity": 0.7637795275590551,
          "duration": 0.09999999999999432
        },
        {
          "name": "C4",
          "midi": 60,
          "time": 130.99999999999974,
          "velocity": 0.7637795275590551,
          "duration": 0.09999999999999432
        },
        {
          "name": "E4",
          "midi": 64,
          "time": 131.59999999999974,
          "velocity": 0.7480314960629921,
          "duration": 0.09999999999999432
        }
      ],
      "controlChanges": {
        "6": [
          {
            "number": 6,
            "time": 0,
            "value": 0.09448818897637795
          },
          {
            "number": 6,
            "time": 0,
            "value": 0.09448818897637795
          },
          {
            "number": 6,
            "time": 0,
            "value": 0.09448818897637795
          },
          {
            "number": 6,
            "time": 146.99999999999974,
            "value": 0.09448818897637795
          },
          {
            "number": 6,
            "time": 146.99999999999974,
            "value": 0.09448818897637795
          }
        ],
        "7": [
          {
            "number": 7,
            "time": 0,
            "value": 0.7874015748031497
          },
          {
            "number": 7,
            "time": 0,
            "value": 0.7874015748031497
          },
          {
            "number": 7,
            "time": 0,
            "value": 0.7874015748031497
          },
          {
            "number": 7,
            "time": 0,
            "value": 0.7874015748031497
          },
          {
            "number": 7,
            "time": 146.99999999999974,
            "value": 0.7874015748031497
          },
          {
            "number": 7,
            "time": 146.99999999999974,
            "value": 0.7874015748031497
          }
        ],
        "10": [
          {
            "number": 10,
            "time": 0,
            "value": 0.5039370078740157
          },
          {
            "number": 10,
            "time": 0,
            "value": 0.5039370078740157
          },
          {
            "number": 10,
            "time": 0,
            "value": 0.5039370078740157
          },
          {
            "number": 10,
            "time": 0,
            "value": 0.5039370078740157
          },
          {
            "number": 10,
            "time": 146.99999999999974,
            "value": 0.5039370078740157
          },
          {
            "number": 10,
            "time": 146.99999999999974,
            "value": 0.5039370078740157
          }
        ],
        "100": [
          {
            "number": 100,
            "time": 0,
            "value": 0
          },
          {
            "number": 100,
            "time": 0,
            "value": 0
          },
          {
            "number": 100,
            "time": 0,
            "value": 0
          },
          {
            "number": 100,
            "time": 146.99999999999974,
            "value": 0
          },
          {
            "number": 100,
            "time": 146.99999999999974,
            "value": 0
          }
        ],
        "101": [
          {
            "number": 101,
            "time": 0,
            "value": 0
          },
          {
            "number": 101,
            "time": 0,
            "value": 0
          },
          {
            "number": 101,
            "time": 0,
            "value": 0
          },
          {
            "number": 101,
            "time": 146.99999999999974,
            "value": 0
          },
          {
            "number": 101,
            "time": 146.99999999999974,
            "value": 0
          }
        ]
      },
      "id": 4,
      "name": "D easy",
      "channelNumber": 0,
      "isPercussion": false
    },
    {
      "startTime": 0,
      "duration": 0,
      "length": 0,
      "notes": [],
      "controlChanges": {
        "6": [
          {
            "number": 6,
            "time": 0,
            "value": 0.09448818897637795
          },
          {
            "number": 6,
            "time": 0,
            "value": 0.09448818897637795
          },
          {
            "number": 6,
            "time": 0,
            "value": 0.09448818897637795
          },
          {
            "number": 6,
            "time": 147,
            "value": 0.09448818897637795
          },
          {
            "number": 6,
            "time": 147,
            "value": 0.09448818897637795
          }
        ],
        "7": [
          {
            "number": 7,
            "time": 0,
            "value": 0.7874015748031497
          },
          {
            "number": 7,
            "time": 0,
            "value": 0.7874015748031497
          },
          {
            "number": 7,
            "time": 0,
            "value": 0.7874015748031497
          },
          {
            "number": 7,
            "time": 0,
            "value": 0.7874015748031497
          },
          {
            "number": 7,
            "time": 147,
            "value": 0.7874015748031497
          },
          {
            "number": 7,
            "time": 147,
            "value": 0.7874015748031497
          }
        ],
        "10": [
          {
            "number": 10,
            "time": 0,
            "value": 0.5039370078740157
          },
          {
            "number": 10,
            "time": 0,
            "value": 0.5039370078740157
          },
          {
            "number": 10,
            "time": 0,
            "value": 0.5039370078740157
          },
          {
            "number": 10,
            "time": 0,
            "value": 0.5039370078740157
          },
          {
            "number": 10,
            "time": 147,
            "value": 0.5039370078740157
          },
          {
            "number": 10,
            "time": 147,
            "value": 0.5039370078740157
          }
        ],
        "100": [
          {
            "number": 100,
            "time": 0,
            "value": 0
          },
          {
            "number": 100,
            "time": 0,
            "value": 0
          },
          {
            "number": 100,
            "time": 0,
            "value": 0
          },
          {
            "number": 100,
            "time": 147,
            "value": 0
          },
          {
            "number": 100,
            "time": 147,
            "value": 0
          }
        ],
        "101": [
          {
            "number": 101,
            "time": 0,
            "value": 0
          },
          {
            "number": 101,
            "time": 0,
            "value": 0
          },
          {
            "number": 101,
            "time": 0,
            "value": 0
          },
          {
            "number": 101,
            "time": 147,
            "value": 0
          },
          {
            "number": 101,
            "time": 147,
            "value": 0
          }
        ]
      },
      "id": 5,
      "name": "A hard"
    },
    {
      "startTime": 0,
      "duration": 0,
      "length": 0,
      "notes": [],
      "controlChanges": {
        "6": [
          {
            "number": 6,
            "time": 0,
            "value": 0.09448818897637795
          },
          {
            "number": 6,
            "time": 0,
            "value": 0.09448818897637795
          },
          {
            "number": 6,
            "time": 0,
            "value": 0.09448818897637795
          },
          {
            "number": 6,
            "time": 147,
            "value": 0.09448818897637795
          },
          {
            "number": 6,
            "time": 147,
            "value": 0.09448818897637795
          }
        ],
        "7": [
          {
            "number": 7,
            "time": 0,
            "value": 0.7874015748031497
          },
          {
            "number": 7,
            "time": 0,
            "value": 0.7874015748031497
          },
          {
            "number": 7,
            "time": 0,
            "value": 0.7874015748031497
          },
          {
            "number": 7,
            "time": 0,
            "value": 0.7874015748031497
          },
          {
            "number": 7,
            "time": 147,
            "value": 0.7874015748031497
          },
          {
            "number": 7,
            "time": 147,
            "value": 0.7874015748031497
          }
        ],
        "10": [
          {
            "number": 10,
            "time": 0,
            "value": 0.5039370078740157
          },
          {
            "number": 10,
            "time": 0,
            "value": 0.5039370078740157
          },
          {
            "number": 10,
            "time": 0,
            "value": 0.5039370078740157
          },
          {
            "number": 10,
            "time": 0,
            "value": 0.5039370078740157
          },
          {
            "number": 10,
            "time": 147,
            "value": 0.5039370078740157
          },
          {
            "number": 10,
            "time": 147,
            "value": 0.5039370078740157
          }
        ],
        "100": [
          {
            "number": 100,
            "time": 0,
            "value": 0
          },
          {
            "number": 100,
            "time": 0,
            "value": 0
          },
          {
            "number": 100,
            "time": 0,
            "value": 0
          },
          {
            "number": 100,
            "time": 147,
            "value": 0
          },
          {
            "number": 100,
            "time": 147,
            "value": 0
          }
        ],
        "101": [
          {
            "number": 101,
            "time": 0,
            "value": 0
          },
          {
            "number": 101,
            "time": 0,
            "value": 0
          },
          {
            "number": 101,
            "time": 0,
            "value": 0
          },
          {
            "number": 101,
            "time": 147,
            "value": 0
          },
          {
            "number": 101,
            "time": 147,
            "value": 0
          }
        ]
      },
      "id": 6,
      "name": "S hard"
    },
    {
      "startTime": 0,
      "duration": 0,
      "length": 0,
      "notes": [],
      "controlChanges": {
        "6": [
          {
            "number": 6,
            "time": 0,
            "value": 0.09448818897637795
          },
          {
            "number": 6,
            "time": 0,
            "value": 0.09448818897637795
          },
          {
            "number": 6,
            "time": 0,
            "value": 0.09448818897637795
          },
          {
            "number": 6,
            "time": 147,
            "value": 0.09448818897637795
          },
          {
            "number": 6,
            "time": 147,
            "value": 0.09448818897637795
          }
        ],
        "7": [
          {
            "number": 7,
            "time": 0,
            "value": 0.7874015748031497
          },
          {
            "number": 7,
            "time": 0,
            "value": 0.7874015748031497
          },
          {
            "number": 7,
            "time": 0,
            "value": 0.7874015748031497
          },
          {
            "number": 7,
            "time": 0,
            "value": 0.7874015748031497
          },
          {
            "number": 7,
            "time": 147,
            "value": 0.7874015748031497
          },
          {
            "number": 7,
            "time": 147,
            "value": 0.7874015748031497
          }
        ],
        "10": [
          {
            "number": 10,
            "time": 0,
            "value": 0.5039370078740157
          },
          {
            "number": 10,
            "time": 0,
            "value": 0.5039370078740157
          },
          {
            "number": 10,
            "time": 0,
            "value": 0.5039370078740157
          },
          {
            "number": 10,
            "time": 0,
            "value": 0.5039370078740157
          },
          {
            "number": 10,
            "time": 147,
            "value": 0.5039370078740157
          },
          {
            "number": 10,
            "time": 147,
            "value": 0.5039370078740157
          }
        ],
        "100": [
          {
            "number": 100,
            "time": 0,
            "value": 0
          },
          {
            "number": 100,
            "time": 0,
            "value": 0
          },
          {
            "number": 100,
            "time": 0,
            "value": 0
          },
          {
            "number": 100,
            "time": 147,
            "value": 0
          },
          {
            "number": 100,
            "time": 147,
            "value": 0
          }
        ],
        "101": [
          {
            "number": 101,
            "time": 0,
            "value": 0
          },
          {
            "number": 101,
            "time": 0,
            "value": 0
          },
          {
            "number": 101,
            "time": 0,
            "value": 0
          },
          {
            "number": 101,
            "time": 147,
            "value": 0
          },
          {
            "number": 101,
            "time": 147,
            "value": 0
          }
        ]
      },
      "id": 7,
      "name": "D hard"
    },
    {
      "startTime": 0,
      "duration": 0,
      "length": 0,
      "notes": [],
      "controlChanges": {},
      "id": 8,
      "name": "LABS"
    }
  ]
}