{
  "header": {
    "PPQ": 96,
    "timeSignature": [
      4,
      4
    ],
    "bpm": 150,
    "name": "A easy "
  },
  "tempo": [
    {
      "absoluteTime": 0,
      "seconds": 0,
      "bpm": 150
    }
  ],
  "timeSignature": [
    {
      "absoluteTime": 0,
      "seconds": 0,
      "numerator": 4,
      "denominator": 2,
      "click": 24,
      "notesQ": 8
    }
  ],
  "startTime": 0,
  "duration": 131.89999999999958,
  "tracks": [
    {
      "startTime": 0,
      "duration": 0,
      "length": 0,
      "notes": [],
      "controlChanges": {},
      "id": 0
    },
    {
      "startTime": 0,
      "duration": 0,
      "length": 0,
      "notes": [],
      "controlChanges": {},
      "id": 1
    },
    {
      "startTime": 0,
      "duration": 0,
      "length": 0,
      "notes": [],
      "controlChanges": {
        "6": [
          {
            "number": 6,
            "time": 0,
            "value": 0.09448818897637795
          },
          {
            "number": 6,
            "time": 0,
            "value": 0.09448818897637795
          },
          {
            "number": 6,
            "time": 0,
            "value": 0.09448818897637795
          },
          {
            "number": 6,
            "time": 136,
            "value": 0.09448818897637795
          },
          {
            "number": 6,
            "time": 136,
            "value": 0.09448818897637795
          }
        ],
        "7": [
          {
            "number": 7,
            "time": 0,
            "value": 0.7874015748031497
          },
          {
            "number": 7,
            "time": 0,
            "value": 0.7874015748031497
          },
          {
            "number": 7,
            "time": 0,
            "value": 0.7874015748031497
          },
          {
            "number": 7,
            "time": 0,
            "value": 0.7874015748031497
          },
          {
            "number": 7,
            "time": 136,
            "value": 0.7874015748031497
          },
          {
            "number": 7,
            "time": 136,
            "value": 0.7874015748031497
          }
        ],
        "10": [
          {
            "number": 10,
            "time": 0,
            "value": 0.5039370078740157
          },
          {
            "number": 10,
            "time": 0,
            "value": 0.5039370078740157
          },
          {
            "number": 10,
            "time": 0,
            "value": 0.5039370078740157
          },
          {
            "number": 10,
            "time": 0,
            "value": 0.5039370078740157
          },
          {
            "number": 10,
            "time": 136,
            "value": 0.5039370078740157
          },
          {
            "number": 10,
            "time": 136,
            "value": 0.5039370078740157
          }
        ],
        "100": [
          {
            "number": 100,
            "time": 0,
            "value": 0
          },
          {
            "number": 100,
            "time": 0,
            "value": 0
          },
          {
            "number": 100,
            "time": 0,
            "value": 0
          },
          {
            "number": 100,
            "time": 136,
            "value": 0
          },
          {
            "number": 100,
            "time": 136,
            "value": 0
          }
        ],
        "101": [
          {
            "number": 101,
            "time": 0,
            "value": 0
          },
          {
            "number": 101,
            "time": 0,
            "value": 0
          },
          {
            "number": 101,
            "time": 0,
            "value": 0
          },
          {
            "number": 101,
            "time": 136,
            "value": 0
          },
          {
            "number": 101,
            "time": 136,
            "value": 0
          }
        ]
      },
      "id": 2,
      "name": "A easy "
    },
    {
      "startTime": 0,
      "duration": 0,
      "length": 0,
      "notes": [],
      "controlChanges": {
        "6": [
          {
            "number": 6,
            "time": 0,
            "value": 0.09448818897637795
          },
          {
            "number": 6,
            "time": 0,
            "value": 0.09448818897637795
          },
          {
            "number": 6,
            "time": 0,
            "value": 0.09448818897637795
          },
          {
            "number": 6,
            "time": 136,
            "value": 0.09448818897637795
          },
          {
            "number": 6,
            "time": 136,
            "value": 0.09448818897637795
          }
        ],
        "7": [
          {
            "number": 7,
            "time": 0,
            "value": 0.7874015748031497
          },
          {
            "number": 7,
            "time": 0,
            "value": 0.7874015748031497
          },
          {
            "number": 7,
            "time": 0,
            "value": 0.7874015748031497
          },
          {
            "number": 7,
            "time": 0,
            "value": 0.7874015748031497
          },
          {
            "number": 7,
            "time": 136,
            "value": 0.7874015748031497
          },
          {
            "number": 7,
            "time": 136,
            "value": 0.7874015748031497
          }
        ],
        "10": [
          {
            "number": 10,
            "time": 0,
            "value": 0.5039370078740157
          },
          {
            "number": 10,
            "time": 0,
            "value": 0.5039370078740157
          },
          {
            "number": 10,
            "time": 0,
            "value": 0.5039370078740157
          },
          {
            "number": 10,
            "time": 0,
            "value": 0.5039370078740157
          },
          {
            "number": 10,
            "time": 136,
            "value": 0.5039370078740157
          },
          {
            "number": 10,
            "time": 136,
            "value": 0.5039370078740157
          }
        ],
        "100": [
          {
            "number": 100,
            "time": 0,
            "value": 0
          },
          {
            "number": 100,
            "time": 0,
            "value": 0
          },
          {
            "number": 100,
            "time": 0,
            "value": 0
          },
          {
            "number": 100,
            "time": 136,
            "value": 0
          },
          {
            "number": 100,
            "time": 136,
            "value": 0
          }
        ],
        "101": [
          {
            "number": 101,
            "time": 0,
            "value": 0
          },
          {
            "number": 101,
            "time": 0,
            "value": 0
          },
          {
            "number": 101,
            "time": 0,
            "value": 0
          },
          {
            "number": 101,
            "time": 136,
            "value": 0
          },
          {
            "number": 101,
            "time": 136,
            "value": 0
          }
        ]
      },
      "id": 3,
      "name": "S easy "
    },
    {
      "startTime": 0,
      "duration": 0,
      "length": 0,
      "notes": [],
      "controlChanges": {
        "6": [
          {
            "number": 6,
            "time": 0,
            "value": 0.09448818897637795
          },
          {
            "number": 6,
            "time": 0,
            "value": 0.09448818897637795
          },
          {
            "number": 6,
            "time": 0,
            "value": 0.09448818897637795
          },
          {
            "number": 6,
            "time": 136,
            "value": 0.09448818897637795
          },
          {
            "number": 6,
            "time": 136,
            "value": 0.09448818897637795
          }
        ],
        "7": [
          {
            "number": 7,
            "time": 0,
            "value": 0.7874015748031497
          },
          {
            "number": 7,
            "time": 0,
            "value": 0.7874015748031497
          },
          {
            "number": 7,
            "time": 0,
            "value": 0.7874015748031497
          },
          {
            "number": 7,
            "time": 0,
            "value": 0.7874015748031497
          },
          {
            "number": 7,
            "time": 136,
            "value": 0.7874015748031497
          },
          {
            "number": 7,
            "time": 136,
            "value": 0.7874015748031497
          }
        ],
        "10": [
          {
            "number": 10,
            "time": 0,
            "value": 0.5039370078740157
          },
          {
            "number": 10,
            "time": 0,
            "value": 0.5039370078740157
          },
          {
            "number": 10,
            "time": 0,
            "value": 0.5039370078740157
          },
          {
            "number": 10,
            "time": 0,
            "value": 0.5039370078740157
          },
          {
            "number": 10,
            "time": 136,
            "value": 0.5039370078740157
          },
          {
            "number": 10,
            "time": 136,
            "value": 0.5039370078740157
          }
        ],
        "100": [
          {
            "number": 100,
            "time": 0,
            "value": 0
          },
          {
            "number": 100,
            "time": 0,
            "value": 0
          },
          {
            "number": 100,
            "time": 0,
            "value": 0
          },
          {
            "number": 100,
            "time": 136,
            "value": 0
          },
          {
            "number": 100,
            "time": 136,
            "value": 0
          }
        ],
        "101": [
          {
            "number": 101,
            "time": 0,
            "value": 0
          },
          {
            "number": 101,
            "time": 0,
            "value": 0
          },
          {
            "number": 101,
            "time": 0,
            "value": 0
          },
          {
            "number": 101,
            "time": 136,
            "value": 0
          },
          {
            "number": 101,
            "time": 136,
            "value": 0
          }
        ]
      },
      "id": 4,
      "name": "D easy"
    },
    {
      "startTime": 1,
      "duration": 131.49999999999935,
      "length": 216,
      "notes": [
        {
          "name": "C4",
          "midi": 60,
          "time": 1,
          "velocity": 0.6850393700787402,
          "duration": 0.10000000000000009
        },
        {
          "name": "C4",
          "midi": 60,
          "time": 1.6,
          "velocity": 0.6614173228346457,
          "duration": 0.10000000000000009
        },
        {
          "name": "E4",
          "midi": 64,
          "time": 2,
          "velocity": 0.6614173228346457,
          "duration": 0.10000000000000009
        },
        {
          "name": "C4",
          "midi": 60,
          "time": 2.2,
          "velocity": 0.6614173228346457,
          "duration": 0.10000000000000009
        },
        {
          "name": "C4",
          "midi": 60,
          "time": 2.6000000000000005,
          "velocity": 0.6614173228346457,
          "duration": 0.10000000000000009
        },
        {
          "name": "C4",
          "midi": 60,
          "time": 3.2000000000000006,
          "velocity": 0.7322834645669292,
          "duration": 0.10000000000000009
        },
        {
          "name": "E4",
          "midi": 64,
          "time": 3.6000000000000005,
          "velocity": 0.7401574803149606,
          "duration": 0.10000000000000009
        },
        {
          "name": "C4",
          "midi": 60,
          "time": 3.8000000000000007,
          "velocity": 0.6692913385826772,
          "duration": 0.10000000000000009
        },
        {
          "name": "C4",
          "midi": 60,
          "time": 4.200000000000001,
          "velocity": 0.6850393700787402,
          "duration": 0.09999999999999964
        },
        {
          "name": "C4",
          "midi": 60,
          "time": 4.800000000000001,
          "velocity": 0.6614173228346457,
          "duration": 0.09999999999999964
        },
        {
          "name": "E4",
          "midi": 64,
          "time": 5.2,
          "velocity": 0.6614173228346457,
          "duration": 0.09999999999999964
        },
        {
          "name": "C4",
          "midi": 60,
          "time": 5.3999999999999995,
          "velocity": 0.6614173228346457,
          "duration": 0.09999999999999964
        },
        {
          "name": "C4",
          "midi": 60,
          "time": 5.799999999999999,
          "velocity": 0.6850393700787402,
          "duration": 0.09999999999999964
        },
        {
          "name": "C4",
          "midi": 60,
          "time": 6.399999999999999,
          "velocity": 0.6614173228346457,
          "duration": 0.09999999999999964
        },
        {
          "name": "E4",
          "midi": 64,
          "time": 6.799999999999998,
          "velocity": 0.6614173228346457,
          "duration": 0.09999999999999964
        },
        {
          "name": "C4",
          "midi": 60,
          "time": 6.999999999999997,
          "velocity": 0.6614173228346457,
          "duration": 0.09999999999999964
        },
        {
          "name": "F4",
          "midi": 65,
          "time": 7.199999999999997,
          "velocity": 0.7874015748031497,
          "duration": 0.1999999999999993
        },
        {
          "name": "C4",
          "midi": 60,
          "time": 7.199999999999997,
          "velocity": 0.6614173228346457,
          "duration": 0.09999999999999964
        },
        {
          "name": "F4",
          "midi": 65,
          "time": 7.9999999999999964,
          "velocity": 0.7874015748031497,
          "duration": 0.1999999999999993
        },
        {
          "name": "E4",
          "midi": 64,
          "time": 9.599999999999996,
          "velocity": 0.6614173228346457,
          "duration": 0.09999999999999964
        },
        {
          "name": "F4",
          "midi": 65,
          "time": 9.999999999999996,
          "velocity": 0.7874015748031497,
          "duration": 0.1999999999999993
        },
        {
          "name": "F4",
          "midi": 65,
          "time": 10.399999999999995,
          "velocity": 0.7874015748031497,
          "duration": 0.1999999999999993
        },
        {
          "name": "D4",
          "midi": 62,
          "time": 10.399999999999995,
          "velocity": 0.6614173228346457,
          "duration": 2.3999999999999986
        },
        {
          "name": "C4",
          "midi": 60,
          "time": 12.999999999999993,
          "velocity": 0.6614173228346457,
          "duration": 0.09999999999999964
        },
        {
          "name": "C4",
          "midi": 60,
          "time": 13.399999999999993,
          "velocity": 0.6614173228346457,
          "duration": 0.09999999999999964
        },
        {
          "name": "F4",
          "midi": 65,
          "time": 13.599999999999993,
          "velocity": 0.7874015748031497,
          "duration": 0.1999999999999993
        },
        {
          "name": "E4",
          "midi": 64,
          "time": 13.599999999999993,
          "velocity": 0.6614173228346457,
          "duration": 0.09999999999999964
        },
        {
          "name": "E4",
          "midi": 64,
          "time": 14.199999999999992,
          "velocity": 0.6614173228346457,
          "duration": 0.09999999999999964
        },
        {
          "name": "F4",
          "midi": 65,
          "time": 14.799999999999992,
          "velocity": 0.7874015748031497,
          "duration": 0.1999999999999993
        },
        {
          "name": "F4",
          "midi": 65,
          "time": 14.999999999999991,
          "velocity": 0.7874015748031497,
          "duration": 0.1999999999999993
        },
        {
          "name": "F4",
          "midi": 65,
          "time": 15.19999999999999,
          "velocity": 0.7874015748031497,
          "duration": 0.1999999999999993
        },
        {
          "name": "E4",
          "midi": 64,
          "time": 16.79999999999999,
          "velocity": 0.6614173228346457,
          "duration": 0.10000000000000142
        },
        {
          "name": "E4",
          "midi": 64,
          "time": 17.39999999999999,
          "velocity": 0.6614173228346457,
          "duration": 0.10000000000000142
        },
        {
          "name": "E4",
          "midi": 64,
          "time": 17.999999999999993,
          "velocity": 0.6614173228346457,
          "duration": 0.10000000000000142
        },
        {
          "name": "E4",
          "midi": 64,
          "time": 18.199999999999996,
          "velocity": 0.6614173228346457,
          "duration": 0.10000000000000142
        },
        {
          "name": "E4",
          "midi": 64,
          "time": 18.4,
          "velocity": 0.6614173228346457,
          "duration": 0.10000000000000142
        },
        {
          "name": "E4",
          "midi": 64,
          "time": 19.2,
          "velocity": 0.6614173228346457,
          "duration": 0.10000000000000142
        },
        {
          "name": "C4",
          "midi": 60,
          "time": 20,
          "velocity": 0.6614173228346457,
          "duration": 0.10000000000000142
        },
        {
          "name": "E4",
          "midi": 64,
          "time": 21.200000000000003,
          "velocity": 0.6614173228346457,
          "duration": 0.10000000000000142
        },
        {
          "name": "E4",
          "midi": 64,
          "time": 21.400000000000006,
          "velocity": 0.6614173228346457,
          "duration": 0.10000000000000142
        },
        {
          "name": "E4",
          "midi": 64,
          "time": 21.60000000000001,
          "velocity": 0.6614173228346457,
          "duration": 0.10000000000000142
        },
        {
          "name": "F4",
          "midi": 65,
          "time": 21.70000000000001,
          "velocity": 0.6614173228346457,
          "duration": 0.10000000000000142
        },
        {
          "name": "E4",
          "midi": 64,
          "time": 23.20000000000001,
          "velocity": 0.6614173228346457,
          "duration": 0.10000000000000142
        },
        {
          "name": "E4",
          "midi": 64,
          "time": 23.80000000000001,
          "velocity": 0.6614173228346457,
          "duration": 0.10000000000000142
        },
        {
          "name": "F4",
          "midi": 65,
          "time": 24.000000000000014,
          "velocity": 0.7874015748031497,
          "duration": 0.1999999999999993
        },
        {
          "name": "E4",
          "midi": 64,
          "time": 24.400000000000013,
          "velocity": 0.6614173228346457,
          "duration": 0.10000000000000142
        },
        {
          "name": "E4",
          "midi": 64,
          "time": 24.600000000000016,
          "velocity": 0.6614173228346457,
          "duration": 0.10000000000000142
        },
        {
          "name": "E4",
          "midi": 64,
          "time": 24.80000000000002,
          "velocity": 0.6614173228346457,
          "duration": 0.10000000000000142
        },
        {
          "name": "F4",
          "midi": 65,
          "time": 25.20000000000002,
          "velocity": 0.7874015748031497,
          "duration": 0.1999999999999993
        },
        {
          "name": "D4",
          "midi": 62,
          "time": 26.40000000000002,
          "velocity": 0.6614173228346457,
          "duration": 1.6000000000000014
        },
        {
          "name": "F4",
          "midi": 65,
          "time": 28.40000000000002,
          "velocity": 0.7874015748031497,
          "duration": 0.1999999999999993
        },
        {
          "name": "C4",
          "midi": 60,
          "time": 29.90000000000002,
          "velocity": 0.6614173228346457,
          "duration": 0.10000000000000142
        },
        {
          "name": "C4",
          "midi": 60,
          "time": 30.20000000000002,
          "velocity": 0.6614173228346457,
          "duration": 0.10000000000000142
        },
        {
          "name": "C4",
          "midi": 60,
          "time": 30.600000000000023,
          "velocity": 0.6614173228346457,
          "duration": 0.10000000000000142
        },
        {
          "name": "F4",
          "midi": 65,
          "time": 31.200000000000024,
          "velocity": 0.7874015748031497,
          "duration": 0.1999999999999993
        },
        {
          "name": "C4",
          "midi": 60,
          "time": 32.00000000000002,
          "velocity": 0.6614173228346457,
          "duration": 0.10000000000000142
        },
        {
          "name": "C4",
          "midi": 60,
          "time": 32.50000000000002,
          "velocity": 0.6614173228346457,
          "duration": 0.10000000000000142
        },
        {
          "name": "D4",
          "midi": 62,
          "time": 32.800000000000026,
          "velocity": 0.6614173228346457,
          "duration": 1.6000000000000014
        },
        {
          "name": "F4",
          "midi": 65,
          "time": 34.40000000000003,
          "velocity": 0.7874015748031497,
          "duration": 0.20000000000000284
        },
        {
          "name": "F4",
          "midi": 65,
          "time": 35.60000000000003,
          "velocity": 0.6614173228346457,
          "duration": 0.10000000000000142
        },
        {
          "name": "E4",
          "midi": 64,
          "time": 36.30000000000003,
          "velocity": 0.6614173228346457,
          "duration": 0.10000000000000142
        },
        {
          "name": "E4",
          "midi": 64,
          "time": 36.60000000000004,
          "velocity": 0.6614173228346457,
          "duration": 0.10000000000000142
        },
        {
          "name": "E4",
          "midi": 64,
          "time": 37.000000000000036,
          "velocity": 0.6614173228346457,
          "duration": 0.10000000000000142
        },
        {
          "name": "E4",
          "midi": 64,
          "time": 38.20000000000004,
          "velocity": 0.6614173228346457,
          "duration": 0.10000000000000142
        },
        {
          "name": "C4",
          "midi": 60,
          "time": 38.70000000000004,
          "velocity": 0.6614173228346457,
          "duration": 0.10000000000000142
        },
        {
          "name": "F4",
          "midi": 65,
          "time": 38.80000000000004,
          "velocity": 0.7874015748031497,
          "duration": 0.20000000000000284
        },
        {
          "name": "D4",
          "midi": 62,
          "time": 39.200000000000045,
          "velocity": 0.6614173228346457,
          "duration": 1.6000000000000014
        },
        {
          "name": "E4",
          "midi": 64,
          "time": 41.00000000000005,
          "velocity": 0.6614173228346457,
          "duration": 0.10000000000000142
        },
        {
          "name": "E4",
          "midi": 64,
          "time": 41.40000000000005,
          "velocity": 0.6614173228346457,
          "duration": 0.10000000000000142
        },
        {
          "name": "C4",
          "midi": 60,
          "time": 42.10000000000005,
          "velocity": 0.6614173228346457,
          "duration": 0.10000000000000142
        },
        {
          "name": "E4",
          "midi": 64,
          "time": 42.60000000000005,
          "velocity": 0.6614173228346457,
          "duration": 0.10000000000000142
        },
        {
          "name": "E4",
          "midi": 64,
          "time": 43.00000000000005,
          "velocity": 0.6614173228346457,
          "duration": 0.10000000000000142
        },
        {
          "name": "E4",
          "midi": 64,
          "time": 43.40000000000005,
          "velocity": 0.6614173228346457,
          "duration": 0.10000000000000142
        },
        {
          "name": "E4",
          "midi": 64,
          "time": 44.30000000000005,
          "velocity": 0.6614173228346457,
          "duration": 0.10000000000000142
        },
        {
          "name": "E4",
          "midi": 64,
          "time": 45.00000000000005,
          "velocity": 0.6614173228346457,
          "duration": 0.10000000000000142
        },
        {
          "name": "C4",
          "midi": 60,
          "time": 45.40000000000005,
          "velocity": 0.6614173228346457,
          "duration": 0.10000000000000142
        },
        {
          "name": "D4",
          "midi": 62,
          "time": 45.60000000000005,
          "velocity": 0.6614173228346457,
          "duration": 1.6000000000000014
        },
        {
          "name": "E4",
          "midi": 64,
          "time": 47.400000000000055,
          "velocity": 0.6614173228346457,
          "duration": 0.10000000000000142
        },
        {
          "name": "E4",
          "midi": 64,
          "time": 47.800000000000054,
          "velocity": 0.6614173228346457,
          "duration": 0.10000000000000142
        },
        {
          "name": "C4",
          "midi": 60,
          "time": 48.50000000000006,
          "velocity": 0.6614173228346457,
          "duration": 0.10000000000000142
        },
        {
          "name": "E4",
          "midi": 64,
          "time": 49.00000000000006,
          "velocity": 0.6614173228346457,
          "duration": 0.10000000000000142
        },
        {
          "name": "E4",
          "midi": 64,
          "time": 49.400000000000055,
          "velocity": 0.6614173228346457,
          "duration": 0.10000000000000142
        },
        {
          "name": "E4",
          "midi": 64,
          "time": 49.800000000000054,
          "velocity": 0.6614173228346457,
          "duration": 0.10000000000000142
        },
        {
          "name": "F4",
          "midi": 65,
          "time": 50.20000000000005,
          "velocity": 0.7874015748031497,
          "duration": 0.20000000000000284
        },
        {
          "name": "F4",
          "midi": 65,
          "time": 50.400000000000055,
          "velocity": 0.7874015748031497,
          "duration": 0.20000000000000284
        },
        {
          "name": "F4",
          "midi": 65,
          "time": 50.60000000000006,
          "velocity": 0.7874015748031497,
          "duration": 0.20000000000000284
        },
        {
          "name": "E4",
          "midi": 64,
          "time": 51.20000000000006,
          "velocity": 0.6614173228346457,
          "duration": 0.10000000000000142
        },
        {
          "name": "C4",
          "midi": 60,
          "time": 51.80000000000006,
          "velocity": 0.6614173228346457,
          "duration": 0.10000000000000142
        },
        {
          "name": "F4",
          "midi": 65,
          "time": 54.600000000000065,
          "velocity": 0.7874015748031497,
          "duration": 0.20000000000000284
        },
        {
          "name": "C4",
          "midi": 60,
          "time": 54.90000000000007,
          "velocity": 0.6614173228346457,
          "duration": 0.10000000000000142
        },
        {
          "name": "F4",
          "midi": 65,
          "time": 57.200000000000074,
          "velocity": 0.7874015748031497,
          "duration": 0.20000000000000284
        },
        {
          "name": "E4",
          "midi": 64,
          "time": 57.800000000000075,
          "velocity": 0.6614173228346457,
          "duration": 0.10000000000000142
        },
        {
          "name": "C4",
          "midi": 60,
          "time": 58.200000000000074,
          "velocity": 0.6614173228346457,
          "duration": 0.10000000000000142
        },
        {
          "name": "C4",
          "midi": 60,
          "time": 58.800000000000075,
          "velocity": 0.6614173228346457,
          "duration": 0.10000000000000142
        },
        {
          "name": "C4",
          "midi": 60,
          "time": 59.200000000000074,
          "velocity": 0.6614173228346457,
          "duration": 0.10000000000000142
        },
        {
          "name": "C4",
          "midi": 60,
          "time": 59.60000000000007,
          "velocity": 0.6614173228346457,
          "duration": 0.10000000000000142
        },
        {
          "name": "F4",
          "midi": 65,
          "time": 59.800000000000075,
          "velocity": 0.7874015748031497,
          "duration": 0.20000000000000284
        },
        {
          "name": "C4",
          "midi": 60,
          "time": 60.00000000000008,
          "velocity": 0.6614173228346457,
          "duration": 0.10000000000000142
        },
        {
          "name": "C4",
          "midi": 60,
          "time": 60.40000000000008,
          "velocity": 0.6614173228346457,
          "duration": 0.10000000000000142
        },
        {
          "name": "F4",
          "midi": 65,
          "time": 60.60000000000008,
          "velocity": 0.7874015748031497,
          "duration": 0.20000000000000284
        },
        {
          "name": "C4",
          "midi": 60,
          "time": 60.80000000000008,
          "velocity": 0.6614173228346457,
          "duration": 0.10000000000000142
        },
        {
          "name": "C4",
          "midi": 60,
          "time": 61.20000000000008,
          "velocity": 0.6614173228346457,
          "duration": 0.10000000000000142
        },
        {
          "name": "F4",
          "midi": 65,
          "time": 61.400000000000084,
          "velocity": 0.7874015748031497,
          "duration": 0.20000000000000284
        },
        {
          "name": "C4",
          "midi": 60,
          "time": 61.60000000000009,
          "velocity": 0.6614173228346457,
          "duration": 0.10000000000000142
        },
        {
          "name": "C4",
          "midi": 60,
          "time": 62.000000000000085,
          "velocity": 0.6614173228346457,
          "duration": 0.10000000000000142
        },
        {
          "name": "C4",
          "midi": 60,
          "time": 62.400000000000084,
          "velocity": 0.6614173228346457,
          "duration": 0.10000000000000142
        },
        {
          "name": "C4",
          "midi": 60,
          "time": 62.80000000000008,
          "velocity": 0.6614173228346457,
          "duration": 0.10000000000000142
        },
        {
          "name": "F4",
          "midi": 65,
          "time": 63.20000000000008,
          "velocity": 0.7874015748031497,
          "duration": 0.20000000000000284
        },
        {
          "name": "D4",
          "midi": 62,
          "time": 64.40000000000009,
          "velocity": 0.6614173228346457,
          "duration": 0.4000000000000057
        },
        {
          "name": "E4",
          "midi": 64,
          "time": 66.0000000000001,
          "velocity": 0.6614173228346457,
          "duration": 0.09999999999999432
        },
        {
          "name": "F4",
          "midi": 65,
          "time": 66.40000000000009,
          "velocity": 0.7874015748031497,
          "duration": 0.20000000000000284
        },
        {
          "name": "F4",
          "midi": 65,
          "time": 67.5000000000001,
          "velocity": 0.7874015748031497,
          "duration": 0.09999999999999432
        },
        {
          "name": "F4",
          "midi": 65,
          "time": 67.6000000000001,
          "velocity": 0.7874015748031497,
          "duration": 0.09999999999999432
        },
        {
          "name": "F4",
          "midi": 65,
          "time": 67.70000000000009,
          "velocity": 0.7874015748031497,
          "duration": 0.09999999999999432
        },
        {
          "name": "C4",
          "midi": 60,
          "time": 68.60000000000008,
          "velocity": 0.6614173228346457,
          "duration": 0.09999999999999432
        },
        {
          "name": "F4",
          "midi": 65,
          "time": 68.80000000000007,
          "velocity": 0.6614173228346457,
          "duration": 0.09999999999999432
        },
        {
          "name": "F4",
          "midi": 65,
          "time": 71.20000000000006,
          "velocity": 0.7874015748031497,
          "duration": 0.09999999999999432
        },
        {
          "name": "C4",
          "midi": 60,
          "time": 71.80000000000005,
          "velocity": 0.6614173228346457,
          "duration": 0.09999999999999432
        },
        {
          "name": "F4",
          "midi": 65,
          "time": 72.40000000000005,
          "velocity": 0.7874015748031497,
          "duration": 0.09999999999999432
        },
        {
          "name": "C4",
          "midi": 60,
          "time": 73.60000000000004,
          "velocity": 0.6614173228346457,
          "duration": 0.09999999999999432
        },
        {
          "name": "F4",
          "midi": 65,
          "time": 74.00000000000003,
          "velocity": 0.7874015748031497,
          "duration": 0.09999999999999432
        },
        {
          "name": "E4",
          "midi": 64,
          "time": 74.20000000000002,
          "velocity": 0.6614173228346457,
          "duration": 0.09999999999999432
        },
        {
          "name": "E4",
          "midi": 64,
          "time": 74.4,
          "velocity": 0.6614173228346457,
          "duration": 0.09999999999999432
        },
        {
          "name": "E4",
          "midi": 64,
          "time": 74.93333333333334,
          "velocity": 0.6614173228346457,
          "duration": 0.09999999999999432
        },
        {
          "name": "E4",
          "midi": 64,
          "time": 75.2,
          "velocity": 0.6614173228346457,
          "duration": 0.09999999999999432
        },
        {
          "name": "D4",
          "midi": 62,
          "time": 77.6,
          "velocity": 0.6614173228346457,
          "duration": 1.5999999999999943
        },
        {
          "name": "F4",
          "midi": 65,
          "time": 79.99999999999999,
          "velocity": 0.7874015748031497,
          "duration": 0.09999999999999432
        },
        {
          "name": "C4",
          "midi": 60,
          "time": 80.79999999999998,
          "velocity": 0.6614173228346457,
          "duration": 0.09999999999999432
        },
        {
          "name": "C4",
          "midi": 60,
          "time": 81.19999999999997,
          "velocity": 0.6614173228346457,
          "duration": 0.09999999999999432
        },
        {
          "name": "C4",
          "midi": 60,
          "time": 81.59999999999997,
          "velocity": 0.6614173228346457,
          "duration": 0.09999999999999432
        },
        {
          "name": "C4",
          "midi": 60,
          "time": 81.99999999999996,
          "velocity": 0.6614173228346457,
          "duration": 0.09999999999999432
        },
        {
          "name": "C4",
          "midi": 60,
          "time": 82.39999999999995,
          "velocity": 0.6614173228346457,
          "duration": 0.09999999999999432
        },
        {
          "name": "C4",
          "midi": 60,
          "time": 82.79999999999994,
          "velocity": 0.6614173228346457,
          "duration": 0.09999999999999432
        },
        {
          "name": "C4",
          "midi": 60,
          "time": 83.19999999999993,
          "velocity": 0.6614173228346457,
          "duration": 0.09999999999999432
        },
        {
          "name": "C4",
          "midi": 60,
          "time": 83.59999999999992,
          "velocity": 0.6614173228346457,
          "duration": 0.09999999999999432
        },
        {
          "name": "C4",
          "midi": 60,
          "time": 83.99999999999991,
          "velocity": 0.6614173228346457,
          "duration": 0.09999999999999432
        },
        {
          "name": "C4",
          "midi": 60,
          "time": 84.3999999999999,
          "velocity": 0.6614173228346457,
          "duration": 0.09999999999999432
        },
        {
          "name": "C4",
          "midi": 60,
          "time": 84.7999999999999,
          "velocity": 0.6614173228346457,
          "duration": 0.09999999999999432
        },
        {
          "name": "C4",
          "midi": 60,
          "time": 85.19999999999989,
          "velocity": 0.6614173228346457,
          "duration": 0.09999999999999432
        },
        {
          "name": "C4",
          "midi": 60,
          "time": 85.59999999999988,
          "velocity": 0.6614173228346457,
          "duration": 0.09999999999999432
        },
        {
          "name": "C4",
          "midi": 60,
          "time": 85.99999999999987,
          "velocity": 0.6614173228346457,
          "duration": 0.09999999999999432
        },
        {
          "name": "C4",
          "midi": 60,
          "time": 86.39999999999986,
          "velocity": 0.6614173228346457,
          "duration": 0.09999999999999432
        },
        {
          "name": "C4",
          "midi": 60,
          "time": 86.79999999999986,
          "velocity": 0.6614173228346457,
          "duration": 0.09999999999999432
        },
        {
          "name": "E4",
          "midi": 64,
          "time": 87.19999999999985,
          "velocity": 0.6614173228346457,
          "duration": 0.09999999999999432
        },
        {
          "name": "D4",
          "midi": 62,
          "time": 87.59999999999984,
          "velocity": 0.6614173228346457,
          "duration": 0.7999999999999972
        },
        {
          "name": "F4",
          "midi": 65,
          "time": 88.39999999999984,
          "velocity": 0.7874015748031497,
          "duration": 0.09999999999999432
        },
        {
          "name": "D4",
          "midi": 62,
          "time": 89.19999999999983,
          "velocity": 0.6614173228346457,
          "duration": 1.2000000000000028
        },
        {
          "name": "F4",
          "midi": 65,
          "time": 90.59999999999984,
          "velocity": 0.7874015748031497,
          "duration": 0.09999999999999432
        },
        {
          "name": "E4",
          "midi": 64,
          "time": 91.19999999999983,
          "velocity": 0.6614173228346457,
          "duration": 0.09999999999999432
        },
        {
          "name": "E4",
          "midi": 64,
          "time": 91.79999999999983,
          "velocity": 0.6614173228346457,
          "duration": 0.09999999999999432
        },
        {
          "name": "D4",
          "midi": 62,
          "time": 92.19999999999982,
          "velocity": 0.6614173228346457,
          "duration": 0.4000000000000057
        },
        {
          "name": "D4",
          "midi": 62,
          "time": 93.59999999999982,
          "velocity": 0.6614173228346457,
          "duration": 0.7999999999999972
        },
        {
          "name": "F4",
          "midi": 65,
          "time": 94.39999999999982,
          "velocity": 0.7874015748031497,
          "duration": 0.09999999999999432
        },
        {
          "name": "F4",
          "midi": 65,
          "time": 94.59999999999981,
          "velocity": 0.7874015748031497,
          "duration": 0.09999999999999432
        },
        {
          "name": "F4",
          "midi": 65,
          "time": 94.7999999999998,
          "velocity": 0.7874015748031497,
          "duration": 0.09999999999999432
        },
        {
          "name": "F4",
          "midi": 65,
          "time": 94.99999999999979,
          "velocity": 0.7874015748031497,
          "duration": 0.09999999999999432
        },
        {
          "name": "F4",
          "midi": 65,
          "time": 96.39999999999978,
          "velocity": 0.7874015748031497,
          "duration": 0.09999999999999432
        },
        {
          "name": "F4",
          "midi": 65,
          "time": 96.59999999999977,
          "velocity": 0.7874015748031497,
          "duration": 0.09999999999999432
        },
        {
          "name": "D4",
          "midi": 62,
          "time": 97.99999999999976,
          "velocity": 0.6614173228346457,
          "duration": 0.4000000000000057
        },
        {
          "name": "E4",
          "midi": 64,
          "time": 99.59999999999977,
          "velocity": 0.6614173228346457,
          "duration": 0.09999999999999432
        },
        {
          "name": "E4",
          "midi": 64,
          "time": 99.79999999999976,
          "velocity": 0.6614173228346457,
          "duration": 0.09999999999999432
        },
        {
          "name": "C4",
          "midi": 60,
          "time": 99.99999999999974,
          "velocity": 0.6614173228346457,
          "duration": 0.09999999999999432
        },
        {
          "name": "E4",
          "midi": 64,
          "time": 102.79999999999974,
          "velocity": 0.7874015748031497,
          "duration": 0.09999999999999432
        },
        {
          "name": "E4",
          "midi": 64,
          "time": 103.19999999999973,
          "velocity": 0.7874015748031497,
          "duration": 0.09999999999999432
        },
        {
          "name": "F4",
          "midi": 65,
          "time": 106.19999999999973,
          "velocity": 0.7874015748031497,
          "duration": 0.09999999999999432
        },
        {
          "name": "C4",
          "midi": 60,
          "time": 106.39999999999972,
          "velocity": 0.6614173228346457,
          "duration": 0.09999999999999432
        },
        {
          "name": "C4",
          "midi": 60,
          "time": 106.79999999999971,
          "velocity": 0.6614173228346457,
          "duration": 0.09999999999999432
        },
        {
          "name": "C4",
          "midi": 60,
          "time": 107.1999999999997,
          "velocity": 0.6614173228346457,
          "duration": 0.09999999999999432
        },
        {
          "name": "C4",
          "midi": 60,
          "time": 107.5999999999997,
          "velocity": 0.6614173228346457,
          "duration": 0.09999999999999432
        },
        {
          "name": "C4",
          "midi": 60,
          "time": 107.99999999999969,
          "velocity": 0.6614173228346457,
          "duration": 0.09999999999999432
        },
        {
          "name": "C4",
          "midi": 60,
          "time": 108.39999999999968,
          "velocity": 0.6614173228346457,
          "duration": 0.09999999999999432
        },
        {
          "name": "E4",
          "midi": 64,
          "time": 108.79999999999967,
          "velocity": 0.6614173228346457,
          "duration": 0.09999999999999432
        },
        {
          "name": "F4",
          "midi": 65,
          "time": 108.99999999999966,
          "velocity": 0.6614173228346457,
          "duration": 0.09999999999999432
        },
        {
          "name": "E4",
          "midi": 64,
          "time": 109.19999999999965,
          "velocity": 0.6614173228346457,
          "duration": 0.09999999999999432
        },
        {
          "name": "C4",
          "midi": 60,
          "time": 109.59999999999964,
          "velocity": 0.6614173228346457,
          "duration": 0.09999999999999432
        },
        {
          "name": "C4",
          "midi": 60,
          "time": 109.99999999999963,
          "velocity": 0.6614173228346457,
          "duration": 0.09999999999999432
        },
        {
          "name": "C4",
          "midi": 60,
          "time": 110.39999999999962,
          "velocity": 0.6614173228346457,
          "duration": 0.09999999999999432
        },
        {
          "name": "C4",
          "midi": 60,
          "time": 110.79999999999961,
          "velocity": 0.6614173228346457,
          "duration": 0.09999999999999432
        },
        {
          "name": "C4",
          "midi": 60,
          "time": 111.1999999999996,
          "velocity": 0.6614173228346457,
          "duration": 0.09999999999999432
        },
        {
          "name": "C4",
          "midi": 60,
          "time": 111.5999999999996,
          "velocity": 0.6614173228346457,
          "duration": 0.09999999999999432
        },
        {
          "name": "E4",
          "midi": 64,
          "time": 111.99999999999959,
          "velocity": 0.6614173228346457,
          "duration": 0.09999999999999432
        },
        {
          "name": "E4",
          "midi": 64,
          "time": 112.39999999999958,
          "velocity": 0.6614173228346457,
          "duration": 0.09999999999999432
        },
        {
          "name": "F4",
          "midi": 65,
          "time": 112.59999999999957,
          "velocity": 0.7874015748031497,
          "duration": 0.09999999999999432
        },
        {
          "name": "C4",
          "midi": 60,
          "time": 112.79999999999956,
          "velocity": 0.6614173228346457,
          "duration": 0.09999999999999432
        },
        {
          "name": "C4",
          "midi": 60,
          "time": 113.19999999999955,
          "velocity": 0.6614173228346457,
          "duration": 0.09999999999999432
        },
        {
          "name": "C4",
          "midi": 60,
          "time": 113.59999999999954,
          "velocity": 0.6614173228346457,
          "duration": 0.09999999999999432
        },
        {
          "name": "C4",
          "midi": 60,
          "time": 113.99999999999953,
          "velocity": 0.6614173228346457,
          "duration": 0.09999999999999432
        },
        {
          "name": "C4",
          "midi": 60,
          "time": 114.39999999999952,
          "velocity": 0.6614173228346457,
          "duration": 0.09999999999999432
        },
        {
          "name": "F4",
          "midi": 65,
          "time": 114.59999999999951,
          "velocity": 0.7874015748031497,
          "duration": 0.20000000000000284
        },
        {
          "name": "C4",
          "midi": 60,
          "time": 114.79999999999951,
          "velocity": 0.6614173228346457,
          "duration": 0.09999999999999432
        },
        {
          "name": "C4",
          "midi": 60,
          "time": 115.1999999999995,
          "velocity": 0.6614173228346457,
          "duration": 0.09999999999999432
        },
        {
          "name": "F4",
          "midi": 65,
          "time": 115.3999999999995,
          "velocity": 0.7874015748031497,
          "duration": 0.20000000000000284
        },
        {
          "name": "C4",
          "midi": 60,
          "time": 115.5999999999995,
          "velocity": 0.6614173228346457,
          "duration": 0.09999999999999432
        },
        {
          "name": "D4",
          "midi": 62,
          "time": 115.99999999999949,
          "velocity": 0.6614173228346457,
          "duration": 1.2000000000000028
        },
        {
          "name": "F4",
          "midi": 65,
          "time": 117.19999999999949,
          "velocity": 0.7874015748031497,
          "duration": 0.20000000000000284
        },
        {
          "name": "D4",
          "midi": 62,
          "time": 118.7999999999995,
          "velocity": 0.6614173228346457,
          "duration": 0.4000000000000057
        },
        {
          "name": "C4",
          "midi": 60,
          "time": 119.39999999999951,
          "velocity": 0.6850393700787402,
          "duration": 0.09999999999999432
        },
        {
          "name": "C4",
          "midi": 60,
          "time": 119.9999999999995,
          "velocity": 0.6614173228346457,
          "duration": 0.09999999999999432
        },
        {
          "name": "E4",
          "midi": 64,
          "time": 120.3999999999995,
          "velocity": 0.6614173228346457,
          "duration": 0.09999999999999432
        },
        {
          "name": "C4",
          "midi": 60,
          "time": 120.59999999999948,
          "velocity": 0.6614173228346457,
          "duration": 0.09999999999999432
        },
        {
          "name": "C4",
          "midi": 60,
          "time": 120.99999999999947,
          "velocity": 0.6614173228346457,
          "duration": 0.09999999999999432
        },
        {
          "name": "C4",
          "midi": 60,
          "time": 121.59999999999947,
          "velocity": 0.7322834645669292,
          "duration": 0.09999999999999432
        },
        {
          "name": "E4",
          "midi": 64,
          "time": 121.99999999999946,
          "velocity": 0.7401574803149606,
          "duration": 0.09999999999999432
        },
        {
          "name": "C4",
          "midi": 60,
          "time": 122.19999999999945,
          "velocity": 0.6692913385826772,
          "duration": 0.09999999999999432
        },
        {
          "name": "F4",
          "midi": 65,
          "time": 122.39999999999944,
          "velocity": 0.7874015748031497,
          "duration": 0.20000000000000284
        },
        {
          "name": "C4",
          "midi": 60,
          "time": 122.59999999999944,
          "velocity": 0.6850393700787402,
          "duration": 0.09999999999999432
        },
        {
          "name": "C4",
          "midi": 60,
          "time": 123.19999999999943,
          "velocity": 0.6614173228346457,
          "duration": 0.09999999999999432
        },
        {
          "name": "E4",
          "midi": 64,
          "time": 123.59999999999943,
          "velocity": 0.6614173228346457,
          "duration": 0.09999999999999432
        },
        {
          "name": "C4",
          "midi": 60,
          "time": 123.79999999999941,
          "velocity": 0.6614173228346457,
          "duration": 0.09999999999999432
        },
        {
          "name": "C4",
          "midi": 60,
          "time": 124.1999999999994,
          "velocity": 0.6850393700787402,
          "duration": 0.09999999999999432
        },
        {
          "name": "C4",
          "midi": 60,
          "time": 124.7999999999994,
          "velocity": 0.6614173228346457,
          "duration": 0.09999999999999432
        },
        {
          "name": "E4",
          "midi": 64,
          "time": 125.19999999999939,
          "velocity": 0.6614173228346457,
          "duration": 0.09999999999999432
        },
        {
          "name": "C4",
          "midi": 60,
          "time": 125.39999999999938,
          "velocity": 0.6614173228346457,
          "duration": 0.09999999999999432
        },
        {
          "name": "F4",
          "midi": 65,
          "time": 125.59999999999937,
          "velocity": 0.7874015748031497,
          "duration": 0.20000000000000284
        },
        {
          "name": "E4",
          "midi": 64,
          "time": 131.19999999999936,
          "velocity": 0.6614173228346457,
          "duration": 0.09999999999999432
        },
        {
          "name": "C4",
          "midi": 60,
          "time": 131.39999999999935,
          "velocity": 0.6614173228346457,
          "duration": 0.09999999999999432
        }
      ],
      "controlChanges": {
        "6": [
          {
            "number": 6,
            "time": 0,
            "value": 0.09448818897637795
          },
          {
            "number": 6,
            "time": 0,
            "value": 0.09448818897637795
          },
          {
            "number": 6,
            "time": 0,
            "value": 0.09448818897637795
          },
          {
            "number": 6,
            "time": 135.99999999999935,
            "value": 0.09448818897637795
          },
          {
            "number": 6,
            "time": 135.99999999999935,
            "value": 0.09448818897637795
          }
        ],
        "7": [
          {
            "number": 7,
            "time": 0,
            "value": 0.7874015748031497
          },
          {
            "number": 7,
            "time": 0,
            "value": 0.7874015748031497
          },
          {
            "number": 7,
            "time": 0,
            "value": 0.7874015748031497
          },
          {
            "number": 7,
            "time": 0,
            "value": 0.7874015748031497
          },
          {
            "number": 7,
            "time": 135.99999999999935,
            "value": 0.7874015748031497
          },
          {
            "number": 7,
            "time": 135.99999999999935,
            "value": 0.7874015748031497
          }
        ],
        "10": [
          {
            "number": 10,
            "time": 0,
            "value": 0.5039370078740157
          },
          {
            "number": 10,
            "time": 0,
            "value": 0.5039370078740157
          },
          {
            "number": 10,
            "time": 0,
            "value": 0.5039370078740157
          },
          {
            "number": 10,
            "time": 0,
            "value": 0.5039370078740157
          },
          {
            "number": 10,
            "time": 135.99999999999935,
            "value": 0.5039370078740157
          },
          {
            "number": 10,
            "time": 135.99999999999935,
            "value": 0.5039370078740157
          }
        ],
        "100": [
          {
            "number": 100,
            "time": 0,
            "value": 0
          },
          {
            "number": 100,
            "time": 0,
            "value": 0
          },
          {
            "number": 100,
            "time": 0,
            "value": 0
          },
          {
            "number": 100,
            "time": 135.99999999999935,
            "value": 0
          },
          {
            "number": 100,
            "time": 135.99999999999935,
            "value": 0
          }
        ],
        "101": [
          {
            "number": 101,
            "time": 0,
            "value": 0
          },
          {
            "number": 101,
            "time": 0,
            "value": 0
          },
          {
            "number": 101,
            "time": 0,
            "value": 0
          },
          {
            "number": 101,
            "time": 135.99999999999935,
            "value": 0
          },
          {
            "number": 101,
            "time": 135.99999999999935,
            "value": 0
          }
        ]
      },
      "id": 5,
      "name": "A hard",
      "channelNumber": 0,
      "isPercussion": false
    },
    {
      "startTime": 0.8,
      "duration": 131.89999999999958,
      "length": 218,
      "notes": [
        {
          "name": "C4",
          "midi": 60,
          "time": 0.8,
          "velocity": 0.6850393700787402,
          "duration": 0.09999999999999998
        },
        {
          "name": "C4",
          "midi": 60,
          "time": 1.2000000000000002,
          "velocity": 0.6929133858267716,
          "duration": 0.10000000000000009
        },
        {
          "name": "C4",
          "midi": 60,
          "time": 1.8000000000000003,
          "velocity": 0.6614173228346457,
          "duration": 0.10000000000000009
        },
        {
          "name": "C4",
          "midi": 60,
          "time": 2.4000000000000004,
          "velocity": 0.7401574803149606,
          "duration": 0.10000000000000009
        },
        {
          "name": "C4",
          "midi": 60,
          "time": 2.8000000000000007,
          "velocity": 0.7401574803149606,
          "duration": 0.10000000000000009
        },
        {
          "name": "C4",
          "midi": 60,
          "time": 3.400000000000001,
          "velocity": 0.7244094488188977,
          "duration": 0.10000000000000009
        },
        {
          "name": "C4",
          "midi": 60,
          "time": 4.000000000000001,
          "velocity": 0.6850393700787402,
          "duration": 0.09999999999999964
        },
        {
          "name": "C4",
          "midi": 60,
          "time": 4.4,
          "velocity": 0.6929133858267716,
          "duration": 0.09999999999999964
        },
        {
          "name": "C4",
          "midi": 60,
          "time": 5,
          "velocity": 0.6614173228346457,
          "duration": 0.09999999999999964
        },
        {
          "name": "C4",
          "midi": 60,
          "time": 5.6,
          "velocity": 0.6850393700787402,
          "duration": 0.09999999999999964
        },
        {
          "name": "C4",
          "midi": 60,
          "time": 5.999999999999999,
          "velocity": 0.6929133858267716,
          "duration": 0.09999999999999964
        },
        {
          "name": "E4",
          "midi": 64,
          "time": 6.199999999999998,
          "velocity": 0.6614173228346457,
          "duration": 0.09999999999999964
        },
        {
          "name": "C4",
          "midi": 60,
          "time": 6.599999999999998,
          "velocity": 0.6614173228346457,
          "duration": 0.09999999999999964
        },
        {
          "name": "D4",
          "midi": 62,
          "time": 7.1999999999999975,
          "velocity": 0.6614173228346457,
          "duration": 2.4000000000000004
        },
        {
          "name": "F4",
          "midi": 65,
          "time": 8.199999999999998,
          "velocity": 0.7874015748031497,
          "duration": 0.1999999999999993
        },
        {
          "name": "F4",
          "midi": 65,
          "time": 10.399999999999999,
          "velocity": 0.7874015748031497,
          "duration": 0.1999999999999993
        },
        {
          "name": "F4",
          "midi": 65,
          "time": 11.999999999999998,
          "velocity": 0.7874015748031497,
          "duration": 0.1999999999999993
        },
        {
          "name": "C4",
          "midi": 60,
          "time": 12.799999999999997,
          "velocity": 0.6614173228346457,
          "duration": 0.09999999999999964
        },
        {
          "name": "E4",
          "midi": 64,
          "time": 13.599999999999996,
          "velocity": 0.6614173228346457,
          "duration": 0.09999999999999964
        },
        {
          "name": "E4",
          "midi": 64,
          "time": 14.199999999999996,
          "velocity": 0.6614173228346457,
          "duration": 0.09999999999999964
        },
        {
          "name": "C4",
          "midi": 60,
          "time": 14.799999999999995,
          "velocity": 0.6614173228346457,
          "duration": 0.09999999999999964
        },
        {
          "name": "C4",
          "midi": 60,
          "time": 14.999999999999995,
          "velocity": 0.6614173228346457,
          "duration": 0.09999999999999964
        },
        {
          "name": "E4",
          "midi": 64,
          "time": 15.199999999999994,
          "velocity": 0.6614173228346457,
          "duration": 0.09999999999999964
        },
        {
          "name": "F4",
          "midi": 65,
          "time": 15.499999999999993,
          "velocity": 0.7874015748031497,
          "duration": 0.09999999999999964
        },
        {
          "name": "E4",
          "midi": 64,
          "time": 15.799999999999992,
          "velocity": 0.6614173228346457,
          "duration": 0.09999999999999964
        },
        {
          "name": "E4",
          "midi": 64,
          "time": 16.79999999999999,
          "velocity": 0.6614173228346457,
          "duration": 0.10000000000000142
        },
        {
          "name": "F4",
          "midi": 65,
          "time": 17.04999999999999,
          "velocity": 0.7874015748031497,
          "duration": 0.1999999999999993
        },
        {
          "name": "E4",
          "midi": 64,
          "time": 17.399999999999988,
          "velocity": 0.6614173228346457,
          "duration": 0.10000000000000142
        },
        {
          "name": "E4",
          "midi": 64,
          "time": 17.99999999999999,
          "velocity": 0.6614173228346457,
          "duration": 0.10000000000000142
        },
        {
          "name": "E4",
          "midi": 64,
          "time": 18.199999999999992,
          "velocity": 0.6614173228346457,
          "duration": 0.10000000000000142
        },
        {
          "name": "C4",
          "midi": 60,
          "time": 18.999999999999993,
          "velocity": 0.6614173228346457,
          "duration": 0.1999999999999993
        },
        {
          "name": "C4",
          "midi": 60,
          "time": 19.799999999999994,
          "velocity": 0.6614173228346457,
          "duration": 0.10000000000000142
        },
        {
          "name": "D4",
          "midi": 62,
          "time": 20.199999999999996,
          "velocity": 0.6614173228346457,
          "duration": 1
        },
        {
          "name": "F4",
          "midi": 65,
          "time": 21.299999999999997,
          "velocity": 0.7874015748031497,
          "duration": 0.1999999999999993
        },
        {
          "name": "E4",
          "midi": 64,
          "time": 22.199999999999996,
          "velocity": 0.6614173228346457,
          "duration": 0.10000000000000142
        },
        {
          "name": "E4",
          "midi": 64,
          "time": 22.799999999999997,
          "velocity": 0.6614173228346457,
          "duration": 0.10000000000000142
        },
        {
          "name": "E4",
          "midi": 64,
          "time": 23.2,
          "velocity": 0.6614173228346457,
          "duration": 0.10000000000000142
        },
        {
          "name": "E4",
          "midi": 64,
          "time": 23.8,
          "velocity": 0.6614173228346457,
          "duration": 0.10000000000000142
        },
        {
          "name": "F4",
          "midi": 65,
          "time": 25.200000000000003,
          "velocity": 0.6614173228346457,
          "duration": 0.10000000000000142
        },
        {
          "name": "E4",
          "midi": 64,
          "time": 25.400000000000006,
          "velocity": 0.6614173228346457,
          "duration": 0.10000000000000142
        },
        {
          "name": "F4",
          "midi": 65,
          "time": 25.800000000000008,
          "velocity": 0.6614173228346457,
          "duration": 0.10000000000000142
        },
        {
          "name": "E4",
          "midi": 64,
          "time": 26.00000000000001,
          "velocity": 0.6614173228346457,
          "duration": 0.10000000000000142
        },
        {
          "name": "E4",
          "midi": 64,
          "time": 26.400000000000013,
          "velocity": 0.6614173228346457,
          "duration": 0.10000000000000142
        },
        {
          "name": "C4",
          "midi": 60,
          "time": 28.000000000000014,
          "velocity": 0.6614173228346457,
          "duration": 0.10000000000000142
        },
        {
          "name": "F4",
          "midi": 65,
          "time": 28.800000000000015,
          "velocity": 0.7874015748031497,
          "duration": 0.1999999999999993
        },
        {
          "name": "C4",
          "midi": 60,
          "time": 29.400000000000013,
          "velocity": 0.6614173228346457,
          "duration": 0.10000000000000142
        },
        {
          "name": "E4",
          "midi": 64,
          "time": 29.600000000000016,
          "velocity": 0.6614173228346457,
          "duration": 0.10000000000000142
        },
        {
          "name": "C4",
          "midi": 60,
          "time": 31.200000000000017,
          "velocity": 0.6614173228346457,
          "duration": 0.10000000000000142
        },
        {
          "name": "E4",
          "midi": 64,
          "time": 32.80000000000002,
          "velocity": 0.6614173228346457,
          "duration": 0.10000000000000142
        },
        {
          "name": "C4",
          "midi": 60,
          "time": 34.20000000000002,
          "velocity": 0.6614173228346457,
          "duration": 0.10000000000000142
        },
        {
          "name": "C4",
          "midi": 60,
          "time": 34.40000000000002,
          "velocity": 0.6614173228346457,
          "duration": 0.10000000000000142
        },
        {
          "name": "C4",
          "midi": 60,
          "time": 34.40000000000002,
          "velocity": 0.6614173228346457,
          "duration": 0.10000000000000142
        },
        {
          "name": "F4",
          "midi": 65,
          "time": 35.00000000000002,
          "velocity": 0.6614173228346457,
          "duration": 0.10000000000000142
        },
        {
          "name": "C4",
          "midi": 60,
          "time": 35.60000000000002,
          "velocity": 0.6614173228346457,
          "duration": 0.10000000000000142
        },
        {
          "name": "F4",
          "midi": 65,
          "time": 37.40000000000003,
          "velocity": 0.7874015748031497,
          "duration": 0.20000000000000284
        },
        {
          "name": "E4",
          "midi": 64,
          "time": 37.80000000000003,
          "velocity": 0.6614173228346457,
          "duration": 0.10000000000000142
        },
        {
          "name": "E4",
          "midi": 64,
          "time": 38.20000000000003,
          "velocity": 0.6614173228346457,
          "duration": 0.10000000000000142
        },
        {
          "name": "C4",
          "midi": 60,
          "time": 38.60000000000003,
          "velocity": 0.6614173228346457,
          "duration": 0.10000000000000142
        },
        {
          "name": "C4",
          "midi": 60,
          "time": 39.400000000000034,
          "velocity": 0.6614173228346457,
          "duration": 0.10000000000000142
        },
        {
          "name": "C4",
          "midi": 60,
          "time": 39.80000000000003,
          "velocity": 0.6614173228346457,
          "duration": 0.10000000000000142
        },
        {
          "name": "C4",
          "midi": 60,
          "time": 40.20000000000003,
          "velocity": 0.6614173228346457,
          "duration": 0.10000000000000142
        },
        {
          "name": "C4",
          "midi": 60,
          "time": 40.70000000000003,
          "velocity": 0.6614173228346457,
          "duration": 0.10000000000000142
        },
        {
          "name": "E4",
          "midi": 64,
          "time": 41.000000000000036,
          "velocity": 0.6614173228346457,
          "duration": 0.10000000000000142
        },
        {
          "name": "F4",
          "midi": 65,
          "time": 41.20000000000004,
          "velocity": 0.6614173228346457,
          "duration": 0.10000000000000142
        },
        {
          "name": "E4",
          "midi": 64,
          "time": 41.40000000000004,
          "velocity": 0.6614173228346457,
          "duration": 0.10000000000000142
        },
        {
          "name": "C4",
          "midi": 60,
          "time": 42.00000000000004,
          "velocity": 0.6614173228346457,
          "duration": 0.10000000000000142
        },
        {
          "name": "C4",
          "midi": 60,
          "time": 42.200000000000045,
          "velocity": 0.6614173228346457,
          "duration": 0.10000000000000142
        },
        {
          "name": "E4",
          "midi": 64,
          "time": 42.600000000000044,
          "velocity": 0.6614173228346457,
          "duration": 0.10000000000000142
        },
        {
          "name": "E4",
          "midi": 64,
          "time": 43.00000000000004,
          "velocity": 0.6614173228346457,
          "duration": 0.10000000000000142
        },
        {
          "name": "E4",
          "midi": 64,
          "time": 43.40000000000004,
          "velocity": 0.6614173228346457,
          "duration": 0.10000000000000142
        },
        {
          "name": "C4",
          "midi": 60,
          "time": 43.90000000000004,
          "velocity": 0.6614173228346457,
          "duration": 0.10000000000000142
        },
        {
          "name": "C4",
          "midi": 60,
          "time": 44.600000000000044,
          "velocity": 0.6614173228346457,
          "duration": 0.10000000000000142
        },
        {
          "name": "E4",
          "midi": 64,
          "time": 45.00000000000004,
          "velocity": 0.6614173228346457,
          "duration": 0.10000000000000142
        },
        {
          "name": "C4",
          "midi": 60,
          "time": 45.30000000000005,
          "velocity": 0.6614173228346457,
          "duration": 0.10000000000000142
        },
        {
          "name": "F4",
          "midi": 65,
          "time": 45.60000000000005,
          "velocity": 0.7874015748031497,
          "duration": 0.20000000000000284
        },
        {
          "name": "C4",
          "midi": 60,
          "time": 45.800000000000054,
          "velocity": 0.6614173228346457,
          "duration": 0.10000000000000142
        },
        {
          "name": "C4",
          "midi": 60,
          "time": 46.20000000000005,
          "velocity": 0.6614173228346457,
          "duration": 0.10000000000000142
        },
        {
          "name": "C4",
          "midi": 60,
          "time": 46.60000000000005,
          "velocity": 0.6614173228346457,
          "duration": 0.10000000000000142
        },
        {
          "name": "C4",
          "midi": 60,
          "time": 47.10000000000005,
          "velocity": 0.6614173228346457,
          "duration": 0.10000000000000142
        },
        {
          "name": "E4",
          "midi": 64,
          "time": 47.400000000000055,
          "velocity": 0.6614173228346457,
          "duration": 0.10000000000000142
        },
        {
          "name": "F4",
          "midi": 65,
          "time": 47.60000000000006,
          "velocity": 0.6614173228346457,
          "duration": 0.10000000000000142
        },
        {
          "name": "E4",
          "midi": 64,
          "time": 47.80000000000006,
          "velocity": 0.6614173228346457,
          "duration": 0.10000000000000142
        },
        {
          "name": "C4",
          "midi": 60,
          "time": 48.40000000000006,
          "velocity": 0.6614173228346457,
          "duration": 0.10000000000000142
        },
        {
          "name": "C4",
          "midi": 60,
          "time": 48.600000000000065,
          "velocity": 0.6614173228346457,
          "duration": 0.10000000000000142
        },
        {
          "name": "E4",
          "midi": 64,
          "time": 49.000000000000064,
          "velocity": 0.6614173228346457,
          "duration": 0.10000000000000142
        },
        {
          "name": "E4",
          "midi": 64,
          "time": 49.40000000000006,
          "velocity": 0.6614173228346457,
          "duration": 0.10000000000000142
        },
        {
          "name": "E4",
          "midi": 64,
          "time": 49.80000000000006,
          "velocity": 0.6614173228346457,
          "duration": 0.10000000000000142
        },
        {
          "name": "C4",
          "midi": 60,
          "time": 50.30000000000006,
          "velocity": 0.6614173228346457,
          "duration": 0.10000000000000142
        },
        {
          "name": "E4",
          "midi": 64,
          "time": 50.600000000000065,
          "velocity": 0.6614173228346457,
          "duration": 0.10000000000000142
        },
        {
          "name": "C4",
          "midi": 60,
          "time": 51.600000000000065,
          "velocity": 0.6614173228346457,
          "duration": 0.10000000000000142
        },
        {
          "name": "F4",
          "midi": 65,
          "time": 52.000000000000064,
          "velocity": 0.7874015748031497,
          "duration": 0.20000000000000284
        },
        {
          "name": "E4",
          "midi": 64,
          "time": 52.20000000000007,
          "velocity": 0.6614173228346457,
          "duration": 0.10000000000000142
        },
        {
          "name": "E4",
          "midi": 64,
          "time": 52.600000000000065,
          "velocity": 0.6614173228346457,
          "duration": 0.10000000000000142
        },
        {
          "name": "E4",
          "midi": 64,
          "time": 53.000000000000064,
          "velocity": 0.6614173228346457,
          "duration": 0.10000000000000142
        },
        {
          "name": "C4",
          "midi": 60,
          "time": 53.500000000000064,
          "velocity": 0.6614173228346457,
          "duration": 0.10000000000000142
        },
        {
          "name": "E4",
          "midi": 64,
          "time": 53.80000000000007,
          "velocity": 0.6614173228346457,
          "duration": 0.10000000000000142
        },
        {
          "name": "E4",
          "midi": 64,
          "time": 54.20000000000007,
          "velocity": 0.6614173228346457,
          "duration": 0.10000000000000142
        },
        {
          "name": "C4",
          "midi": 60,
          "time": 54.80000000000007,
          "velocity": 0.6614173228346457,
          "duration": 0.10000000000000142
        },
        {
          "name": "C4",
          "midi": 60,
          "time": 55.00000000000007,
          "velocity": 0.6614173228346457,
          "duration": 0.10000000000000142
        },
        {
          "name": "C4",
          "midi": 60,
          "time": 55.00000000000007,
          "velocity": 0.6614173228346457,
          "duration": 0.10000000000000142
        },
        {
          "name": "F4",
          "midi": 65,
          "time": 55.200000000000074,
          "velocity": 0.7874015748031497,
          "duration": 0.20000000000000284
        },
        {
          "name": "E4",
          "midi": 64,
          "time": 55.40000000000008,
          "velocity": 0.6614173228346457,
          "duration": 0.10000000000000142
        },
        {
          "name": "E4",
          "midi": 64,
          "time": 55.800000000000075,
          "velocity": 0.6614173228346457,
          "duration": 0.10000000000000142
        },
        {
          "name": "E4",
          "midi": 64,
          "time": 56.200000000000074,
          "velocity": 0.6614173228346457,
          "duration": 0.10000000000000142
        },
        {
          "name": "E4",
          "midi": 64,
          "time": 56.60000000000007,
          "velocity": 0.6614173228346457,
          "duration": 0.10000000000000142
        },
        {
          "name": "E4",
          "midi": 64,
          "time": 57.00000000000007,
          "velocity": 0.6614173228346457,
          "duration": 0.10000000000000142
        },
        {
          "name": "C4",
          "midi": 60,
          "time": 57.40000000000007,
          "velocity": 0.6614173228346457,
          "duration": 0.10000000000000142
        },
        {
          "name": "E4",
          "midi": 64,
          "time": 57.80000000000007,
          "velocity": 0.6614173228346457,
          "duration": 0.10000000000000142
        },
        {
          "name": "C4",
          "midi": 60,
          "time": 58.10000000000007,
          "velocity": 0.6614173228346457,
          "duration": 0.10000000000000142
        },
        {
          "name": "F4",
          "midi": 65,
          "time": 58.40000000000008,
          "velocity": 0.7874015748031497,
          "duration": 0.20000000000000284
        },
        {
          "name": "E4",
          "midi": 64,
          "time": 58.60000000000008,
          "velocity": 0.6614173228346457,
          "duration": 0.10000000000000142
        },
        {
          "name": "E4",
          "midi": 64,
          "time": 59.00000000000008,
          "velocity": 0.6614173228346457,
          "duration": 0.10000000000000142
        },
        {
          "name": "F4",
          "midi": 65,
          "time": 59.20000000000008,
          "velocity": 0.7874015748031497,
          "duration": 0.20000000000000284
        },
        {
          "name": "E4",
          "midi": 64,
          "time": 59.400000000000084,
          "velocity": 0.6614173228346457,
          "duration": 0.10000000000000142
        },
        {
          "name": "E4",
          "midi": 64,
          "time": 59.80000000000008,
          "velocity": 0.6614173228346457,
          "duration": 0.10000000000000142
        },
        {
          "name": "E4",
          "midi": 64,
          "time": 60.20000000000008,
          "velocity": 0.6614173228346457,
          "duration": 0.10000000000000142
        },
        {
          "name": "E4",
          "midi": 64,
          "time": 60.60000000000008,
          "velocity": 0.6614173228346457,
          "duration": 0.10000000000000142
        },
        {
          "name": "F4",
          "midi": 65,
          "time": 60.80000000000008,
          "velocity": 0.7874015748031497,
          "duration": 0.20000000000000284
        },
        {
          "name": "E4",
          "midi": 64,
          "time": 61.000000000000085,
          "velocity": 0.6614173228346457,
          "duration": 0.10000000000000142
        },
        {
          "name": "E4",
          "midi": 64,
          "time": 61.400000000000084,
          "velocity": 0.6614173228346457,
          "duration": 0.10000000000000142
        },
        {
          "name": "E4",
          "midi": 64,
          "time": 61.80000000000008,
          "velocity": 0.6614173228346457,
          "duration": 0.10000000000000142
        },
        {
          "name": "E4",
          "midi": 64,
          "time": 62.20000000000008,
          "velocity": 0.6614173228346457,
          "duration": 0.10000000000000142
        },
        {
          "name": "F4",
          "midi": 65,
          "time": 62.500000000000085,
          "velocity": 0.6614173228346457,
          "duration": 0.10000000000000142
        },
        {
          "name": "E4",
          "midi": 64,
          "time": 62.60000000000009,
          "velocity": 0.6614173228346457,
          "duration": 0.10000000000000142
        },
        {
          "name": "E4",
          "midi": 64,
          "time": 63.000000000000085,
          "velocity": 0.6614173228346457,
          "duration": 0.10000000000000142
        },
        {
          "name": "D4",
          "midi": 62,
          "time": 63.20000000000009,
          "velocity": 0.6614173228346457,
          "duration": 1.2000000000000028
        },
        {
          "name": "F4",
          "midi": 65,
          "time": 64.40000000000009,
          "velocity": 0.7874015748031497,
          "duration": 0.20000000000000284
        },
        {
          "name": "E4",
          "midi": 64,
          "time": 64.8000000000001,
          "velocity": 0.6614173228346457,
          "duration": 0.09999999999999432
        },
        {
          "name": "E4",
          "midi": 64,
          "time": 66.00000000000009,
          "velocity": 0.6614173228346457,
          "duration": 0.09999999999999432
        },
        {
          "name": "E4",
          "midi": 64,
          "time": 66.40000000000008,
          "velocity": 0.6614173228346457,
          "duration": 0.09999999999999432
        },
        {
          "name": "F4",
          "midi": 65,
          "time": 68.40000000000008,
          "velocity": 0.7874015748031497,
          "duration": 0.09999999999999432
        },
        {
          "name": "C4",
          "midi": 60,
          "time": 69.20000000000007,
          "velocity": 0.6614173228346457,
          "duration": 0.09999999999999432
        },
        {
          "name": "F4",
          "midi": 65,
          "time": 69.40000000000006,
          "velocity": 0.7874015748031497,
          "duration": 0.09999999999999432
        },
        {
          "name": "C4",
          "midi": 60,
          "time": 70.80000000000005,
          "velocity": 0.6614173228346457,
          "duration": 0.09999999999999432
        },
        {
          "name": "D4",
          "midi": 62,
          "time": 72.40000000000005,
          "velocity": 0.6614173228346457,
          "duration": 0.7999999999999972
        },
        {
          "name": "C4",
          "midi": 60,
          "time": 73.40000000000005,
          "velocity": 0.6614173228346457,
          "duration": 0.09999999999999432
        },
        {
          "name": "F4",
          "midi": 65,
          "time": 74.00000000000004,
          "velocity": 0.7874015748031497,
          "duration": 0.09999999999999432
        },
        {
          "name": "E4",
          "midi": 64,
          "time": 74.20000000000003,
          "velocity": 0.6614173228346457,
          "duration": 0.09999999999999432
        },
        {
          "name": "E4",
          "midi": 64,
          "time": 74.66666666666669,
          "velocity": 0.6614173228346457,
          "duration": 0.09999999999999432
        },
        {
          "name": "E4",
          "midi": 64,
          "time": 74.93333333333335,
          "velocity": 0.6614173228346457,
          "duration": 0.09999999999999432
        },
        {
          "name": "F4",
          "midi": 65,
          "time": 77.60000000000001,
          "velocity": 0.7874015748031497,
          "duration": 0.09999999999999432
        },
        {
          "name": "C4",
          "midi": 60,
          "time": 78,
          "velocity": 0.7874015748031497,
          "duration": 0.09999999999999432
        },
        {
          "name": "C4",
          "midi": 60,
          "time": 78.8,
          "velocity": 0.7874015748031497,
          "duration": 0.09999999999999432
        },
        {
          "name": "C4",
          "midi": 60,
          "time": 79.19999999999999,
          "velocity": 0.7874015748031497,
          "duration": 0.09999999999999432
        },
        {
          "name": "D4",
          "midi": 62,
          "time": 79.99999999999999,
          "velocity": 0.6614173228346457,
          "duration": 0.7999999999999972
        },
        {
          "name": "F4",
          "midi": 65,
          "time": 83.59999999999998,
          "velocity": 0.7874015748031497,
          "duration": 0.09999999999999432
        },
        {
          "name": "D4",
          "midi": 62,
          "time": 83.99999999999997,
          "velocity": 0.6614173228346457,
          "duration": 0.5999999999999943
        },
        {
          "name": "F4",
          "midi": 65,
          "time": 84.79999999999997,
          "velocity": 0.7874015748031497,
          "duration": 0.09999999999999432
        },
        {
          "name": "D4",
          "midi": 62,
          "time": 85.99999999999996,
          "velocity": 0.6614173228346457,
          "duration": 0.4000000000000057
        },
        {
          "name": "E4",
          "midi": 64,
          "time": 87.19999999999996,
          "velocity": 0.6614173228346457,
          "duration": 0.09999999999999432
        },
        {
          "name": "E4",
          "midi": 64,
          "time": 87.39999999999995,
          "velocity": 0.6614173228346457,
          "duration": 0.09999999999999432
        },
        {
          "name": "F4",
          "midi": 65,
          "time": 87.59999999999994,
          "velocity": 0.7874015748031497,
          "duration": 0.09999999999999432
        },
        {
          "name": "F4",
          "midi": 65,
          "time": 88.39999999999993,
          "velocity": 0.7874015748031497,
          "duration": 0.09999999999999432
        },
        {
          "name": "D4",
          "midi": 62,
          "time": 88.79999999999993,
          "velocity": 0.6614173228346457,
          "duration": 0.4000000000000057
        },
        {
          "name": "C4",
          "midi": 60,
          "time": 89.59999999999994,
          "velocity": 0.6614173228346457,
          "duration": 0.09999999999999432
        },
        {
          "name": "E4",
          "midi": 64,
          "time": 90.39999999999993,
          "velocity": 0.6614173228346457,
          "duration": 0.09999999999999432
        },
        {
          "name": "F4",
          "midi": 65,
          "time": 90.59999999999992,
          "velocity": 0.6614173228346457,
          "duration": 0.09999999999999432
        },
        {
          "name": "E4",
          "midi": 64,
          "time": 91.19999999999992,
          "velocity": 0.6614173228346457,
          "duration": 0.09999999999999432
        },
        {
          "name": "E4",
          "midi": 64,
          "time": 91.59999999999991,
          "velocity": 0.6614173228346457,
          "duration": 0.09999999999999432
        },
        {
          "name": "E4",
          "midi": 64,
          "time": 91.7999999999999,
          "velocity": 0.6614173228346457,
          "duration": 0.09999999999999432
        },
        {
          "name": "D4",
          "midi": 62,
          "time": 92.99999999999989,
          "velocity": 0.6614173228346457,
          "duration": 0.5999999999999943
        },
        {
          "name": "F4",
          "midi": 65,
          "time": 94.39999999999988,
          "velocity": 0.7874015748031497,
          "duration": 0.09999999999999432
        },
        {
          "name": "F4",
          "midi": 65,
          "time": 94.59999999999987,
          "velocity": 0.7874015748031497,
          "duration": 0.09999999999999432
        },
        {
          "name": "D4",
          "midi": 62,
          "time": 95.19999999999986,
          "velocity": 0.6614173228346457,
          "duration": 0.7999999999999972
        },
        {
          "name": "F4",
          "midi": 65,
          "time": 95.99999999999986,
          "velocity": 0.7874015748031497,
          "duration": 0.09999999999999432
        },
        {
          "name": "F4",
          "midi": 65,
          "time": 96.19999999999985,
          "velocity": 0.7874015748031497,
          "duration": 0.09999999999999432
        },
        {
          "name": "D4",
          "midi": 62,
          "time": 96.79999999999984,
          "velocity": 0.6614173228346457,
          "duration": 1.2000000000000028
        },
        {
          "name": "D4",
          "midi": 62,
          "time": 98.39999999999985,
          "velocity": 0.6614173228346457,
          "duration": 0.7999999999999972
        },
        {
          "name": "F4",
          "midi": 65,
          "time": 99.19999999999985,
          "velocity": 0.7874015748031497,
          "duration": 0.09999999999999432
        },
        {
          "name": "E4",
          "midi": 64,
          "time": 99.59999999999984,
          "velocity": 0.6614173228346457,
          "duration": 0.09999999999999432
        },
        {
          "name": "E4",
          "midi": 64,
          "time": 99.79999999999983,
          "velocity": 0.6614173228346457,
          "duration": 0.09999999999999432
        },
        {
          "name": "D4",
          "midi": 62,
          "time": 99.99999999999982,
          "velocity": 0.6614173228346457,
          "duration": 2.4000000000000057
        },
        {
          "name": "E4",
          "midi": 64,
          "time": 102.79999999999983,
          "velocity": 0.6614173228346457,
          "duration": 0.09999999999999432
        },
        {
          "name": "E4",
          "midi": 64,
          "time": 103.19999999999982,
          "velocity": 0.7874015748031497,
          "duration": 0.09999999999999432
        },
        {
          "name": "D4",
          "midi": 62,
          "time": 104.79999999999981,
          "velocity": 0.6614173228346457,
          "duration": 0.5999999999999943
        },
        {
          "name": "D4",
          "midi": 62,
          "time": 105.9999999999998,
          "velocity": 0.6614173228346457,
          "duration": 0.4000000000000057
        },
        {
          "name": "D4",
          "midi": 62,
          "time": 106.9999999999998,
          "velocity": 0.6614173228346457,
          "duration": 0.5999999999999943
        },
        {
          "name": "F4",
          "midi": 65,
          "time": 107.9999999999998,
          "velocity": 0.7874015748031497,
          "duration": 0.09999999999999432
        },
        {
          "name": "E4",
          "midi": 64,
          "time": 108.7999999999998,
          "velocity": 0.6614173228346457,
          "duration": 0.09999999999999432
        },
        {
          "name": "E4",
          "midi": 64,
          "time": 109.19999999999979,
          "velocity": 0.6614173228346457,
          "duration": 0.09999999999999432
        },
        {
          "name": "F4",
          "midi": 65,
          "time": 109.39999999999978,
          "velocity": 0.6614173228346457,
          "duration": 0.09999999999999432
        },
        {
          "name": "D4",
          "midi": 62,
          "time": 109.59999999999977,
          "velocity": 0.6614173228346457,
          "duration": 0.5999999999999943
        },
        {
          "name": "D4",
          "midi": 62,
          "time": 110.79999999999976,
          "velocity": 0.6614173228346457,
          "duration": 1.2000000000000028
        },
        {
          "name": "E4",
          "midi": 64,
          "time": 112.99999999999976,
          "velocity": 0.6614173228346457,
          "duration": 0.09999999999999432
        },
        {
          "name": "F4",
          "midi": 65,
          "time": 113.19999999999975,
          "velocity": 0.7874015748031497,
          "duration": 0.20000000000000284
        },
        {
          "name": "E4",
          "midi": 64,
          "time": 113.39999999999975,
          "velocity": 0.6614173228346457,
          "duration": 0.09999999999999432
        },
        {
          "name": "E4",
          "midi": 64,
          "time": 113.79999999999974,
          "velocity": 0.6614173228346457,
          "duration": 0.09999999999999432
        },
        {
          "name": "F4",
          "midi": 65,
          "time": 113.99999999999973,
          "velocity": 0.7874015748031497,
          "duration": 0.20000000000000284
        },
        {
          "name": "E4",
          "midi": 64,
          "time": 114.19999999999973,
          "velocity": 0.6614173228346457,
          "duration": 0.09999999999999432
        },
        {
          "name": "E4",
          "midi": 64,
          "time": 114.59999999999972,
          "velocity": 0.6614173228346457,
          "duration": 0.09999999999999432
        },
        {
          "name": "E4",
          "midi": 64,
          "time": 114.99999999999972,
          "velocity": 0.6614173228346457,
          "duration": 0.09999999999999432
        },
        {
          "name": "E4",
          "midi": 64,
          "time": 115.39999999999971,
          "velocity": 0.6614173228346457,
          "duration": 0.09999999999999432
        },
        {
          "name": "F4",
          "midi": 65,
          "time": 115.5999999999997,
          "velocity": 0.7874015748031497,
          "duration": 0.20000000000000284
        },
        {
          "name": "E4",
          "midi": 64,
          "time": 115.7999999999997,
          "velocity": 0.6614173228346457,
          "duration": 0.09999999999999432
        },
        {
          "name": "E4",
          "midi": 64,
          "time": 116.19999999999969,
          "velocity": 0.6614173228346457,
          "duration": 0.09999999999999432
        },
        {
          "name": "E4",
          "midi": 64,
          "time": 116.59999999999968,
          "velocity": 0.6614173228346457,
          "duration": 0.09999999999999432
        },
        {
          "name": "E4",
          "midi": 64,
          "time": 116.99999999999967,
          "velocity": 0.6614173228346457,
          "duration": 0.09999999999999432
        },
        {
          "name": "D4",
          "midi": 62,
          "time": 117.19999999999966,
          "velocity": 0.6614173228346457,
          "duration": 0.4000000000000057
        },
        {
          "name": "D4",
          "midi": 62,
          "time": 118.19999999999966,
          "velocity": 0.6614173228346457,
          "duration": 0.5999999999999943
        },
        {
          "name": "C4",
          "midi": 60,
          "time": 119.19999999999966,
          "velocity": 0.6614173228346457,
          "duration": 0.09999999999999432
        },
        {
          "name": "C4",
          "midi": 60,
          "time": 119.59999999999965,
          "velocity": 0.6614173228346457,
          "duration": 0.09999999999999432
        },
        {
          "name": "C4",
          "midi": 60,
          "time": 120.19999999999965,
          "velocity": 0.6614173228346457,
          "duration": 0.09999999999999432
        },
        {
          "name": "C4",
          "midi": 60,
          "time": 120.79999999999964,
          "velocity": 0.6614173228346457,
          "duration": 0.09999999999999432
        },
        {
          "name": "C4",
          "midi": 60,
          "time": 120.79999999999964,
          "velocity": 0.7401574803149606,
          "duration": 0.09999999999999432
        },
        {
          "name": "C4",
          "midi": 60,
          "time": 121.19999999999963,
          "velocity": 0.7401574803149606,
          "duration": 0.09999999999999432
        },
        {
          "name": "F4",
          "midi": 65,
          "time": 121.59999999999962,
          "velocity": 0.7874015748031497,
          "duration": 0.20000000000000284
        },
        {
          "name": "C4",
          "midi": 60,
          "time": 121.79999999999963,
          "velocity": 0.7244094488188977,
          "duration": 0.09999999999999432
        },
        {
          "name": "C4",
          "midi": 60,
          "time": 122.39999999999962,
          "velocity": 0.6850393700787402,
          "duration": 0.09999999999999432
        },
        {
          "name": "C4",
          "midi": 60,
          "time": 122.79999999999961,
          "velocity": 0.6929133858267716,
          "duration": 0.09999999999999432
        },
        {
          "name": "C4",
          "midi": 60,
          "time": 123.39999999999961,
          "velocity": 0.6614173228346457,
          "duration": 0.09999999999999432
        },
        {
          "name": "C4",
          "midi": 60,
          "time": 123.9999999999996,
          "velocity": 0.6850393700787402,
          "duration": 0.09999999999999432
        },
        {
          "name": "C4",
          "midi": 60,
          "time": 124.3999999999996,
          "velocity": 0.6929133858267716,
          "duration": 0.09999999999999432
        },
        {
          "name": "E4",
          "midi": 64,
          "time": 124.59999999999958,
          "velocity": 0.6614173228346457,
          "duration": 0.09999999999999432
        },
        {
          "name": "C4",
          "midi": 60,
          "time": 124.99999999999957,
          "velocity": 0.6614173228346457,
          "duration": 0.09999999999999432
        },
        {
          "name": "D4",
          "midi": 62,
          "time": 125.59999999999957,
          "velocity": 0.6614173228346457,
          "duration": 2.4000000000000057
        },
        {
          "name": "D4",
          "midi": 62,
          "time": 128.79999999999959,
          "velocity": 0.6614173228346457,
          "duration": 2.4000000000000057
        },
        {
          "name": "E4",
          "midi": 64,
          "time": 131.5999999999996,
          "velocity": 0.6614173228346457,
          "duration": 0.09999999999999432
        },
        {
          "name": "C4",
          "midi": 60,
          "time": 131.79999999999959,
          "velocity": 0.6614173228346457,
          "duration": 0.09999999999999432
        }
      ],
      "controlChanges": {
        "6": [
          {
            "number": 6,
            "time": 0,
            "value": 0.09448818897637795
          },
          {
            "number": 6,
            "time": 0,
            "value": 0.09448818897637795
          },
          {
            "number": 6,
            "time": 0,
            "value": 0.09448818897637795
          },
          {
            "number": 6,
            "time": 135.99999999999957,
            "value": 0.09448818897637795
          },
          {
            "number": 6,
            "time": 135.99999999999957,
            "value": 0.09448818897637795
          }
        ],
        "7": [
          {
            "number": 7,
            "time": 0,
            "value": 0.7874015748031497
          },
          {
            "number": 7,
            "time": 0,
            "value": 0.7874015748031497
          },
          {
            "number": 7,
            "time": 0,
            "value": 0.7874015748031497
          },
          {
            "number": 7,
            "time": 0,
            "value": 0.7874015748031497
          },
          {
            "number": 7,
            "time": 135.99999999999957,
            "value": 0.7874015748031497
          },
          {
            "number": 7,
            "time": 135.99999999999957,
            "value": 0.7874015748031497
          }
        ],
        "10": [
          {
            "number": 10,
            "time": 0,
            "value": 0.5039370078740157
          },
          {
            "number": 10,
            "time": 0,
            "value": 0.5039370078740157
          },
          {
            "number": 10,
            "time": 0,
            "value": 0.5039370078740157
          },
          {
            "number": 10,
            "time": 0,
            "value": 0.5039370078740157
          },
          {
            "number": 10,
            "time": 135.99999999999957,
            "value": 0.5039370078740157
          },
          {
            "number": 10,
            "time": 135.99999999999957,
            "value": 0.5039370078740157
          }
        ],
        "100": [
          {
            "number": 100,
            "time": 0,
            "value": 0
          },
          {
            "number": 100,
            "time": 0,
            "value": 0
          },
          {
            "number": 100,
            "time": 0,
            "value": 0
          },
          {
            "number": 100,
            "time": 135.99999999999957,
            "value": 0
          },
          {
            "number": 100,
            "time": 135.99999999999957,
            "value": 0
          }
        ],
        "101": [
          {
            "number": 101,
            "time": 0,
            "value": 0
          },
          {
            "number": 101,
            "time": 0,
            "value": 0
          },
          {
            "number": 101,
            "time": 0,
            "value": 0
          },
          {
            "number": 101,
            "time": 135.99999999999957,
            "value": 0
          },
          {
            "number": 101,
            "time": 135.99999999999957,
            "value": 0
          }
        ]
      },
      "id": 6,
      "name": "S hard",
      "channelNumber": 0,
      "isPercussion": false
    },
    {
      "startTime": 1.4000000000000001,
      "duration": 131.69999999999968,
      "length": 179,
      "notes": [
        {
          "name": "C4",
          "midi": 60,
          "time": 1.4000000000000001,
          "velocity": 0.7637795275590551,
          "duration": 0.10000000000000009
        },
        {
          "name": "E4",
          "midi": 64,
          "time": 2,
          "velocity": 0.7480314960629921,
          "duration": 0.10000000000000009
        },
        {
          "name": "C4",
          "midi": 60,
          "time": 3,
          "velocity": 0.6850393700787402,
          "duration": 0.10000000000000009
        },
        {
          "name": "E4",
          "midi": 64,
          "time": 3.6,
          "velocity": 0.7244094488188977,
          "duration": 0.10000000000000009
        },
        {
          "name": "C4",
          "midi": 60,
          "time": 4.6000000000000005,
          "velocity": 0.7637795275590551,
          "duration": 0.09999999999999964
        },
        {
          "name": "E4",
          "midi": 64,
          "time": 5.2,
          "velocity": 0.7480314960629921,
          "duration": 0.09999999999999964
        },
        {
          "name": "E4",
          "midi": 64,
          "time": 6.2,
          "velocity": 0.7637795275590551,
          "duration": 0.09999999999999964
        },
        {
          "name": "E4",
          "midi": 64,
          "time": 6.8,
          "velocity": 0.7480314960629921,
          "duration": 0.09999999999999964
        },
        {
          "name": "F4",
          "midi": 65,
          "time": 7.199999999999999,
          "velocity": 0.7874015748031497,
          "duration": 0.20000000000000018
        },
        {
          "name": "F4",
          "midi": 65,
          "time": 8.399999999999999,
          "velocity": 0.7874015748031497,
          "duration": 0.1999999999999993
        },
        {
          "name": "E4",
          "midi": 64,
          "time": 9.599999999999998,
          "velocity": 0.6614173228346457,
          "duration": 0.09999999999999964
        },
        {
          "name": "F4",
          "midi": 65,
          "time": 9.999999999999998,
          "velocity": 0.7874015748031497,
          "duration": 0.1999999999999993
        },
        {
          "name": "D4",
          "midi": 62,
          "time": 10.399999999999997,
          "velocity": 0.6614173228346457,
          "duration": 2.3999999999999986
        },
        {
          "name": "F4",
          "midi": 65,
          "time": 11.999999999999996,
          "velocity": 0.7874015748031497,
          "duration": 0.1999999999999993
        },
        {
          "name": "C4",
          "midi": 60,
          "time": 13.199999999999996,
          "velocity": 0.6614173228346457,
          "duration": 0.09999999999999964
        },
        {
          "name": "F4",
          "midi": 65,
          "time": 13.599999999999996,
          "velocity": 0.7874015748031497,
          "duration": 0.1999999999999993
        },
        {
          "name": "E4",
          "midi": 64,
          "time": 15.199999999999996,
          "velocity": 0.6614173228346457,
          "duration": 0.09999999999999964
        },
        {
          "name": "E4",
          "midi": 64,
          "time": 15.799999999999995,
          "velocity": 0.6614173228346457,
          "duration": 0.09999999999999964
        },
        {
          "name": "C4",
          "midi": 60,
          "time": 16.599999999999994,
          "velocity": 0.6614173228346457,
          "duration": 0.1999999999999993
        },
        {
          "name": "E4",
          "midi": 64,
          "time": 18.399999999999995,
          "velocity": 0.6614173228346457,
          "duration": 0.10000000000000142
        },
        {
          "name": "C4",
          "midi": 60,
          "time": 18.799999999999997,
          "velocity": 0.6614173228346457,
          "duration": 0.1999999999999993
        },
        {
          "name": "E4",
          "midi": 64,
          "time": 19.199999999999996,
          "velocity": 0.6614173228346457,
          "duration": 0.10000000000000142
        },
        {
          "name": "F4",
          "midi": 65,
          "time": 19.799999999999997,
          "velocity": 0.7874015748031497,
          "duration": 0.1999999999999993
        },
        {
          "name": "F4",
          "midi": 65,
          "time": 19.999999999999996,
          "velocity": 0.7874015748031497,
          "duration": 0.1999999999999993
        },
        {
          "name": "F4",
          "midi": 65,
          "time": 20.199999999999996,
          "velocity": 0.7874015748031497,
          "duration": 0.1999999999999993
        },
        {
          "name": "E4",
          "midi": 64,
          "time": 21.199999999999996,
          "velocity": 0.6614173228346457,
          "duration": 0.10000000000000142
        },
        {
          "name": "E4",
          "midi": 64,
          "time": 21.4,
          "velocity": 0.6614173228346457,
          "duration": 0.10000000000000142
        },
        {
          "name": "F4",
          "midi": 65,
          "time": 21.5,
          "velocity": 0.6614173228346457,
          "duration": 0.10000000000000142
        },
        {
          "name": "E4",
          "midi": 64,
          "time": 21.6,
          "velocity": 0.6614173228346457,
          "duration": 0.10000000000000142
        },
        {
          "name": "E4",
          "midi": 64,
          "time": 22.200000000000003,
          "velocity": 0.6614173228346457,
          "duration": 0.10000000000000142
        },
        {
          "name": "E4",
          "midi": 64,
          "time": 22.800000000000004,
          "velocity": 0.6614173228346457,
          "duration": 0.10000000000000142
        },
        {
          "name": "F4",
          "midi": 65,
          "time": 24.000000000000007,
          "velocity": 0.7874015748031497,
          "duration": 0.1999999999999993
        },
        {
          "name": "E4",
          "midi": 64,
          "time": 24.400000000000006,
          "velocity": 0.6614173228346457,
          "duration": 0.10000000000000142
        },
        {
          "name": "E4",
          "midi": 64,
          "time": 24.60000000000001,
          "velocity": 0.6614173228346457,
          "duration": 0.10000000000000142
        },
        {
          "name": "E4",
          "midi": 64,
          "time": 24.80000000000001,
          "velocity": 0.6614173228346457,
          "duration": 0.10000000000000142
        },
        {
          "name": "E4",
          "midi": 64,
          "time": 25.400000000000013,
          "velocity": 0.6614173228346457,
          "duration": 0.10000000000000142
        },
        {
          "name": "F4",
          "midi": 65,
          "time": 25.800000000000015,
          "velocity": 0.7874015748031497,
          "duration": 0.10000000000000142
        },
        {
          "name": "E4",
          "midi": 64,
          "time": 26.000000000000018,
          "velocity": 0.6614173228346457,
          "duration": 0.10000000000000142
        },
        {
          "name": "E4",
          "midi": 64,
          "time": 26.40000000000002,
          "velocity": 0.6614173228346457,
          "duration": 0.10000000000000142
        },
        {
          "name": "F4",
          "midi": 65,
          "time": 28.800000000000022,
          "velocity": 0.7874015748031497,
          "duration": 0.1999999999999993
        },
        {
          "name": "E4",
          "midi": 64,
          "time": 29.600000000000023,
          "velocity": 0.6614173228346457,
          "duration": 0.10000000000000142
        },
        {
          "name": "C4",
          "midi": 60,
          "time": 32.60000000000002,
          "velocity": 0.6614173228346457,
          "duration": 0.10000000000000142
        },
        {
          "name": "E4",
          "midi": 64,
          "time": 32.800000000000026,
          "velocity": 0.6614173228346457,
          "duration": 0.10000000000000142
        },
        {
          "name": "F4",
          "midi": 65,
          "time": 34.40000000000003,
          "velocity": 0.7874015748031497,
          "duration": 0.20000000000000284
        },
        {
          "name": "F4",
          "midi": 65,
          "time": 35.60000000000003,
          "velocity": 0.6614173228346457,
          "duration": 0.10000000000000142
        },
        {
          "name": "E4",
          "midi": 64,
          "time": 36.30000000000003,
          "velocity": 0.6614173228346457,
          "duration": 0.10000000000000142
        },
        {
          "name": "E4",
          "midi": 64,
          "time": 36.60000000000004,
          "velocity": 0.6614173228346457,
          "duration": 0.10000000000000142
        },
        {
          "name": "E4",
          "midi": 64,
          "time": 37.000000000000036,
          "velocity": 0.6614173228346457,
          "duration": 0.10000000000000142
        },
        {
          "name": "F4",
          "midi": 65,
          "time": 37.400000000000034,
          "velocity": 0.7874015748031497,
          "duration": 0.20000000000000284
        },
        {
          "name": "E4",
          "midi": 64,
          "time": 37.80000000000004,
          "velocity": 0.6614173228346457,
          "duration": 0.10000000000000142
        },
        {
          "name": "F4",
          "midi": 65,
          "time": 38.80000000000004,
          "velocity": 0.7874015748031497,
          "duration": 0.20000000000000284
        },
        {
          "name": "C4",
          "midi": 60,
          "time": 40.600000000000044,
          "velocity": 0.6614173228346457,
          "duration": 0.10000000000000142
        },
        {
          "name": "C4",
          "midi": 60,
          "time": 40.80000000000005,
          "velocity": 0.6614173228346457,
          "duration": 0.10000000000000142
        },
        {
          "name": "C4",
          "midi": 60,
          "time": 41.80000000000005,
          "velocity": 0.6614173228346457,
          "duration": 0.10000000000000142
        },
        {
          "name": "C4",
          "midi": 60,
          "time": 43.80000000000005,
          "velocity": 0.6614173228346457,
          "duration": 0.10000000000000142
        },
        {
          "name": "C4",
          "midi": 60,
          "time": 44.00000000000005,
          "velocity": 0.6614173228346457,
          "duration": 0.10000000000000142
        },
        {
          "name": "E4",
          "midi": 64,
          "time": 44.300000000000054,
          "velocity": 0.6614173228346457,
          "duration": 0.10000000000000142
        },
        {
          "name": "C4",
          "midi": 60,
          "time": 45.20000000000005,
          "velocity": 0.6614173228346457,
          "duration": 0.10000000000000142
        },
        {
          "name": "F4",
          "midi": 65,
          "time": 45.60000000000005,
          "velocity": 0.7874015748031497,
          "duration": 0.20000000000000284
        },
        {
          "name": "C4",
          "midi": 60,
          "time": 47.00000000000006,
          "velocity": 0.6614173228346457,
          "duration": 0.10000000000000142
        },
        {
          "name": "C4",
          "midi": 60,
          "time": 47.20000000000006,
          "velocity": 0.6614173228346457,
          "duration": 0.10000000000000142
        },
        {
          "name": "C4",
          "midi": 60,
          "time": 48.20000000000006,
          "velocity": 0.6614173228346457,
          "duration": 0.10000000000000142
        },
        {
          "name": "C4",
          "midi": 60,
          "time": 50.20000000000006,
          "velocity": 0.6614173228346457,
          "duration": 0.10000000000000142
        },
        {
          "name": "C4",
          "midi": 60,
          "time": 50.40000000000006,
          "velocity": 0.6614173228346457,
          "duration": 0.10000000000000142
        },
        {
          "name": "E4",
          "midi": 64,
          "time": 50.600000000000065,
          "velocity": 0.6614173228346457,
          "duration": 0.10000000000000142
        },
        {
          "name": "C4",
          "midi": 60,
          "time": 51.000000000000064,
          "velocity": 0.6614173228346457,
          "duration": 0.10000000000000142
        },
        {
          "name": "E4",
          "midi": 64,
          "time": 51.20000000000007,
          "velocity": 0.6614173228346457,
          "duration": 0.10000000000000142
        },
        {
          "name": "C4",
          "midi": 60,
          "time": 51.40000000000007,
          "velocity": 0.6614173228346457,
          "duration": 0.10000000000000142
        },
        {
          "name": "F4",
          "midi": 65,
          "time": 52.00000000000007,
          "velocity": 0.7874015748031497,
          "duration": 0.20000000000000284
        },
        {
          "name": "E4",
          "midi": 64,
          "time": 52.200000000000074,
          "velocity": 0.6614173228346457,
          "duration": 0.10000000000000142
        },
        {
          "name": "E4",
          "midi": 64,
          "time": 52.60000000000007,
          "velocity": 0.6614173228346457,
          "duration": 0.10000000000000142
        },
        {
          "name": "E4",
          "midi": 64,
          "time": 53.00000000000007,
          "velocity": 0.6614173228346457,
          "duration": 0.10000000000000142
        },
        {
          "name": "C4",
          "midi": 60,
          "time": 53.40000000000007,
          "velocity": 0.6614173228346457,
          "duration": 0.10000000000000142
        },
        {
          "name": "C4",
          "midi": 60,
          "time": 53.60000000000007,
          "velocity": 0.6614173228346457,
          "duration": 0.10000000000000142
        },
        {
          "name": "E4",
          "midi": 64,
          "time": 53.800000000000075,
          "velocity": 0.6614173228346457,
          "duration": 0.10000000000000142
        },
        {
          "name": "E4",
          "midi": 64,
          "time": 54.200000000000074,
          "velocity": 0.6614173228346457,
          "duration": 0.10000000000000142
        },
        {
          "name": "C4",
          "midi": 60,
          "time": 54.60000000000007,
          "velocity": 0.6614173228346457,
          "duration": 0.10000000000000142
        },
        {
          "name": "F4",
          "midi": 65,
          "time": 55.200000000000074,
          "velocity": 0.7874015748031497,
          "duration": 0.20000000000000284
        },
        {
          "name": "E4",
          "midi": 64,
          "time": 55.40000000000008,
          "velocity": 0.6614173228346457,
          "duration": 0.10000000000000142
        },
        {
          "name": "E4",
          "midi": 64,
          "time": 55.800000000000075,
          "velocity": 0.6614173228346457,
          "duration": 0.10000000000000142
        },
        {
          "name": "E4",
          "midi": 64,
          "time": 56.200000000000074,
          "velocity": 0.6614173228346457,
          "duration": 0.10000000000000142
        },
        {
          "name": "E4",
          "midi": 64,
          "time": 56.60000000000007,
          "velocity": 0.6614173228346457,
          "duration": 0.10000000000000142
        },
        {
          "name": "E4",
          "midi": 64,
          "time": 57.00000000000007,
          "velocity": 0.6614173228346457,
          "duration": 0.10000000000000142
        },
        {
          "name": "F4",
          "midi": 65,
          "time": 57.200000000000074,
          "velocity": 0.7874015748031497,
          "duration": 0.20000000000000284
        },
        {
          "name": "C4",
          "midi": 60,
          "time": 58.00000000000008,
          "velocity": 0.6614173228346457,
          "duration": 0.10000000000000142
        },
        {
          "name": "F4",
          "midi": 65,
          "time": 58.40000000000008,
          "velocity": 0.7874015748031497,
          "duration": 0.20000000000000284
        },
        {
          "name": "E4",
          "midi": 64,
          "time": 58.60000000000008,
          "velocity": 0.6614173228346457,
          "duration": 0.10000000000000142
        },
        {
          "name": "E4",
          "midi": 64,
          "time": 59.00000000000008,
          "velocity": 0.6614173228346457,
          "duration": 0.10000000000000142
        },
        {
          "name": "E4",
          "midi": 64,
          "time": 59.40000000000008,
          "velocity": 0.6614173228346457,
          "duration": 0.10000000000000142
        },
        {
          "name": "E4",
          "midi": 64,
          "time": 59.800000000000075,
          "velocity": 0.6614173228346457,
          "duration": 0.10000000000000142
        },
        {
          "name": "F4",
          "midi": 65,
          "time": 60.00000000000008,
          "velocity": 0.7874015748031497,
          "duration": 0.20000000000000284
        },
        {
          "name": "E4",
          "midi": 64,
          "time": 60.20000000000008,
          "velocity": 0.6614173228346457,
          "duration": 0.10000000000000142
        },
        {
          "name": "E4",
          "midi": 64,
          "time": 60.60000000000008,
          "velocity": 0.6614173228346457,
          "duration": 0.10000000000000142
        },
        {
          "name": "E4",
          "midi": 64,
          "time": 61.00000000000008,
          "velocity": 0.6614173228346457,
          "duration": 0.10000000000000142
        },
        {
          "name": "E4",
          "midi": 64,
          "time": 61.40000000000008,
          "velocity": 0.6614173228346457,
          "duration": 0.10000000000000142
        },
        {
          "name": "F4",
          "midi": 65,
          "time": 61.60000000000008,
          "velocity": 0.7874015748031497,
          "duration": 0.20000000000000284
        },
        {
          "name": "E4",
          "midi": 64,
          "time": 61.80000000000008,
          "velocity": 0.6614173228346457,
          "duration": 0.10000000000000142
        },
        {
          "name": "E4",
          "midi": 64,
          "time": 62.20000000000008,
          "velocity": 0.6614173228346457,
          "duration": 0.10000000000000142
        },
        {
          "name": "E4",
          "midi": 64,
          "time": 62.60000000000008,
          "velocity": 0.6614173228346457,
          "duration": 0.10000000000000142
        },
        {
          "name": "E4",
          "midi": 64,
          "time": 63.00000000000008,
          "velocity": 0.6614173228346457,
          "duration": 0.10000000000000142
        },
        {
          "name": "F4",
          "midi": 65,
          "time": 63.20000000000008,
          "velocity": 0.7874015748031497,
          "duration": 0.20000000000000284
        },
        {
          "name": "E4",
          "midi": 64,
          "time": 64.80000000000008,
          "velocity": 0.6614173228346457,
          "duration": 0.09999999999999432
        },
        {
          "name": "F4",
          "midi": 65,
          "time": 66.00000000000007,
          "velocity": 0.7874015748031497,
          "duration": 0.20000000000000284
        },
        {
          "name": "E4",
          "midi": 64,
          "time": 66.40000000000008,
          "velocity": 0.6614173228346457,
          "duration": 0.09999999999999432
        },
        {
          "name": "F4",
          "midi": 65,
          "time": 67.50000000000007,
          "velocity": 0.7874015748031497,
          "duration": 0.09999999999999432
        },
        {
          "name": "F4",
          "midi": 65,
          "time": 67.60000000000007,
          "velocity": 0.7874015748031497,
          "duration": 0.09999999999999432
        },
        {
          "name": "F4",
          "midi": 65,
          "time": 67.70000000000006,
          "velocity": 0.7874015748031497,
          "duration": 0.09999999999999432
        },
        {
          "name": "C4",
          "midi": 60,
          "time": 68.00000000000006,
          "velocity": 0.6614173228346457,
          "duration": 0.09999999999999432
        },
        {
          "name": "C4",
          "midi": 60,
          "time": 71.20000000000005,
          "velocity": 0.6614173228346457,
          "duration": 0.09999999999999432
        },
        {
          "name": "F4",
          "midi": 65,
          "time": 71.80000000000004,
          "velocity": 0.7874015748031497,
          "duration": 0.09999999999999432
        },
        {
          "name": "F4",
          "midi": 65,
          "time": 72.40000000000003,
          "velocity": 0.7874015748031497,
          "duration": 0.09999999999999432
        },
        {
          "name": "C4",
          "midi": 60,
          "time": 73.20000000000003,
          "velocity": 0.6614173228346457,
          "duration": 0.09999999999999432
        },
        {
          "name": "E4",
          "midi": 64,
          "time": 74.40000000000002,
          "velocity": 0.6614173228346457,
          "duration": 0.09999999999999432
        },
        {
          "name": "E4",
          "midi": 64,
          "time": 74.66666666666669,
          "velocity": 0.6614173228346457,
          "duration": 0.09999999999999432
        },
        {
          "name": "E4",
          "midi": 64,
          "time": 75.20000000000002,
          "velocity": 0.6614173228346457,
          "duration": 0.09999999999999432
        },
        {
          "name": "D4",
          "midi": 62,
          "time": 76.80000000000001,
          "velocity": 0.6614173228346457,
          "duration": 0.7999999999999972
        },
        {
          "name": "F4",
          "midi": 65,
          "time": 77.60000000000001,
          "velocity": 0.7874015748031497,
          "duration": 0.09999999999999432
        },
        {
          "name": "D4",
          "midi": 62,
          "time": 79.2,
          "velocity": 0.6614173228346457,
          "duration": 0.7999999999999972
        },
        {
          "name": "D4",
          "midi": 62,
          "time": 83.6,
          "velocity": 0.6614173228346457,
          "duration": 0.4000000000000057
        },
        {
          "name": "C4",
          "midi": 60,
          "time": 84.6,
          "velocity": 0.6614173228346457,
          "duration": 0.09999999999999432
        },
        {
          "name": "D4",
          "midi": 62,
          "time": 85.19999999999999,
          "velocity": 0.6614173228346457,
          "duration": 0.7999999999999972
        },
        {
          "name": "D4",
          "midi": 62,
          "time": 86.39999999999999,
          "velocity": 0.6614173228346457,
          "duration": 0.7999999999999972
        },
        {
          "name": "E4",
          "midi": 64,
          "time": 87.39999999999999,
          "velocity": 0.6614173228346457,
          "duration": 0.09999999999999432
        },
        {
          "name": "D4",
          "midi": 62,
          "time": 88.39999999999999,
          "velocity": 0.6614173228346457,
          "duration": 0.4000000000000057
        },
        {
          "name": "C4",
          "midi": 60,
          "time": 90,
          "velocity": 0.6614173228346457,
          "duration": 0.09999999999999432
        },
        {
          "name": "E4",
          "midi": 64,
          "time": 90.39999999999999,
          "velocity": 0.6614173228346457,
          "duration": 0.09999999999999432
        },
        {
          "name": "E4",
          "midi": 64,
          "time": 91.59999999999998,
          "velocity": 0.6614173228346457,
          "duration": 0.09999999999999432
        },
        {
          "name": "D4",
          "midi": 62,
          "time": 92.59999999999998,
          "velocity": 0.6614173228346457,
          "duration": 0.4000000000000057
        },
        {
          "name": "D4",
          "midi": 62,
          "time": 93.59999999999998,
          "velocity": 0.6614173228346457,
          "duration": 0.7999999999999972
        },
        {
          "name": "F4",
          "midi": 65,
          "time": 94.79999999999998,
          "velocity": 0.7874015748031497,
          "duration": 0.09999999999999432
        },
        {
          "name": "F4",
          "midi": 65,
          "time": 94.99999999999997,
          "velocity": 0.7874015748031497,
          "duration": 0.09999999999999432
        },
        {
          "name": "D4",
          "midi": 62,
          "time": 95.19999999999996,
          "velocity": 0.6614173228346457,
          "duration": 0.7999999999999972
        },
        {
          "name": "F4",
          "midi": 65,
          "time": 95.99999999999996,
          "velocity": 0.7874015748031497,
          "duration": 0.09999999999999432
        },
        {
          "name": "F4",
          "midi": 65,
          "time": 96.19999999999995,
          "velocity": 0.7874015748031497,
          "duration": 0.09999999999999432
        },
        {
          "name": "F4",
          "midi": 65,
          "time": 96.39999999999993,
          "velocity": 0.7874015748031497,
          "duration": 0.09999999999999432
        },
        {
          "name": "F4",
          "midi": 65,
          "time": 96.59999999999992,
          "velocity": 0.7874015748031497,
          "duration": 0.09999999999999432
        },
        {
          "name": "D4",
          "midi": 62,
          "time": 99.19999999999992,
          "velocity": 0.6614173228346457,
          "duration": 0.7999999999999972
        },
        {
          "name": "F4",
          "midi": 65,
          "time": 99.99999999999991,
          "velocity": 0.7874015748031497,
          "duration": 0.09999999999999432
        },
        {
          "name": "F4",
          "midi": 65,
          "time": 102.79999999999991,
          "velocity": 0.7874015748031497,
          "duration": 0.09999999999999432
        },
        {
          "name": "D4",
          "midi": 62,
          "time": 103.1999999999999,
          "velocity": 0.6614173228346457,
          "duration": 1.5999999999999943
        },
        {
          "name": "D4",
          "midi": 62,
          "time": 105.39999999999989,
          "velocity": 0.6614173228346457,
          "duration": 0.5999999999999943
        },
        {
          "name": "F4",
          "midi": 65,
          "time": 106.19999999999989,
          "velocity": 0.7874015748031497,
          "duration": 0.09999999999999432
        },
        {
          "name": "D4",
          "midi": 62,
          "time": 106.39999999999988,
          "velocity": 0.6614173228346457,
          "duration": 0.5999999999999943
        },
        {
          "name": "D4",
          "midi": 62,
          "time": 107.59999999999987,
          "velocity": 0.6614173228346457,
          "duration": 1.2000000000000028
        },
        {
          "name": "F4",
          "midi": 65,
          "time": 108.79999999999987,
          "velocity": 0.7874015748031497,
          "duration": 0.09999999999999432
        },
        {
          "name": "F4",
          "midi": 65,
          "time": 109.19999999999986,
          "velocity": 0.7874015748031497,
          "duration": 0.09999999999999432
        },
        {
          "name": "F4",
          "midi": 65,
          "time": 109.59999999999985,
          "velocity": 0.7874015748031497,
          "duration": 0.09999999999999432
        },
        {
          "name": "D4",
          "midi": 62,
          "time": 110.19999999999985,
          "velocity": 0.6614173228346457,
          "duration": 0.5999999999999943
        },
        {
          "name": "E4",
          "midi": 64,
          "time": 111.99999999999984,
          "velocity": 0.6614173228346457,
          "duration": 0.09999999999999432
        },
        {
          "name": "E4",
          "midi": 64,
          "time": 112.39999999999984,
          "velocity": 0.6614173228346457,
          "duration": 0.09999999999999432
        },
        {
          "name": "F4",
          "midi": 65,
          "time": 112.59999999999982,
          "velocity": 0.7874015748031497,
          "duration": 0.09999999999999432
        },
        {
          "name": "E4",
          "midi": 64,
          "time": 112.99999999999982,
          "velocity": 0.6614173228346457,
          "duration": 0.09999999999999432
        },
        {
          "name": "F4",
          "midi": 65,
          "time": 113.1999999999998,
          "velocity": 0.7874015748031497,
          "duration": 0.20000000000000284
        },
        {
          "name": "E4",
          "midi": 64,
          "time": 113.3999999999998,
          "velocity": 0.6614173228346457,
          "duration": 0.09999999999999432
        },
        {
          "name": "E4",
          "midi": 64,
          "time": 113.7999999999998,
          "velocity": 0.6614173228346457,
          "duration": 0.09999999999999432
        },
        {
          "name": "E4",
          "midi": 64,
          "time": 114.19999999999979,
          "velocity": 0.6614173228346457,
          "duration": 0.09999999999999432
        },
        {
          "name": "E4",
          "midi": 64,
          "time": 114.59999999999978,
          "velocity": 0.6614173228346457,
          "duration": 0.09999999999999432
        },
        {
          "name": "F4",
          "midi": 65,
          "time": 114.79999999999977,
          "velocity": 0.7874015748031497,
          "duration": 0.20000000000000284
        },
        {
          "name": "E4",
          "midi": 64,
          "time": 114.99999999999977,
          "velocity": 0.6614173228346457,
          "duration": 0.09999999999999432
        },
        {
          "name": "E4",
          "midi": 64,
          "time": 115.39999999999976,
          "velocity": 0.6614173228346457,
          "duration": 0.09999999999999432
        },
        {
          "name": "E4",
          "midi": 64,
          "time": 115.79999999999976,
          "velocity": 0.6614173228346457,
          "duration": 0.09999999999999432
        },
        {
          "name": "E4",
          "midi": 64,
          "time": 116.19999999999975,
          "velocity": 0.6614173228346457,
          "duration": 0.09999999999999432
        },
        {
          "name": "F4",
          "midi": 65,
          "time": 116.39999999999974,
          "velocity": 0.7874015748031497,
          "duration": 0.20000000000000284
        },
        {
          "name": "E4",
          "midi": 64,
          "time": 116.59999999999974,
          "velocity": 0.6614173228346457,
          "duration": 0.09999999999999432
        },
        {
          "name": "E4",
          "midi": 64,
          "time": 116.99999999999973,
          "velocity": 0.6614173228346457,
          "duration": 0.09999999999999432
        },
        {
          "name": "F4",
          "midi": 65,
          "time": 117.19999999999972,
          "velocity": 0.7874015748031497,
          "duration": 0.20000000000000284
        },
        {
          "name": "D4",
          "midi": 62,
          "time": 117.59999999999972,
          "velocity": 0.6614173228346457,
          "duration": 0.5999999999999943
        },
        {
          "name": "C4",
          "midi": 60,
          "time": 119.79999999999971,
          "velocity": 0.7637795275590551,
          "duration": 0.09999999999999432
        },
        {
          "name": "E4",
          "midi": 64,
          "time": 120.39999999999971,
          "velocity": 0.7480314960629921,
          "duration": 0.09999999999999432
        },
        {
          "name": "C4",
          "midi": 60,
          "time": 121.39999999999971,
          "velocity": 0.6850393700787402,
          "duration": 0.09999999999999432
        },
        {
          "name": "E4",
          "midi": 64,
          "time": 121.9999999999997,
          "velocity": 0.7244094488188977,
          "duration": 0.09999999999999432
        },
        {
          "name": "C4",
          "midi": 60,
          "time": 122.9999999999997,
          "velocity": 0.7637795275590551,
          "duration": 0.09999999999999432
        },
        {
          "name": "E4",
          "midi": 64,
          "time": 123.5999999999997,
          "velocity": 0.7480314960629921,
          "duration": 0.09999999999999432
        },
        {
          "name": "F4",
          "midi": 65,
          "time": 124.3999999999997,
          "velocity": 0.7874015748031497,
          "duration": 0.20000000000000284
        },
        {
          "name": "E4",
          "midi": 64,
          "time": 124.5999999999997,
          "velocity": 0.7637795275590551,
          "duration": 0.09999999999999432
        },
        {
          "name": "E4",
          "midi": 64,
          "time": 125.19999999999969,
          "velocity": 0.7480314960629921,
          "duration": 0.09999999999999432
        },
        {
          "name": "F4",
          "midi": 65,
          "time": 125.59999999999968,
          "velocity": 0.7874015748031497,
          "duration": 0.20000000000000284
        },
        {
          "name": "E4",
          "midi": 64,
          "time": 131.19999999999968,
          "velocity": 0.6614173228346457,
          "duration": 0.09999999999999432
        },
        {
          "name": "E4",
          "midi": 64,
          "time": 131.59999999999968,
          "velocity": 0.6614173228346457,
          "duration": 0.09999999999999432
        }
      ],
      "controlChanges": {
        "6": [
          {
            "number": 6,
            "time": 0,
            "value": 0.09448818897637795
          },
          {
            "number": 6,
            "time": 0,
            "value": 0.09448818897637795
          },
          {
            "number": 6,
            "time": 0,
            "value": 0.09448818897637795
          },
          {
            "number": 6,
            "time": 135.9999999999997,
            "value": 0.09448818897637795
          },
          {
            "number": 6,
            "time": 135.9999999999997,
            "value": 0.09448818897637795
          }
        ],
        "7": [
          {
            "number": 7,
            "time": 0,
            "value": 0.7874015748031497
          },
          {
            "number": 7,
            "time": 0,
            "value": 0.7874015748031497
          },
          {
            "number": 7,
            "time": 0,
            "value": 0.7874015748031497
          },
          {
            "number": 7,
            "time": 0,
            "value": 0.7874015748031497
          },
          {
            "number": 7,
            "time": 135.9999999999997,
            "value": 0.7874015748031497
          },
          {
            "number": 7,
            "time": 135.9999999999997,
            "value": 0.7874015748031497
          }
        ],
        "10": [
          {
            "number": 10,
            "time": 0,
            "value": 0.5039370078740157
          },
          {
            "number": 10,
            "time": 0,
            "value": 0.5039370078740157
          },
          {
            "number": 10,
            "time": 0,
            "value": 0.5039370078740157
          },
          {
            "number": 10,
            "time": 0,
            "value": 0.5039370078740157
          },
          {
            "number": 10,
            "time": 135.9999999999997,
            "value": 0.5039370078740157
          },
          {
            "number": 10,
            "time": 135.9999999999997,
            "value": 0.5039370078740157
          }
        ],
        "100": [
          {
            "number": 100,
            "time": 0,
            "value": 0
          },
          {
            "number": 100,
            "time": 0,
            "value": 0
          },
          {
            "number": 100,
            "time": 0,
            "value": 0
          },
          {
            "number": 100,
            "time": 135.9999999999997,
            "value": 0
          },
          {
            "number": 100,
            "time": 135.9999999999997,
            "value": 0
          }
        ],
        "101": [
          {
            "number": 101,
            "time": 0,
            "value": 0
          },
          {
            "number": 101,
            "time": 0,
            "value": 0
          },
          {
            "number": 101,
            "time": 0,
            "value": 0
          },
          {
            "number": 101,
            "time": 135.9999999999997,
            "value": 0
          },
          {
            "number": 101,
            "time": 135.9999999999997,
            "value": 0
          }
        ]
      },
      "id": 7,
      "name": "D hard",
      "channelNumber": 0,
      "isPercussion": false
    },
    {
      "startTime": 0,
      "duration": 0,
      "length": 0,
      "notes": [],
      "controlChanges": {},
      "id": 8,
      "name": "LABS"
    }
  ]
}