{
  "header": {
    "PPQ": 96,
    "timeSignature": [
      4,
      4
    ],
    "bpm": 162.000162000162,
    "name": "A easy"
  },
  "tempo": [
    {
      "absoluteTime": 0,
      "seconds": 0,
      "bpm": 162.000162000162
    }
  ],
  "timeSignature": [
    {
      "absoluteTime": 0,
      "seconds": 0,
      "numerator": 4,
      "denominator": 2,
      "click": 24,
      "notesQ": 8
    }
  ],
  "startTime": 0,
  "duration": 133.88875499999986,
  "tracks": [
    {
      "startTime": 0,
      "duration": 0,
      "length": 0,
      "notes": [],
      "controlChanges": {},
      "id": 0
    },
    {
      "startTime": 0,
      "duration": 0,
      "length": 0,
      "notes": [],
      "controlChanges": {},
      "id": 1
    },
    {
      "startTime": 1.4814800000000001,
      "duration": 130.37023999999974,
      "length": 126,
      "notes": [
        {
          "name": "D4",
          "midi": 62,
          "time": 1.4814800000000001,
          "velocity": 0.6535433070866141,
          "duration": 2.22222
        },
        {
          "name": "D4",
          "midi": 62,
          "time": 4.44444,
          "velocity": 0.9763779527559056,
          "duration": 2.22222
        },
        {
          "name": "C4",
          "midi": 60,
          "time": 6.851845,
          "velocity": 0.7716535433070866,
          "duration": 0.1851849999999997
        },
        {
          "name": "C4",
          "midi": 60,
          "time": 7.222214999999999,
          "velocity": 0.8110236220472441,
          "duration": 0.13888875000000045
        },
        {
          "name": "D4",
          "midi": 62,
          "time": 10.37036,
          "velocity": 0.9212598425196851,
          "duration": 2.9629600000000007
        },
        {
          "name": "D4",
          "midi": 62,
          "time": 14.44443,
          "velocity": 0.84251968503937,
          "duration": 1.8518499999999989
        },
        {
          "name": "C4",
          "midi": 60,
          "time": 27.77775,
          "velocity": 0.7480314960629921,
          "duration": 0.1851850000000006
        },
        {
          "name": "C4",
          "midi": 60,
          "time": 28.51849,
          "velocity": 0.9212598425196851,
          "duration": 0.1851850000000006
        },
        {
          "name": "C4",
          "midi": 60,
          "time": 29.259230000000002,
          "velocity": 0.8661417322834646,
          "duration": 0.1851850000000006
        },
        {
          "name": "C4",
          "midi": 60,
          "time": 29.999970000000005,
          "velocity": 0.8661417322834646,
          "duration": 0.1851850000000006
        },
        {
          "name": "C4",
          "midi": 60,
          "time": 30.740710000000007,
          "velocity": 0.9291338582677166,
          "duration": 0.1851850000000006
        },
        {
          "name": "C4",
          "midi": 60,
          "time": 31.48145000000001,
          "velocity": 0.8188976377952756,
          "duration": 0.1851850000000006
        },
        {
          "name": "C4",
          "midi": 60,
          "time": 32.22219000000001,
          "velocity": 0.8346456692913385,
          "duration": 0.18518499999999705
        },
        {
          "name": "C4",
          "midi": 60,
          "time": 32.96293000000001,
          "velocity": 0.8582677165354331,
          "duration": 0.18518499999999705
        },
        {
          "name": "C4",
          "midi": 60,
          "time": 33.70367,
          "velocity": 0.8582677165354331,
          "duration": 0.18518499999999705
        },
        {
          "name": "C4",
          "midi": 60,
          "time": 34.44441,
          "velocity": 0.8346456692913385,
          "duration": 0.18518499999999705
        },
        {
          "name": "C4",
          "midi": 60,
          "time": 35.18514999999999,
          "velocity": 0.8582677165354331,
          "duration": 0.18518499999999705
        },
        {
          "name": "C4",
          "midi": 60,
          "time": 35.92588999999999,
          "velocity": 0.8267716535433071,
          "duration": 0.18518499999999705
        },
        {
          "name": "C4",
          "midi": 60,
          "time": 36.666629999999984,
          "velocity": 0.8582677165354331,
          "duration": 0.18518499999999705
        },
        {
          "name": "C4",
          "midi": 60,
          "time": 37.40736999999998,
          "velocity": 0.8582677165354331,
          "duration": 0.18518499999999705
        },
        {
          "name": "C4",
          "midi": 60,
          "time": 38.148109999999974,
          "velocity": 0.8031496062992126,
          "duration": 0.18518499999999705
        },
        {
          "name": "C4",
          "midi": 60,
          "time": 38.88884999999997,
          "velocity": 0.8346456692913385,
          "duration": 0.18518499999999705
        },
        {
          "name": "C4",
          "midi": 60,
          "time": 39.259219999999964,
          "velocity": 0.7874015748031497,
          "duration": 0.18518499999999705
        },
        {
          "name": "C4",
          "midi": 60,
          "time": 39.62958999999996,
          "velocity": 0.84251968503937,
          "duration": 0.18518499999999705
        },
        {
          "name": "C4",
          "midi": 60,
          "time": 40.740699999999954,
          "velocity": 0.7637795275590551,
          "duration": 0.09259250000000208
        },
        {
          "name": "C4",
          "midi": 60,
          "time": 41.111069999999955,
          "velocity": 0.8582677165354331,
          "duration": 0.18518499999999705
        },
        {
          "name": "C4",
          "midi": 60,
          "time": 42.22217999999995,
          "velocity": 0.7401574803149606,
          "duration": 0.18518499999999705
        },
        {
          "name": "C4",
          "midi": 60,
          "time": 43.70365999999995,
          "velocity": 0.7874015748031497,
          "duration": 0.18518499999999705
        },
        {
          "name": "C4",
          "midi": 60,
          "time": 44.814769999999946,
          "velocity": 0.9212598425196851,
          "duration": 0.18518499999999705
        },
        {
          "name": "C4",
          "midi": 60,
          "time": 49.62957999999995,
          "velocity": 0.8582677165354331,
          "duration": 0.09259250000000208
        },
        {
          "name": "C4",
          "midi": 60,
          "time": 49.99994999999995,
          "velocity": 0.8582677165354331,
          "duration": 0.09259250000000208
        },
        {
          "name": "C4",
          "midi": 60,
          "time": 50.92587499999995,
          "velocity": 0.8582677165354331,
          "duration": 0.09259250000000208
        },
        {
          "name": "C4",
          "midi": 60,
          "time": 51.11105999999995,
          "velocity": 0.8188976377952756,
          "duration": 0.18518499999999705
        },
        {
          "name": "C4",
          "midi": 60,
          "time": 52.03698499999995,
          "velocity": 0.8346456692913385,
          "duration": 0.09259250000000208
        },
        {
          "name": "C4",
          "midi": 60,
          "time": 52.59253999999996,
          "velocity": 0.8031496062992126,
          "duration": 0.09259250000000208
        },
        {
          "name": "C4",
          "midi": 60,
          "time": 53.518464999999956,
          "velocity": 0.8661417322834646,
          "duration": 0.09259250000000208
        },
        {
          "name": "C4",
          "midi": 60,
          "time": 54.07401999999996,
          "velocity": 0.8582677165354331,
          "duration": 0.09259250000000208
        },
        {
          "name": "C4",
          "midi": 60,
          "time": 54.99994499999996,
          "velocity": 0.8818897637795275,
          "duration": 0.09259250000000208
        },
        {
          "name": "C4",
          "midi": 60,
          "time": 55.740684999999964,
          "velocity": 0.8818897637795275,
          "duration": 0.09259250000000208
        },
        {
          "name": "C4",
          "midi": 60,
          "time": 56.111054999999965,
          "velocity": 0.84251968503937,
          "duration": 0.09259250000000208
        },
        {
          "name": "C4",
          "midi": 60,
          "time": 56.481424999999966,
          "velocity": 0.7716535433070866,
          "duration": 0.09259250000000208
        },
        {
          "name": "C4",
          "midi": 60,
          "time": 56.85179499999997,
          "velocity": 0.8818897637795275,
          "duration": 0.09259250000000208
        },
        {
          "name": "D4",
          "midi": 62,
          "time": 57.03697999999997,
          "velocity": 0.8346456692913385,
          "duration": 2.5925900000000013
        },
        {
          "name": "D4",
          "midi": 62,
          "time": 59.999939999999974,
          "velocity": 0.8346456692913385,
          "duration": 1.1111100000000036
        },
        {
          "name": "D4",
          "midi": 62,
          "time": 61.48141999999998,
          "velocity": 0.8346456692913385,
          "duration": 1.4814799999999977
        },
        {
          "name": "C4",
          "midi": 60,
          "time": 63.888824999999976,
          "velocity": 0.8346456692913385,
          "duration": 0.09259250000000208
        },
        {
          "name": "C4",
          "midi": 60,
          "time": 64.44437999999998,
          "velocity": 0.8031496062992126,
          "duration": 0.09259249999999497
        },
        {
          "name": "C4",
          "midi": 60,
          "time": 65.37030499999997,
          "velocity": 0.8661417322834646,
          "duration": 0.09259249999999497
        },
        {
          "name": "C4",
          "midi": 60,
          "time": 65.92585999999997,
          "velocity": 0.8188976377952756,
          "duration": 0.18518500000000415
        },
        {
          "name": "C4",
          "midi": 60,
          "time": 66.85178499999998,
          "velocity": 0.8346456692913385,
          "duration": 0.09259249999999497
        },
        {
          "name": "C4",
          "midi": 60,
          "time": 67.59252499999997,
          "velocity": 0.8031496062992126,
          "duration": 0.09259249999999497
        },
        {
          "name": "C4",
          "midi": 60,
          "time": 67.96289499999996,
          "velocity": 0.8188976377952756,
          "duration": 0.09259249999999497
        },
        {
          "name": "C4",
          "midi": 60,
          "time": 68.33326499999995,
          "velocity": 0.8661417322834646,
          "duration": 0.09259249999999497
        },
        {
          "name": "C4",
          "midi": 60,
          "time": 68.65733874999995,
          "velocity": 0.7952755905511811,
          "duration": 0.09259249999999497
        },
        {
          "name": "D4",
          "midi": 62,
          "time": 68.88881999999995,
          "velocity": 0.8346456692913385,
          "duration": 5.925920000000005
        },
        {
          "name": "F4",
          "midi": 65,
          "time": 77.03695999999997,
          "velocity": 0.8346456692913385,
          "duration": 0.3703699999999941
        },
        {
          "name": "F4",
          "midi": 65,
          "time": 78.51843999999996,
          "velocity": 0.8346456692913385,
          "duration": 0.3703699999999941
        },
        {
          "name": "C4",
          "midi": 60,
          "time": 92.59249999999994,
          "velocity": 0.8818897637795275,
          "duration": 0.18518500000000415
        },
        {
          "name": "C4",
          "midi": 60,
          "time": 92.96286999999995,
          "velocity": 0.8110236220472441,
          "duration": 0.18518500000000415
        },
        {
          "name": "C4",
          "midi": 60,
          "time": 93.33323999999996,
          "velocity": 0.8346456692913385,
          "duration": 0.18518500000000415
        },
        {
          "name": "C4",
          "midi": 60,
          "time": 93.70360999999997,
          "velocity": 0.7637795275590551,
          "duration": 0.18518500000000415
        },
        {
          "name": "C4",
          "midi": 60,
          "time": 94.07397999999998,
          "velocity": 0.7559055118110236,
          "duration": 0.18518500000000415
        },
        {
          "name": "C4",
          "midi": 60,
          "time": 94.44434999999999,
          "velocity": 0.7007874015748031,
          "duration": 0.18518500000000415
        },
        {
          "name": "C4",
          "midi": 60,
          "time": 94.81472,
          "velocity": 0.6692913385826772,
          "duration": 0.18518500000000415
        },
        {
          "name": "C4",
          "midi": 60,
          "time": 95.18509,
          "velocity": 0.7480314960629921,
          "duration": 0.18518500000000415
        },
        {
          "name": "C4",
          "midi": 60,
          "time": 95.55546000000001,
          "velocity": 0.84251968503937,
          "duration": 0.09259249999999497
        },
        {
          "name": "C4",
          "midi": 60,
          "time": 95.740645,
          "velocity": 0.7637795275590551,
          "duration": 0.09259249999999497
        },
        {
          "name": "C4",
          "midi": 60,
          "time": 95.92582999999999,
          "velocity": 0.6771653543307087,
          "duration": 0.09259249999999497
        },
        {
          "name": "C4",
          "midi": 60,
          "time": 96.11101499999998,
          "velocity": 0.8582677165354331,
          "duration": 0.09259249999999497
        },
        {
          "name": "C4",
          "midi": 60,
          "time": 96.29619999999997,
          "velocity": 0.7322834645669292,
          "duration": 0.09259249999999497
        },
        {
          "name": "C4",
          "midi": 60,
          "time": 96.48138499999996,
          "velocity": 0.8582677165354331,
          "duration": 0.09259249999999497
        },
        {
          "name": "C4",
          "midi": 60,
          "time": 96.66656999999995,
          "velocity": 0.8582677165354331,
          "duration": 0.09259249999999497
        },
        {
          "name": "C4",
          "midi": 60,
          "time": 97.03693999999994,
          "velocity": 0.8582677165354331,
          "duration": 0.09259249999999497
        },
        {
          "name": "C4",
          "midi": 60,
          "time": 97.40730999999994,
          "velocity": 0.8582677165354331,
          "duration": 0.09259249999999497
        },
        {
          "name": "C4",
          "midi": 60,
          "time": 98.33323499999993,
          "velocity": 0.8582677165354331,
          "duration": 0.09259249999999497
        },
        {
          "name": "C4",
          "midi": 60,
          "time": 98.51841999999992,
          "velocity": 0.8188976377952756,
          "duration": 0.18518500000000415
        },
        {
          "name": "C4",
          "midi": 60,
          "time": 99.44434499999993,
          "velocity": 0.8346456692913385,
          "duration": 0.09259249999999497
        },
        {
          "name": "C4",
          "midi": 60,
          "time": 99.99989999999993,
          "velocity": 0.8031496062992126,
          "duration": 0.09259249999999497
        },
        {
          "name": "C4",
          "midi": 60,
          "time": 100.27767749999992,
          "velocity": 0.8031496062992126,
          "duration": 0.09259249999999497
        },
        {
          "name": "C4",
          "midi": 60,
          "time": 100.55545499999992,
          "velocity": 0.8031496062992126,
          "duration": 0.09259249999999497
        },
        {
          "name": "C4",
          "midi": 60,
          "time": 100.92582499999992,
          "velocity": 0.8661417322834646,
          "duration": 0.09259249999999497
        },
        {
          "name": "C4",
          "midi": 60,
          "time": 101.29619499999991,
          "velocity": 0.8661417322834646,
          "duration": 0.09259249999999497
        },
        {
          "name": "C4",
          "midi": 60,
          "time": 101.4813799999999,
          "velocity": 0.8661417322834646,
          "duration": 0.09259249999999497
        },
        {
          "name": "C4",
          "midi": 60,
          "time": 102.4073049999999,
          "velocity": 0.8661417322834646,
          "duration": 0.09259249999999497
        },
        {
          "name": "D4",
          "midi": 62,
          "time": 103.14804499999988,
          "velocity": 0.8346456692913385,
          "duration": 0.18518500000000415
        },
        {
          "name": "D4",
          "midi": 62,
          "time": 104.07396999999989,
          "velocity": 0.8346456692913385,
          "duration": 0.18518500000000415
        },
        {
          "name": "C4",
          "midi": 60,
          "time": 105.37026499999989,
          "velocity": 0.8346456692913385,
          "duration": 0.09259249999999497
        },
        {
          "name": "C4",
          "midi": 60,
          "time": 105.92581999999989,
          "velocity": 0.8031496062992126,
          "duration": 0.09259249999999497
        },
        {
          "name": "C4",
          "midi": 60,
          "time": 106.20359749999989,
          "velocity": 0.8031496062992126,
          "duration": 0.09259249999999497
        },
        {
          "name": "C4",
          "midi": 60,
          "time": 106.48137499999989,
          "velocity": 0.8031496062992126,
          "duration": 0.09259249999999497
        },
        {
          "name": "C4",
          "midi": 60,
          "time": 106.85174499999988,
          "velocity": 0.8661417322834646,
          "duration": 0.09259249999999497
        },
        {
          "name": "C4",
          "midi": 60,
          "time": 107.22211499999987,
          "velocity": 0.8661417322834646,
          "duration": 0.09259249999999497
        },
        {
          "name": "D4",
          "midi": 62,
          "time": 107.40729999999986,
          "velocity": 0.8346456692913385,
          "duration": 1.1111099999999965
        },
        {
          "name": "D4",
          "midi": 62,
          "time": 109.44433499999987,
          "velocity": 0.8346456692913385,
          "duration": 0.18518500000000415
        },
        {
          "name": "D4",
          "midi": 62,
          "time": 109.81470499999988,
          "velocity": 0.8346456692913385,
          "duration": 0.18518500000000415
        },
        {
          "name": "C4",
          "midi": 60,
          "time": 110.37025999999987,
          "velocity": 0.7637795275590551,
          "duration": 0.09259249999999497
        },
        {
          "name": "C4",
          "midi": 60,
          "time": 111.29618499999987,
          "velocity": 0.8346456692913385,
          "duration": 0.09259249999999497
        },
        {
          "name": "C4",
          "midi": 60,
          "time": 111.85173999999986,
          "velocity": 0.8031496062992126,
          "duration": 0.09259249999999497
        },
        {
          "name": "C4",
          "midi": 60,
          "time": 112.12951749999986,
          "velocity": 0.8031496062992126,
          "duration": 0.09259249999999497
        },
        {
          "name": "C4",
          "midi": 60,
          "time": 112.40729499999986,
          "velocity": 0.8031496062992126,
          "duration": 0.09259249999999497
        },
        {
          "name": "C4",
          "midi": 60,
          "time": 112.77766499999986,
          "velocity": 0.8661417322834646,
          "duration": 0.09259249999999497
        },
        {
          "name": "C4",
          "midi": 60,
          "time": 113.33321999999986,
          "velocity": 0.8661417322834646,
          "duration": 0.09259249999999497
        },
        {
          "name": "C4",
          "midi": 60,
          "time": 114.25914499999985,
          "velocity": 0.8661417322834646,
          "duration": 0.09259249999999497
        },
        {
          "name": "C4",
          "midi": 60,
          "time": 114.81469999999985,
          "velocity": 0.8661417322834646,
          "duration": 0.09259249999999497
        },
        {
          "name": "C4",
          "midi": 60,
          "time": 114.99988499999984,
          "velocity": 0.8661417322834646,
          "duration": 0.09259249999999497
        },
        {
          "name": "C4",
          "midi": 60,
          "time": 115.37025499999983,
          "velocity": 0.8661417322834646,
          "duration": 0.09259249999999497
        },
        {
          "name": "C4",
          "midi": 60,
          "time": 115.74062499999982,
          "velocity": 0.8661417322834646,
          "duration": 0.09259249999999497
        },
        {
          "name": "C4",
          "midi": 60,
          "time": 116.11099499999982,
          "velocity": 0.8661417322834646,
          "duration": 0.09259249999999497
        },
        {
          "name": "C4",
          "midi": 60,
          "time": 116.29617999999981,
          "velocity": 0.8661417322834646,
          "duration": 0.09259249999999497
        },
        {
          "name": "C4",
          "midi": 60,
          "time": 117.2221049999998,
          "velocity": 0.8661417322834646,
          "duration": 0.09259249999999497
        },
        {
          "name": "C4",
          "midi": 60,
          "time": 117.7776599999998,
          "velocity": 0.8031496062992126,
          "duration": 0.09259249999999497
        },
        {
          "name": "C4",
          "midi": 60,
          "time": 118.0554374999998,
          "velocity": 0.8031496062992126,
          "duration": 0.09259249999999497
        },
        {
          "name": "C4",
          "midi": 60,
          "time": 118.3332149999998,
          "velocity": 0.8031496062992126,
          "duration": 0.09259249999999497
        },
        {
          "name": "C4",
          "midi": 60,
          "time": 118.70358499999979,
          "velocity": 0.8661417322834646,
          "duration": 0.09259249999999497
        },
        {
          "name": "C4",
          "midi": 60,
          "time": 119.07395499999978,
          "velocity": 0.8661417322834646,
          "duration": 0.09259249999999497
        },
        {
          "name": "C4",
          "midi": 60,
          "time": 119.25913999999977,
          "velocity": 0.8661417322834646,
          "duration": 0.09259249999999497
        },
        {
          "name": "C4",
          "midi": 60,
          "time": 120.18506499999977,
          "velocity": 0.8661417322834646,
          "duration": 0.09259249999999497
        },
        {
          "name": "C4",
          "midi": 60,
          "time": 120.74061999999977,
          "velocity": 0.8661417322834646,
          "duration": 0.09259249999999497
        },
        {
          "name": "C4",
          "midi": 60,
          "time": 120.92580499999976,
          "velocity": 0.8661417322834646,
          "duration": 0.09259249999999497
        },
        {
          "name": "C4",
          "midi": 60,
          "time": 121.29617499999975,
          "velocity": 0.8661417322834646,
          "duration": 0.09259249999999497
        },
        {
          "name": "D4",
          "midi": 62,
          "time": 122.22209999999974,
          "velocity": 0.8346456692913385,
          "duration": 2.222220000000007
        },
        {
          "name": "D4",
          "midi": 62,
          "time": 125.18505999999975,
          "velocity": 0.8661417322834646,
          "duration": 1.4814800000000048
        },
        {
          "name": "C4",
          "midi": 60,
          "time": 126.85172499999976,
          "velocity": 0.8661417322834646,
          "duration": 0.09259249999999497
        },
        {
          "name": "C4",
          "midi": 60,
          "time": 127.03690999999975,
          "velocity": 0.8661417322834646,
          "duration": 0.09259249999999497
        },
        {
          "name": "C4",
          "midi": 60,
          "time": 127.77764999999974,
          "velocity": 0.8661417322834646,
          "duration": 0.09259249999999497
        },
        {
          "name": "D4",
          "midi": 62,
          "time": 128.14801999999975,
          "velocity": 0.8661417322834646,
          "duration": 2.222219999999993
        }
      ],
      "controlChanges": {
        "6": [
          {
            "number": 6,
            "time": 0,
            "value": 0.09448818897637795
          },
          {
            "number": 6,
            "time": 0,
            "value": 0.09448818897637795
          },
          {
            "number": 6,
            "time": 0,
            "value": 0.09448818897637795
          },
          {
            "number": 6,
            "time": 137.87023249999973,
            "value": 0.09448818897637795
          },
          {
            "number": 6,
            "time": 137.87023249999973,
            "value": 0.09448818897637795
          }
        ],
        "7": [
          {
            "number": 7,
            "time": 0,
            "value": 0.7874015748031497
          },
          {
            "number": 7,
            "time": 0,
            "value": 0.7874015748031497
          },
          {
            "number": 7,
            "time": 0,
            "value": 0.7874015748031497
          },
          {
            "number": 7,
            "time": 0,
            "value": 0.7874015748031497
          },
          {
            "number": 7,
            "time": 137.87023249999973,
            "value": 0.7874015748031497
          },
          {
            "number": 7,
            "time": 137.87023249999973,
            "value": 0.7874015748031497
          }
        ],
        "10": [
          {
            "number": 10,
            "time": 0,
            "value": 0.5039370078740157
          },
          {
            "number": 10,
            "time": 0,
            "value": 0.5039370078740157
          },
          {
            "number": 10,
            "time": 0,
            "value": 0.5039370078740157
          },
          {
            "number": 10,
            "time": 0,
            "value": 0.5039370078740157
          },
          {
            "number": 10,
            "time": 137.87023249999973,
            "value": 0.5039370078740157
          },
          {
            "number": 10,
            "time": 137.87023249999973,
            "value": 0.5039370078740157
          }
        ],
        "100": [
          {
            "number": 100,
            "time": 0,
            "value": 0
          },
          {
            "number": 100,
            "time": 0,
            "value": 0
          },
          {
            "number": 100,
            "time": 0,
            "value": 0
          },
          {
            "number": 100,
            "time": 137.87023249999973,
            "value": 0
          },
          {
            "number": 100,
            "time": 137.87023249999973,
            "value": 0
          }
        ],
        "101": [
          {
            "number": 101,
            "time": 0,
            "value": 0
          },
          {
            "number": 101,
            "time": 0,
            "value": 0
          },
          {
            "number": 101,
            "time": 0,
            "value": 0
          },
          {
            "number": 101,
            "time": 137.87023249999973,
            "value": 0
          },
          {
            "number": 101,
            "time": 137.87023249999973,
            "value": 0
          }
        ]
      },
      "id": 2,
      "name": "A hard",
      "instrumentNumber": 0,
      "instrument": "acoustic grand piano",
      "instrumentFamily": "piano",
      "channelNumber": 2,
      "isPercussion": false
    },
    {
      "startTime": 3.7037000000000004,
      "duration": 133.88875499999986,
      "length": 104,
      "notes": [
        {
          "name": "C4",
          "midi": 60,
          "time": 3.7037000000000004,
          "velocity": 0.8031496062992126,
          "duration": 0.23148124999999986
        },
        {
          "name": "C4",
          "midi": 60,
          "time": 4.074070000000001,
          "velocity": 0.8031496062992126,
          "duration": 0.23148124999999986
        },
        {
          "name": "C4",
          "midi": 60,
          "time": 6.66666,
          "velocity": 0.7716535433070866,
          "duration": 0.1851849999999997
        },
        {
          "name": "C4",
          "midi": 60,
          "time": 7.03703,
          "velocity": 0.7716535433070866,
          "duration": 0.1851849999999997
        },
        {
          "name": "C4",
          "midi": 60,
          "time": 9.62962,
          "velocity": 0.8031496062992126,
          "duration": 0.23148124999999986
        },
        {
          "name": "C4",
          "midi": 60,
          "time": 9.999989999999999,
          "velocity": 0.7874015748031497,
          "duration": 0.1851850000000006
        },
        {
          "name": "D4",
          "midi": 62,
          "time": 13.33332,
          "velocity": 0.7637795275590551,
          "duration": 0.555555
        },
        {
          "name": "D4",
          "midi": 62,
          "time": 16.29628,
          "velocity": 0.7795275590551181,
          "duration": 1.4814800000000012
        },
        {
          "name": "D4",
          "midi": 62,
          "time": 19.259240000000002,
          "velocity": 0.8346456692913385,
          "duration": 2.22222
        },
        {
          "name": "D4",
          "midi": 62,
          "time": 22.2222,
          "velocity": 0.8346456692913385,
          "duration": 1.4814800000000012
        },
        {
          "name": "F4",
          "midi": 65,
          "time": 25.925900000000002,
          "velocity": 0.8346456692913385,
          "duration": 1.4814800000000012
        },
        {
          "name": "F4",
          "midi": 65,
          "time": 31.111080000000005,
          "velocity": 0.7874015748031497,
          "duration": 0.1851850000000006
        },
        {
          "name": "F4",
          "midi": 65,
          "time": 35.55552000000001,
          "velocity": 0.7874015748031497,
          "duration": 0.18518499999999705
        },
        {
          "name": "C4",
          "midi": 60,
          "time": 42.962920000000004,
          "velocity": 0.7716535433070866,
          "duration": 0.18518499999999705
        },
        {
          "name": "C4",
          "midi": 60,
          "time": 44.4444,
          "velocity": 0.7874015748031497,
          "duration": 0.18518499999999705
        },
        {
          "name": "C4",
          "midi": 60,
          "time": 45.18514,
          "velocity": 0.8818897637795275,
          "duration": 0.18518499999999705
        },
        {
          "name": "C4",
          "midi": 60,
          "time": 45.55550999999999,
          "velocity": 0.8110236220472441,
          "duration": 0.18518499999999705
        },
        {
          "name": "C4",
          "midi": 60,
          "time": 45.925879999999985,
          "velocity": 0.8346456692913385,
          "duration": 0.18518499999999705
        },
        {
          "name": "C4",
          "midi": 60,
          "time": 46.29624999999998,
          "velocity": 0.7637795275590551,
          "duration": 0.18518499999999705
        },
        {
          "name": "C4",
          "midi": 60,
          "time": 46.66661999999997,
          "velocity": 0.7559055118110236,
          "duration": 0.18518499999999705
        },
        {
          "name": "C4",
          "midi": 60,
          "time": 47.03698999999997,
          "velocity": 0.7007874015748031,
          "duration": 0.18518499999999705
        },
        {
          "name": "C4",
          "midi": 60,
          "time": 47.40735999999996,
          "velocity": 0.6692913385826772,
          "duration": 0.18518499999999705
        },
        {
          "name": "C4",
          "midi": 60,
          "time": 47.777729999999956,
          "velocity": 0.7480314960629921,
          "duration": 0.18518499999999705
        },
        {
          "name": "C4",
          "midi": 60,
          "time": 48.14809999999995,
          "velocity": 0.84251968503937,
          "duration": 0.09259250000000208
        },
        {
          "name": "C4",
          "midi": 60,
          "time": 48.333284999999954,
          "velocity": 0.7637795275590551,
          "duration": 0.09259250000000208
        },
        {
          "name": "C4",
          "midi": 60,
          "time": 48.51846999999996,
          "velocity": 0.6771653543307087,
          "duration": 0.09259250000000208
        },
        {
          "name": "C4",
          "midi": 60,
          "time": 48.70365499999996,
          "velocity": 0.8582677165354331,
          "duration": 0.09259250000000208
        },
        {
          "name": "C4",
          "midi": 60,
          "time": 48.888839999999966,
          "velocity": 0.7322834645669292,
          "duration": 0.09259250000000208
        },
        {
          "name": "C4",
          "midi": 60,
          "time": 49.07402499999997,
          "velocity": 0.8582677165354331,
          "duration": 0.09259250000000208
        },
        {
          "name": "C4",
          "midi": 60,
          "time": 49.259209999999975,
          "velocity": 0.8582677165354331,
          "duration": 0.09259250000000208
        },
        {
          "name": "C4",
          "midi": 60,
          "time": 50.64809749999998,
          "velocity": 0.8582677165354331,
          "duration": 0.09259250000000208
        },
        {
          "name": "D4",
          "midi": 62,
          "time": 51.11105999999998,
          "velocity": 0.8346456692913385,
          "duration": 2.5925900000000013
        },
        {
          "name": "D4",
          "midi": 62,
          "time": 54.07401999999998,
          "velocity": 0.8346456692913385,
          "duration": 1.4814799999999977
        },
        {
          "name": "C4",
          "midi": 60,
          "time": 57.03697999999998,
          "velocity": 0.8661417322834646,
          "duration": 0.09259250000000208
        },
        {
          "name": "C4",
          "midi": 60,
          "time": 57.96290499999998,
          "velocity": 0.8346456692913385,
          "duration": 0.09259250000000208
        },
        {
          "name": "C4",
          "midi": 60,
          "time": 58.51845999999998,
          "velocity": 0.9212598425196851,
          "duration": 0.09259250000000208
        },
        {
          "name": "C4",
          "midi": 60,
          "time": 59.44438499999998,
          "velocity": 0.84251968503937,
          "duration": 0.09259250000000208
        },
        {
          "name": "C4",
          "midi": 60,
          "time": 59.99993999999999,
          "velocity": 0.84251968503937,
          "duration": 0.09259250000000208
        },
        {
          "name": "C4",
          "midi": 60,
          "time": 60.92586499999999,
          "velocity": 0.8188976377952756,
          "duration": 0.09259250000000208
        },
        {
          "name": "F4",
          "midi": 65,
          "time": 61.48141999999999,
          "velocity": 0.7401574803149606,
          "duration": 0.09259250000000208
        },
        {
          "name": "C4",
          "midi": 60,
          "time": 61.666605,
          "velocity": 0.8818897637795275,
          "duration": 0.09259250000000208
        },
        {
          "name": "C4",
          "midi": 60,
          "time": 62.036975,
          "velocity": 0.84251968503937,
          "duration": 0.09259250000000208
        },
        {
          "name": "C4",
          "midi": 60,
          "time": 62.407345,
          "velocity": 0.7716535433070866,
          "duration": 0.09259250000000208
        },
        {
          "name": "C4",
          "midi": 60,
          "time": 62.777715,
          "velocity": 0.8818897637795275,
          "duration": 0.09259250000000208
        },
        {
          "name": "D4",
          "midi": 62,
          "time": 62.962900000000005,
          "velocity": 0.8346456692913385,
          "duration": 2.5925900000000013
        },
        {
          "name": "D4",
          "midi": 62,
          "time": 65.92586,
          "velocity": 0.8346456692913385,
          "duration": 1.1111099999999965
        },
        {
          "name": "D4",
          "midi": 62,
          "time": 69.444375,
          "velocity": 0.8346456692913385,
          "duration": 5.370365000000007
        },
        {
          "name": "F4",
          "midi": 65,
          "time": 75.55548,
          "velocity": 0.8346456692913385,
          "duration": 0.3703699999999941
        },
        {
          "name": "F4",
          "midi": 65,
          "time": 77.03696,
          "velocity": 0.8346456692913385,
          "duration": 0.3703699999999941
        },
        {
          "name": "C4",
          "midi": 60,
          "time": 86.66657999999998,
          "velocity": 0.8818897637795275,
          "duration": 0.18518500000000415
        },
        {
          "name": "C4",
          "midi": 60,
          "time": 87.03694999999999,
          "velocity": 0.8110236220472441,
          "duration": 0.18518500000000415
        },
        {
          "name": "C4",
          "midi": 60,
          "time": 87.40732,
          "velocity": 0.8346456692913385,
          "duration": 0.18518500000000415
        },
        {
          "name": "C4",
          "midi": 60,
          "time": 87.77769,
          "velocity": 0.7637795275590551,
          "duration": 0.18518500000000415
        },
        {
          "name": "C4",
          "midi": 60,
          "time": 88.14806000000002,
          "velocity": 0.7559055118110236,
          "duration": 0.18518500000000415
        },
        {
          "name": "C4",
          "midi": 60,
          "time": 88.51843000000002,
          "velocity": 0.7007874015748031,
          "duration": 0.18518500000000415
        },
        {
          "name": "C4",
          "midi": 60,
          "time": 88.88880000000003,
          "velocity": 0.6692913385826772,
          "duration": 0.18518500000000415
        },
        {
          "name": "C4",
          "midi": 60,
          "time": 89.25917000000004,
          "velocity": 0.7480314960629921,
          "duration": 0.18518500000000415
        },
        {
          "name": "C4",
          "midi": 60,
          "time": 89.62954000000005,
          "velocity": 0.8818897637795275,
          "duration": 0.18518500000000415
        },
        {
          "name": "C4",
          "midi": 60,
          "time": 89.99991000000006,
          "velocity": 0.8110236220472441,
          "duration": 0.18518500000000415
        },
        {
          "name": "C4",
          "midi": 60,
          "time": 90.37028000000007,
          "velocity": 0.8346456692913385,
          "duration": 0.18518500000000415
        },
        {
          "name": "C4",
          "midi": 60,
          "time": 90.74065000000007,
          "velocity": 0.7637795275590551,
          "duration": 0.18518500000000415
        },
        {
          "name": "C4",
          "midi": 60,
          "time": 91.11102000000008,
          "velocity": 0.7559055118110236,
          "duration": 0.18518500000000415
        },
        {
          "name": "C4",
          "midi": 60,
          "time": 91.48139000000009,
          "velocity": 0.7007874015748031,
          "duration": 0.18518500000000415
        },
        {
          "name": "C4",
          "midi": 60,
          "time": 91.8517600000001,
          "velocity": 0.6692913385826772,
          "duration": 0.18518500000000415
        },
        {
          "name": "C4",
          "midi": 60,
          "time": 92.2221300000001,
          "velocity": 0.7480314960629921,
          "duration": 0.18518500000000415
        },
        {
          "name": "C4",
          "midi": 60,
          "time": 98.05545750000012,
          "velocity": 0.8582677165354331,
          "duration": 0.09259249999999497
        },
        {
          "name": "D4",
          "midi": 62,
          "time": 98.5184200000001,
          "velocity": 0.8346456692913385,
          "duration": 2.5925900000000013
        },
        {
          "name": "D4",
          "midi": 62,
          "time": 101.4813800000001,
          "velocity": 0.8346456692913385,
          "duration": 1.1111099999999965
        },
        {
          "name": "D4",
          "midi": 62,
          "time": 103.3332300000001,
          "velocity": 0.8346456692913385,
          "duration": 0.18518500000000415
        },
        {
          "name": "D4",
          "midi": 62,
          "time": 103.70360000000011,
          "velocity": 0.8346456692913385,
          "duration": 0.18518500000000415
        },
        {
          "name": "D4",
          "midi": 62,
          "time": 104.2591550000001,
          "velocity": 0.8346456692913385,
          "duration": 0.18518500000000415
        },
        {
          "name": "C4",
          "midi": 60,
          "time": 104.8147100000001,
          "velocity": 0.7637795275590551,
          "duration": 0.09259249999999497
        },
        {
          "name": "C4",
          "midi": 60,
          "time": 105.55545000000009,
          "velocity": 0.7637795275590551,
          "duration": 0.09259249999999497
        },
        {
          "name": "C4",
          "midi": 60,
          "time": 106.29619000000008,
          "velocity": 0.8188976377952756,
          "duration": 0.09259249999999497
        },
        {
          "name": "C4",
          "midi": 60,
          "time": 107.03693000000007,
          "velocity": 0.8661417322834646,
          "duration": 0.09259249999999497
        },
        {
          "name": "C4",
          "midi": 60,
          "time": 107.40730000000006,
          "velocity": 0.8661417322834646,
          "duration": 0.09259249999999497
        },
        {
          "name": "C4",
          "midi": 60,
          "time": 108.33322500000006,
          "velocity": 0.8661417322834646,
          "duration": 0.09259249999999497
        },
        {
          "name": "D4",
          "midi": 62,
          "time": 109.25915000000005,
          "velocity": 0.8346456692913385,
          "duration": 0.18518500000000415
        },
        {
          "name": "D4",
          "midi": 62,
          "time": 109.62952000000006,
          "velocity": 0.8346456692913385,
          "duration": 0.18518500000000415
        },
        {
          "name": "D4",
          "midi": 62,
          "time": 110.18507500000005,
          "velocity": 0.8346456692913385,
          "duration": 0.18518500000000415
        },
        {
          "name": "C4",
          "midi": 60,
          "time": 110.74063000000005,
          "velocity": 0.7637795275590551,
          "duration": 0.09259249999999497
        },
        {
          "name": "C4",
          "midi": 60,
          "time": 111.48137000000004,
          "velocity": 0.7637795275590551,
          "duration": 0.09259249999999497
        },
        {
          "name": "C4",
          "midi": 60,
          "time": 112.22211000000003,
          "velocity": 0.8188976377952756,
          "duration": 0.09259249999999497
        },
        {
          "name": "C4",
          "midi": 60,
          "time": 112.96285000000002,
          "velocity": 0.8661417322834646,
          "duration": 0.09259249999999497
        },
        {
          "name": "D4",
          "midi": 62,
          "time": 113.33322000000001,
          "velocity": 0.8346456692913385,
          "duration": 1.1111099999999965
        },
        {
          "name": "D4",
          "midi": 62,
          "time": 114.8147,
          "velocity": 0.8346456692913385,
          "duration": 1.1111099999999965
        },
        {
          "name": "C4",
          "midi": 60,
          "time": 116.2035875,
          "velocity": 0.8661417322834646,
          "duration": 0.09259249999999497
        },
        {
          "name": "C4",
          "midi": 60,
          "time": 116.66654999999999,
          "velocity": 0.8661417322834646,
          "duration": 0.09259249999999497
        },
        {
          "name": "C4",
          "midi": 60,
          "time": 117.40728999999997,
          "velocity": 0.8661417322834646,
          "duration": 0.09259249999999497
        },
        {
          "name": "C4",
          "midi": 60,
          "time": 118.14802999999996,
          "velocity": 0.8188976377952756,
          "duration": 0.09259249999999497
        },
        {
          "name": "C4",
          "midi": 60,
          "time": 118.88876999999995,
          "velocity": 0.8661417322834646,
          "duration": 0.09259249999999497
        },
        {
          "name": "C4",
          "midi": 60,
          "time": 119.16654749999995,
          "velocity": 0.8661417322834646,
          "duration": 0.09259249999999497
        },
        {
          "name": "C4",
          "midi": 60,
          "time": 119.62950999999994,
          "velocity": 0.8661417322834646,
          "duration": 0.09259249999999497
        },
        {
          "name": "C4",
          "midi": 60,
          "time": 120.37024999999993,
          "velocity": 0.8661417322834646,
          "duration": 0.09259249999999497
        },
        {
          "name": "C4",
          "midi": 60,
          "time": 121.11098999999992,
          "velocity": 0.8661417322834646,
          "duration": 0.09259249999999497
        },
        {
          "name": "C4",
          "midi": 60,
          "time": 121.8517299999999,
          "velocity": 0.8661417322834646,
          "duration": 0.09259249999999497
        },
        {
          "name": "C4",
          "midi": 60,
          "time": 122.0369149999999,
          "velocity": 0.8661417322834646,
          "duration": 0.09259249999999497
        },
        {
          "name": "D4",
          "midi": 62,
          "time": 122.22209999999988,
          "velocity": 0.8346456692913385,
          "duration": 2.222220000000007
        },
        {
          "name": "C4",
          "midi": 60,
          "time": 124.99987499999989,
          "velocity": 0.8661417322834646,
          "duration": 0.09259249999999497
        },
        {
          "name": "C4",
          "midi": 60,
          "time": 127.22209499999988,
          "velocity": 0.8661417322834646,
          "duration": 0.09259249999999497
        },
        {
          "name": "C4",
          "midi": 60,
          "time": 127.40727999999987,
          "velocity": 0.8661417322834646,
          "duration": 0.09259249999999497
        },
        {
          "name": "C4",
          "midi": 60,
          "time": 127.96283499999987,
          "velocity": 0.8661417322834646,
          "duration": 0.09259249999999497
        },
        {
          "name": "C4",
          "midi": 60,
          "time": 130.92579499999988,
          "velocity": 0.8661417322834646,
          "duration": 0.09259249999999497
        },
        {
          "name": "D4",
          "midi": 62,
          "time": 131.11097999999987,
          "velocity": 0.8661417322834646,
          "duration": 2.7777749999999912
        }
      ],
      "controlChanges": {
        "6": [
          {
            "number": 6,
            "time": 0,
            "value": 0.09448818897637795
          },
          {
            "number": 6,
            "time": 0,
            "value": 0.09448818897637795
          },
          {
            "number": 6,
            "time": 0,
            "value": 0.09448818897637795
          },
          {
            "number": 6,
            "time": 137.87023249999987,
            "value": 0.09448818897637795
          },
          {
            "number": 6,
            "time": 137.87023249999987,
            "value": 0.09448818897637795
          }
        ],
        "7": [
          {
            "number": 7,
            "time": 0,
            "value": 0.7874015748031497
          },
          {
            "number": 7,
            "time": 0,
            "value": 0.7874015748031497
          },
          {
            "number": 7,
            "time": 0,
            "value": 0.7874015748031497
          },
          {
            "number": 7,
            "time": 0,
            "value": 0.7874015748031497
          },
          {
            "number": 7,
            "time": 137.87023249999987,
            "value": 0.7874015748031497
          },
          {
            "number": 7,
            "time": 137.87023249999987,
            "value": 0.7874015748031497
          }
        ],
        "10": [
          {
            "number": 10,
            "time": 0,
            "value": 0.5039370078740157
          },
          {
            "number": 10,
            "time": 0,
            "value": 0.5039370078740157
          },
          {
            "number": 10,
            "time": 0,
            "value": 0.5039370078740157
          },
          {
            "number": 10,
            "time": 0,
            "value": 0.5039370078740157
          },
          {
            "number": 10,
            "time": 137.87023249999987,
            "value": 0.5039370078740157
          },
          {
            "number": 10,
            "time": 137.87023249999987,
            "value": 0.5039370078740157
          }
        ],
        "100": [
          {
            "number": 100,
            "time": 0,
            "value": 0
          },
          {
            "number": 100,
            "time": 0,
            "value": 0
          },
          {
            "number": 100,
            "time": 0,
            "value": 0
          },
          {
            "number": 100,
            "time": 137.87023249999987,
            "value": 0
          },
          {
            "number": 100,
            "time": 137.87023249999987,
            "value": 0
          }
        ],
        "101": [
          {
            "number": 101,
            "time": 0,
            "value": 0
          },
          {
            "number": 101,
            "time": 0,
            "value": 0
          },
          {
            "number": 101,
            "time": 0,
            "value": 0
          },
          {
            "number": 101,
            "time": 137.87023249999987,
            "value": 0
          },
          {
            "number": 101,
            "time": 137.87023249999987,
            "value": 0
          }
        ]
      },
      "id": 3,
      "name": "S hard",
      "instrumentNumber": 0,
      "instrument": "acoustic grand piano",
      "instrumentFamily": "piano",
      "channelNumber": 1,
      "isPercussion": false
    },
    {
      "startTime": 3.888885,
      "duration": 133.88875499999986,
      "length": 137,
      "notes": [
        {
          "name": "C4",
          "midi": 60,
          "time": 3.888885,
          "velocity": 0.8031496062992126,
          "duration": 0.23148124999999986
        },
        {
          "name": "C4",
          "midi": 60,
          "time": 4.259255,
          "velocity": 0.8110236220472441,
          "duration": 0.13888874999999956
        },
        {
          "name": "D4",
          "midi": 62,
          "time": 7.407399999999999,
          "velocity": 0.889763779527559,
          "duration": 2.22222
        },
        {
          "name": "C4",
          "midi": 60,
          "time": 9.814805,
          "velocity": 0.8031496062992126,
          "duration": 0.13888874999999956
        },
        {
          "name": "C4",
          "midi": 60,
          "time": 10.185175,
          "velocity": 0.7716535433070866,
          "duration": 0.13888874999999956
        },
        {
          "name": "D4",
          "midi": 62,
          "time": 13.888874999999999,
          "velocity": 0.8110236220472441,
          "duration": 0.555555
        },
        {
          "name": "D4",
          "midi": 62,
          "time": 17.77776,
          "velocity": 0.8346456692913385,
          "duration": 1.4814800000000012
        },
        {
          "name": "D4",
          "midi": 62,
          "time": 23.703680000000002,
          "velocity": 0.8346456692913385,
          "duration": 1.4814800000000012
        },
        {
          "name": "C4",
          "midi": 60,
          "time": 27.407380000000003,
          "velocity": 0.7480314960629921,
          "duration": 0.1851850000000006
        },
        {
          "name": "C4",
          "midi": 60,
          "time": 28.148120000000006,
          "velocity": 0.9212598425196851,
          "duration": 0.1851850000000006
        },
        {
          "name": "C4",
          "midi": 60,
          "time": 28.888860000000008,
          "velocity": 0.8661417322834646,
          "duration": 0.1851850000000006
        },
        {
          "name": "C4",
          "midi": 60,
          "time": 29.62960000000001,
          "velocity": 0.8661417322834646,
          "duration": 0.1851850000000006
        },
        {
          "name": "C4",
          "midi": 60,
          "time": 30.370340000000013,
          "velocity": 0.9291338582677166,
          "duration": 0.1851850000000006
        },
        {
          "name": "C4",
          "midi": 60,
          "time": 31.111080000000015,
          "velocity": 0.8188976377952756,
          "duration": 0.1851850000000006
        },
        {
          "name": "C4",
          "midi": 60,
          "time": 31.851820000000018,
          "velocity": 0.8346456692913385,
          "duration": 0.18518499999999705
        },
        {
          "name": "C4",
          "midi": 60,
          "time": 32.59256000000001,
          "velocity": 0.8582677165354331,
          "duration": 0.18518499999999705
        },
        {
          "name": "C4",
          "midi": 60,
          "time": 33.33330000000001,
          "velocity": 0.8582677165354331,
          "duration": 0.18518499999999705
        },
        {
          "name": "C4",
          "midi": 60,
          "time": 34.074040000000004,
          "velocity": 0.8346456692913385,
          "duration": 0.18518499999999705
        },
        {
          "name": "C4",
          "midi": 60,
          "time": 34.81478,
          "velocity": 0.8582677165354331,
          "duration": 0.18518499999999705
        },
        {
          "name": "C4",
          "midi": 60,
          "time": 35.555519999999994,
          "velocity": 0.8267716535433071,
          "duration": 0.18518499999999705
        },
        {
          "name": "C4",
          "midi": 60,
          "time": 36.29625999999999,
          "velocity": 0.8582677165354331,
          "duration": 0.18518499999999705
        },
        {
          "name": "C4",
          "midi": 60,
          "time": 37.036999999999985,
          "velocity": 0.8582677165354331,
          "duration": 0.18518499999999705
        },
        {
          "name": "C4",
          "midi": 60,
          "time": 37.77773999999998,
          "velocity": 0.8031496062992126,
          "duration": 0.18518499999999705
        },
        {
          "name": "C4",
          "midi": 60,
          "time": 38.518479999999975,
          "velocity": 0.8346456692913385,
          "duration": 0.18518499999999705
        },
        {
          "name": "C4",
          "midi": 60,
          "time": 39.99995999999997,
          "velocity": 0.7637795275590551,
          "duration": 0.18518499999999705
        },
        {
          "name": "C4",
          "midi": 60,
          "time": 40.37032999999997,
          "velocity": 0.8582677165354331,
          "duration": 0.18518499999999705
        },
        {
          "name": "C4",
          "midi": 60,
          "time": 41.481439999999964,
          "velocity": 0.7559055118110236,
          "duration": 0.18518499999999705
        },
        {
          "name": "C4",
          "midi": 60,
          "time": 41.85180999999996,
          "velocity": 0.8346456692913385,
          "duration": 0.18518499999999705
        },
        {
          "name": "C4",
          "midi": 60,
          "time": 42.59254999999995,
          "velocity": 0.7401574803149606,
          "duration": 0.18518499999999705
        },
        {
          "name": "C4",
          "midi": 60,
          "time": 43.33328999999995,
          "velocity": 0.84251968503937,
          "duration": 0.09259250000000208
        },
        {
          "name": "C4",
          "midi": 60,
          "time": 44.07402999999995,
          "velocity": 0.84251968503937,
          "duration": 0.18518499999999705
        },
        {
          "name": "C4",
          "midi": 60,
          "time": 45.37032499999995,
          "velocity": 0.7559055118110236,
          "duration": 0.18518499999999705
        },
        {
          "name": "C4",
          "midi": 60,
          "time": 45.740694999999945,
          "velocity": 0.7716535433070866,
          "duration": 0.18518499999999705
        },
        {
          "name": "C4",
          "midi": 60,
          "time": 46.11106499999994,
          "velocity": 0.7795275590551181,
          "duration": 0.18518499999999705
        },
        {
          "name": "C4",
          "midi": 60,
          "time": 46.481434999999934,
          "velocity": 0.7165354330708661,
          "duration": 0.18518499999999705
        },
        {
          "name": "C4",
          "midi": 60,
          "time": 46.85180499999993,
          "velocity": 0.6614173228346457,
          "duration": 0.18518499999999705
        },
        {
          "name": "C4",
          "midi": 60,
          "time": 47.22217499999992,
          "velocity": 0.7086614173228346,
          "duration": 0.18518499999999705
        },
        {
          "name": "C4",
          "midi": 60,
          "time": 47.592544999999916,
          "velocity": 0.7401574803149606,
          "duration": 0.18518499999999705
        },
        {
          "name": "C4",
          "midi": 60,
          "time": 47.96291499999991,
          "velocity": 0.7007874015748031,
          "duration": 0.09259250000000208
        },
        {
          "name": "C4",
          "midi": 60,
          "time": 48.24069249999991,
          "velocity": 0.8110236220472441,
          "duration": 0.09259250000000208
        },
        {
          "name": "C4",
          "midi": 60,
          "time": 48.42587749999991,
          "velocity": 0.8582677165354331,
          "duration": 0.09259250000000208
        },
        {
          "name": "C4",
          "midi": 60,
          "time": 48.61106249999992,
          "velocity": 0.8582677165354331,
          "duration": 0.09259250000000208
        },
        {
          "name": "C4",
          "midi": 60,
          "time": 48.79624749999992,
          "velocity": 0.8582677165354331,
          "duration": 0.09259250000000208
        },
        {
          "name": "C4",
          "midi": 60,
          "time": 48.981432499999926,
          "velocity": 0.8582677165354331,
          "duration": 0.09259250000000208
        },
        {
          "name": "C4",
          "midi": 60,
          "time": 49.16661749999993,
          "velocity": 0.8582677165354331,
          "duration": 0.09259250000000208
        },
        {
          "name": "C4",
          "midi": 60,
          "time": 50.370319999999936,
          "velocity": 0.8582677165354331,
          "duration": 0.09259250000000208
        },
        {
          "name": "C4",
          "midi": 60,
          "time": 51.48142999999994,
          "velocity": 0.7874015748031497,
          "duration": 0.09259250000000208
        },
        {
          "name": "C4",
          "midi": 60,
          "time": 52.22216999999994,
          "velocity": 0.7637795275590551,
          "duration": 0.09259250000000208
        },
        {
          "name": "C4",
          "midi": 60,
          "time": 52.962909999999944,
          "velocity": 0.8188976377952756,
          "duration": 0.09259250000000208
        },
        {
          "name": "C4",
          "midi": 60,
          "time": 53.703649999999946,
          "velocity": 0.7952755905511811,
          "duration": 0.09259250000000208
        },
        {
          "name": "C4",
          "midi": 60,
          "time": 54.44438999999995,
          "velocity": 0.905511811023622,
          "duration": 0.09259250000000208
        },
        {
          "name": "C4",
          "midi": 60,
          "time": 55.18512999999995,
          "velocity": 0.84251968503937,
          "duration": 0.09259250000000208
        },
        {
          "name": "D4",
          "midi": 62,
          "time": 55.55549999999995,
          "velocity": 0.8346456692913385,
          "duration": 1.4814799999999977
        },
        {
          "name": "C4",
          "midi": 60,
          "time": 57.40734999999995,
          "velocity": 0.8346456692913385,
          "duration": 0.09259250000000208
        },
        {
          "name": "C4",
          "midi": 60,
          "time": 58.148089999999954,
          "velocity": 0.8110236220472441,
          "duration": 0.09259250000000208
        },
        {
          "name": "C4",
          "midi": 60,
          "time": 58.888829999999956,
          "velocity": 0.8346456692913385,
          "duration": 0.06172833333333472
        },
        {
          "name": "C4",
          "midi": 60,
          "time": 59.62956999999996,
          "velocity": 0.7874015748031497,
          "duration": 0.09259250000000208
        },
        {
          "name": "C4",
          "midi": 60,
          "time": 60.46290249999996,
          "velocity": 0.7874015748031497,
          "duration": 0.09259250000000208
        },
        {
          "name": "C4",
          "midi": 60,
          "time": 61.11104999999996,
          "velocity": 0.7874015748031497,
          "duration": 0.09259250000000208
        },
        {
          "name": "F4",
          "midi": 65,
          "time": 61.481419999999964,
          "velocity": 0.7401574803149606,
          "duration": 0.09259250000000208
        },
        {
          "name": "C4",
          "midi": 60,
          "time": 62.87030749999997,
          "velocity": 0.8661417322834646,
          "duration": 0.09259250000000208
        },
        {
          "name": "C4",
          "midi": 60,
          "time": 63.33326999999997,
          "velocity": 0.7874015748031497,
          "duration": 0.09259250000000208
        },
        {
          "name": "C4",
          "midi": 60,
          "time": 64.07400999999997,
          "velocity": 0.7637795275590551,
          "duration": 0.09259249999999497
        },
        {
          "name": "C4",
          "midi": 60,
          "time": 64.81474999999996,
          "velocity": 0.8188976377952756,
          "duration": 0.09259249999999497
        },
        {
          "name": "C4",
          "midi": 60,
          "time": 65.55548999999995,
          "velocity": 0.7952755905511811,
          "duration": 0.09259249999999497
        },
        {
          "name": "C4",
          "midi": 60,
          "time": 66.29622999999994,
          "velocity": 0.7874015748031497,
          "duration": 0.09259249999999497
        },
        {
          "name": "C4",
          "midi": 60,
          "time": 67.03696999999993,
          "velocity": 0.7637795275590551,
          "duration": 0.09259249999999497
        },
        {
          "name": "D4",
          "midi": 62,
          "time": 67.40733999999992,
          "velocity": 0.8346456692913385,
          "duration": 1.4814800000000048
        },
        {
          "name": "C4",
          "midi": 60,
          "time": 69.25918999999992,
          "velocity": 0.7952755905511811,
          "duration": 0.09259249999999497
        },
        {
          "name": "C4",
          "midi": 60,
          "time": 69.9999299999999,
          "velocity": 0.7952755905511811,
          "duration": 0.09259249999999497
        },
        {
          "name": "C4",
          "midi": 60,
          "time": 70.7406699999999,
          "velocity": 0.7952755905511811,
          "duration": 0.09259249999999497
        },
        {
          "name": "C4",
          "midi": 60,
          "time": 71.48140999999988,
          "velocity": 0.7952755905511811,
          "duration": 0.09259249999999497
        },
        {
          "name": "C4",
          "midi": 60,
          "time": 72.22214999999987,
          "velocity": 0.7952755905511811,
          "duration": 0.09259249999999497
        },
        {
          "name": "C4",
          "midi": 60,
          "time": 72.96288999999986,
          "velocity": 0.7952755905511811,
          "duration": 0.09259249999999497
        },
        {
          "name": "D4",
          "midi": 62,
          "time": 73.33325999999985,
          "velocity": 0.7952755905511811,
          "duration": 1.4814800000000048
        },
        {
          "name": "F4",
          "midi": 65,
          "time": 75.55547999999986,
          "velocity": 0.8346456692913385,
          "duration": 0.3703699999999941
        },
        {
          "name": "F4",
          "midi": 65,
          "time": 78.51843999999986,
          "velocity": 0.8346456692913385,
          "duration": 0.3703699999999941
        },
        {
          "name": "D4",
          "midi": 62,
          "time": 79.25917999999984,
          "velocity": 0.7952755905511811,
          "duration": 2.222219999999993
        },
        {
          "name": "D4",
          "midi": 62,
          "time": 85.18509999999984,
          "velocity": 0.7952755905511811,
          "duration": 1.4814800000000048
        },
        {
          "name": "C4",
          "midi": 60,
          "time": 86.85176499999984,
          "velocity": 0.7559055118110236,
          "duration": 0.18518500000000415
        },
        {
          "name": "C4",
          "midi": 60,
          "time": 87.22213499999985,
          "velocity": 0.7716535433070866,
          "duration": 0.18518500000000415
        },
        {
          "name": "C4",
          "midi": 60,
          "time": 87.59250499999986,
          "velocity": 0.7795275590551181,
          "duration": 0.18518500000000415
        },
        {
          "name": "C4",
          "midi": 60,
          "time": 87.96287499999987,
          "velocity": 0.7165354330708661,
          "duration": 0.18518500000000415
        },
        {
          "name": "C4",
          "midi": 60,
          "time": 88.33324499999988,
          "velocity": 0.6614173228346457,
          "duration": 0.18518500000000415
        },
        {
          "name": "C4",
          "midi": 60,
          "time": 88.70361499999989,
          "velocity": 0.7086614173228346,
          "duration": 0.18518500000000415
        },
        {
          "name": "C4",
          "midi": 60,
          "time": 89.0739849999999,
          "velocity": 0.7401574803149606,
          "duration": 0.18518500000000415
        },
        {
          "name": "C4",
          "midi": 60,
          "time": 89.4443549999999,
          "velocity": 0.7007874015748031,
          "duration": 0.18518500000000415
        },
        {
          "name": "C4",
          "midi": 60,
          "time": 89.81472499999991,
          "velocity": 0.7559055118110236,
          "duration": 0.18518500000000415
        },
        {
          "name": "C4",
          "midi": 60,
          "time": 90.18509499999992,
          "velocity": 0.7716535433070866,
          "duration": 0.18518500000000415
        },
        {
          "name": "C4",
          "midi": 60,
          "time": 90.55546499999993,
          "velocity": 0.7795275590551181,
          "duration": 0.18518500000000415
        },
        {
          "name": "C4",
          "midi": 60,
          "time": 90.92583499999994,
          "velocity": 0.7165354330708661,
          "duration": 0.18518500000000415
        },
        {
          "name": "C4",
          "midi": 60,
          "time": 91.29620499999994,
          "velocity": 0.6614173228346457,
          "duration": 0.18518500000000415
        },
        {
          "name": "C4",
          "midi": 60,
          "time": 91.66657499999995,
          "velocity": 0.7086614173228346,
          "duration": 0.18518500000000415
        },
        {
          "name": "C4",
          "midi": 60,
          "time": 92.03694499999996,
          "velocity": 0.7401574803149606,
          "duration": 0.18518500000000415
        },
        {
          "name": "C4",
          "midi": 60,
          "time": 92.40731499999997,
          "velocity": 0.7007874015748031,
          "duration": 0.18518500000000415
        },
        {
          "name": "C4",
          "midi": 60,
          "time": 92.77768499999998,
          "velocity": 0.7559055118110236,
          "duration": 0.18518500000000415
        },
        {
          "name": "C4",
          "midi": 60,
          "time": 93.14805499999999,
          "velocity": 0.7716535433070866,
          "duration": 0.18518500000000415
        },
        {
          "name": "C4",
          "midi": 60,
          "time": 93.518425,
          "velocity": 0.7795275590551181,
          "duration": 0.18518500000000415
        },
        {
          "name": "C4",
          "midi": 60,
          "time": 93.888795,
          "velocity": 0.7165354330708661,
          "duration": 0.18518500000000415
        },
        {
          "name": "C4",
          "midi": 60,
          "time": 94.25916500000001,
          "velocity": 0.6614173228346457,
          "duration": 0.18518500000000415
        },
        {
          "name": "C4",
          "midi": 60,
          "time": 94.62953500000002,
          "velocity": 0.7086614173228346,
          "duration": 0.18518500000000415
        },
        {
          "name": "C4",
          "midi": 60,
          "time": 94.99990500000003,
          "velocity": 0.7401574803149606,
          "duration": 0.18518500000000415
        },
        {
          "name": "C4",
          "midi": 60,
          "time": 95.37027500000003,
          "velocity": 0.7007874015748031,
          "duration": 0.18518500000000415
        },
        {
          "name": "C4",
          "midi": 60,
          "time": 95.64805250000003,
          "velocity": 0.8110236220472441,
          "duration": 0.09259249999999497
        },
        {
          "name": "C4",
          "midi": 60,
          "time": 95.83323750000002,
          "velocity": 0.8582677165354331,
          "duration": 0.09259249999999497
        },
        {
          "name": "C4",
          "midi": 60,
          "time": 96.01842250000001,
          "velocity": 0.8582677165354331,
          "duration": 0.09259249999999497
        },
        {
          "name": "C4",
          "midi": 60,
          "time": 96.2036075,
          "velocity": 0.8582677165354331,
          "duration": 0.09259249999999497
        },
        {
          "name": "C4",
          "midi": 60,
          "time": 96.3887925,
          "velocity": 0.8582677165354331,
          "duration": 0.09259249999999497
        },
        {
          "name": "C4",
          "midi": 60,
          "time": 96.57397749999998,
          "velocity": 0.8582677165354331,
          "duration": 0.09259249999999497
        },
        {
          "name": "C4",
          "midi": 60,
          "time": 97.77767999999998,
          "velocity": 0.8582677165354331,
          "duration": 0.09259249999999497
        },
        {
          "name": "C4",
          "midi": 60,
          "time": 98.88878999999997,
          "velocity": 0.7874015748031497,
          "duration": 0.09259249999999497
        },
        {
          "name": "C4",
          "midi": 60,
          "time": 99.62952999999996,
          "velocity": 0.7637795275590551,
          "duration": 0.09259249999999497
        },
        {
          "name": "C4",
          "midi": 60,
          "time": 100.37026999999995,
          "velocity": 0.8188976377952756,
          "duration": 0.09259249999999497
        },
        {
          "name": "C4",
          "midi": 60,
          "time": 101.11100999999994,
          "velocity": 0.7952755905511811,
          "duration": 0.09259249999999497
        },
        {
          "name": "C4",
          "midi": 60,
          "time": 101.38878749999994,
          "velocity": 0.8661417322834646,
          "duration": 0.09259249999999497
        },
        {
          "name": "C4",
          "midi": 60,
          "time": 101.85174999999992,
          "velocity": 0.8661417322834646,
          "duration": 0.09259249999999497
        },
        {
          "name": "C4",
          "midi": 60,
          "time": 102.59248999999991,
          "velocity": 0.8661417322834646,
          "duration": 0.09259249999999497
        },
        {
          "name": "D4",
          "midi": 62,
          "time": 103.5184149999999,
          "velocity": 0.8346456692913385,
          "duration": 0.18518500000000415
        },
        {
          "name": "D4",
          "midi": 62,
          "time": 103.88878499999991,
          "velocity": 0.8346456692913385,
          "duration": 0.18518500000000415
        },
        {
          "name": "D4",
          "midi": 62,
          "time": 104.44433999999991,
          "velocity": 0.8346456692913385,
          "duration": 2.407404999999997
        },
        {
          "name": "C4",
          "midi": 60,
          "time": 107.31470749999991,
          "velocity": 0.8661417322834646,
          "duration": 0.09259249999999497
        },
        {
          "name": "C4",
          "midi": 60,
          "time": 107.7776699999999,
          "velocity": 0.8661417322834646,
          "duration": 0.09259249999999497
        },
        {
          "name": "C4",
          "midi": 60,
          "time": 108.51840999999989,
          "velocity": 0.8661417322834646,
          "duration": 0.09259249999999497
        },
        {
          "name": "D4",
          "midi": 62,
          "time": 109.07396499999989,
          "velocity": 0.8346456692913385,
          "duration": 0.18518500000000415
        },
        {
          "name": "D4",
          "midi": 62,
          "time": 109.9998899999999,
          "velocity": 0.8346456692913385,
          "duration": 0.18518500000000415
        },
        {
          "name": "D4",
          "midi": 62,
          "time": 110.3702599999999,
          "velocity": 0.8346456692913385,
          "duration": 2.5925900000000013
        },
        {
          "name": "C4",
          "midi": 60,
          "time": 113.7035899999999,
          "velocity": 0.8661417322834646,
          "duration": 0.09259249999999497
        },
        {
          "name": "C4",
          "midi": 60,
          "time": 114.4443299999999,
          "velocity": 0.8661417322834646,
          "duration": 0.09259249999999497
        },
        {
          "name": "C4",
          "midi": 60,
          "time": 115.18506999999988,
          "velocity": 0.8661417322834646,
          "duration": 0.09259249999999497
        },
        {
          "name": "C4",
          "midi": 60,
          "time": 115.92580999999987,
          "velocity": 0.8661417322834646,
          "duration": 0.09259249999999497
        },
        {
          "name": "D4",
          "midi": 62,
          "time": 116.29617999999986,
          "velocity": 0.8346456692913385,
          "duration": 5.555549999999997
        },
        {
          "name": "C4",
          "midi": 60,
          "time": 124.81468999999986,
          "velocity": 0.8661417322834646,
          "duration": 0.09259249999999497
        },
        {
          "name": "D4",
          "midi": 62,
          "time": 125.18505999999985,
          "velocity": 0.8661417322834646,
          "duration": 1.4814800000000048
        },
        {
          "name": "C4",
          "midi": 60,
          "time": 127.59246499999986,
          "velocity": 0.8661417322834646,
          "duration": 0.09259249999999497
        },
        {
          "name": "D4",
          "midi": 62,
          "time": 128.14801999999986,
          "velocity": 0.8661417322834646,
          "duration": 2.222219999999993
        },
        {
          "name": "C4",
          "midi": 60,
          "time": 130.74060999999986,
          "velocity": 0.8661417322834646,
          "duration": 0.09259249999999497
        },
        {
          "name": "D4",
          "midi": 62,
          "time": 131.11097999999987,
          "velocity": 0.8661417322834646,
          "duration": 2.7777749999999912
        }
      ],
      "controlChanges": {
        "6": [
          {
            "number": 6,
            "time": 0,
            "value": 0.09448818897637795
          },
          {
            "number": 6,
            "time": 0,
            "value": 0.09448818897637795
          },
          {
            "number": 6,
            "time": 0,
            "value": 0.09448818897637795
          },
          {
            "number": 6,
            "time": 137.87023249999987,
            "value": 0.09448818897637795
          },
          {
            "number": 6,
            "time": 137.87023249999987,
            "value": 0.09448818897637795
          }
        ],
        "7": [
          {
            "number": 7,
            "time": 0,
            "value": 0.7874015748031497
          },
          {
            "number": 7,
            "time": 0,
            "value": 0.7874015748031497
          },
          {
            "number": 7,
            "time": 0,
            "value": 0.7874015748031497
          },
          {
            "number": 7,
            "time": 0,
            "value": 0.7874015748031497
          },
          {
            "number": 7,
            "time": 137.87023249999987,
            "value": 0.7874015748031497
          },
          {
            "number": 7,
            "time": 137.87023249999987,
            "value": 0.7874015748031497
          }
        ],
        "10": [
          {
            "number": 10,
            "time": 0,
            "value": 0.5039370078740157
          },
          {
            "number": 10,
            "time": 0,
            "value": 0.5039370078740157
          },
          {
            "number": 10,
            "time": 0,
            "value": 0.5039370078740157
          },
          {
            "number": 10,
            "time": 0,
            "value": 0.5039370078740157
          },
          {
            "number": 10,
            "time": 137.87023249999987,
            "value": 0.5039370078740157
          },
          {
            "number": 10,
            "time": 137.87023249999987,
            "value": 0.5039370078740157
          }
        ],
        "100": [
          {
            "number": 100,
            "time": 0,
            "value": 0
          },
          {
            "number": 100,
            "time": 0,
            "value": 0
          },
          {
            "number": 100,
            "time": 0,
            "value": 0
          },
          {
            "number": 100,
            "time": 137.87023249999987,
            "value": 0
          },
          {
            "number": 100,
            "time": 137.87023249999987,
            "value": 0
          }
        ],
        "101": [
          {
            "number": 101,
            "time": 0,
            "value": 0
          },
          {
            "number": 101,
            "time": 0,
            "value": 0
          },
          {
            "number": 101,
            "time": 0,
            "value": 0
          },
          {
            "number": 101,
            "time": 137.87023249999987,
            "value": 0
          },
          {
            "number": 101,
            "time": 137.87023249999987,
            "value": 0
          }
        ]
      },
      "id": 4,
      "name": "D hard",
      "instrumentNumber": 0,
      "instrument": "acoustic grand piano",
      "instrumentFamily": "piano",
      "channelNumber": 0,
      "isPercussion": false
    },
    {
      "startTime": 0,
      "duration": 0,
      "length": 0,
      "notes": [],
      "controlChanges": {
        "6": [
          {
            "number": 6,
            "time": 0,
            "value": 0.09448818897637795
          },
          {
            "number": 6,
            "time": 0,
            "value": 0.09448818897637795
          },
          {
            "number": 6,
            "time": 0,
            "value": 0.09448818897637795
          },
          {
            "number": 6,
            "time": 137.87023250000001,
            "value": 0.09448818897637795
          },
          {
            "number": 6,
            "time": 137.87023250000001,
            "value": 0.09448818897637795
          }
        ],
        "7": [
          {
            "number": 7,
            "time": 0,
            "value": 0.7874015748031497
          },
          {
            "number": 7,
            "time": 0,
            "value": 0.7874015748031497
          },
          {
            "number": 7,
            "time": 0,
            "value": 0.7874015748031497
          },
          {
            "number": 7,
            "time": 0,
            "value": 0.7874015748031497
          },
          {
            "number": 7,
            "time": 137.87023250000001,
            "value": 0.7874015748031497
          },
          {
            "number": 7,
            "time": 137.87023250000001,
            "value": 0.7874015748031497
          }
        ],
        "10": [
          {
            "number": 10,
            "time": 0,
            "value": 0.5039370078740157
          },
          {
            "number": 10,
            "time": 0,
            "value": 0.5039370078740157
          },
          {
            "number": 10,
            "time": 0,
            "value": 0.5039370078740157
          },
          {
            "number": 10,
            "time": 0,
            "value": 0.5039370078740157
          },
          {
            "number": 10,
            "time": 137.87023250000001,
            "value": 0.5039370078740157
          },
          {
            "number": 10,
            "time": 137.87023250000001,
            "value": 0.5039370078740157
          }
        ],
        "100": [
          {
            "number": 100,
            "time": 0,
            "value": 0
          },
          {
            "number": 100,
            "time": 0,
            "value": 0
          },
          {
            "number": 100,
            "time": 0,
            "value": 0
          },
          {
            "number": 100,
            "time": 137.87023250000001,
            "value": 0
          },
          {
            "number": 100,
            "time": 137.87023250000001,
            "value": 0
          }
        ],
        "101": [
          {
            "number": 101,
            "time": 0,
            "value": 0
          },
          {
            "number": 101,
            "time": 0,
            "value": 0
          },
          {
            "number": 101,
            "time": 0,
            "value": 0
          },
          {
            "number": 101,
            "time": 137.87023250000001,
            "value": 0
          },
          {
            "number": 101,
            "time": 137.87023250000001,
            "value": 0
          }
        ]
      },
      "id": 5,
      "name": "A easy",
      "instrumentNumber": 0,
      "instrument": "acoustic grand piano",
      "instrumentFamily": "piano",
      "channelNumber": 2,
      "isPercussion": false
    },
    {
      "startTime": 0,
      "duration": 0,
      "length": 0,
      "notes": [],
      "controlChanges": {
        "6": [
          {
            "number": 6,
            "time": 0,
            "value": 0.09448818897637795
          },
          {
            "number": 6,
            "time": 0,
            "value": 0.09448818897637795
          },
          {
            "number": 6,
            "time": 0,
            "value": 0.09448818897637795
          },
          {
            "number": 6,
            "time": 137.87023250000001,
            "value": 0.09448818897637795
          },
          {
            "number": 6,
            "time": 137.87023250000001,
            "value": 0.09448818897637795
          }
        ],
        "7": [
          {
            "number": 7,
            "time": 0,
            "value": 0.7874015748031497
          },
          {
            "number": 7,
            "time": 0,
            "value": 0.7874015748031497
          },
          {
            "number": 7,
            "time": 0,
            "value": 0.7874015748031497
          },
          {
            "number": 7,
            "time": 0,
            "value": 0.7874015748031497
          },
          {
            "number": 7,
            "time": 137.87023250000001,
            "value": 0.7874015748031497
          },
          {
            "number": 7,
            "time": 137.87023250000001,
            "value": 0.7874015748031497
          }
        ],
        "10": [
          {
            "number": 10,
            "time": 0,
            "value": 0.5039370078740157
          },
          {
            "number": 10,
            "time": 0,
            "value": 0.5039370078740157
          },
          {
            "number": 10,
            "time": 0,
            "value": 0.5039370078740157
          },
          {
            "number": 10,
            "time": 0,
            "value": 0.5039370078740157
          },
          {
            "number": 10,
            "time": 137.87023250000001,
            "value": 0.5039370078740157
          },
          {
            "number": 10,
            "time": 137.87023250000001,
            "value": 0.5039370078740157
          }
        ],
        "100": [
          {
            "number": 100,
            "time": 0,
            "value": 0
          },
          {
            "number": 100,
            "time": 0,
            "value": 0
          },
          {
            "number": 100,
            "time": 0,
            "value": 0
          },
          {
            "number": 100,
            "time": 137.87023250000001,
            "value": 0
          },
          {
            "number": 100,
            "time": 137.87023250000001,
            "value": 0
          }
        ],
        "101": [
          {
            "number": 101,
            "time": 0,
            "value": 0
          },
          {
            "number": 101,
            "time": 0,
            "value": 0
          },
          {
            "number": 101,
            "time": 0,
            "value": 0
          },
          {
            "number": 101,
            "time": 137.87023250000001,
            "value": 0
          },
          {
            "number": 101,
            "time": 137.87023250000001,
            "value": 0
          }
        ]
      },
      "id": 6,
      "name": "S easy",
      "instrumentNumber": 0,
      "instrument": "acoustic grand piano",
      "instrumentFamily": "piano",
      "channelNumber": 2,
      "isPercussion": false
    },
    {
      "startTime": 0,
      "duration": 0,
      "length": 0,
      "notes": [],
      "controlChanges": {
        "6": [
          {
            "number": 6,
            "time": 0,
            "value": 0.09448818897637795
          },
          {
            "number": 6,
            "time": 0,
            "value": 0.09448818897637795
          },
          {
            "number": 6,
            "time": 0,
            "value": 0.09448818897637795
          },
          {
            "number": 6,
            "time": 137.87023250000001,
            "value": 0.09448818897637795
          },
          {
            "number": 6,
            "time": 137.87023250000001,
            "value": 0.09448818897637795
          }
        ],
        "7": [
          {
            "number": 7,
            "time": 0,
            "value": 0.7874015748031497
          },
          {
            "number": 7,
            "time": 0,
            "value": 0.7874015748031497
          },
          {
            "number": 7,
            "time": 0,
            "value": 0.7874015748031497
          },
          {
            "number": 7,
            "time": 0,
            "value": 0.7874015748031497
          },
          {
            "number": 7,
            "time": 137.87023250000001,
            "value": 0.7874015748031497
          },
          {
            "number": 7,
            "time": 137.87023250000001,
            "value": 0.7874015748031497
          }
        ],
        "10": [
          {
            "number": 10,
            "time": 0,
            "value": 0.5039370078740157
          },
          {
            "number": 10,
            "time": 0,
            "value": 0.5039370078740157
          },
          {
            "number": 10,
            "time": 0,
            "value": 0.5039370078740157
          },
          {
            "number": 10,
            "time": 0,
            "value": 0.5039370078740157
          },
          {
            "number": 10,
            "time": 137.87023250000001,
            "value": 0.5039370078740157
          },
          {
            "number": 10,
            "time": 137.87023250000001,
            "value": 0.5039370078740157
          }
        ],
        "100": [
          {
            "number": 100,
            "time": 0,
            "value": 0
          },
          {
            "number": 100,
            "time": 0,
            "value": 0
          },
          {
            "number": 100,
            "time": 0,
            "value": 0
          },
          {
            "number": 100,
            "time": 137.87023250000001,
            "value": 0
          },
          {
            "number": 100,
            "time": 137.87023250000001,
            "value": 0
          }
        ],
        "101": [
          {
            "number": 101,
            "time": 0,
            "value": 0
          },
          {
            "number": 101,
            "time": 0,
            "value": 0
          },
          {
            "number": 101,
            "time": 0,
            "value": 0
          },
          {
            "number": 101,
            "time": 137.87023250000001,
            "value": 0
          },
          {
            "number": 101,
            "time": 137.87023250000001,
            "value": 0
          }
        ]
      },
      "id": 7,
      "name": "D easy",
      "instrumentNumber": 0,
      "instrument": "acoustic grand piano",
      "instrumentFamily": "piano",
      "channelNumber": 2,
      "isPercussion": false
    }
  ]
}