{
  "header": {
    "PPQ": 96,
    "timeSignature": [
      4,
      4
    ],
    "bpm": 150,
    "name": "A hard"
  },
  "tempo": [
    {
      "absoluteTime": 0,
      "seconds": 0,
      "bpm": 150
    }
  ],
  "timeSignature": [
    {
      "absoluteTime": 0,
      "seconds": 0,
      "numerator": 4,
      "denominator": 2,
      "click": 24,
      "notesQ": 8
    }
  ],
  "startTime": 0,
  "duration": 145.5999999999999,
  "tracks": [
    {
      "startTime": 0,
      "duration": 0,
      "length": 0,
      "notes": [],
      "controlChanges": {},
      "id": 0
    },
    {
      "startTime": 0,
      "duration": 0,
      "length": 0,
      "notes": [],
      "controlChanges": {},
      "id": 1
    },
    {
      "startTime": 1.6,
      "duration": 145.5999999999999,
      "length": 75,
      "notes": [
        {
          "name": "C4",
          "midi": 60,
          "time": 1.6,
          "velocity": 0.7244094488188977,
          "duration": 0.19999999999999996
        },
        {
          "name": "C4",
          "midi": 60,
          "time": 3,
          "velocity": 0.7480314960629921,
          "duration": 0.20000000000000018
        },
        {
          "name": "C4",
          "midi": 60,
          "time": 3.2,
          "velocity": 0.7244094488188977,
          "duration": 0.20000000000000018
        },
        {
          "name": "C4",
          "midi": 60,
          "time": 4.800000000000001,
          "velocity": 0.7244094488188977,
          "duration": 0.20000000000000018
        },
        {
          "name": "C4",
          "midi": 60,
          "time": 6.000000000000001,
          "velocity": 0.7165354330708661,
          "duration": 0.20000000000000018
        },
        {
          "name": "C4",
          "midi": 60,
          "time": 6.400000000000001,
          "velocity": 0.7244094488188977,
          "duration": 0.20000000000000018
        },
        {
          "name": "C4",
          "midi": 60,
          "time": 7.800000000000002,
          "velocity": 0.6850393700787402,
          "duration": 0.20000000000000018
        },
        {
          "name": "E4",
          "midi": 64,
          "time": 8.000000000000002,
          "velocity": 0.7007874015748031,
          "duration": 0.09999999999999964
        },
        {
          "name": "E4",
          "midi": 64,
          "time": 9.600000000000001,
          "velocity": 0.7007874015748031,
          "duration": 0.09999999999999964
        },
        {
          "name": "F4",
          "midi": 65,
          "time": 10.000000000000002,
          "velocity": 0.7559055118110236,
          "duration": 0.40000000000000036
        },
        {
          "name": "C4",
          "midi": 60,
          "time": 10.800000000000002,
          "velocity": 0.7165354330708661,
          "duration": 0.09999999999999964
        },
        {
          "name": "E4",
          "midi": 64,
          "time": 11.200000000000003,
          "velocity": 0.7007874015748031,
          "duration": 0.09999999999999964
        },
        {
          "name": "E4",
          "midi": 64,
          "time": 12.800000000000002,
          "velocity": 0.7007874015748031,
          "duration": 0.09999999999999964
        },
        {
          "name": "C4",
          "midi": 60,
          "time": 14.200000000000003,
          "velocity": 0.7007874015748031,
          "duration": 0.09999999999999964
        },
        {
          "name": "C4",
          "midi": 60,
          "time": 15.600000000000003,
          "velocity": 0.7007874015748031,
          "duration": 0.09999999999999964
        },
        {
          "name": "E4",
          "midi": 64,
          "time": 16.000000000000004,
          "velocity": 0.7007874015748031,
          "duration": 0.10000000000000142
        },
        {
          "name": "D4",
          "midi": 62,
          "time": 17.600000000000005,
          "velocity": 0.7007874015748031,
          "duration": 3.1999999999999993
        },
        {
          "name": "E4",
          "midi": 64,
          "time": 21.200000000000003,
          "velocity": 0.7007874015748031,
          "duration": 0.10000000000000142
        },
        {
          "name": "E4",
          "midi": 64,
          "time": 21.600000000000005,
          "velocity": 0.7007874015748031,
          "duration": 0.10000000000000142
        },
        {
          "name": "F4",
          "midi": 65,
          "time": 23.200000000000006,
          "velocity": 0.7874015748031497,
          "duration": 0.1999999999999993
        },
        {
          "name": "E4",
          "midi": 64,
          "time": 24.800000000000004,
          "velocity": 0.7007874015748031,
          "duration": 0.10000000000000142
        },
        {
          "name": "C4",
          "midi": 60,
          "time": 26.400000000000006,
          "velocity": 0.7007874015748031,
          "duration": 0.10000000000000142
        },
        {
          "name": "E4",
          "midi": 64,
          "time": 28.000000000000007,
          "velocity": 0.7007874015748031,
          "duration": 0.10000000000000142
        },
        {
          "name": "E4",
          "midi": 64,
          "time": 29.60000000000001,
          "velocity": 0.7007874015748031,
          "duration": 0.10000000000000142
        },
        {
          "name": "E4",
          "midi": 64,
          "time": 30.40000000000001,
          "velocity": 0.7007874015748031,
          "duration": 0.10000000000000142
        },
        {
          "name": "E4",
          "midi": 64,
          "time": 30.80000000000001,
          "velocity": 0.7007874015748031,
          "duration": 0.10000000000000142
        },
        {
          "name": "E4",
          "midi": 64,
          "time": 31.200000000000014,
          "velocity": 0.7007874015748031,
          "duration": 0.10000000000000142
        },
        {
          "name": "E4",
          "midi": 64,
          "time": 31.400000000000016,
          "velocity": 0.7007874015748031,
          "duration": 0.10000000000000142
        },
        {
          "name": "E4",
          "midi": 64,
          "time": 32.000000000000014,
          "velocity": 0.7007874015748031,
          "duration": 0.10000000000000142
        },
        {
          "name": "D4",
          "midi": 62,
          "time": 33.600000000000016,
          "velocity": 0.7007874015748031,
          "duration": 1.6000000000000014
        },
        {
          "name": "E4",
          "midi": 64,
          "time": 36.80000000000002,
          "velocity": 0.7007874015748031,
          "duration": 0.10000000000000142
        },
        {
          "name": "E4",
          "midi": 64,
          "time": 37.20000000000002,
          "velocity": 0.7007874015748031,
          "duration": 0.10000000000000142
        },
        {
          "name": "E4",
          "midi": 64,
          "time": 37.600000000000016,
          "velocity": 0.7007874015748031,
          "duration": 0.10000000000000142
        },
        {
          "name": "E4",
          "midi": 64,
          "time": 38.000000000000014,
          "velocity": 0.7007874015748031,
          "duration": 0.10000000000000142
        },
        {
          "name": "F4",
          "midi": 65,
          "time": 38.40000000000001,
          "velocity": 0.7559055118110236,
          "duration": 0.20000000000000284
        },
        {
          "name": "C4",
          "midi": 60,
          "time": 39.600000000000016,
          "velocity": 0.7007874015748031,
          "duration": 0.10000000000000142
        },
        {
          "name": "C4",
          "midi": 60,
          "time": 40.000000000000014,
          "velocity": 0.7007874015748031,
          "duration": 0.10000000000000142
        },
        {
          "name": "C4",
          "midi": 60,
          "time": 40.600000000000016,
          "velocity": 0.7007874015748031,
          "duration": 0.10000000000000142
        },
        {
          "name": "C4",
          "midi": 60,
          "time": 41.20000000000002,
          "velocity": 0.7007874015748031,
          "duration": 0.10000000000000142
        },
        {
          "name": "C4",
          "midi": 60,
          "time": 42.20000000000002,
          "velocity": 0.7007874015748031,
          "duration": 0.10000000000000142
        },
        {
          "name": "C4",
          "midi": 60,
          "time": 43.20000000000002,
          "velocity": 0.7007874015748031,
          "duration": 0.10000000000000142
        },
        {
          "name": "E4",
          "midi": 64,
          "time": 44.00000000000002,
          "velocity": 0.7007874015748031,
          "duration": 0.10000000000000142
        },
        {
          "name": "D4",
          "midi": 62,
          "time": 44.800000000000026,
          "velocity": 0.7007874015748031,
          "duration": 0.7999999999999972
        },
        {
          "name": "F4",
          "midi": 65,
          "time": 50.40000000000002,
          "velocity": 0.7007874015748031,
          "duration": 0.10000000000000142
        },
        {
          "name": "E4",
          "midi": 64,
          "time": 52.80000000000002,
          "velocity": 0.7637795275590551,
          "duration": 0.10000000000000142
        },
        {
          "name": "E4",
          "midi": 64,
          "time": 57.60000000000002,
          "velocity": 0.7637795275590551,
          "duration": 0.10000000000000142
        },
        {
          "name": "E4",
          "midi": 64,
          "time": 59.200000000000024,
          "velocity": 0.7637795275590551,
          "duration": 0.10000000000000142
        },
        {
          "name": "D4",
          "midi": 62,
          "time": 64.00000000000003,
          "velocity": 0.7637795275590551,
          "duration": 1.5999999999999943
        },
        {
          "name": "D4",
          "midi": 62,
          "time": 70.40000000000002,
          "velocity": 0.7637795275590551,
          "duration": 0.4000000000000057
        },
        {
          "name": "D4",
          "midi": 62,
          "time": 71.80000000000003,
          "velocity": 0.7637795275590551,
          "duration": 0.20000000000000284
        },
        {
          "name": "D4",
          "midi": 62,
          "time": 76.80000000000003,
          "velocity": 0.7637795275590551,
          "duration": 1.4000000000000057
        },
        {
          "name": "D4",
          "midi": 62,
          "time": 78.40000000000003,
          "velocity": 0.7637795275590551,
          "duration": 3.200000000000003
        },
        {
          "name": "F4",
          "midi": 65,
          "time": 84.00000000000004,
          "velocity": 0.7165354330708661,
          "duration": 0.09999999999999432
        },
        {
          "name": "D4",
          "midi": 62,
          "time": 84.80000000000004,
          "velocity": 0.7637795275590551,
          "duration": 0.5999999999999943
        },
        {
          "name": "E4",
          "midi": 64,
          "time": 95.60000000000004,
          "velocity": 0.7637795275590551,
          "duration": 0.09999999999999432
        },
        {
          "name": "E4",
          "midi": 64,
          "time": 95.80000000000003,
          "velocity": 0.7637795275590551,
          "duration": 0.09999999999999432
        },
        {
          "name": "E4",
          "midi": 64,
          "time": 96.00000000000001,
          "velocity": 0.7637795275590551,
          "duration": 0.09999999999999432
        },
        {
          "name": "E4",
          "midi": 64,
          "time": 97.60000000000001,
          "velocity": 0.7637795275590551,
          "duration": 0.09999999999999432
        },
        {
          "name": "E4",
          "midi": 64,
          "time": 98.4,
          "velocity": 0.7637795275590551,
          "duration": 0.09999999999999432
        },
        {
          "name": "E4",
          "midi": 64,
          "time": 99.2,
          "velocity": 0.7637795275590551,
          "duration": 0.09999999999999432
        },
        {
          "name": "C4",
          "midi": 60,
          "time": 101.6,
          "velocity": 0.7637795275590551,
          "duration": 0.09999999999999432
        },
        {
          "name": "D4",
          "midi": 62,
          "time": 103.99999999999999,
          "velocity": 0.7637795275590551,
          "duration": 0.7999999999999972
        },
        {
          "name": "D4",
          "midi": 62,
          "time": 106.39999999999998,
          "velocity": 0.7637795275590551,
          "duration": 2.4000000000000057
        },
        {
          "name": "E4",
          "midi": 64,
          "time": 109.59999999999998,
          "velocity": 0.7637795275590551,
          "duration": 0.09999999999999432
        },
        {
          "name": "E4",
          "midi": 64,
          "time": 110.39999999999998,
          "velocity": 0.7637795275590551,
          "duration": 0.09999999999999432
        },
        {
          "name": "E4",
          "midi": 64,
          "time": 111.99999999999997,
          "velocity": 0.7637795275590551,
          "duration": 0.09999999999999432
        },
        {
          "name": "D4",
          "midi": 62,
          "time": 112.79999999999997,
          "velocity": 0.7637795275590551,
          "duration": 2.3999999999999915
        },
        {
          "name": "F4",
          "midi": 65,
          "time": 113.19999999999997,
          "velocity": 0.7165354330708661,
          "duration": 0.09999999999999432
        },
        {
          "name": "F4",
          "midi": 65,
          "time": 113.39999999999996,
          "velocity": 0.7165354330708661,
          "duration": 0.09999999999999432
        },
        {
          "name": "D4",
          "midi": 62,
          "time": 115.99999999999996,
          "velocity": 0.7637795275590551,
          "duration": 4.799999999999997
        },
        {
          "name": "D4",
          "midi": 62,
          "time": 122.39999999999995,
          "velocity": 0.7637795275590551,
          "duration": 3.200000000000003
        },
        {
          "name": "C4",
          "midi": 60,
          "time": 131.99999999999994,
          "velocity": 0.7559055118110236,
          "duration": 0.09999999999999432
        },
        {
          "name": "E4",
          "midi": 64,
          "time": 133.59999999999994,
          "velocity": 0.7559055118110236,
          "duration": 0.09999999999999432
        },
        {
          "name": "E4",
          "midi": 64,
          "time": 134.39999999999992,
          "velocity": 0.7559055118110236,
          "duration": 0.09999999999999432
        },
        {
          "name": "D4",
          "midi": 62,
          "time": 139.99999999999991,
          "velocity": 0.7559055118110236,
          "duration": 5.599999999999994
        }
      ],
      "controlChanges": {
        "6": [
          {
            "number": 6,
            "time": 0,
            "value": 0.09448818897637795
          },
          {
            "number": 6,
            "time": 0,
            "value": 0.09448818897637795
          },
          {
            "number": 6,
            "time": 0,
            "value": 0.09448818897637795
          },
          {
            "number": 6,
            "time": 147.99999999999991,
            "value": 0.09448818897637795
          },
          {
            "number": 6,
            "time": 147.99999999999991,
            "value": 0.09448818897637795
          }
        ],
        "7": [
          {
            "number": 7,
            "time": 0,
            "value": 0.7874015748031497
          },
          {
            "number": 7,
            "time": 0,
            "value": 0.7874015748031497
          },
          {
            "number": 7,
            "time": 0,
            "value": 0.7874015748031497
          },
          {
            "number": 7,
            "time": 0,
            "value": 0.7874015748031497
          },
          {
            "number": 7,
            "time": 147.99999999999991,
            "value": 0.7874015748031497
          },
          {
            "number": 7,
            "time": 147.99999999999991,
            "value": 0.7874015748031497
          }
        ],
        "10": [
          {
            "number": 10,
            "time": 0,
            "value": 0.5039370078740157
          },
          {
            "number": 10,
            "time": 0,
            "value": 0.5039370078740157
          },
          {
            "number": 10,
            "time": 0,
            "value": 0.5039370078740157
          },
          {
            "number": 10,
            "time": 0,
            "value": 0.5039370078740157
          },
          {
            "number": 10,
            "time": 147.99999999999991,
            "value": 0.5039370078740157
          },
          {
            "number": 10,
            "time": 147.99999999999991,
            "value": 0.5039370078740157
          }
        ],
        "100": [
          {
            "number": 100,
            "time": 0,
            "value": 0
          },
          {
            "number": 100,
            "time": 0,
            "value": 0
          },
          {
            "number": 100,
            "time": 0,
            "value": 0
          },
          {
            "number": 100,
            "time": 147.99999999999991,
            "value": 0
          },
          {
            "number": 100,
            "time": 147.99999999999991,
            "value": 0
          }
        ],
        "101": [
          {
            "number": 101,
            "time": 0,
            "value": 0
          },
          {
            "number": 101,
            "time": 0,
            "value": 0
          },
          {
            "number": 101,
            "time": 0,
            "value": 0
          },
          {
            "number": 101,
            "time": 147.99999999999991,
            "value": 0
          },
          {
            "number": 101,
            "time": 147.99999999999991,
            "value": 0
          }
        ]
      },
      "id": 2,
      "name": "A easy ",
      "channelNumber": 0,
      "isPercussion": false
    },
    {
      "startTime": 2.8000000000000003,
      "duration": 139.99999999999986,
      "length": 74,
      "notes": [
        {
          "name": "C4",
          "midi": 60,
          "time": 2.8000000000000003,
          "velocity": 0.7244094488188977,
          "duration": 0.20000000000000018
        },
        {
          "name": "C4",
          "midi": 60,
          "time": 4.200000000000001,
          "velocity": 0.7086614173228346,
          "duration": 0.20000000000000018
        },
        {
          "name": "C4",
          "midi": 60,
          "time": 4.600000000000001,
          "velocity": 0.7086614173228346,
          "duration": 0.20000000000000018
        },
        {
          "name": "C4",
          "midi": 60,
          "time": 5.800000000000002,
          "velocity": 0.7086614173228346,
          "duration": 0.09999999999999964
        },
        {
          "name": "C4",
          "midi": 60,
          "time": 7.200000000000001,
          "velocity": 0.7165354330708661,
          "duration": 0.20000000000000018
        },
        {
          "name": "C4",
          "midi": 60,
          "time": 7.600000000000001,
          "velocity": 0.6929133858267716,
          "duration": 0.20000000000000018
        },
        {
          "name": "F4",
          "midi": 65,
          "time": 8.8,
          "velocity": 0.7559055118110236,
          "duration": 0.40000000000000036
        },
        {
          "name": "C4",
          "midi": 60,
          "time": 10.600000000000001,
          "velocity": 0.7007874015748031,
          "duration": 0.09999999999999964
        },
        {
          "name": "F4",
          "midi": 65,
          "time": 11.600000000000001,
          "velocity": 0.7559055118110236,
          "duration": 0.40000000000000036
        },
        {
          "name": "E4",
          "midi": 64,
          "time": 12.800000000000002,
          "velocity": 0.7007874015748031,
          "duration": 0.09999999999999964
        },
        {
          "name": "C4",
          "midi": 60,
          "time": 14.000000000000002,
          "velocity": 0.7007874015748031,
          "duration": 0.09999999999999964
        },
        {
          "name": "C4",
          "midi": 60,
          "time": 14.400000000000002,
          "velocity": 0.7007874015748031,
          "duration": 0.09999999999999964
        },
        {
          "name": "C4",
          "midi": 60,
          "time": 14.800000000000002,
          "velocity": 0.7007874015748031,
          "duration": 0.09999999999999964
        },
        {
          "name": "C4",
          "midi": 60,
          "time": 15.400000000000002,
          "velocity": 0.7007874015748031,
          "duration": 0.09999999999999964
        },
        {
          "name": "E4",
          "midi": 64,
          "time": 20.800000000000004,
          "velocity": 0.7007874015748031,
          "duration": 0.10000000000000142
        },
        {
          "name": "E4",
          "midi": 64,
          "time": 21.200000000000006,
          "velocity": 0.7007874015748031,
          "duration": 0.10000000000000142
        },
        {
          "name": "D4",
          "midi": 62,
          "time": 23.200000000000006,
          "velocity": 0.7007874015748031,
          "duration": 1.6000000000000014
        },
        {
          "name": "F4",
          "midi": 65,
          "time": 25.200000000000006,
          "velocity": 0.7874015748031497,
          "duration": 0.1999999999999993
        },
        {
          "name": "C4",
          "midi": 60,
          "time": 26.000000000000007,
          "velocity": 0.7007874015748031,
          "duration": 0.10000000000000142
        },
        {
          "name": "C4",
          "midi": 60,
          "time": 26.800000000000008,
          "velocity": 0.7007874015748031,
          "duration": 0.10000000000000142
        },
        {
          "name": "C4",
          "midi": 60,
          "time": 27.00000000000001,
          "velocity": 0.7007874015748031,
          "duration": 0.10000000000000142
        },
        {
          "name": "C4",
          "midi": 60,
          "time": 27.200000000000014,
          "velocity": 0.7007874015748031,
          "duration": 0.10000000000000142
        },
        {
          "name": "C4",
          "midi": 60,
          "time": 29.400000000000016,
          "velocity": 0.7007874015748031,
          "duration": 0.10000000000000142
        },
        {
          "name": "E4",
          "midi": 64,
          "time": 30.400000000000016,
          "velocity": 0.7007874015748031,
          "duration": 0.10000000000000142
        },
        {
          "name": "E4",
          "midi": 64,
          "time": 30.80000000000002,
          "velocity": 0.7007874015748031,
          "duration": 0.10000000000000142
        },
        {
          "name": "E4",
          "midi": 64,
          "time": 32.00000000000002,
          "velocity": 0.7007874015748031,
          "duration": 0.10000000000000142
        },
        {
          "name": "D4",
          "midi": 62,
          "time": 32.40000000000002,
          "velocity": 0.7007874015748031,
          "duration": 1.2000000000000028
        },
        {
          "name": "D4",
          "midi": 62,
          "time": 34.40000000000002,
          "velocity": 0.7007874015748031,
          "duration": 2.3999999999999986
        },
        {
          "name": "F4",
          "midi": 65,
          "time": 38.80000000000002,
          "velocity": 0.7559055118110236,
          "duration": 0.20000000000000284
        },
        {
          "name": "E4",
          "midi": 64,
          "time": 39.200000000000024,
          "velocity": 0.7007874015748031,
          "duration": 0.10000000000000142
        },
        {
          "name": "E4",
          "midi": 64,
          "time": 40.800000000000026,
          "velocity": 0.7007874015748031,
          "duration": 0.10000000000000142
        },
        {
          "name": "C4",
          "midi": 60,
          "time": 42.800000000000026,
          "velocity": 0.7007874015748031,
          "duration": 0.10000000000000142
        },
        {
          "name": "C4",
          "midi": 60,
          "time": 43.00000000000003,
          "velocity": 0.7007874015748031,
          "duration": 0.10000000000000142
        },
        {
          "name": "D4",
          "midi": 62,
          "time": 43.20000000000003,
          "velocity": 0.7007874015748031,
          "duration": 0.7999999999999972
        },
        {
          "name": "D4",
          "midi": 62,
          "time": 46.40000000000003,
          "velocity": 0.7637795275590551,
          "duration": 3.200000000000003
        },
        {
          "name": "F4",
          "midi": 65,
          "time": 54.400000000000034,
          "velocity": 0.7637795275590551,
          "duration": 0.10000000000000142
        },
        {
          "name": "E4",
          "midi": 64,
          "time": 57.60000000000004,
          "velocity": 0.7637795275590551,
          "duration": 0.10000000000000142
        },
        {
          "name": "F4",
          "midi": 65,
          "time": 60.000000000000036,
          "velocity": 0.7637795275590551,
          "duration": 0.10000000000000142
        },
        {
          "name": "D4",
          "midi": 62,
          "time": 62.400000000000034,
          "velocity": 0.7637795275590551,
          "duration": 1.5999999999999943
        },
        {
          "name": "C4",
          "midi": 60,
          "time": 65.60000000000002,
          "velocity": 0.7637795275590551,
          "duration": 0.09999999999999432
        },
        {
          "name": "D4",
          "midi": 62,
          "time": 70.80000000000001,
          "velocity": 0.7637795275590551,
          "duration": 1
        },
        {
          "name": "D4",
          "midi": 62,
          "time": 72.00000000000001,
          "velocity": 0.7637795275590551,
          "duration": 2.4000000000000057
        },
        {
          "name": "D4",
          "midi": 62,
          "time": 78.20000000000002,
          "velocity": 0.7637795275590551,
          "duration": 0.20000000000000284
        },
        {
          "name": "D4",
          "midi": 62,
          "time": 81.60000000000002,
          "velocity": 0.7637795275590551,
          "duration": 3.200000000000003
        },
        {
          "name": "F4",
          "midi": 65,
          "time": 84.80000000000003,
          "velocity": 0.7165354330708661,
          "duration": 0.09999999999999432
        },
        {
          "name": "D4",
          "midi": 62,
          "time": 85.40000000000002,
          "velocity": 0.7637795275590551,
          "duration": 2.5999999999999943
        },
        {
          "name": "D4",
          "midi": 62,
          "time": 89.60000000000001,
          "velocity": 0.7637795275590551,
          "duration": 2.200000000000003
        },
        {
          "name": "E4",
          "midi": 64,
          "time": 95.60000000000001,
          "velocity": 0.7637795275590551,
          "duration": 0.09999999999999432
        },
        {
          "name": "E4",
          "midi": 64,
          "time": 95.8,
          "velocity": 0.7637795275590551,
          "duration": 0.09999999999999432
        },
        {
          "name": "E4",
          "midi": 64,
          "time": 95.99999999999999,
          "velocity": 0.7637795275590551,
          "duration": 0.09999999999999432
        },
        {
          "name": "C4",
          "midi": 60,
          "time": 99.99999999999999,
          "velocity": 0.7637795275590551,
          "duration": 0.09999999999999432
        },
        {
          "name": "E4",
          "midi": 64,
          "time": 100.79999999999998,
          "velocity": 0.7637795275590551,
          "duration": 0.09999999999999432
        },
        {
          "name": "F4",
          "midi": 65,
          "time": 101.99999999999997,
          "velocity": 0.7637795275590551,
          "duration": 0.09999999999999432
        },
        {
          "name": "E4",
          "midi": 64,
          "time": 102.39999999999996,
          "velocity": 0.7637795275590551,
          "duration": 0.09999999999999432
        },
        {
          "name": "D4",
          "midi": 62,
          "time": 105.59999999999995,
          "velocity": 0.7637795275590551,
          "duration": 0.7999999999999972
        },
        {
          "name": "E4",
          "midi": 64,
          "time": 107.19999999999995,
          "velocity": 0.7637795275590551,
          "duration": 0.09999999999999432
        },
        {
          "name": "F4",
          "midi": 65,
          "time": 108.79999999999994,
          "velocity": 0.7165354330708661,
          "duration": 0.09999999999999432
        },
        {
          "name": "E4",
          "midi": 64,
          "time": 108.79999999999994,
          "velocity": 0.7637795275590551,
          "duration": 0.09999999999999432
        },
        {
          "name": "F4",
          "midi": 65,
          "time": 108.89999999999993,
          "velocity": 0.7165354330708661,
          "duration": 0.09999999999999432
        },
        {
          "name": "F4",
          "midi": 65,
          "time": 108.99999999999993,
          "velocity": 0.7165354330708661,
          "duration": 0.09999999999999432
        },
        {
          "name": "F4",
          "midi": 65,
          "time": 109.09999999999992,
          "velocity": 0.7165354330708661,
          "duration": 0.09999999999999432
        },
        {
          "name": "E4",
          "midi": 64,
          "time": 109.59999999999992,
          "velocity": 0.7637795275590551,
          "duration": 0.09999999999999432
        },
        {
          "name": "E4",
          "midi": 64,
          "time": 111.19999999999992,
          "velocity": 0.7637795275590551,
          "duration": 0.09999999999999432
        },
        {
          "name": "E4",
          "midi": 64,
          "time": 111.99999999999991,
          "velocity": 0.7637795275590551,
          "duration": 0.09999999999999432
        },
        {
          "name": "F4",
          "midi": 65,
          "time": 113.29999999999991,
          "velocity": 0.7165354330708661,
          "duration": 0.09999999999999432
        },
        {
          "name": "E4",
          "midi": 64,
          "time": 113.59999999999991,
          "velocity": 0.7637795275590551,
          "duration": 0.09999999999999432
        },
        {
          "name": "C4",
          "midi": 60,
          "time": 114.3999999999999,
          "velocity": 0.7637795275590551,
          "duration": 0.09999999999999432
        },
        {
          "name": "E4",
          "midi": 64,
          "time": 115.1999999999999,
          "velocity": 0.7637795275590551,
          "duration": 0.09999999999999432
        },
        {
          "name": "D4",
          "midi": 62,
          "time": 117.5999999999999,
          "velocity": 0.7637795275590551,
          "duration": 4
        },
        {
          "name": "D4",
          "midi": 62,
          "time": 125.5999999999999,
          "velocity": 0.7637795275590551,
          "duration": 1.5999999999999943
        },
        {
          "name": "D4",
          "midi": 62,
          "time": 128.7999999999999,
          "velocity": 0.7559055118110236,
          "duration": 3.1999999999999886
        },
        {
          "name": "E4",
          "midi": 64,
          "time": 133.59999999999988,
          "velocity": 0.7559055118110236,
          "duration": 0.09999999999999432
        },
        {
          "name": "E4",
          "midi": 64,
          "time": 134.39999999999986,
          "velocity": 0.7559055118110236,
          "duration": 0.09999999999999432
        },
        {
          "name": "D4",
          "midi": 62,
          "time": 135.99999999999986,
          "velocity": 0.7559055118110236,
          "duration": 4
        }
      ],
      "controlChanges": {
        "6": [
          {
            "number": 6,
            "time": 0,
            "value": 0.09448818897637795
          },
          {
            "number": 6,
            "time": 0,
            "value": 0.09448818897637795
          },
          {
            "number": 6,
            "time": 0,
            "value": 0.09448818897637795
          },
          {
            "number": 6,
            "time": 147.99999999999986,
            "value": 0.09448818897637795
          },
          {
            "number": 6,
            "time": 147.99999999999986,
            "value": 0.09448818897637795
          }
        ],
        "7": [
          {
            "number": 7,
            "time": 0,
            "value": 0.7874015748031497
          },
          {
            "number": 7,
            "time": 0,
            "value": 0.7874015748031497
          },
          {
            "number": 7,
            "time": 0,
            "value": 0.7874015748031497
          },
          {
            "number": 7,
            "time": 0,
            "value": 0.7874015748031497
          },
          {
            "number": 7,
            "time": 147.99999999999986,
            "value": 0.7874015748031497
          },
          {
            "number": 7,
            "time": 147.99999999999986,
            "value": 0.7874015748031497
          }
        ],
        "10": [
          {
            "number": 10,
            "time": 0,
            "value": 0.5039370078740157
          },
          {
            "number": 10,
            "time": 0,
            "value": 0.5039370078740157
          },
          {
            "number": 10,
            "time": 0,
            "value": 0.5039370078740157
          },
          {
            "number": 10,
            "time": 0,
            "value": 0.5039370078740157
          },
          {
            "number": 10,
            "time": 147.99999999999986,
            "value": 0.5039370078740157
          },
          {
            "number": 10,
            "time": 147.99999999999986,
            "value": 0.5039370078740157
          }
        ],
        "100": [
          {
            "number": 100,
            "time": 0,
            "value": 0
          },
          {
            "number": 100,
            "time": 0,
            "value": 0
          },
          {
            "number": 100,
            "time": 0,
            "value": 0
          },
          {
            "number": 100,
            "time": 147.99999999999986,
            "value": 0
          },
          {
            "number": 100,
            "time": 147.99999999999986,
            "value": 0
          }
        ],
        "101": [
          {
            "number": 101,
            "time": 0,
            "value": 0
          },
          {
            "number": 101,
            "time": 0,
            "value": 0
          },
          {
            "number": 101,
            "time": 0,
            "value": 0
          },
          {
            "number": 101,
            "time": 147.99999999999986,
            "value": 0
          },
          {
            "number": 101,
            "time": 147.99999999999986,
            "value": 0
          }
        ]
      },
      "id": 3,
      "name": "S easy ",
      "channelNumber": 0,
      "isPercussion": false
    },
    {
      "startTime": 2.6,
      "duration": 135.99999999999983,
      "length": 78,
      "notes": [
        {
          "name": "C4",
          "midi": 60,
          "time": 2.6,
          "velocity": 0.7244094488188977,
          "duration": 0.20000000000000018
        },
        {
          "name": "C4",
          "midi": 60,
          "time": 4.4,
          "velocity": 0.7086614173228346,
          "duration": 0.20000000000000018
        },
        {
          "name": "C4",
          "midi": 60,
          "time": 6.200000000000001,
          "velocity": 0.7559055118110236,
          "duration": 0.20000000000000018
        },
        {
          "name": "C4",
          "midi": 60,
          "time": 7.400000000000001,
          "velocity": 0.6929133858267716,
          "duration": 0.20000000000000018
        },
        {
          "name": "E4",
          "midi": 64,
          "time": 8.000000000000002,
          "velocity": 0.7007874015748031,
          "duration": 0.09999999999999964
        },
        {
          "name": "E4",
          "midi": 64,
          "time": 9.600000000000001,
          "velocity": 0.7007874015748031,
          "duration": 0.09999999999999964
        },
        {
          "name": "F4",
          "midi": 65,
          "time": 10.000000000000002,
          "velocity": 0.7559055118110236,
          "duration": 0.40000000000000036
        },
        {
          "name": "C4",
          "midi": 60,
          "time": 11.000000000000002,
          "velocity": 0.7244094488188977,
          "duration": 0.09999999999999964
        },
        {
          "name": "E4",
          "midi": 64,
          "time": 11.200000000000001,
          "velocity": 0.7007874015748031,
          "duration": 0.09999999999999964
        },
        {
          "name": "C4",
          "midi": 60,
          "time": 14.600000000000001,
          "velocity": 0.7007874015748031,
          "duration": 0.09999999999999964
        },
        {
          "name": "C4",
          "midi": 60,
          "time": 15.000000000000002,
          "velocity": 0.7007874015748031,
          "duration": 0.09999999999999964
        },
        {
          "name": "C4",
          "midi": 60,
          "time": 15.200000000000001,
          "velocity": 0.7007874015748031,
          "duration": 0.09999999999999964
        },
        {
          "name": "C4",
          "midi": 60,
          "time": 15.8,
          "velocity": 0.7007874015748031,
          "duration": 0.09999999999999964
        },
        {
          "name": "E4",
          "midi": 64,
          "time": 16,
          "velocity": 0.7007874015748031,
          "duration": 0.10000000000000142
        },
        {
          "name": "E4",
          "midi": 64,
          "time": 20.8,
          "velocity": 0.7007874015748031,
          "duration": 0.10000000000000142
        },
        {
          "name": "E4",
          "midi": 64,
          "time": 21.6,
          "velocity": 0.7007874015748031,
          "duration": 0.10000000000000142
        },
        {
          "name": "F4",
          "midi": 65,
          "time": 23.200000000000003,
          "velocity": 0.7874015748031497,
          "duration": 0.1999999999999993
        },
        {
          "name": "E4",
          "midi": 64,
          "time": 24.8,
          "velocity": 0.7007874015748031,
          "duration": 0.10000000000000142
        },
        {
          "name": "C4",
          "midi": 60,
          "time": 25.6,
          "velocity": 0.7007874015748031,
          "duration": 0.10000000000000142
        },
        {
          "name": "E4",
          "midi": 64,
          "time": 28.000000000000004,
          "velocity": 0.7007874015748031,
          "duration": 0.10000000000000142
        },
        {
          "name": "E4",
          "midi": 64,
          "time": 29.600000000000005,
          "velocity": 0.7007874015748031,
          "duration": 0.10000000000000142
        },
        {
          "name": "E4",
          "midi": 64,
          "time": 31.200000000000006,
          "velocity": 0.7007874015748031,
          "duration": 0.10000000000000142
        },
        {
          "name": "E4",
          "midi": 64,
          "time": 31.40000000000001,
          "velocity": 0.7007874015748031,
          "duration": 0.10000000000000142
        },
        {
          "name": "D4",
          "midi": 62,
          "time": 33.60000000000001,
          "velocity": 0.7007874015748031,
          "duration": 0.7999999999999972
        },
        {
          "name": "E4",
          "midi": 64,
          "time": 36.800000000000004,
          "velocity": 0.7007874015748031,
          "duration": 0.10000000000000142
        },
        {
          "name": "E4",
          "midi": 64,
          "time": 37.2,
          "velocity": 0.7007874015748031,
          "duration": 0.10000000000000142
        },
        {
          "name": "E4",
          "midi": 64,
          "time": 37.6,
          "velocity": 0.7007874015748031,
          "duration": 0.10000000000000142
        },
        {
          "name": "E4",
          "midi": 64,
          "time": 38,
          "velocity": 0.7007874015748031,
          "duration": 0.10000000000000142
        },
        {
          "name": "F4",
          "midi": 65,
          "time": 38.4,
          "velocity": 0.7559055118110236,
          "duration": 0.20000000000000284
        },
        {
          "name": "E4",
          "midi": 64,
          "time": 39.2,
          "velocity": 0.7007874015748031,
          "duration": 0.10000000000000142
        },
        {
          "name": "E4",
          "midi": 64,
          "time": 40.800000000000004,
          "velocity": 0.7007874015748031,
          "duration": 0.10000000000000142
        },
        {
          "name": "C4",
          "midi": 60,
          "time": 42.400000000000006,
          "velocity": 0.7007874015748031,
          "duration": 0.10000000000000142
        },
        {
          "name": "C4",
          "midi": 60,
          "time": 42.60000000000001,
          "velocity": 0.7007874015748031,
          "duration": 0.10000000000000142
        },
        {
          "name": "E4",
          "midi": 64,
          "time": 44.00000000000001,
          "velocity": 0.7007874015748031,
          "duration": 0.10000000000000142
        },
        {
          "name": "D4",
          "midi": 62,
          "time": 45.60000000000001,
          "velocity": 0.7007874015748031,
          "duration": 0.7999999999999972
        },
        {
          "name": "C4",
          "midi": 60,
          "time": 49.60000000000001,
          "velocity": 0.7637795275590551,
          "duration": 0.10000000000000142
        },
        {
          "name": "C4",
          "midi": 60,
          "time": 51.20000000000001,
          "velocity": 0.7637795275590551,
          "duration": 0.10000000000000142
        },
        {
          "name": "F4",
          "midi": 65,
          "time": 52.000000000000014,
          "velocity": 0.7637795275590551,
          "duration": 0.10000000000000142
        },
        {
          "name": "E4",
          "midi": 64,
          "time": 52.80000000000002,
          "velocity": 0.7637795275590551,
          "duration": 0.10000000000000142
        },
        {
          "name": "C4",
          "midi": 60,
          "time": 56.00000000000002,
          "velocity": 0.7637795275590551,
          "duration": 0.10000000000000142
        },
        {
          "name": "E4",
          "midi": 64,
          "time": 59.200000000000024,
          "velocity": 0.7637795275590551,
          "duration": 0.10000000000000142
        },
        {
          "name": "C4",
          "midi": 60,
          "time": 62.40000000000003,
          "velocity": 0.7637795275590551,
          "duration": 0.10000000000000142
        },
        {
          "name": "C4",
          "midi": 60,
          "time": 64.00000000000003,
          "velocity": 0.7637795275590551,
          "duration": 0.09999999999999432
        },
        {
          "name": "D4",
          "midi": 62,
          "time": 65.60000000000002,
          "velocity": 0.7637795275590551,
          "duration": 4.799999999999997
        },
        {
          "name": "D4",
          "midi": 62,
          "time": 74.40000000000002,
          "velocity": 0.7637795275590551,
          "duration": 2.4000000000000057
        },
        {
          "name": "C4",
          "midi": 60,
          "time": 81.60000000000002,
          "velocity": 0.7637795275590551,
          "duration": 0.09999999999999432
        },
        {
          "name": "C4",
          "midi": 60,
          "time": 82.00000000000001,
          "velocity": 0.7637795275590551,
          "duration": 0.09999999999999432
        },
        {
          "name": "C4",
          "midi": 60,
          "time": 82.4,
          "velocity": 0.7637795275590551,
          "duration": 0.09999999999999432
        },
        {
          "name": "C4",
          "midi": 60,
          "time": 82.8,
          "velocity": 0.7637795275590551,
          "duration": 0.09999999999999432
        },
        {
          "name": "F4",
          "midi": 65,
          "time": 83.99999999999999,
          "velocity": 0.7165354330708661,
          "duration": 0.09999999999999432
        },
        {
          "name": "D4",
          "midi": 62,
          "time": 83.99999999999999,
          "velocity": 0.7637795275590551,
          "duration": 0.7999999999999972
        },
        {
          "name": "F4",
          "midi": 65,
          "time": 84.79999999999998,
          "velocity": 0.7165354330708661,
          "duration": 0.09999999999999432
        },
        {
          "name": "D4",
          "midi": 62,
          "time": 87.99999999999997,
          "velocity": 0.7637795275590551,
          "duration": 3.200000000000003
        },
        {
          "name": "D4",
          "midi": 62,
          "time": 91.79999999999997,
          "velocity": 0.7637795275590551,
          "duration": 4.200000000000003
        },
        {
          "name": "E4",
          "midi": 64,
          "time": 97.59999999999997,
          "velocity": 0.7637795275590551,
          "duration": 0.09999999999999432
        },
        {
          "name": "E4",
          "midi": 64,
          "time": 98.39999999999996,
          "velocity": 0.7637795275590551,
          "duration": 0.09999999999999432
        },
        {
          "name": "E4",
          "midi": 64,
          "time": 99.19999999999996,
          "velocity": 0.7637795275590551,
          "duration": 0.09999999999999432
        },
        {
          "name": "E4",
          "midi": 64,
          "time": 100.79999999999995,
          "velocity": 0.7637795275590551,
          "duration": 0.09999999999999432
        },
        {
          "name": "F4",
          "midi": 65,
          "time": 101.99999999999994,
          "velocity": 0.7637795275590551,
          "duration": 0.09999999999999432
        },
        {
          "name": "E4",
          "midi": 64,
          "time": 102.39999999999993,
          "velocity": 0.7637795275590551,
          "duration": 0.09999999999999432
        },
        {
          "name": "D4",
          "midi": 62,
          "time": 103.19999999999993,
          "velocity": 0.7637795275590551,
          "duration": 0.7999999999999972
        },
        {
          "name": "D4",
          "midi": 62,
          "time": 104.79999999999993,
          "velocity": 0.7637795275590551,
          "duration": 0.7999999999999972
        },
        {
          "name": "E4",
          "midi": 64,
          "time": 107.19999999999992,
          "velocity": 0.7637795275590551,
          "duration": 0.09999999999999432
        },
        {
          "name": "F4",
          "midi": 65,
          "time": 108.79999999999991,
          "velocity": 0.7165354330708661,
          "duration": 0.09999999999999432
        },
        {
          "name": "E4",
          "midi": 64,
          "time": 108.79999999999991,
          "velocity": 0.7637795275590551,
          "duration": 0.09999999999999432
        },
        {
          "name": "F4",
          "midi": 65,
          "time": 108.8999999999999,
          "velocity": 0.7165354330708661,
          "duration": 0.09999999999999432
        },
        {
          "name": "F4",
          "midi": 65,
          "time": 108.9999999999999,
          "velocity": 0.7165354330708661,
          "duration": 0.09999999999999432
        },
        {
          "name": "F4",
          "midi": 65,
          "time": 109.0999999999999,
          "velocity": 0.7165354330708661,
          "duration": 0.09999999999999432
        },
        {
          "name": "E4",
          "midi": 64,
          "time": 110.39999999999989,
          "velocity": 0.7637795275590551,
          "duration": 0.09999999999999432
        },
        {
          "name": "E4",
          "midi": 64,
          "time": 111.19999999999989,
          "velocity": 0.7637795275590551,
          "duration": 0.09999999999999432
        },
        {
          "name": "C4",
          "midi": 60,
          "time": 112.39999999999988,
          "velocity": 0.7637795275590551,
          "duration": 0.09999999999999432
        },
        {
          "name": "C4",
          "midi": 60,
          "time": 112.79999999999987,
          "velocity": 0.7637795275590551,
          "duration": 0.09999999999999432
        },
        {
          "name": "E4",
          "midi": 64,
          "time": 113.59999999999987,
          "velocity": 0.7637795275590551,
          "duration": 0.09999999999999432
        },
        {
          "name": "E4",
          "midi": 64,
          "time": 115.19999999999986,
          "velocity": 0.7637795275590551,
          "duration": 0.09999999999999432
        },
        {
          "name": "D4",
          "midi": 62,
          "time": 119.19999999999986,
          "velocity": 0.7637795275590551,
          "duration": 1.5999999999999943
        },
        {
          "name": "D4",
          "midi": 62,
          "time": 121.59999999999985,
          "velocity": 0.7637795275590551,
          "duration": 0.7999999999999972
        },
        {
          "name": "D4",
          "midi": 62,
          "time": 127.19999999999985,
          "velocity": 0.7637795275590551,
          "duration": 1.5999999999999943
        },
        {
          "name": "D4",
          "midi": 62,
          "time": 131.99999999999983,
          "velocity": 0.7559055118110236,
          "duration": 4
        }
      ],
      "controlChanges": {
        "6": [
          {
            "number": 6,
            "time": 0,
            "value": 0.09448818897637795
          },
          {
            "number": 6,
            "time": 0,
            "value": 0.09448818897637795
          },
          {
            "number": 6,
            "time": 0,
            "value": 0.09448818897637795
          },
          {
            "number": 6,
            "time": 147.99999999999983,
            "value": 0.09448818897637795
          },
          {
            "number": 6,
            "time": 147.99999999999983,
            "value": 0.09448818897637795
          }
        ],
        "7": [
          {
            "number": 7,
            "time": 0,
            "value": 0.7874015748031497
          },
          {
            "number": 7,
            "time": 0,
            "value": 0.7874015748031497
          },
          {
            "number": 7,
            "time": 0,
            "value": 0.7874015748031497
          },
          {
            "number": 7,
            "time": 0,
            "value": 0.7874015748031497
          },
          {
            "number": 7,
            "time": 147.99999999999983,
            "value": 0.7874015748031497
          },
          {
            "number": 7,
            "time": 147.99999999999983,
            "value": 0.7874015748031497
          }
        ],
        "10": [
          {
            "number": 10,
            "time": 0,
            "value": 0.5039370078740157
          },
          {
            "number": 10,
            "time": 0,
            "value": 0.5039370078740157
          },
          {
            "number": 10,
            "time": 0,
            "value": 0.5039370078740157
          },
          {
            "number": 10,
            "time": 0,
            "value": 0.5039370078740157
          },
          {
            "number": 10,
            "time": 147.99999999999983,
            "value": 0.5039370078740157
          },
          {
            "number": 10,
            "time": 147.99999999999983,
            "value": 0.5039370078740157
          }
        ],
        "100": [
          {
            "number": 100,
            "time": 0,
            "value": 0
          },
          {
            "number": 100,
            "time": 0,
            "value": 0
          },
          {
            "number": 100,
            "time": 0,
            "value": 0
          },
          {
            "number": 100,
            "time": 147.99999999999983,
            "value": 0
          },
          {
            "number": 100,
            "time": 147.99999999999983,
            "value": 0
          }
        ],
        "101": [
          {
            "number": 101,
            "time": 0,
            "value": 0
          },
          {
            "number": 101,
            "time": 0,
            "value": 0
          },
          {
            "number": 101,
            "time": 0,
            "value": 0
          },
          {
            "number": 101,
            "time": 147.99999999999983,
            "value": 0
          },
          {
            "number": 101,
            "time": 147.99999999999983,
            "value": 0
          }
        ]
      },
      "id": 4,
      "name": "D easy",
      "channelNumber": 0,
      "isPercussion": false
    },
    {
      "startTime": 0,
      "duration": 0,
      "length": 0,
      "notes": [],
      "controlChanges": {
        "6": [
          {
            "number": 6,
            "time": 0,
            "value": 0.09448818897637795
          },
          {
            "number": 6,
            "time": 0,
            "value": 0.09448818897637795
          },
          {
            "number": 6,
            "time": 0,
            "value": 0.09448818897637795
          },
          {
            "number": 6,
            "time": 148,
            "value": 0.09448818897637795
          },
          {
            "number": 6,
            "time": 148,
            "value": 0.09448818897637795
          }
        ],
        "7": [
          {
            "number": 7,
            "time": 0,
            "value": 0.7874015748031497
          },
          {
            "number": 7,
            "time": 0,
            "value": 0.7874015748031497
          },
          {
            "number": 7,
            "time": 0,
            "value": 0.7874015748031497
          },
          {
            "number": 7,
            "time": 0,
            "value": 0.7874015748031497
          },
          {
            "number": 7,
            "time": 148,
            "value": 0.7874015748031497
          },
          {
            "number": 7,
            "time": 148,
            "value": 0.7874015748031497
          }
        ],
        "10": [
          {
            "number": 10,
            "time": 0,
            "value": 0.5039370078740157
          },
          {
            "number": 10,
            "time": 0,
            "value": 0.5039370078740157
          },
          {
            "number": 10,
            "time": 0,
            "value": 0.5039370078740157
          },
          {
            "number": 10,
            "time": 0,
            "value": 0.5039370078740157
          },
          {
            "number": 10,
            "time": 148,
            "value": 0.5039370078740157
          },
          {
            "number": 10,
            "time": 148,
            "value": 0.5039370078740157
          }
        ],
        "100": [
          {
            "number": 100,
            "time": 0,
            "value": 0
          },
          {
            "number": 100,
            "time": 0,
            "value": 0
          },
          {
            "number": 100,
            "time": 0,
            "value": 0
          },
          {
            "number": 100,
            "time": 148,
            "value": 0
          },
          {
            "number": 100,
            "time": 148,
            "value": 0
          }
        ],
        "101": [
          {
            "number": 101,
            "time": 0,
            "value": 0
          },
          {
            "number": 101,
            "time": 0,
            "value": 0
          },
          {
            "number": 101,
            "time": 0,
            "value": 0
          },
          {
            "number": 101,
            "time": 148,
            "value": 0
          },
          {
            "number": 101,
            "time": 148,
            "value": 0
          }
        ]
      },
      "id": 5,
      "name": "A hard"
    },
    {
      "startTime": 0,
      "duration": 0,
      "length": 0,
      "notes": [],
      "controlChanges": {
        "6": [
          {
            "number": 6,
            "time": 0,
            "value": 0.09448818897637795
          },
          {
            "number": 6,
            "time": 0,
            "value": 0.09448818897637795
          },
          {
            "number": 6,
            "time": 0,
            "value": 0.09448818897637795
          },
          {
            "number": 6,
            "time": 148,
            "value": 0.09448818897637795
          },
          {
            "number": 6,
            "time": 148,
            "value": 0.09448818897637795
          }
        ],
        "7": [
          {
            "number": 7,
            "time": 0,
            "value": 0.7874015748031497
          },
          {
            "number": 7,
            "time": 0,
            "value": 0.7874015748031497
          },
          {
            "number": 7,
            "time": 0,
            "value": 0.7874015748031497
          },
          {
            "number": 7,
            "time": 0,
            "value": 0.7874015748031497
          },
          {
            "number": 7,
            "time": 148,
            "value": 0.7874015748031497
          },
          {
            "number": 7,
            "time": 148,
            "value": 0.7874015748031497
          }
        ],
        "10": [
          {
            "number": 10,
            "time": 0,
            "value": 0.5039370078740157
          },
          {
            "number": 10,
            "time": 0,
            "value": 0.5039370078740157
          },
          {
            "number": 10,
            "time": 0,
            "value": 0.5039370078740157
          },
          {
            "number": 10,
            "time": 0,
            "value": 0.5039370078740157
          },
          {
            "number": 10,
            "time": 148,
            "value": 0.5039370078740157
          },
          {
            "number": 10,
            "time": 148,
            "value": 0.5039370078740157
          }
        ],
        "100": [
          {
            "number": 100,
            "time": 0,
            "value": 0
          },
          {
            "number": 100,
            "time": 0,
            "value": 0
          },
          {
            "number": 100,
            "time": 0,
            "value": 0
          },
          {
            "number": 100,
            "time": 148,
            "value": 0
          },
          {
            "number": 100,
            "time": 148,
            "value": 0
          }
        ],
        "101": [
          {
            "number": 101,
            "time": 0,
            "value": 0
          },
          {
            "number": 101,
            "time": 0,
            "value": 0
          },
          {
            "number": 101,
            "time": 0,
            "value": 0
          },
          {
            "number": 101,
            "time": 148,
            "value": 0
          },
          {
            "number": 101,
            "time": 148,
            "value": 0
          }
        ]
      },
      "id": 6,
      "name": "S hard"
    },
    {
      "startTime": 0,
      "duration": 0,
      "length": 0,
      "notes": [],
      "controlChanges": {
        "6": [
          {
            "number": 6,
            "time": 0,
            "value": 0.09448818897637795
          },
          {
            "number": 6,
            "time": 0,
            "value": 0.09448818897637795
          },
          {
            "number": 6,
            "time": 0,
            "value": 0.09448818897637795
          },
          {
            "number": 6,
            "time": 148,
            "value": 0.09448818897637795
          },
          {
            "number": 6,
            "time": 148,
            "value": 0.09448818897637795
          }
        ],
        "7": [
          {
            "number": 7,
            "time": 0,
            "value": 0.7874015748031497
          },
          {
            "number": 7,
            "time": 0,
            "value": 0.7874015748031497
          },
          {
            "number": 7,
            "time": 0,
            "value": 0.7874015748031497
          },
          {
            "number": 7,
            "time": 0,
            "value": 0.7874015748031497
          },
          {
            "number": 7,
            "time": 148,
            "value": 0.7874015748031497
          },
          {
            "number": 7,
            "time": 148,
            "value": 0.7874015748031497
          }
        ],
        "10": [
          {
            "number": 10,
            "time": 0,
            "value": 0.5039370078740157
          },
          {
            "number": 10,
            "time": 0,
            "value": 0.5039370078740157
          },
          {
            "number": 10,
            "time": 0,
            "value": 0.5039370078740157
          },
          {
            "number": 10,
            "time": 0,
            "value": 0.5039370078740157
          },
          {
            "number": 10,
            "time": 148,
            "value": 0.5039370078740157
          },
          {
            "number": 10,
            "time": 148,
            "value": 0.5039370078740157
          }
        ],
        "100": [
          {
            "number": 100,
            "time": 0,
            "value": 0
          },
          {
            "number": 100,
            "time": 0,
            "value": 0
          },
          {
            "number": 100,
            "time": 0,
            "value": 0
          },
          {
            "number": 100,
            "time": 148,
            "value": 0
          },
          {
            "number": 100,
            "time": 148,
            "value": 0
          }
        ],
        "101": [
          {
            "number": 101,
            "time": 0,
            "value": 0
          },
          {
            "number": 101,
            "time": 0,
            "value": 0
          },
          {
            "number": 101,
            "time": 0,
            "value": 0
          },
          {
            "number": 101,
            "time": 148,
            "value": 0
          },
          {
            "number": 101,
            "time": 148,
            "value": 0
          }
        ]
      },
      "id": 7,
      "name": "D hard"
    },
    {
      "startTime": 0,
      "duration": 0,
      "length": 0,
      "notes": [],
      "controlChanges": {},
      "id": 8,
      "name": "LABS"
    }
  ]
}